<?xml version="1.0" encoding="utf-8"?>
<svg width="1024px" height="1024px" viewBox="0 0 1024 1024" xmlns="http://www.w3.org/2000/svg">
  <path d="M 1024 512 C 1024 794.77 794.77 1024 512 1024 C 229.23 1024 0 794.77 0 512 C 0 229.23 229.23 0 512 0 C 794.77 0 1024 229.23 1024 512 Z M 699.211 328.286 C 693.823 334.315 690.744 341.883 688.436 349.578 C 683.69 365.87 680.611 382.544 677.917 399.348 C 675.736 412.688 673.427 426.156 671.375 439.625 C 668.811 457.71 666.886 475.926 664.065 493.884 C 662.269 505.685 656.881 516.587 651.495 527.105 C 647.774 534.674 644.054 542.241 639.821 549.424 C 638.026 552.503 635.589 555.581 632.124 556.737 C 629.56 557.633 626.353 557.121 624.429 554.941 C 621.735 551.862 621.222 547.501 620.71 543.524 C 618.914 528.388 622.12 513.381 624.942 498.629 C 628.276 480.672 631.484 462.585 634.819 444.627 C 637.256 431.543 639.437 418.332 642.13 405.248 C 645.208 390.369 648.8 375.489 649.826 360.353 C 650.596 350.734 651.621 340.599 647.902 331.492 C 645.85 326.876 642.516 322.001 637.384 320.462 C 633.408 319.307 628.662 319.179 624.942 321.359 C 621.094 323.411 618.144 326.747 615.706 330.21 C 609.935 337.907 606.599 347.142 604.033 356.248 C 599.031 374.335 595.183 392.806 593.001 411.534 C 591.976 418.973 591.335 426.542 590.693 434.109 C 590.309 438.983 589.796 443.73 589.796 448.605 C 589.796 451.297 589.026 454.248 586.845 455.915 C 584.408 457.71 581.073 457.583 578.122 457.454 C 568.631 456.941 559.138 459.506 551.186 464.509 C 544.003 468.871 537.975 474.899 533.357 481.826 C 527.584 490.035 524.378 499.528 520.914 508.891 C 517.322 518.383 513.731 528.132 507.831 536.597 C 503.597 542.754 498.98 548.654 493.721 553.914 C 488.205 559.302 481.535 564.304 473.71 565.971 C 466.912 567.511 459.985 564.176 455.368 559.429 C 451.392 554.812 449.467 548.783 448.826 542.883 C 448.57 540.702 448.441 538.136 450.109 536.47 C 452.032 534.545 454.983 534.674 457.549 534.417 C 475.121 533.006 491.412 521.847 499.365 506.198 C 505.136 494.781 507.446 481.57 505.522 468.998 C 504.366 461.559 501.545 454.248 496.286 448.86 C 490 442.447 481.278 438.983 472.428 438.856 C 456.522 438.47 441.129 446.551 431.638 459.123 C 425.225 467.459 421.12 477.336 418.426 487.471 C 415.86 497.347 414.064 507.48 410.601 517.1 C 407.779 525.053 403.803 532.75 397.773 538.779 C 394.824 541.601 390.976 543.91 386.742 543.524 C 384.306 543.396 382.254 541.344 381.74 539.035 C 380.842 535.827 381.355 532.493 381.868 529.286 C 383.664 519.538 386.998 510.174 389.693 500.682 C 391.232 495.808 390.72 490.292 389.18 485.419 C 386.871 478.106 380.714 472.59 373.787 469.897 C 367.887 467.845 361.473 468.998 355.317 468.485 C 352.622 468.357 349.929 466.689 349.031 463.996 C 348.133 460.789 349.16 457.583 350.057 454.505 C 351.469 449.758 349.416 444.37 345.439 441.549 C 341.848 438.856 337.102 438.086 332.869 438.856 C 328.379 439.753 324.532 442.703 321.454 445.91 C 316.579 451.426 313.756 458.994 314.655 466.433 C 315.937 471.821 317.092 477.465 315.809 482.981 C 313.885 491.319 308.754 498.502 303.88 505.299 C 299.006 512.611 294.002 519.795 288.231 526.336 C 277.456 539.035 263.859 549.81 248.21 555.838 C 236.538 560.328 223.454 561.995 211.011 559.558 C 202.288 557.89 194.079 554.042 187.281 548.399 C 182.022 544.038 177.79 538.522 174.582 532.365 C 169.452 522.616 166.886 511.841 165.603 501.067 C 161.755 467.973 168.297 433.852 183.177 404.094 C 188.308 393.705 194.721 383.699 203.315 375.746 C 211.267 368.434 221.402 363.304 232.176 361.892 C 241.283 360.61 251.417 362.277 258.599 368.434 C 263.731 372.667 265.912 379.466 265.655 386.008 C 265.398 397.68 259.113 408.07 257.83 419.486 C 257.189 424.361 257.83 429.363 259.883 433.724 C 261.678 437.829 265.014 441.421 269.375 442.703 C 274.121 444.115 279.38 442.831 283.356 440.138 C 287.974 437.06 291.18 432.313 293.233 427.311 C 295.414 422.052 296.568 416.28 297.979 410.764 C 302.468 392.678 309.524 375.232 318.888 359.071 C 321.709 354.325 324.659 349.578 326.455 344.32 C 327.611 340.599 328.123 336.624 327.225 332.776 C 325.815 327.003 321.325 322.001 315.552 320.333 C 309.395 318.537 302.34 320.462 297.979 325.207 C 294.516 329.056 292.592 334.186 288.488 337.394 C 285.793 339.446 282.074 339.83 278.866 338.804 C 274.249 337.394 270.401 334.571 266.039 332.647 C 251.546 325.977 234.87 325.079 219.35 328.542 C 203.058 332.134 188.308 340.985 176.121 352.401 C 164.963 362.791 156.112 375.361 148.672 388.701 C 139.308 405.762 132.382 424.104 128.533 443.217 C 126.352 453.735 125.327 464.509 125.07 475.284 L 125.07 485.29 C 125.712 499.912 126.994 514.535 130.713 528.774 C 133.408 538.779 137.127 548.528 142.001 557.633 C 148.287 569.435 157.137 580.082 168.169 587.777 C 174.582 592.267 181.894 595.346 189.333 597.526 C 201.905 601.246 215.372 602.273 228.328 600.477 C 246.158 598.04 262.961 590.472 277.584 580.082 C 290.411 570.718 302.34 560.071 312.346 547.758 C 322.736 535.059 331.202 520.82 337.486 505.685 C 338.513 503.503 339.411 501.323 341.206 499.656 C 343.003 497.989 345.695 496.577 348.261 497.603 C 350.57 498.629 353.008 500.041 354.161 502.35 C 355.573 505.299 355.317 508.763 354.547 511.969 C 353.136 518.255 350.827 524.156 349.031 530.313 C 346.209 539.676 344.156 549.681 345.568 559.558 C 346.722 567.126 349.673 574.694 355.188 580.082 C 360.319 585.085 367.501 587.777 374.685 587.777 C 384.049 587.777 393.028 584.315 400.724 579.312 C 405.727 576.106 410.217 571.873 413.68 566.998 C 414.834 565.459 416.63 563.919 418.682 564.432 C 420.991 564.946 422.146 567.255 423.044 569.307 C 426.25 577.132 431.766 583.802 438.693 588.547 C 446.902 594.32 457.035 597.399 467.168 597.27 C 476.789 597.526 486.153 594.576 494.618 590.086 C 502.956 585.597 509.883 579.055 516.81 572.642 C 517.708 571.745 518.862 570.718 520.273 571.231 C 522.069 571.745 522.967 573.668 523.608 575.336 C 528.226 587.137 539.641 595.86 552.212 597.142 C 562.602 598.169 573.378 594.447 580.817 587.008 C 583.51 584.315 585.434 580.852 588.769 578.927 C 590.949 577.516 594.157 577.259 596.209 579.055 C 598.903 581.364 599.544 585.085 601.212 588.034 C 604.803 594.704 612.372 598.809 619.94 598.938 C 627.123 599.065 634.05 596.244 639.821 592.139 C 648.8 585.725 655.214 576.49 662.013 567.896 C 663.423 566.099 665.347 564.047 667.913 564.432 C 670.222 564.689 670.863 567.255 671.632 569.05 C 677.405 581.877 691.642 589.703 705.497 588.804 C 717.425 588.163 728.456 582.263 737.179 574.438 C 740.514 571.616 743.208 567.896 747.312 566.099 C 749.621 565.074 752.443 565.074 754.367 566.869 C 757.189 569.564 758.087 573.411 760.011 576.619 C 763.988 584.315 773.35 588.676 781.945 587.008 C 790.539 585.342 797.98 579.44 801.955 571.745 C 803.239 569.692 804.393 567.255 806.702 566.228 C 808.626 566.356 809.011 568.665 809.268 570.205 C 810.678 582.006 808.369 593.679 806.83 605.222 C 806.445 607.66 805.676 610.61 803.239 611.764 C 799.775 613.561 795.799 612.278 792.207 612.021 C 785.665 611.508 779.124 610.867 772.581 610.353 C 762.063 609.456 751.418 609.456 741.026 610.61 C 731.92 611.764 722.685 614.073 714.603 618.948 C 706.137 623.95 698.954 631.133 694.208 639.727 C 690.103 647.295 687.923 656.018 688.692 664.612 C 689.462 674.105 693.951 682.956 700.622 689.626 C 707.933 697.065 717.938 701.811 728.2 703.735 C 738.205 705.531 748.595 704.633 758.471 702.453 C 776.558 698.219 793.618 689.24 806.83 676.157 C 818.759 664.484 827.609 649.476 831.587 633.185 C 831.715 632.288 832.74 632.159 833.383 631.903 C 844.157 628.055 854.419 622.41 863.141 614.971 C 875.326 604.839 885.075 592.011 892.13 577.902 C 894.696 572.77 898.159 567.768 898.929 561.867 L 898.929 558.403 C 898.544 555.453 897.261 552.503 894.824 550.707 C 891.617 548.142 886.87 547.629 883.151 549.424 C 880.714 550.194 879.175 552.375 877.891 554.556 C 874.813 559.429 872.505 564.689 869.298 569.564 C 862.371 580.338 853.264 589.574 844.028 598.425 C 842.745 599.707 840.436 598.552 840.565 596.629 C 842.105 578.927 844.157 561.226 846.466 543.524 C 849.672 515.177 853.649 486.829 857.241 458.48 C 857.625 453.735 856.984 448.605 853.649 444.883 C 851.212 442.19 847.876 440.138 844.285 440.009 C 840.822 440.009 837.102 441.036 834.665 443.73 C 830.945 447.578 829.021 452.58 827.481 457.583 C 824.66 467.332 822.865 477.336 821.068 487.342 C 818.887 499.142 816.451 511.072 811.32 521.975 C 808.754 527.362 805.548 532.493 801.571 536.983 C 799.006 539.932 795.414 542.37 791.309 542.37 C 787.717 542.37 784.638 539.932 782.843 536.854 C 780.663 533.135 780.277 528.774 780.149 524.668 C 779.508 506.711 782.843 488.881 788.615 471.949 C 790.283 467.203 791.309 462.2 791.565 457.198 C 791.565 453.478 790.924 449.501 788.486 446.423 C 783.485 440.266 773.607 438.342 767.066 442.96 C 762.192 446.296 759.627 451.81 757.574 457.198 C 752.187 471.308 750.648 486.444 748.723 501.323 C 747.312 511.2 744.491 520.82 739.616 529.543 C 736.153 536.084 731.407 541.729 726.404 547.244 C 722.813 550.963 718.837 554.812 713.834 556.351 C 710.115 557.506 706.009 556.351 703.188 553.786 C 700.108 550.963 698.441 546.731 697.671 542.754 C 696.26 535.444 695.747 528.004 696.003 520.564 C 696.26 512.611 696.003 504.53 697.928 496.833 C 699.083 492.216 700.622 487.599 702.161 483.11 C 710.884 457.327 721.529 432.185 729.098 406.018 C 734.998 386.264 739.488 365.741 738.461 345.089 C 738.077 338.29 736.922 331.108 732.561 325.72 C 729.612 322.001 724.865 319.692 720.119 319.307 L 716.271 319.307 C 709.858 319.949 704.085 323.411 699.211 328.286 Z M 474.095 468.871 C 476.789 470.41 478.328 473.617 478.585 476.696 C 478.969 481.313 477.816 485.931 476.147 490.163 C 473.454 496.833 469.606 503.376 463.577 507.608 C 460.883 509.66 457.805 511.586 454.341 511.457 C 452.545 511.457 450.622 510.046 450.493 508.121 C 449.723 501.708 451.648 495.294 453.701 489.138 C 455.624 483.366 458.445 477.978 462.166 473.232 C 463.833 471.18 465.886 469.127 468.451 468.357 C 470.247 467.716 472.428 467.845 474.095 468.871 Z M 587.23 483.622 C 589.41 484.905 590.309 487.471 590.309 489.78 C 590.309 492.729 589.41 495.551 589.282 498.502 C 588.769 507.096 588.769 515.69 589.41 524.284 C 589.796 528.517 590.693 532.878 589.282 536.983 C 586.973 543.653 583.253 549.938 577.482 554.171 C 572.864 557.633 567.22 560.969 561.191 560.071 C 558.882 559.942 556.573 559.046 554.906 557.377 C 552.341 554.941 550.802 551.605 549.903 548.271 C 546.954 537.367 547.21 525.823 549.903 514.92 C 551.698 507.225 555.163 499.912 560.165 493.884 C 564.782 488.24 571.195 484.006 578.379 482.724 C 581.33 482.211 584.536 481.954 587.23 483.622 Z M 772.581 636.649 C 779.124 636.906 785.665 637.546 792.207 637.932 C 793.746 637.932 795.542 637.546 796.954 638.573 C 798.108 639.472 797.338 641.138 796.825 642.164 C 794.9 645.243 793.104 648.45 790.795 651.272 C 779.252 665.51 761.936 674.873 743.721 676.926 C 737.949 677.568 731.792 677.182 726.276 674.746 C 722.299 672.95 718.708 670 716.784 666.023 C 714.859 662.174 715.629 657.557 717.425 653.709 C 720.119 647.552 725.506 642.806 731.792 640.241 C 737.564 637.803 743.721 636.521 749.878 636.136 C 757.446 635.623 765.014 636.264 772.581 636.649 Z" style="fill:#433850"/>
</svg>