<svg width="512" height="512" viewBox="0 0 512 512"
  xmlns="http://www.w3.org/2000/svg">

  <defs>
    <style>
      .bg { fill: #1f2430; }
      .border { fill: none; stroke: #4a5568; stroke-width: 14; }
    </style>

    <mask id="logo-cutout">
      <rect width="100%" height="100%" fill="white"/>
      <g transform="translate(256 256) scale(0.75) translate(-256 -256)">
        <path fill="black" d="
          M256 64
          C150 64 64 150 64 256
          c0 85 55 157 131 183
          10 2 14 -4 14 -9
          v-32
          c-53 12 -64 -26 -64 -26
          -9 -22 -22 -28 -22 -28
          -18 -12 1 -12 1 -12
          20 1 30 21 30 21
          18 30 48 21 60 16
          2 -13 7 -21 13 -26
          -43 -5 -88 -22 -88 -95
          0 -21 7 -38 20 -51
          -2 -5 -9 -24 2 -50
          0 0 16 -5 53 20
          15 -5 31 -7 47 -7
          16 0 32 2 47 7
          37 -25 53 -20 53 -20
          11 26 4 45 2 50
          13 13 20 30 20 51
          0 73 -45 90 -88 95
          7 6 14 18 14 36
          v52
          c0 5 4 11 14 9
          76 -26 131 -98 131 -183
          0 -106 -86 -192 -192 -192
          Z" />
      </g>
    </mask>
  </defs>

  <path class="bg" mask="url(#logo-cutout)" d="
    M80 64
    H432
    A32 32 0 0 1 464 96
    V336
    A32 32 0 0 1 448 364
    L272 448
    Q256 456 240 448
    L64 364
    A32 32 0 0 1 48 336
    V96
    A32 32 0 0 1 80 64
    Z
    " />

  <path class="border" d="
    M80 64
    H432
    A32 32 0 0 1 464 96
    V336
    A32 32 0 0 1 448 364
    L272 448
    Q256 456 240 448
    L64 364
    A32 32 0 0 1 48 336
    V96
    A32 32 0 0 1 80 64
    Z
    " />

</svg>
