<?xml version="1.0" encoding="utf-8"?>
<svg width="600pt" height="600pt" viewBox="0 0 600 600" version="1.1" xmlns="http://www.w3.org/2000/svg">
  <g id="#ffffffff">
    <path fill="#ffffff" opacity="1.00" d=" M 244.34 90.42 C 246.85 88.88 250.86 90.95 250.13 94.10 C 249.74 97.23 245.23 98.01 243.28 95.80 C 241.68 94.24 242.29 91.27 244.34 90.42 Z"/>
    <path fill="#ffffff" opacity="1.00" d=" M 371.55 92.54 C 374.35 89.74 378.63 89.59 382.24 90.62 C 382.27 92.24 382.30 93.86 382.35 95.48 C 380.56 95.38 378.15 94.25 376.93 96.13 C 376.57 97.37 376.34 98.64 376.23 99.93 C 377.97 99.97 379.72 100.00 381.47 100.02 C 381.46 101.67 381.46 103.33 381.47 104.99 C 379.79 105.00 378.12 105.01 376.46 105.02 C 376.48 111.01 376.47 117.01 376.47 123.00 C 374.17 123.00 371.89 123.00 369.60 123.00 C 369.60 117.01 369.58 111.02 369.62 105.03 C 368.41 105.01 367.20 105.00 366.00 104.98 C 366.00 103.32 365.99 101.66 366.00 100.00 C 367.14 100.00 368.28 100.00 369.42 100.00 C 369.71 97.45 369.56 94.48 371.55 92.54 Z"/>
    <path fill="#ffffff" opacity="1.00" d=" M 201.53 92.00 C 204.92 92.00 208.31 92.00 211.71 92.01 C 214.13 99.73 217.29 107.22 219.17 115.10 C 221.09 107.21 224.20 99.68 226.73 91.98 C 230.02 92.00 233.32 92.00 236.61 92.01 C 236.60 102.34 236.59 112.66 236.61 122.98 C 234.32 122.99 232.02 123.00 229.73 123.01 C 229.76 114.57 229.66 106.12 229.79 97.69 C 227.88 106.34 224.33 114.51 221.70 122.95 C 219.79 122.98 217.89 123.00 215.99 123.02 C 213.17 114.54 209.77 106.25 207.40 97.63 C 208.02 106.07 207.62 114.54 207.73 123.00 C 205.66 123.00 203.60 123.00 201.53 123.00 C 201.53 112.67 201.53 102.33 201.53 92.00 Z"/>
    <path fill="#ffffff" opacity="1.00" d=" M 387.39 95.07 C 389.68 94.37 391.97 93.68 394.27 92.98 C 394.26 95.31 394.26 97.65 394.26 99.99 C 395.88 100.00 397.50 100.00 399.13 100.01 C 399.13 101.67 399.13 103.33 399.13 104.99 C 397.51 105.00 395.89 105.00 394.27 105.01 C 394.35 108.85 393.97 112.74 394.53 116.56 C 395.40 118.46 397.56 117.90 399.20 117.59 C 399.16 119.19 399.12 120.80 399.10 122.40 C 395.42 123.26 390.32 123.74 388.29 119.75 C 386.65 115.05 387.66 109.90 387.41 105.01 C 386.52 105.00 384.75 105.00 383.87 104.99 C 383.86 103.33 383.86 101.67 383.87 100.01 C 384.75 100.00 386.52 100.00 387.41 99.99 C 387.39 98.35 387.39 96.71 387.39 95.07 Z"/>
    <path fill="#ffffff" opacity="1.00" d=" M 242.87 99.99 C 245.11 100.00 247.36 100.01 249.61 100.02 C 249.59 107.67 249.58 115.32 249.62 122.97 C 247.37 122.99 245.12 123.00 242.87 123.01 C 242.87 115.34 242.87 107.67 242.87 99.99 Z"/>
    <path fill="#ffffff" opacity="1.00" d=" M 260.38 101.47 C 264.09 99.45 268.46 99.79 272.43 100.73 C 272.47 102.68 272.51 104.63 272.58 106.58 C 270.37 105.55 267.86 104.31 265.41 105.33 C 260.11 106.86 259.92 115.76 265.03 117.63 C 267.60 118.74 270.22 117.40 272.57 116.39 C 272.50 118.27 272.47 120.15 272.44 122.03 C 268.24 123.11 263.48 123.80 259.58 121.40 C 252.44 117.26 252.98 105.07 260.38 101.47 Z"/>
    <path fill="#ffffff" opacity="1.00" d=" M 276.73 100.00 C 279.03 100.00 281.32 100.00 283.62 100.00 C 283.59 101.40 283.55 102.80 283.52 104.20 C 285.16 101.38 287.87 99.64 291.21 99.72 C 291.25 101.93 291.27 104.15 291.29 106.37 C 288.83 105.91 285.69 105.62 284.46 108.35 C 282.85 113.03 283.85 118.13 283.62 122.99 C 281.32 123.00 279.02 123.00 276.73 123.00 C 276.73 115.34 276.73 107.67 276.73 100.00 Z"/>
    <path fill="#ffffff" opacity="1.00" d=" M 301.35 100.56 C 305.17 99.43 309.56 99.82 312.94 102.03 C 319.66 106.66 318.62 118.86 310.91 121.94 C 306.19 123.88 300.04 123.41 296.35 119.62 C 291.10 113.83 293.19 102.46 301.35 100.56 M 302.77 105.78 C 299.96 107.84 300.02 111.94 300.92 114.97 C 302.00 118.73 307.99 119.15 309.66 115.65 C 311.25 112.46 310.41 108.87 309.12 105.75 C 307.04 105.36 304.68 104.32 302.77 105.78 Z"/>
    <path fill="#ffffff" opacity="1.00" d=" M 323.56 101.52 C 327.34 99.29 331.89 99.95 335.99 100.70 C 335.99 102.41 336.00 104.12 336.01 105.83 C 333.02 105.28 329.62 104.13 326.86 106.00 C 327.54 109.05 331.50 108.84 333.72 110.33 C 338.15 111.81 338.44 118.40 334.81 120.91 C 330.58 123.82 325.10 123.24 320.40 121.96 C 320.39 120.03 320.37 118.11 320.33 116.19 C 323.84 117.86 327.92 118.79 331.56 116.92 C 329.42 113.81 325.29 113.81 322.45 111.69 C 319.19 109.11 319.92 103.40 323.56 101.52 Z"/>
    <path fill="#ffffff" opacity="1.00" d=" M 347.34 100.56 C 351.19 99.43 355.63 99.82 359.01 102.08 C 365.64 106.74 364.60 118.82 356.96 121.92 C 352.23 123.89 346.06 123.42 342.36 119.63 C 337.09 113.85 339.19 102.47 347.34 100.56 M 348.79 105.77 C 345.96 107.82 346.01 111.92 346.92 114.96 C 347.98 118.73 353.97 119.15 355.65 115.67 C 357.25 112.48 356.41 108.88 355.13 105.76 C 353.05 105.37 350.70 104.32 348.79 105.77 Z"/>
    <path fill="#ffffff" opacity="1.00" d=" M 205.45 144.40 C 208.91 140.93 214.20 141.17 218.62 142.17 C 218.68 142.88 218.78 144.30 218.83 145.01 C 215.93 144.29 212.76 143.35 209.85 144.53 C 203.11 147.14 202.35 157.94 208.27 161.79 C 211.61 163.87 215.65 162.73 219.12 161.63 C 218.91 166.10 213.17 165.48 210.03 165.19 C 200.63 163.71 198.74 150.03 205.45 144.40 Z"/>
    <path fill="#ffffff" opacity="1.00" d=" M 230.00 142.00 C 233.94 142.00 237.89 141.98 241.84 142.05 C 241.79 142.61 241.71 143.72 241.66 144.28 C 238.68 144.27 235.70 144.27 232.73 144.27 C 232.73 146.84 232.73 149.42 232.73 152.00 C 235.50 152.00 238.26 152.00 241.03 152.00 C 241.01 152.62 240.96 153.87 240.93 154.49 C 238.20 154.47 235.47 154.47 232.73 154.47 C 232.73 157.15 232.73 159.84 232.74 162.53 C 235.92 162.53 239.10 162.53 242.28 162.53 C 242.27 163.35 242.26 164.18 242.26 165.00 C 238.17 165.00 234.08 165.00 230.00 165.00 C 230.00 157.33 230.00 149.67 230.00 142.00 Z"/>
    <path fill="#ffffff" opacity="1.00" d=" M 254.00 142.00 C 258.43 142.41 264.96 140.32 267.41 145.34 C 269.30 149.03 266.73 152.84 263.35 154.38 C 266.21 157.61 268.36 161.36 270.59 165.03 C 269.76 165.01 268.11 164.95 267.29 164.92 C 265.64 162.17 264.21 159.27 262.23 156.74 C 261.02 154.90 258.61 155.42 256.75 155.06 C 256.72 158.37 256.73 161.68 256.73 164.99 C 256.05 165.00 254.68 165.00 254.00 165.00 C 254.00 157.34 254.00 149.67 254.00 142.00 M 256.74 144.14 C 256.73 147.04 256.73 149.95 256.74 152.85 C 260.10 153.01 265.53 152.75 265.04 148.03 C 265.11 143.66 259.69 144.40 256.74 144.14 Z"/>
    <path fill="#ffffff" opacity="1.00" d=" M 276.29 142.10 C 281.64 141.99 287.01 141.87 292.37 142.09 C 292.56 142.62 292.95 143.68 293.14 144.21 C 290.76 144.26 288.38 144.27 286.00 144.27 C 286.00 151.18 286.00 158.09 286.00 165.00 C 285.32 165.00 283.95 165.00 283.26 164.99 C 283.27 158.10 283.26 151.21 283.27 144.33 C 280.90 143.81 276.72 145.67 276.29 142.10 Z"/>
    <path fill="#ffffff" opacity="1.00" d=" M 303.00 141.99 C 303.69 142.00 305.05 142.01 305.74 142.01 C 305.73 149.67 305.72 157.32 305.74 164.98 C 305.06 164.99 303.69 165.00 303.00 165.01 C 303.00 157.34 303.00 149.67 303.00 141.99 Z"/>
    <path fill="#ffffff" opacity="1.00" d=" M 318.00 142.00 C 321.95 142.00 325.90 141.98 329.85 142.06 C 329.80 142.61 329.70 143.73 329.65 144.28 C 326.68 144.27 323.70 144.27 320.73 144.27 C 320.73 146.93 320.73 149.60 320.73 152.27 C 323.49 152.27 326.24 152.27 329.00 152.27 C 329.00 152.88 329.00 154.12 329.00 154.73 C 326.24 154.73 323.49 154.73 320.73 154.73 C 320.73 158.15 320.73 161.57 320.74 164.99 C 320.05 164.99 318.68 165.00 318.00 165.01 C 318.00 157.34 318.00 149.67 318.00 142.00 Z"/>
    <path fill="#ffffff" opacity="1.00" d=" M 341.00 141.99 C 341.69 142.00 343.05 142.01 343.74 142.01 C 343.73 149.67 343.73 157.33 343.73 164.99 C 343.05 165.00 341.68 165.00 341.00 165.00 C 341.00 157.33 341.00 149.66 341.00 141.99 Z"/>
    <path fill="#ffffff" opacity="1.00" d=" M 356.00 142.00 C 359.94 142.00 363.88 141.98 367.83 142.05 C 367.79 142.61 367.71 143.72 367.67 144.28 C 364.69 144.27 361.71 144.27 358.73 144.27 C 358.73 146.84 358.73 149.42 358.73 152.00 C 361.51 152.00 364.28 152.00 367.06 152.00 C 367.02 152.63 366.92 153.88 366.87 154.51 C 364.16 154.47 361.45 154.47 358.74 154.46 C 358.73 157.15 358.73 159.84 358.74 162.53 C 362.03 162.53 365.33 162.51 368.63 162.57 C 368.42 163.35 368.17 164.11 367.91 164.88 C 363.95 165.18 359.97 164.95 356.00 164.99 C 356.00 157.33 356.00 149.66 356.00 142.00 Z"/>
    <path fill="#ffffff" opacity="1.00" d=" M 379.00 142.00 C 384.32 142.20 390.69 140.87 394.91 145.01 C 399.28 150.22 398.46 159.74 392.24 163.24 C 388.27 165.67 383.42 164.88 379.00 165.01 C 379.00 157.34 379.00 149.67 379.00 142.00 M 381.74 144.18 C 381.72 150.31 381.73 156.44 381.73 162.57 C 384.84 162.46 388.27 162.93 391.01 161.11 C 395.35 158.31 395.78 151.84 393.38 147.65 C 390.81 143.89 385.72 144.37 381.74 144.18 Z"/>
    <path fill="#ffffff" opacity="1.00" d=" M 239.61 211.85 C 345.03 207.68 450.91 214.44 554.87 232.46 C 564.83 233.88 574.43 243.41 572.14 254.00 C 564.54 294.08 556.89 334.15 549.21 374.21 C 547.44 383.66 537.28 390.24 527.93 388.40 C 377.44 362.46 222.54 362.47 72.05 388.40 C 62.71 390.23 52.58 383.65 50.80 374.23 C 43.28 335.21 35.92 296.16 28.41 257.13 C 27.73 253.51 26.91 249.68 28.25 246.10 C 30.78 238.56 38.13 233.39 45.85 232.32 C 109.91 221.30 174.67 214.48 239.61 211.85 M 323.00 251.75 C 323.00 259.33 323.00 266.91 323.00 274.49 C 318.19 266.93 313.38 259.38 308.63 251.79 C 306.66 251.73 304.69 251.67 302.73 251.58 C 302.74 261.39 302.73 271.19 302.73 281.00 C 304.23 281.00 305.72 281.00 307.23 281.00 C 307.62 273.33 307.43 265.64 307.45 257.96 C 312.34 265.76 317.34 273.49 322.29 281.25 C 324.01 281.26 325.72 281.26 327.45 281.28 C 327.67 271.42 327.83 261.57 327.73 251.72 C 326.15 251.73 324.57 251.74 323.00 251.75 M 251.20 252.01 C 249.00 256.73 247.03 261.56 244.73 266.24 C 242.47 261.68 240.30 257.08 238.00 252.54 C 236.12 252.53 234.25 252.52 232.37 252.52 C 235.20 257.78 237.96 263.07 240.84 268.31 C 243.33 272.35 242.33 277.31 242.52 281.80 C 244.18 281.74 245.84 281.68 247.51 281.62 C 247.50 277.93 246.87 274.18 247.51 270.51 C 250.23 264.26 253.38 258.20 256.26 252.01 C 254.57 252.00 252.88 252.00 251.20 252.01 M 281.14 251.52 C 277.52 261.34 273.94 271.18 270.34 281.01 C 272.10 281.00 273.88 280.99 275.65 280.98 C 276.47 278.47 277.31 275.96 278.15 273.44 C 282.01 273.48 285.87 273.51 289.73 273.32 C 290.61 275.79 291.50 278.26 292.39 280.73 C 294.19 280.73 295.98 280.73 297.79 280.73 C 294.06 271.01 290.34 261.29 286.70 251.53 C 284.85 251.53 282.99 251.53 281.14 251.52 M 336.29 251.72 C 336.22 261.49 335.66 271.25 335.73 281.03 C 341.81 281.25 348.51 282.23 353.97 278.87 C 361.36 274.65 362.84 263.67 358.07 257.00 C 352.76 250.69 343.65 251.94 336.29 251.72 M 207.44 253.59 C 207.56 254.97 207.68 256.35 207.80 257.73 C 210.60 257.51 213.42 257.44 216.23 257.41 C 216.45 265.76 216.83 274.11 217.14 282.46 C 218.78 282.46 220.42 282.46 222.07 282.46 C 221.64 274.02 221.36 265.58 221.06 257.14 C 223.89 257.01 226.73 256.97 229.56 256.82 C 229.45 255.43 229.33 254.05 229.21 252.67 C 221.95 252.94 214.70 253.31 207.44 253.59 M 387.59 253.21 C 383.63 262.84 379.44 272.37 375.34 281.94 C 377.10 282.07 378.88 282.22 380.65 282.34 C 381.60 279.89 382.55 277.45 383.50 275.00 C 387.39 275.00 391.29 275.24 395.18 275.45 C 395.91 277.92 396.64 280.39 397.36 282.87 C 399.16 283.05 400.96 283.23 402.78 283.39 C 399.64 273.33 396.40 263.30 393.14 253.28 C 391.29 253.26 389.44 253.24 387.59 253.21 M 169.98 255.59 C 169.99 256.59 170.02 258.58 170.03 259.58 C 172.89 259.48 175.76 259.34 178.62 259.23 C 179.07 267.62 179.73 275.99 180.10 284.38 C 181.76 284.31 183.42 284.26 185.08 284.22 C 184.45 275.75 184.10 267.27 183.40 258.82 C 186.22 258.67 189.03 258.48 191.85 258.37 C 191.79 256.98 191.73 255.58 191.68 254.19 C 184.45 254.69 177.20 255.02 169.98 255.59 M 197.23 254.32 C 197.46 264.17 198.21 274.00 198.59 283.84 C 200.23 283.74 201.87 283.63 203.52 283.52 C 203.36 273.75 202.40 264.01 202.22 254.24 C 200.56 254.26 198.89 254.28 197.23 254.32 M 413.74 256.74 C 404.45 261.22 402.55 275.96 410.58 282.50 C 415.23 286.21 421.70 285.99 427.15 284.48 C 427.26 283.38 427.47 281.19 427.58 280.10 C 423.61 281.30 418.99 282.14 415.24 279.84 C 408.24 275.51 409.55 263.31 417.07 260.20 C 420.92 258.56 425.19 259.71 428.77 261.50 C 428.75 259.82 428.75 258.15 428.75 256.47 C 423.91 255.07 418.39 254.31 413.74 256.74 M 159.40 256.77 C 159.92 264.34 160.52 271.90 161.29 279.45 C 155.80 272.31 150.33 265.16 144.87 258.00 C 142.99 258.16 141.11 258.31 139.23 258.47 C 139.98 268.21 140.87 277.94 141.58 287.69 C 143.16 287.55 144.74 287.45 146.33 287.34 C 145.59 279.78 145.17 272.21 144.34 264.66 C 150.12 271.63 155.48 278.93 161.04 286.07 C 162.83 285.95 164.61 285.81 166.40 285.67 C 165.57 275.94 164.82 266.21 163.97 256.48 C 162.45 256.58 160.92 256.67 159.40 256.77 M 440.05 258.09 C 430.84 262.48 428.78 276.82 436.45 283.55 C 440.99 287.49 447.51 287.18 453.03 285.95 C 453.18 284.41 453.35 282.87 453.53 281.34 C 449.61 282.89 444.86 283.38 441.16 281.02 C 434.24 276.42 436.03 263.72 444.06 261.35 C 447.75 260.28 451.60 261.28 454.92 262.99 C 455.03 261.40 455.16 259.82 455.31 258.24 C 450.46 256.44 444.82 255.59 440.05 258.09 M 461.49 258.19 C 460.54 267.91 459.57 277.63 458.62 287.35 C 464.08 287.90 469.55 288.38 475.01 288.99 C 475.15 287.60 475.30 286.21 475.44 284.83 C 471.59 284.55 467.75 284.16 463.92 283.71 C 464.16 280.87 464.41 278.04 464.62 275.20 C 468.00 275.39 471.38 275.74 474.75 276.01 C 474.90 274.67 475.04 273.34 475.19 272.01 C 471.85 271.64 468.51 271.37 465.18 270.97 C 465.39 268.21 465.65 265.45 465.89 262.69 C 469.54 263.10 473.19 263.43 476.85 263.76 C 476.96 262.74 477.18 260.69 477.29 259.67 C 472.02 259.18 466.76 258.59 461.49 258.19 M 116.51 260.37 C 117.62 270.11 118.57 279.86 119.63 289.60 C 125.10 289.05 130.56 288.43 136.03 287.94 C 135.88 286.56 135.73 285.19 135.58 283.83 C 131.73 284.24 127.88 284.61 124.03 285.01 C 123.70 282.14 123.41 279.27 123.14 276.41 C 126.48 276.02 129.81 275.63 133.15 275.31 C 133.05 274.30 132.86 272.28 132.76 271.27 C 129.40 271.56 126.04 271.89 122.69 272.28 C 122.42 269.52 122.13 266.76 121.82 264.01 C 125.45 263.56 129.09 263.25 132.72 262.90 C 132.57 261.50 132.43 260.10 132.29 258.70 C 127.04 259.35 121.77 259.83 116.51 260.37 M 485.72 263.69 C 482.70 265.76 481.84 270.20 483.79 273.28 C 486.13 276.97 490.47 278.51 493.62 281.33 C 495.64 282.91 495.01 286.71 492.47 287.43 C 488.36 288.66 484.23 286.74 480.94 284.40 C 480.75 286.05 480.58 287.70 480.42 289.36 C 484.78 291.42 489.76 292.50 494.53 291.33 C 498.65 290.27 501.17 285.26 499.42 281.36 C 497.58 277.00 492.90 275.16 489.41 272.41 C 487.46 271.16 487.38 267.85 489.45 266.68 C 493.14 264.61 497.42 266.46 500.84 268.24 C 500.59 266.43 501.97 263.15 499.28 262.79 C 494.91 261.54 489.61 260.85 485.72 263.69 M 85.70 264.34 C 87.09 274.07 88.29 283.83 89.64 293.57 C 95.68 292.48 102.56 292.75 107.46 288.46 C 114.34 282.94 113.81 271.28 107.47 265.60 C 101.10 261.00 92.83 263.53 85.70 264.34 M 509.78 265.74 C 505.94 267.83 505.25 273.67 508.19 276.80 C 510.64 279.77 514.37 281.25 517.02 284.00 C 518.86 285.85 517.87 289.54 515.18 289.89 C 511.10 290.75 507.21 288.90 504.04 286.51 C 503.84 288.14 503.64 289.78 503.44 291.42 C 508.21 293.77 514.06 295.49 519.15 293.12 C 523.12 291.34 524.19 285.71 521.76 282.29 C 519.42 278.50 514.79 277.13 512.03 273.79 C 510.59 272.04 511.82 269.36 513.84 268.72 C 517.44 267.43 521.15 269.17 524.30 270.87 C 524.45 269.26 524.62 267.66 524.78 266.07 C 520.05 264.40 514.38 263.04 509.78 265.74 M 71.80 266.36 C 73.44 276.04 74.93 285.74 76.59 295.41 C 78.25 295.14 79.92 294.87 81.58 294.62 C 79.89 284.93 78.38 275.22 76.77 265.53 C 75.12 265.81 73.46 266.08 71.80 266.36 M 277.18 311.51 C 277.82 321.33 277.43 331.17 277.53 341.00 C 279.23 340.99 280.94 341.00 282.64 341.00 C 282.15 331.19 282.77 321.36 282.29 311.54 C 280.58 311.53 278.88 311.52 277.18 311.51 M 290.76 314.71 C 288.45 317.52 288.78 322.09 291.44 324.56 C 294.42 327.51 298.82 328.28 301.94 331.00 C 303.83 332.59 303.05 335.92 300.81 336.75 C 296.93 338.52 292.69 336.90 289.17 335.08 C 289.22 336.75 289.26 338.42 289.30 340.10 C 294.26 341.56 300.00 342.45 304.71 339.72 C 308.51 337.53 309.12 331.88 306.38 328.62 C 303.37 324.81 298.02 324.25 294.71 320.86 C 294.05 319.13 294.35 316.94 296.16 316.06 C 299.52 314.42 303.48 315.30 306.82 316.58 C 306.76 315.00 306.73 313.41 306.70 311.83 C 301.38 310.72 294.72 310.27 290.76 314.71 M 264.21 312.02 C 264.60 319.67 264.49 327.33 264.77 334.99 C 259.92 327.41 254.76 320.04 249.82 312.52 C 247.85 312.53 245.89 312.53 243.93 312.54 C 244.30 322.37 244.56 332.21 244.53 342.05 C 246.11 341.93 247.69 341.80 249.27 341.68 C 249.28 333.96 249.09 326.24 248.73 318.54 C 253.72 326.29 259.11 333.77 264.17 341.47 C 265.94 341.47 267.71 341.46 269.48 341.48 C 269.46 331.65 269.12 321.82 268.98 311.99 C 267.39 312.00 265.80 312.01 264.21 312.02 M 311.00 311.50 C 311.00 312.91 311.00 314.32 311.00 315.74 C 313.87 315.73 316.73 315.73 319.59 315.74 C 319.12 324.12 319.31 332.51 319.23 340.89 C 320.81 341.01 322.39 341.15 323.98 341.30 C 324.13 332.86 324.39 324.44 324.26 316.00 C 327.09 316.00 329.91 316.00 332.74 316.00 C 332.73 314.57 332.73 313.15 332.74 311.73 C 325.49 311.67 318.24 311.91 311.00 311.50 M 338.29 311.73 C 338.18 321.48 337.67 331.21 337.73 340.97 C 339.29 341.10 340.84 341.24 342.41 341.37 C 342.45 337.26 342.75 333.16 342.80 329.05 C 344.64 329.43 346.93 329.18 348.23 330.84 C 350.88 334.03 352.52 337.92 354.62 341.47 C 356.49 341.46 358.37 341.46 360.25 341.46 C 357.32 336.89 355.08 331.77 351.08 327.99 C 356.77 326.57 359.67 318.92 355.42 314.53 C 350.71 310.55 343.96 312.09 338.29 311.73 M 215.20 313.33 C 212.60 321.15 209.57 328.84 207.17 336.73 C 204.05 329.13 200.44 321.75 197.24 314.18 C 194.92 314.24 192.60 314.30 190.28 314.38 C 190.66 324.18 191.30 333.96 191.55 343.76 C 193.07 343.74 194.59 343.73 196.11 343.73 C 195.81 335.68 195.32 327.64 195.08 319.59 C 198.32 327.65 202.15 335.44 205.76 343.33 C 206.58 343.22 208.23 342.99 209.06 342.88 C 211.87 334.53 214.97 326.28 217.61 317.87 C 217.25 326.09 218.19 334.29 218.31 342.51 C 219.96 342.48 221.62 342.46 223.27 342.45 C 222.69 332.62 222.29 322.77 221.91 312.94 C 219.67 313.05 217.44 313.20 215.20 313.33 M 230.68 312.65 C 230.85 322.35 231.53 332.05 231.50 341.76 C 233.17 341.74 234.86 341.74 236.54 341.76 C 236.41 331.90 235.98 322.06 235.67 312.21 C 234.01 312.36 232.34 312.51 230.68 312.65 M 373.44 312.98 C 369.40 322.62 365.45 332.30 361.35 341.91 C 363.11 342.02 364.89 342.17 366.66 342.30 C 367.61 339.79 368.56 337.28 369.54 334.78 C 373.39 335.01 377.25 335.03 381.10 335.31 C 381.86 337.78 382.61 340.24 383.41 342.70 C 385.20 342.86 387.00 342.99 388.81 343.11 C 385.49 333.18 382.28 323.21 378.97 313.27 C 377.12 313.16 375.28 313.05 373.44 312.98 M 389.32 313.66 C 389.16 315.00 389.01 316.35 388.87 317.70 C 391.71 317.93 394.56 318.04 397.41 318.18 C 396.98 326.58 396.62 334.98 396.17 343.39 C 397.78 343.47 399.40 343.57 401.02 343.70 C 401.49 335.26 401.81 326.81 402.36 318.38 C 405.10 318.52 407.85 318.70 410.60 318.83 C 410.74 317.46 410.89 316.10 411.04 314.74 C 403.80 314.41 396.57 313.92 389.32 313.66 M 421.55 315.68 C 412.23 318.35 409.35 330.65 413.41 338.60 C 417.75 347.26 431.72 348.02 437.09 340.01 C 441.12 333.78 441.31 324.55 436.07 318.95 C 432.35 315.21 426.49 314.38 421.55 315.68 M 159.64 316.37 C 160.33 326.17 161.02 335.97 161.59 345.78 C 167.29 345.12 173.52 345.83 178.61 342.67 C 187.44 337.78 187.88 322.99 179.29 317.70 C 173.25 314.39 166.16 316.12 159.64 316.37 M 448.06 317.06 C 447.41 326.82 446.39 336.55 445.64 346.31 C 447.23 346.44 448.82 346.58 450.42 346.75 C 450.75 342.77 451.12 338.79 451.49 334.82 C 453.42 335.11 455.82 335.08 457.00 336.94 C 459.26 340.26 460.67 344.06 462.41 347.66 C 464.32 347.89 466.25 348.10 468.17 348.33 C 465.63 343.48 463.59 338.23 459.80 334.17 C 465.32 333.07 468.73 326.38 465.38 321.56 C 461.24 316.41 453.82 318.14 448.06 317.06 M 129.31 347.97 C 131.08 347.80 132.86 347.64 134.64 347.49 C 135.27 344.92 135.91 342.36 136.56 339.80 C 140.40 339.49 144.23 339.16 148.07 338.83 C 149.11 341.24 150.19 343.63 151.27 346.03 C 153.04 345.87 154.81 345.73 156.59 345.59 C 152.22 336.12 147.60 326.77 143.21 317.31 C 141.39 317.46 139.57 317.60 137.75 317.76 C 134.87 327.81 132.20 337.92 129.31 347.97 Z"/>
    <path fill="#ffffff" opacity="1.00" d=" M 283.79 255.86 C 285.09 260.50 286.86 264.99 288.46 269.53 C 285.42 269.54 282.38 269.54 279.35 269.51 C 280.81 264.96 282.63 260.51 283.79 255.86 Z"/>
    <path fill="#ffffff" opacity="1.00" d=" M 341.01 255.95 C 345.71 255.94 351.84 255.73 354.41 260.55 C 356.37 264.98 356.13 270.96 352.58 274.54 C 349.35 277.56 344.62 277.40 340.52 277.02 C 340.76 270.00 340.96 262.97 341.01 255.95 Z"/>
    <path fill="#ffffff" opacity="1.00" d=" M 390.14 257.32 C 391.03 262.09 392.70 266.66 393.99 271.33 C 390.98 271.28 387.99 271.11 385.00 270.94 C 386.80 266.44 388.77 261.98 390.14 257.32 Z"/>
    <path fill="#ffffff" opacity="1.00" d=" M 91.15 267.70 C 95.56 267.15 100.99 265.92 104.46 269.56 C 107.88 273.76 108.53 280.67 104.93 284.95 C 102.15 288.06 97.72 288.25 93.89 288.85 C 93.02 281.79 91.95 274.76 91.15 267.70 Z"/>
    <path fill="#ffffff" opacity="1.00" d=" M 343.03 315.65 C 345.50 315.82 348.19 315.49 350.47 316.69 C 353.24 318.55 352.69 323.33 349.76 324.77 C 347.63 325.85 345.14 325.17 342.86 325.28 C 343.01 322.07 343.00 318.86 343.03 315.65 Z"/>
    <path fill="#ffffff" opacity="1.00" d=" M 375.88 317.64 C 377.04 322.24 378.62 326.73 379.94 331.30 C 376.92 331.05 373.90 330.97 370.88 330.97 C 372.57 326.54 374.39 322.15 375.88 317.64 Z"/>
    <path fill="#ffffff" opacity="1.00" d=" M 164.79 320.13 C 169.23 319.88 174.90 318.92 178.03 322.94 C 180.94 327.00 181.22 333.14 178.32 337.27 C 175.52 341.00 170.51 341.05 166.31 341.40 C 165.60 334.33 165.35 327.22 164.79 320.13 Z"/>
    <path fill="#ffffff" opacity="1.00" d=" M 422.21 320.25 C 426.74 317.93 433.21 320.34 434.34 325.52 C 435.17 329.99 435.23 335.41 431.81 338.88 C 428.05 342.86 420.60 341.77 418.15 336.85 C 415.42 331.43 416.55 323.35 422.21 320.25 Z"/>
    <path fill="#ffffff" opacity="1.00" d=" M 137.40 335.81 C 138.53 331.20 139.84 326.63 140.71 321.97 C 142.35 326.40 144.50 330.61 146.36 334.95 C 143.38 335.27 140.39 335.54 137.40 335.81 Z"/>
    <path fill="#ffffff" opacity="1.00" d=" M 452.60 321.30 C 455.05 321.77 457.88 321.41 460.00 322.94 C 462.93 325.18 461.38 330.37 457.91 331.12 C 455.86 331.42 453.80 331.10 451.76 331.00 C 452.11 327.77 452.36 324.53 452.60 321.30 Z"/>
    <path fill="#ffffff" opacity="1.00" d=" M 243.56 408.55 C 247.34 405.68 252.49 405.94 256.94 406.57 C 259.88 406.98 258.34 410.89 258.91 412.92 C 256.10 411.97 253.10 410.59 250.10 411.55 C 248.29 411.85 246.58 414.07 248.39 415.54 C 251.58 417.82 255.88 418.36 258.52 421.43 C 261.61 424.91 260.50 431.14 256.25 433.16 C 251.67 435.28 246.37 434.67 241.60 433.57 C 241.50 431.38 241.37 429.19 241.19 427.02 C 245.02 429.37 250.71 431.14 254.06 427.03 C 251.70 423.22 246.94 422.86 243.58 420.38 C 239.89 417.64 239.75 411.25 243.56 408.55 Z"/>
    <path fill="#ffffff" opacity="1.00" d=" M 274.34 406.52 C 279.41 404.86 285.69 405.51 289.42 409.63 C 293.62 414.32 293.76 421.73 291.18 427.23 C 287.26 435.25 274.86 436.46 269.13 429.83 C 263.05 422.91 265.13 409.63 274.34 406.52 M 277.38 411.51 C 269.75 414.21 271.13 429.05 279.98 428.51 C 285.14 428.13 286.70 422.11 285.95 417.84 C 285.81 413.65 281.57 409.92 277.38 411.51 Z"/>
    <path fill="#ffffff" opacity="1.00" d=" M 305.49 407.51 C 309.99 404.99 315.40 405.54 320.25 406.52 C 320.25 408.60 320.26 410.67 320.29 412.75 C 317.07 411.56 313.36 410.40 310.05 411.97 C 304.01 414.58 303.64 424.49 309.41 427.59 C 312.82 429.40 316.64 428.14 320.03 427.01 C 320.00 428.99 319.98 430.98 319.94 432.97 C 314.36 434.39 307.70 434.97 302.97 431.07 C 296.03 424.97 297.34 411.98 305.49 407.51 Z"/>
    <path fill="#ffffff" opacity="1.00" d=" M 217.14 409.16 C 221.38 406.32 226.79 406.87 231.60 407.48 C 231.77 409.55 231.94 411.63 232.10 413.71 C 228.95 412.49 225.17 411.07 222.02 413.04 C 220.55 413.51 220.62 415.53 221.72 416.33 C 224.83 418.71 229.17 419.11 231.85 422.13 C 235.00 425.48 234.05 431.70 229.94 433.85 C 225.35 436.19 219.91 435.76 215.08 434.45 C 214.98 432.32 214.85 430.19 214.71 428.08 C 218.00 429.73 222.07 431.61 225.63 429.56 C 227.15 429.04 227.27 426.88 226.02 426.00 C 223.15 423.60 219.00 423.38 216.29 420.74 C 213.05 417.68 213.34 411.65 217.14 409.16 Z"/>
    <path fill="#ffffff" opacity="1.00" d=" M 328.01 406.18 C 330.18 406.29 332.34 406.43 334.52 406.56 C 334.43 415.63 334.27 424.70 333.94 433.77 C 331.87 433.75 329.81 433.75 327.75 433.75 C 327.57 424.55 328.15 415.37 328.01 406.18 Z"/>
    <path fill="#ffffff" opacity="1.00" d=" M 350.10 406.75 C 352.62 406.90 355.15 407.00 357.68 407.07 C 360.68 416.31 363.68 425.55 366.54 434.83 C 364.19 434.75 361.86 434.65 359.52 434.51 C 358.95 432.51 358.40 430.52 357.84 428.52 C 354.68 428.32 351.51 428.23 348.35 428.21 C 347.65 430.20 346.94 432.19 346.22 434.18 C 343.90 434.06 341.58 433.99 339.26 433.95 C 342.88 424.88 346.39 415.78 350.10 406.75 M 349.89 423.16 C 352.10 423.26 354.30 423.39 356.51 423.55 C 355.46 419.95 354.37 416.36 353.56 412.70 C 352.43 416.22 351.15 419.69 349.89 423.16 Z"/>
    <path fill="#ffffff" opacity="1.00" d=" M 368.00 407.45 C 375.44 407.61 382.86 408.09 390.30 408.36 C 390.23 410.10 390.17 411.85 390.09 413.61 C 387.49 413.51 384.89 413.38 382.29 413.21 C 381.83 420.55 381.59 427.91 381.19 435.25 C 379.05 435.25 376.91 435.25 374.77 435.25 C 375.17 427.85 375.35 420.43 375.79 413.03 C 373.19 412.87 370.59 412.75 367.99 412.69 C 367.99 410.94 367.99 409.19 368.00 407.45 Z"/>
    <path fill="#ffffff" opacity="1.00" d=" M 182.20 437.07 C 184.91 427.71 187.76 418.39 190.58 409.06 C 193.13 408.97 195.67 408.83 198.21 408.70 C 201.96 417.68 205.82 426.62 209.39 435.67 C 207.05 435.74 204.71 435.82 202.37 435.94 C 201.63 433.95 200.89 431.97 200.16 429.98 C 197.00 430.20 193.83 430.38 190.67 430.57 C 190.16 432.61 189.65 434.66 189.15 436.71 C 186.83 436.83 184.51 436.97 182.20 437.07 M 191.80 425.52 C 194.00 425.39 196.19 425.26 198.39 425.18 C 197.05 421.69 195.70 418.21 194.56 414.65 C 193.74 418.29 192.77 421.91 191.80 425.52 Z"/>
    <path fill="#ffffff" opacity="1.00" d=" M 396.98 408.71 C 402.33 409.05 407.69 409.34 413.04 409.68 C 412.98 411.40 412.93 413.13 412.88 414.86 C 409.60 414.72 406.33 414.54 403.06 414.33 C 402.98 416.27 402.89 418.22 402.78 420.17 C 405.76 420.28 408.73 420.45 411.71 420.59 C 411.62 422.33 411.54 424.07 411.45 425.82 C 408.46 425.68 405.46 425.51 402.47 425.36 C 402.36 427.32 402.27 429.29 402.20 431.26 C 405.57 431.49 408.94 431.68 412.32 431.85 C 412.23 433.58 412.13 435.32 412.02 437.07 C 406.49 436.82 400.97 436.39 395.44 436.17 C 396.00 427.02 396.38 417.85 396.98 408.71 Z"/>
    <path fill="#ffffff" opacity="1.00" d=" M 249.55 481.74 C 252.41 472.79 255.32 463.85 258.26 454.92 C 261.19 463.86 264.08 472.81 267.01 481.75 C 276.33 481.77 285.66 481.70 294.99 481.79 C 287.53 487.39 279.88 492.75 272.38 498.31 C 275.23 507.22 278.25 516.08 281.02 525.01 C 273.41 519.54 265.82 514.05 258.27 508.51 C 250.69 514.00 243.15 519.56 235.52 524.99 C 238.28 516.05 241.28 507.19 244.14 498.28 C 236.61 492.76 228.98 487.38 221.51 481.79 C 230.85 481.70 240.20 481.78 249.55 481.74 Z"/>
    <path fill="#ffffff" opacity="1.00" d=" M 341.74 454.93 C 344.68 463.85 347.59 472.79 350.45 481.74 C 359.75 481.80 369.05 481.64 378.35 481.84 C 370.97 487.47 363.33 492.77 355.86 498.28 C 358.72 507.19 361.72 516.05 364.48 524.99 C 356.85 519.56 349.31 514.00 341.73 508.51 C 334.18 514.05 326.59 519.54 318.98 525.01 C 321.74 516.07 324.80 507.21 327.62 498.28 C 320.09 492.77 312.48 487.38 305.01 481.79 C 314.33 481.70 323.66 481.77 332.99 481.75 C 335.92 472.81 338.81 463.86 341.74 454.93 Z"/>
  </g>
  <g id="#002050ff">
    <path fill="#002050" opacity="1.00" d="M 280.92 9.24 C 290.37 6.49 300.41 5.83 310.14 7.28 C 316.72 8.19 322.98 10.49 329.33 12.35 C 376.23 26.51 423.11 40.7 470.01 54.86 C 475.76 56.65 481.74 58.05 486.97 61.17 C 498.96 67.9 507.45 80.44 509.23 94.07 C 509.95 99.03 509.73 104.06 509.75 109.06 C 509.75 143.77 509.75 178.48 509.76 213.19 C 503.893 216.442 484.173 218.313 475.668 212.362 C 475.558 176.242 477.63 142.599 477.61 106.479 C 477.71 99.509 479.729 97.344 474.539 92.534 C 469.699 87.754 464.305 83.836 458.015 81.926 C 411.695 67.946 369.845 55.918 323.525 41.928 C 315.695 39.578 310.322 47.468 302.012 47.618 C 293.982 47.478 285.866 47.801 278.306 50.101 C 231.966 64.091 201.006 69.193 154.666 83.183 C 150.356 84.503 139.495 86.534 135.395 88.444 C 128.365 91.714 121.313 95.295 120.313 102.965 C 119.573 108.605 123.946 119.746 123.886 125.416 C 123.856 157.536 112.551 182.224 112.451 214.344 C 105.866 218.742 97.31 212.22 90.24 213.19 C 90.3 175.13 90.16 137.06 90.31 99 C 90.64 80.45 103.61 62.98 121.37 57.49 C 174.54 41.36 227.75 25.35 280.92 9.24 Z"/>
    <path fill="#002050" opacity="1.00" d="M 90.52 397.78 C 94.36 390.3 105.009 388.585 112.626 388.98 C 112.656 406.11 128.547 427.164 136.407 442.394 C 146.137 461.924 155.277 472.658 171.357 487.218 C 185.727 500.108 197.484 512.439 213.894 522.589 C 242.334 540.099 271.117 552.132 302.467 563.592 C 341.077 549.102 372.282 530.827 406.042 507.067 C 430.812 489.317 452.645 469.338 468.265 442.868 C 478.285 426.038 483.965 408.115 483.915 388.485 C 492.93 387.42 505.792 393.068 509.46 397.8 C 509.48 398.38 509.52 399.52 509.55 400.1 C 509.14 421.44 502.11 442.24 491.43 460.58 C 474.87 488.68 450.6 511.34 424.49 530.48 C 393.03 553.3 358.4 571.51 322.52 586.33 C 315.17 589.36 307.69 592.07 300.18 594.68 C 281.7 588.71 263.82 581.02 246.27 572.73 C 212.3 556.36 179.59 536.76 151.22 511.76 C 132.77 495.32 116.15 476.36 104.78 454.28 C 96.21 437.58 90.85 419.06 90.44 400.24 C 90.46 399.62 90.5 398.4 90.52 397.78 Z"/>
  </g>
  <g id="#505050ff">
    <path fill="#505050" opacity="1.00" d="M 276.82 32.76 C 284.38 30.46 292 27.66 300.03 27.8 C 308.34 27.65 316.19 30.66 324.02 33.01 C 370.34 47 416.65 61.01 462.97 74.99 C 469.26 76.9 476.14 78.34 480.98 83.12 C 486.17 87.93 488.61 95.05 488.51 102.02 C 488.53 138.14 488.44 174.26 488.55 210.38 C 495.62 211.31 502.69 212.23 509.76 213.19 C 524.9 215.35 540.01 217.68 555.09 220.24 C 560.42 221.07 565.72 222.7 570.24 225.74 C 580.2 231.96 586.39 244.27 584.05 255.98 C 576.88 293.63 569.68 331.26 562.51 368.91 C 561.34 375.28 560.4 382.02 556.49 387.41 C 550.14 396.87 538.19 402.12 526.94 400.42 C 521.27 399.55 515.65 398.44 509.97 397.66 C 509.87 398.27 509.65 399.49 509.55 400.1 C 509.52 399.52 509.48 398.38 509.46 397.8 C 502.69 396.17 495.771 395.288 488.87 394.43 C 364.117 378.928 237.133 384.011 111.14 394.43 C 104.199 395.004 97.3 396.18 90.52 397.78 C 90.5 398.4 90.46 399.62 90.44 400.24 C 90.34 399.59 90.14 398.3 90.04 397.66 C 80.72 398.61 71.35 402.2 61.96 399.94 C 50.5 397.44 40.9 387.83 38.89 376.2 C 31.61 338.17 24.39 300.12 17.1 262.09 C 16.07 256.81 14.77 251.39 15.91 246.01 C 18.09 233.21 29.29 223.2 41.81 220.83 C 57.9 217.93 74.07 215.53 90.24 213.19 C 97.31 212.22 104.38 211.31 111.46 210.38 C 111.56 178.26 111.47 146.14 111.5 114.02 C 111.56 108.35 111.15 102.66 111.89 97.02 C 112.89 89.35 117.96 82.3 124.99 79.03 C 129.09 77.12 133.51 76.08 137.82 74.76 C 184.16 60.77 230.48 46.75 276.82 32.76 M 244.34 90.42 C 242.29 91.27 241.68 94.24 243.28 95.8 C 245.23 98.01 249.74 97.23 250.13 94.1 C 250.86 90.95 246.85 88.88 244.34 90.42 M 371.55 92.54 C 369.56 94.48 369.71 97.45 369.42 100 C 368.28 100 367.14 100 366 100 C 365.99 101.66 366 103.32 366 104.98 C 367.2 105 368.41 105.01 369.62 105.03 C 369.58 111.02 369.6 117.01 369.6 123 C 371.89 123 374.17 123 376.47 123 C 376.47 117.01 376.48 111.01 376.46 105.02 C 378.12 105.01 379.79 105 381.47 104.99 C 381.46 103.33 381.46 101.67 381.47 100.02 C 379.72 100 377.97 99.97 376.23 99.93 C 376.34 98.64 376.57 97.37 376.93 96.13 C 378.15 94.25 380.56 95.38 382.35 95.48 C 382.3 93.86 382.27 92.24 382.24 90.62 C 378.63 89.59 374.35 89.74 371.55 92.54 M 201.53 92 C 201.53 102.33 201.53 112.67 201.53 123 C 203.6 123 205.66 123 207.73 123 C 207.62 114.54 208.02 106.07 207.4 97.63 C 209.77 106.25 213.17 114.54 215.99 123.02 C 217.89 123 219.79 122.98 221.7 122.95 C 224.33 114.51 227.88 106.34 229.79 97.69 C 229.66 106.12 229.76 114.57 229.73 123.01 C 232.02 123 234.32 122.99 236.61 122.98 C 236.59 112.66 236.6 102.34 236.61 92.01 C 233.32 92 230.02 92 226.73 91.98 C 224.2 99.68 221.09 107.21 219.17 115.1 C 217.29 107.22 214.13 99.73 211.71 92.01 C 208.31 92 204.92 92 201.53 92 M 387.39 95.07 C 387.39 96.71 387.39 98.35 387.41 99.99 C 386.52 100 384.75 100 383.87 100.01 C 383.86 101.67 383.86 103.33 383.87 104.99 C 384.75 105 386.52 105 387.41 105.01 C 387.66 109.9 386.65 115.05 388.29 119.75 C 390.32 123.74 395.42 123.26 399.1 122.4 C 399.12 120.8 399.16 119.19 399.2 117.59 C 397.56 117.9 395.4 118.46 394.53 116.56 C 393.97 112.74 394.35 108.85 394.27 105.01 C 395.89 105 397.51 105 399.13 104.99 C 399.13 103.33 399.13 101.67 399.13 100.01 C 397.5 100 395.88 100 394.26 99.99 C 394.26 97.65 394.26 95.31 394.27 92.98 C 391.97 93.68 389.68 94.37 387.39 95.07 M 242.87 99.99 C 242.87 107.67 242.87 115.34 242.87 123.01 C 245.12 123 247.37 122.99 249.62 122.97 C 249.58 115.32 249.59 107.67 249.61 100.02 C 247.36 100.01 245.11 100 242.87 99.99 M 260.38 101.47 C 252.98 105.07 252.44 117.26 259.58 121.4 C 263.48 123.8 268.24 123.11 272.44 122.03 C 272.47 120.15 272.5 118.27 272.57 116.39 C 270.22 117.4 267.6 118.74 265.03 117.63 C 259.92 115.76 260.11 106.86 265.41 105.33 C 267.86 104.31 270.37 105.55 272.58 106.58 C 272.51 104.63 272.47 102.68 272.43 100.73 C 268.46 99.79 264.09 99.45 260.38 101.47 M 276.73 100 C 276.73 107.67 276.73 115.34 276.73 123 C 279.02 123 281.32 123 283.62 122.99 C 283.85 118.13 282.85 113.03 284.46 108.35 C 285.69 105.62 288.83 105.91 291.29 106.37 C 291.27 104.15 291.25 101.93 291.21 99.72 C 287.87 99.64 285.16 101.38 283.52 104.2 C 283.55 102.8 283.59 101.4 283.62 100 C 281.32 100 279.03 100 276.73 100 M 301.35 100.56 C 293.19 102.46 291.1 113.83 296.35 119.62 C 300.04 123.41 306.19 123.88 310.91 121.94 C 318.62 118.86 319.66 106.66 312.94 102.03 C 309.56 99.82 305.17 99.43 301.35 100.56 M 323.56 101.52 C 319.92 103.4 319.19 109.11 322.45 111.69 C 325.29 113.81 329.42 113.81 331.56 116.92 C 327.92 118.79 323.84 117.86 320.33 116.19 C 320.37 118.11 320.39 120.03 320.4 121.96 C 325.1 123.24 330.58 123.82 334.81 120.91 C 338.44 118.4 338.15 111.81 333.72 110.33 C 331.5 108.84 327.54 109.05 326.86 106 C 329.62 104.13 333.02 105.28 336.01 105.83 C 336 104.12 335.99 102.41 335.99 100.7 C 331.89 99.95 327.34 99.29 323.56 101.52 M 347.34 100.56 C 339.19 102.47 337.09 113.85 342.36 119.63 C 346.06 123.42 352.23 123.89 356.96 121.92 C 364.6 118.82 365.64 106.74 359.01 102.08 C 355.63 99.82 351.19 99.43 347.34 100.56 M 205.45 144.4 C 198.74 150.03 200.63 163.71 210.03 165.19 C 213.17 165.48 218.91 166.1 219.12 161.63 C 215.65 162.73 211.61 163.87 208.27 161.79 C 202.35 157.94 203.11 147.14 209.85 144.53 C 212.76 143.35 215.93 144.29 218.83 145.01 C 218.78 144.3 218.68 142.88 218.62 142.17 C 214.2 141.17 208.91 140.93 205.45 144.4 M 230 142 C 230 149.67 230 157.33 230 165 C 234.08 165 238.17 165 242.26 165 C 242.26 164.18 242.27 163.35 242.28 162.53 C 239.1 162.53 235.92 162.53 232.74 162.53 C 232.73 159.84 232.73 157.15 232.73 154.47 C 235.47 154.47 238.2 154.47 240.93 154.49 C 240.96 153.87 241.01 152.62 241.03 152 C 238.26 152 235.5 152 232.73 152 C 232.73 149.42 232.73 146.84 232.73 144.27 C 235.7 144.27 238.68 144.27 241.66 144.28 C 241.71 143.72 241.79 142.61 241.84 142.05 C 237.89 141.98 233.94 142 230 142 M 254 142 C 254 149.67 254 157.34 254 165 C 254.68 165 256.05 165 256.73 164.99 C 256.73 161.68 256.72 158.37 256.75 155.06 C 258.61 155.42 261.02 154.9 262.23 156.74 C 264.21 159.27 265.64 162.17 267.29 164.92 C 268.11 164.95 269.76 165.01 270.59 165.03 C 268.36 161.36 266.21 157.61 263.35 154.38 C 266.73 152.84 269.3 149.03 267.41 145.34 C 264.96 140.32 258.43 142.41 254 142 M 276.29 142.1 C 276.72 145.67 280.9 143.81 283.27 144.33 C 283.26 151.21 283.27 158.1 283.26 164.99 C 283.95 165 285.32 165 286 165 C 286 158.09 286 151.18 286 144.27 C 288.38 144.27 290.76 144.26 293.14 144.21 C 292.95 143.68 292.56 142.62 292.37 142.09 C 287.01 141.87 281.64 141.99 276.29 142.1 M 303 141.99 C 303 149.67 303 157.34 303 165.01 C 303.69 165 305.06 164.99 305.74 164.98 C 305.72 157.32 305.73 149.67 305.74 142.01 C 305.05 142.01 303.69 142 303 141.99 M 318 142 C 318 149.67 318 157.34 318 165.01 C 318.68 165 320.05 164.99 320.74 164.99 C 320.73 161.57 320.73 158.15 320.73 154.73 C 323.49 154.73 326.24 154.73 329 154.73 C 329 154.12 329 152.88 329 152.27 C 326.24 152.27 323.49 152.27 320.73 152.27 C 320.73 149.6 320.73 146.93 320.73 144.27 C 323.7 144.27 326.68 144.27 329.65 144.28 C 329.7 143.73 329.8 142.61 329.85 142.06 C 325.9 141.98 321.95 142 318 142 M 341 141.99 C 341 149.66 341 157.33 341 165 C 341.68 165 343.05 165 343.73 164.99 C 343.73 157.33 343.73 149.67 343.74 142.01 C 343.05 142.01 341.69 142 341 141.99 M 356 142 C 356 149.66 356 157.33 356 164.99 C 359.97 164.95 363.95 165.18 367.91 164.88 C 368.17 164.11 368.42 163.35 368.63 162.57 C 365.33 162.51 362.03 162.53 358.74 162.53 C 358.73 159.84 358.73 157.15 358.74 154.46 C 361.45 154.47 364.16 154.47 366.87 154.51 C 366.92 153.88 367.02 152.63 367.06 152 C 364.28 152 361.51 152 358.73 152 C 358.73 149.42 358.73 146.84 358.73 144.27 C 361.71 144.27 364.69 144.27 367.67 144.28 C 367.71 143.72 367.79 142.61 367.83 142.05 C 363.88 141.98 359.94 142 356 142 M 379 142 C 379 149.67 379 157.34 379 165.01 C 383.42 164.88 388.27 165.67 392.24 163.24 C 398.46 159.74 399.28 150.22 394.91 145.01 C 390.69 140.87 384.32 142.2 379 142 M 239.61 211.85 C 174.67 214.48 109.91 221.3 45.85 232.32 C 38.13 233.39 30.78 238.56 28.25 246.1 C 26.91 249.68 27.73 253.51 28.41 257.13 C 35.92 296.16 43.28 335.21 50.8 374.23 C 52.58 383.65 62.71 390.23 72.05 388.4 C 222.54 362.47 377.44 362.46 527.93 388.4 C 537.28 390.24 547.44 383.66 549.21 374.21 C 556.89 334.15 564.54 294.08 572.14 254 C 574.43 243.41 564.83 233.88 554.87 232.46 C 450.91 214.44 345.03 207.68 239.61 211.85 Z"/>
    <path fill="#505050" opacity="1.00" d=" M 302.77 105.78 C 304.68 104.32 307.04 105.36 309.12 105.75 C 310.41 108.87 311.25 112.46 309.66 115.65 C 307.99 119.15 302.00 118.73 300.92 114.97 C 300.02 111.94 299.96 107.84 302.77 105.78 Z"/>
    <path fill="#505050" opacity="1.00" d=" M 348.79 105.77 C 350.70 104.32 353.05 105.37 355.13 105.76 C 356.41 108.88 357.25 112.48 355.65 115.67 C 353.97 119.15 347.98 118.73 346.92 114.96 C 346.01 111.92 345.96 107.82 348.79 105.77 Z"/>
    <path fill="#505050" opacity="1.00" d=" M 256.74 144.14 C 259.69 144.40 265.11 143.66 265.04 148.03 C 265.53 152.75 260.10 153.01 256.74 152.85 C 256.73 149.95 256.73 147.04 256.74 144.14 Z"/>
    <path fill="#505050" opacity="1.00" d=" M 381.74 144.18 C 385.72 144.37 390.81 143.89 393.38 147.65 C 395.78 151.84 395.35 158.31 391.01 161.11 C 388.27 162.93 384.84 162.46 381.73 162.57 C 381.73 156.44 381.72 150.31 381.74 144.18 Z"/>
  </g>
  <g id="#282828ff">
    <path fill="#282828" opacity="1.00" d=" M 323.00 251.75 C 324.57 251.74 326.15 251.73 327.73 251.72 C 327.83 261.57 327.67 271.42 327.45 281.28 C 325.72 281.26 324.01 281.26 322.29 281.25 C 317.34 273.49 312.34 265.76 307.45 257.96 C 307.43 265.64 307.62 273.33 307.23 281.00 C 305.72 281.00 304.23 281.00 302.73 281.00 C 302.73 271.19 302.74 261.39 302.73 251.58 C 304.69 251.67 306.66 251.73 308.63 251.79 C 313.38 259.38 318.19 266.93 323.00 274.49 C 323.00 266.91 323.00 259.33 323.00 251.75 Z"/>
    <path fill="#282828" opacity="1.00" d=" M 251.20 252.01 C 252.88 252.00 254.57 252.00 256.26 252.01 C 253.38 258.20 250.23 264.26 247.51 270.51 C 246.87 274.18 247.50 277.93 247.51 281.62 C 245.84 281.68 244.18 281.74 242.52 281.80 C 242.33 277.31 243.33 272.35 240.84 268.31 C 237.96 263.07 235.20 257.78 232.37 252.52 C 234.25 252.52 236.12 252.53 238.00 252.54 C 240.30 257.08 242.47 261.68 244.73 266.24 C 247.03 261.56 249.00 256.73 251.20 252.01 Z"/>
    <path fill="#282828" opacity="1.00" d=" M 281.14 251.52 C 282.99 251.53 284.85 251.53 286.70 251.53 C 290.34 261.29 294.06 271.01 297.79 280.73 C 295.98 280.73 294.19 280.73 292.39 280.73 C 291.50 278.26 290.61 275.79 289.73 273.32 C 285.87 273.51 282.01 273.48 278.15 273.44 C 277.31 275.96 276.47 278.47 275.65 280.98 C 273.88 280.99 272.10 281.00 270.34 281.01 C 273.94 271.18 277.52 261.34 281.14 251.52 M 283.79 255.86 C 282.63 260.51 280.81 264.96 279.35 269.51 C 282.38 269.54 285.42 269.54 288.46 269.53 C 286.86 264.99 285.09 260.50 283.79 255.86 Z"/>
    <path fill="#282828" opacity="1.00" d=" M 336.29 251.72 C 343.65 251.94 352.76 250.69 358.07 257.00 C 362.84 263.67 361.36 274.65 353.97 278.87 C 348.51 282.23 341.81 281.25 335.73 281.03 C 335.66 271.25 336.22 261.49 336.29 251.72 M 341.01 255.95 C 340.96 262.97 340.76 270.00 340.52 277.02 C 344.62 277.40 349.35 277.56 352.58 274.54 C 356.13 270.96 356.37 264.98 354.41 260.55 C 351.84 255.73 345.71 255.94 341.01 255.95 Z"/>
    <path fill="#282828" opacity="1.00" d=" M 207.44 253.59 C 214.70 253.31 221.95 252.94 229.21 252.67 C 229.33 254.05 229.45 255.43 229.56 256.82 C 226.73 256.97 223.89 257.01 221.06 257.14 C 221.36 265.58 221.64 274.02 222.07 282.46 C 220.42 282.46 218.78 282.46 217.14 282.46 C 216.83 274.11 216.45 265.76 216.23 257.41 C 213.42 257.44 210.60 257.51 207.80 257.73 C 207.68 256.35 207.56 254.97 207.44 253.59 Z"/>
    <path fill="#282828" opacity="1.00" d=" M 387.59 253.21 C 389.44 253.24 391.29 253.26 393.14 253.28 C 396.40 263.30 399.64 273.33 402.78 283.39 C 400.96 283.23 399.16 283.05 397.36 282.87 C 396.64 280.39 395.91 277.92 395.18 275.45 C 391.29 275.24 387.39 275.00 383.50 275.00 C 382.55 277.45 381.60 279.89 380.65 282.34 C 378.88 282.22 377.10 282.07 375.34 281.94 C 379.44 272.37 383.63 262.84 387.59 253.21 M 390.14 257.32 C 388.77 261.98 386.80 266.44 385.00 270.94 C 387.99 271.11 390.98 271.28 393.99 271.33 C 392.70 266.66 391.03 262.09 390.14 257.32 Z"/>
    <path fill="#282828" opacity="1.00" d=" M 169.98 255.59 C 177.20 255.02 184.45 254.69 191.68 254.19 C 191.73 255.58 191.79 256.98 191.85 258.37 C 189.03 258.48 186.22 258.67 183.40 258.82 C 184.10 267.27 184.45 275.75 185.08 284.22 C 183.42 284.26 181.76 284.31 180.10 284.38 C 179.73 275.99 179.07 267.62 178.62 259.23 C 175.76 259.34 172.89 259.48 170.03 259.58 C 170.02 258.58 169.99 256.59 169.98 255.59 Z"/>
    <path fill="#282828" opacity="1.00" d=" M 197.23 254.32 C 198.89 254.28 200.56 254.26 202.22 254.24 C 202.40 264.01 203.36 273.75 203.52 283.52 C 201.87 283.63 200.23 283.74 198.59 283.84 C 198.21 274.00 197.46 264.17 197.23 254.32 Z"/>
    <path fill="#282828" opacity="1.00" d=" M 413.74 256.74 C 418.39 254.31 423.91 255.07 428.75 256.47 C 428.75 258.15 428.75 259.82 428.77 261.50 C 425.19 259.71 420.92 258.56 417.07 260.20 C 409.55 263.31 408.24 275.51 415.24 279.84 C 418.99 282.14 423.61 281.30 427.58 280.10 C 427.47 281.19 427.26 283.38 427.15 284.48 C 421.70 285.99 415.23 286.21 410.58 282.50 C 402.55 275.96 404.45 261.22 413.74 256.74 Z"/>
    <path fill="#282828" opacity="1.00" d=" M 159.40 256.77 C 160.92 256.67 162.45 256.58 163.97 256.48 C 164.82 266.21 165.57 275.94 166.40 285.67 C 164.61 285.81 162.83 285.95 161.04 286.07 C 155.48 278.93 150.12 271.63 144.34 264.66 C 145.17 272.21 145.59 279.78 146.33 287.34 C 144.74 287.45 143.16 287.55 141.58 287.69 C 140.87 277.94 139.98 268.21 139.23 258.47 C 141.11 258.31 142.99 258.16 144.87 258.00 C 150.33 265.16 155.80 272.31 161.29 279.45 C 160.52 271.90 159.92 264.34 159.40 256.77 Z"/>
    <path fill="#282828" opacity="1.00" d=" M 440.05 258.09 C 444.82 255.59 450.46 256.44 455.31 258.24 C 455.16 259.82 455.03 261.40 454.92 262.99 C 451.60 261.28 447.75 260.28 444.06 261.35 C 436.03 263.72 434.24 276.42 441.16 281.02 C 444.86 283.38 449.61 282.89 453.53 281.34 C 453.35 282.87 453.18 284.41 453.03 285.95 C 447.51 287.18 440.99 287.49 436.45 283.55 C 428.78 276.82 430.84 262.48 440.05 258.09 Z"/>
    <path fill="#282828" opacity="1.00" d=" M 461.49 258.19 C 466.76 258.59 472.02 259.18 477.29 259.67 C 477.18 260.69 476.96 262.74 476.85 263.76 C 473.19 263.43 469.54 263.10 465.89 262.69 C 465.65 265.45 465.39 268.21 465.18 270.97 C 468.51 271.37 471.85 271.64 475.19 272.01 C 475.04 273.34 474.90 274.67 474.75 276.01 C 471.38 275.74 468.00 275.39 464.62 275.20 C 464.41 278.04 464.16 280.87 463.92 283.71 C 467.75 284.16 471.59 284.55 475.44 284.83 C 475.30 286.21 475.15 287.60 475.01 288.99 C 469.55 288.38 464.08 287.90 458.62 287.35 C 459.57 277.63 460.54 267.91 461.49 258.19 Z"/>
    <path fill="#282828" opacity="1.00" d=" M 116.51 260.37 C 121.77 259.83 127.04 259.35 132.29 258.70 C 132.43 260.10 132.57 261.50 132.72 262.90 C 129.09 263.25 125.45 263.56 121.82 264.01 C 122.13 266.76 122.42 269.52 122.69 272.28 C 126.04 271.89 129.40 271.56 132.76 271.27 C 132.86 272.28 133.05 274.30 133.15 275.31 C 129.81 275.63 126.48 276.02 123.14 276.41 C 123.41 279.27 123.70 282.14 124.03 285.01 C 127.88 284.61 131.73 284.24 135.58 283.83 C 135.73 285.19 135.88 286.56 136.03 287.94 C 130.56 288.43 125.10 289.05 119.63 289.60 C 118.57 279.86 117.62 270.11 116.51 260.37 Z"/>
    <path fill="#282828" opacity="1.00" d=" M 485.72 263.69 C 489.61 260.85 494.91 261.54 499.28 262.79 C 501.97 263.15 500.59 266.43 500.84 268.24 C 497.42 266.46 493.14 264.61 489.45 266.68 C 487.38 267.85 487.46 271.16 489.41 272.41 C 492.90 275.16 497.58 277.00 499.42 281.36 C 501.17 285.26 498.65 290.27 494.53 291.33 C 489.76 292.50 484.78 291.42 480.42 289.36 C 480.58 287.70 480.75 286.05 480.94 284.40 C 484.23 286.74 488.36 288.66 492.47 287.43 C 495.01 286.71 495.64 282.91 493.62 281.33 C 490.47 278.51 486.13 276.97 483.79 273.28 C 481.84 270.20 482.70 265.76 485.72 263.69 Z"/>
    <path fill="#282828" opacity="1.00" d=" M 85.70 264.34 C 92.83 263.53 101.10 261.00 107.47 265.60 C 113.81 271.28 114.34 282.94 107.46 288.46 C 102.56 292.75 95.68 292.48 89.64 293.57 C 88.29 283.83 87.09 274.07 85.70 264.34 M 91.15 267.70 C 91.95 274.76 93.02 281.79 93.89 288.85 C 97.72 288.25 102.15 288.06 104.93 284.95 C 108.53 280.67 107.88 273.76 104.46 269.56 C 100.99 265.92 95.56 267.15 91.15 267.70 Z"/>
    <path fill="#282828" opacity="1.00" d=" M 509.78 265.74 C 514.38 263.04 520.05 264.40 524.78 266.07 C 524.62 267.66 524.45 269.26 524.30 270.87 C 521.15 269.17 517.44 267.43 513.84 268.72 C 511.82 269.36 510.59 272.04 512.03 273.79 C 514.79 277.13 519.42 278.50 521.76 282.29 C 524.19 285.71 523.12 291.34 519.15 293.12 C 514.06 295.49 508.21 293.77 503.44 291.42 C 503.64 289.78 503.84 288.14 504.04 286.51 C 507.21 288.90 511.10 290.75 515.18 289.89 C 517.87 289.54 518.86 285.85 517.02 284.00 C 514.37 281.25 510.64 279.77 508.19 276.80 C 505.25 273.67 505.94 267.83 509.78 265.74 Z"/>
    <path fill="#282828" opacity="1.00" d=" M 71.80 266.36 C 73.46 266.08 75.12 265.81 76.77 265.53 C 78.38 275.22 79.89 284.93 81.58 294.62 C 79.92 294.87 78.25 295.14 76.59 295.41 C 74.93 285.74 73.44 276.04 71.80 266.36 Z"/>
    <path fill="#282828" opacity="1.00" d=" M 277.18 311.51 C 278.88 311.52 280.58 311.53 282.29 311.54 C 282.77 321.36 282.15 331.19 282.64 341.00 C 280.94 341.00 279.23 340.99 277.53 341.00 C 277.43 331.17 277.82 321.33 277.18 311.51 Z"/>
    <path fill="#282828" opacity="1.00" d=" M 290.76 314.71 C 294.72 310.27 301.38 310.72 306.70 311.83 C 306.73 313.41 306.76 315.00 306.82 316.58 C 303.48 315.30 299.52 314.42 296.16 316.06 C 294.35 316.94 294.05 319.13 294.71 320.86 C 298.02 324.25 303.37 324.81 306.38 328.62 C 309.12 331.88 308.51 337.53 304.71 339.72 C 300.00 342.45 294.26 341.56 289.30 340.10 C 289.26 338.42 289.22 336.75 289.17 335.08 C 292.69 336.90 296.93 338.52 300.81 336.75 C 303.05 335.92 303.83 332.59 301.94 331.00 C 298.82 328.28 294.42 327.51 291.44 324.56 C 288.78 322.09 288.45 317.52 290.76 314.71 Z"/>
    <path fill="#282828" opacity="1.00" d=" M 264.21 312.02 C 265.80 312.01 267.39 312.00 268.98 311.99 C 269.12 321.82 269.46 331.65 269.48 341.48 C 267.71 341.46 265.94 341.47 264.17 341.47 C 259.11 333.77 253.72 326.29 248.73 318.54 C 249.09 326.24 249.28 333.96 249.27 341.68 C 247.69 341.80 246.11 341.93 244.53 342.05 C 244.56 332.21 244.30 322.37 243.93 312.54 C 245.89 312.53 247.85 312.53 249.82 312.52 C 254.76 320.04 259.92 327.41 264.77 334.99 C 264.49 327.33 264.60 319.67 264.21 312.02 Z"/>
    <path fill="#282828" opacity="1.00" d=" M 311.00 311.50 C 318.24 311.91 325.49 311.67 332.74 311.73 C 332.73 313.15 332.73 314.57 332.74 316.00 C 329.91 316.00 327.09 316.00 324.26 316.00 C 324.39 324.44 324.13 332.86 323.98 341.30 C 322.39 341.15 320.81 341.01 319.23 340.89 C 319.31 332.51 319.12 324.12 319.59 315.74 C 316.73 315.73 313.87 315.73 311.00 315.74 C 311.00 314.32 311.00 312.91 311.00 311.50 Z"/>
    <path fill="#282828" opacity="1.00" d=" M 338.29 311.73 C 343.96 312.09 350.71 310.55 355.42 314.53 C 359.67 318.92 356.77 326.57 351.08 327.99 C 355.08 331.77 357.32 336.89 360.25 341.46 C 358.37 341.46 356.49 341.46 354.62 341.47 C 352.52 337.92 350.88 334.03 348.23 330.84 C 346.93 329.18 344.64 329.43 342.80 329.05 C 342.75 333.16 342.45 337.26 342.41 341.37 C 340.84 341.24 339.29 341.10 337.73 340.97 C 337.67 331.21 338.18 321.48 338.29 311.73 M 343.03 315.65 C 343.00 318.86 343.01 322.07 342.86 325.28 C 345.14 325.17 347.63 325.85 349.76 324.77 C 352.69 323.33 353.24 318.55 350.47 316.69 C 348.19 315.49 345.50 315.82 343.03 315.65 Z"/>
    <path fill="#282828" opacity="1.00" d=" M 215.20 313.33 C 217.44 313.20 219.67 313.05 221.91 312.94 C 222.29 322.77 222.69 332.62 223.27 342.45 C 221.62 342.46 219.96 342.48 218.31 342.51 C 218.19 334.29 217.25 326.09 217.61 317.87 C 214.97 326.28 211.87 334.53 209.06 342.88 C 208.23 342.99 206.58 343.22 205.76 343.33 C 202.15 335.44 198.32 327.65 195.08 319.59 C 195.32 327.64 195.81 335.68 196.11 343.73 C 194.59 343.73 193.07 343.74 191.55 343.76 C 191.30 333.96 190.66 324.18 190.28 314.38 C 192.60 314.30 194.92 314.24 197.24 314.18 C 200.44 321.75 204.05 329.13 207.17 336.73 C 209.57 328.84 212.60 321.15 215.20 313.33 Z"/>
    <path fill="#282828" opacity="1.00" d=" M 230.68 312.65 C 232.34 312.51 234.01 312.36 235.67 312.21 C 235.98 322.06 236.41 331.90 236.54 341.76 C 234.86 341.74 233.17 341.74 231.50 341.76 C 231.53 332.05 230.85 322.35 230.68 312.65 Z"/>
    <path fill="#282828" opacity="1.00" d=" M 373.44 312.98 C 375.28 313.05 377.12 313.16 378.97 313.27 C 382.28 323.21 385.49 333.18 388.81 343.11 C 387.00 342.99 385.20 342.86 383.41 342.70 C 382.61 340.24 381.86 337.78 381.10 335.31 C 377.25 335.03 373.39 335.01 369.54 334.78 C 368.56 337.28 367.61 339.79 366.66 342.30 C 364.89 342.17 363.11 342.02 361.35 341.91 C 365.45 332.30 369.40 322.62 373.44 312.98 M 375.88 317.64 C 374.39 322.15 372.57 326.54 370.88 330.97 C 373.90 330.97 376.92 331.05 379.94 331.30 C 378.62 326.73 377.04 322.24 375.88 317.64 Z"/>
    <path fill="#282828" opacity="1.00" d=" M 389.32 313.66 C 396.57 313.92 403.80 314.41 411.04 314.74 C 410.89 316.10 410.74 317.46 410.60 318.83 C 407.85 318.70 405.10 318.52 402.36 318.38 C 401.81 326.81 401.49 335.26 401.02 343.70 C 399.40 343.57 397.78 343.47 396.17 343.39 C 396.62 334.98 396.98 326.58 397.41 318.18 C 394.56 318.04 391.71 317.93 388.87 317.70 C 389.01 316.35 389.16 315.00 389.32 313.66 Z"/>
    <path fill="#282828" opacity="1.00" d=" M 421.55 315.68 C 426.49 314.38 432.35 315.21 436.07 318.95 C 441.31 324.55 441.12 333.78 437.09 340.01 C 431.72 348.02 417.75 347.26 413.41 338.60 C 409.35 330.65 412.23 318.35 421.55 315.68 M 422.21 320.25 C 416.55 323.35 415.42 331.43 418.15 336.85 C 420.60 341.77 428.05 342.86 431.81 338.88 C 435.23 335.41 435.17 329.99 434.34 325.52 C 433.21 320.34 426.74 317.93 422.21 320.25 Z"/>
    <path fill="#282828" opacity="1.00" d=" M 159.64 316.37 C 166.16 316.12 173.25 314.39 179.29 317.70 C 187.88 322.99 187.44 337.78 178.61 342.67 C 173.52 345.83 167.29 345.12 161.59 345.78 C 161.02 335.97 160.33 326.17 159.64 316.37 M 164.79 320.13 C 165.35 327.22 165.60 334.33 166.31 341.40 C 170.51 341.05 175.52 341.00 178.32 337.27 C 181.22 333.14 180.94 327.00 178.03 322.94 C 174.90 318.92 169.23 319.88 164.79 320.13 Z"/>
    <path fill="#282828" opacity="1.00" d=" M 448.06 317.06 C 453.82 318.14 461.24 316.41 465.38 321.56 C 468.73 326.38 465.32 333.07 459.80 334.17 C 463.59 338.23 465.63 343.48 468.17 348.33 C 466.25 348.10 464.32 347.89 462.41 347.66 C 460.67 344.06 459.26 340.26 457.00 336.94 C 455.82 335.08 453.42 335.11 451.49 334.82 C 451.12 338.79 450.75 342.77 450.42 346.75 C 448.82 346.58 447.23 346.44 445.64 346.31 C 446.39 336.55 447.41 326.82 448.06 317.06 M 452.60 321.30 C 452.36 324.53 452.11 327.77 451.76 331.00 C 453.80 331.10 455.86 331.42 457.91 331.12 C 461.38 330.37 462.93 325.18 460.00 322.94 C 457.88 321.41 455.05 321.77 452.60 321.30 Z"/>
    <path fill="#282828" opacity="1.00" d=" M 129.31 347.97 C 132.20 337.92 134.87 327.81 137.75 317.76 C 139.57 317.60 141.39 317.46 143.21 317.31 C 147.60 326.77 152.22 336.12 156.59 345.59 C 154.81 345.73 153.04 345.87 151.27 346.03 C 150.19 343.63 149.11 341.24 148.07 338.83 C 144.23 339.16 140.40 339.49 136.56 339.80 C 135.91 342.36 135.27 344.92 134.64 347.49 C 132.86 347.64 131.08 347.80 129.31 347.97 M 137.40 335.81 C 140.39 335.54 143.38 335.27 146.36 334.95 C 144.50 330.61 142.35 326.40 140.71 321.97 C 139.84 326.63 138.53 331.20 137.40 335.81 Z"/>
  </g>
  <g id="#0064b5ff">
    <path fill="#0064b5" opacity="1.00" d=" M 111.14 394.43 C 236.19 376.47 363.81 376.47 488.87 394.43 C 488.92 414.06 483.24 433.47 473.22 450.30 C 457.60 476.77 434.28 497.74 409.51 515.49 C 375.75 539.25 338.60 558.02 299.99 572.51 C 268.64 561.05 238.37 546.54 209.93 529.03 C 193.52 518.88 177.80 507.54 163.43 494.65 C 147.35 480.09 132.76 463.41 123.03 443.88 C 115.17 428.65 111.17 411.56 111.14 394.43 M 243.56 408.55 C 239.75 411.25 239.89 417.64 243.58 420.38 C 246.94 422.86 251.70 423.22 254.06 427.03 C 250.71 431.14 245.02 429.37 241.19 427.02 C 241.37 429.19 241.50 431.38 241.60 433.57 C 246.37 434.67 251.67 435.28 256.25 433.16 C 260.50 431.14 261.61 424.91 258.52 421.43 C 255.88 418.36 251.58 417.82 248.39 415.54 C 246.58 414.07 248.29 411.85 250.10 411.55 C 253.10 410.59 256.10 411.97 258.91 412.92 C 258.34 410.89 259.88 406.98 256.94 406.57 C 252.49 405.94 247.34 405.68 243.56 408.55 M 274.34 406.52 C 265.13 409.63 263.05 422.91 269.13 429.83 C 274.86 436.46 287.26 435.25 291.18 427.23 C 293.76 421.73 293.62 414.32 289.42 409.63 C 285.69 405.51 279.41 404.86 274.34 406.52 M 305.49 407.51 C 297.34 411.98 296.03 424.97 302.97 431.07 C 307.70 434.97 314.36 434.39 319.94 432.97 C 319.98 430.98 320.00 428.99 320.03 427.01 C 316.64 428.14 312.82 429.40 309.41 427.59 C 303.64 424.49 304.01 414.58 310.05 411.97 C 313.36 410.40 317.07 411.56 320.29 412.75 C 320.26 410.67 320.25 408.60 320.25 406.52 C 315.40 405.54 309.99 404.99 305.49 407.51 M 217.14 409.16 C 213.34 411.65 213.05 417.68 216.29 420.74 C 219.00 423.38 223.15 423.60 226.02 426.00 C 227.27 426.88 227.15 429.04 225.63 429.56 C 222.07 431.61 218.00 429.73 214.71 428.08 C 214.85 430.19 214.98 432.32 215.08 434.45 C 219.91 435.76 225.35 436.19 229.94 433.85 C 234.05 431.70 235.00 425.48 231.85 422.13 C 229.17 419.11 224.83 418.71 221.72 416.33 C 220.62 415.53 220.55 413.51 222.02 413.04 C 225.17 411.07 228.95 412.49 232.10 413.71 C 231.94 411.63 231.77 409.55 231.60 407.48 C 226.79 406.87 221.38 406.32 217.14 409.16 M 328.01 406.18 C 328.15 415.37 327.57 424.55 327.75 433.75 C 329.81 433.75 331.87 433.75 333.94 433.77 C 334.27 424.70 334.43 415.63 334.52 406.56 C 332.34 406.43 330.18 406.29 328.01 406.18 M 350.10 406.75 C 346.39 415.78 342.88 424.88 339.26 433.95 C 341.58 433.99 343.90 434.06 346.22 434.18 C 346.94 432.19 347.65 430.20 348.35 428.21 C 351.51 428.23 354.68 428.32 357.84 428.52 C 358.40 430.52 358.95 432.51 359.52 434.51 C 361.86 434.65 364.19 434.75 366.54 434.83 C 363.68 425.55 360.68 416.31 357.68 407.07 C 355.15 407.00 352.62 406.90 350.10 406.75 M 368.00 407.45 C 367.99 409.19 367.99 410.94 367.99 412.69 C 370.59 412.75 373.19 412.87 375.79 413.03 C 375.35 420.43 375.17 427.85 374.77 435.25 C 376.91 435.25 379.05 435.25 381.19 435.25 C 381.59 427.91 381.83 420.55 382.29 413.21 C 384.89 413.38 387.49 413.51 390.09 413.61 C 390.17 411.85 390.23 410.10 390.30 408.36 C 382.86 408.09 375.44 407.61 368.00 407.45 M 182.20 437.07 C 184.51 436.97 186.83 436.83 189.15 436.71 C 189.65 434.66 190.16 432.61 190.67 430.57 C 193.83 430.38 197.00 430.20 200.16 429.98 C 200.89 431.97 201.63 433.95 202.37 435.94 C 204.71 435.82 207.05 435.74 209.39 435.67 C 205.82 426.62 201.96 417.68 198.21 408.70 C 195.67 408.83 193.13 408.97 190.58 409.06 C 187.76 418.39 184.91 427.71 182.20 437.07 M 396.98 408.71 C 396.38 417.85 396.00 427.02 395.44 436.17 C 400.97 436.39 406.49 436.82 412.02 437.07 C 412.13 435.32 412.23 433.58 412.32 431.85 C 408.94 431.68 405.57 431.49 402.20 431.26 C 402.27 429.29 402.36 427.32 402.47 425.36 C 405.46 425.51 408.46 425.68 411.45 425.82 C 411.54 424.07 411.62 422.33 411.71 420.59 C 408.73 420.45 405.76 420.28 402.78 420.17 C 402.89 418.22 402.98 416.27 403.06 414.33 C 406.33 414.54 409.60 414.72 412.88 414.86 C 412.93 413.13 412.98 411.40 413.04 409.68 C 407.69 409.34 402.33 409.05 396.98 408.71 M 249.55 481.74 C 240.20 481.78 230.85 481.70 221.51 481.79 C 228.98 487.38 236.61 492.76 244.14 498.28 C 241.28 507.19 238.28 516.05 235.52 524.99 C 243.15 519.56 250.69 514.00 258.27 508.51 C 265.82 514.05 273.41 519.54 281.02 525.01 C 278.25 516.08 275.23 507.22 272.38 498.31 C 279.88 492.75 287.53 487.39 294.99 481.79 C 285.66 481.70 276.33 481.77 267.01 481.75 C 264.08 472.81 261.19 463.86 258.26 454.92 C 255.32 463.85 252.41 472.79 249.55 481.74 M 341.74 454.93 C 338.81 463.86 335.92 472.81 332.99 481.75 C 323.66 481.77 314.33 481.70 305.01 481.79 C 312.48 487.38 320.09 492.77 327.62 498.28 C 324.80 507.21 321.74 516.07 318.98 525.01 C 326.59 519.54 334.18 514.05 341.73 508.51 C 349.31 514.00 356.85 519.56 364.48 524.99 C 361.72 516.05 358.72 507.19 355.86 498.28 C 363.33 492.77 370.97 487.47 378.35 481.84 C 369.05 481.64 359.75 481.80 350.45 481.74 C 347.59 472.79 344.68 463.85 341.74 454.93 Z"/>
    <path fill="#0064b5" opacity="1.00" d=" M 277.38 411.51 C 281.57 409.92 285.81 413.65 285.95 417.84 C 286.70 422.11 285.14 428.13 279.98 428.51 C 271.13 429.05 269.75 414.21 277.38 411.51 Z"/>
    <path fill="#0064b5" opacity="1.00" d=" M 349.89 423.16 C 351.15 419.69 352.43 416.22 353.56 412.70 C 354.37 416.36 355.46 419.95 356.51 423.55 C 354.30 423.39 352.10 423.26 349.89 423.16 Z"/>
    <path fill="#0064b5" opacity="1.00" d=" M 191.80 425.52 C 192.77 421.91 193.74 418.29 194.56 414.65 C 195.70 418.21 197.05 421.69 198.39 425.18 C 196.19 425.26 194.00 425.39 191.80 425.52 Z"/>
  </g>
</svg>