<?xml version="1.0" encoding="utf-8"?>
<svg width="600pt" height="600pt" viewBox="0 0 600 600" version="1.1" xmlns="http://www.w3.org/2000/svg">
  <g id="#ffffffff">
    <path fill="#ffffff" opacity="1.00" d=" M 244.34 90.42 C 246.84 88.88 250.86 90.95 250.13 94.09 C 249.74 97.25 245.13 98.04 243.21 95.72 C 241.69 94.15 242.33 91.25 244.34 90.42 Z"/>
    <path fill="#ffffff" opacity="1.00" d=" M 371.54 92.54 C 374.36 89.84 378.74 89.34 382.28 90.80 C 382.28 92.43 382.30 94.05 382.34 95.68 C 380.80 95.44 378.77 94.26 377.46 95.61 C 376.10 96.61 376.63 98.54 376.34 99.98 C 378.05 99.99 379.75 100.00 381.47 100.01 C 381.46 101.67 381.46 103.33 381.47 104.99 C 379.79 105.00 378.13 105.01 376.46 105.02 C 376.47 111.01 376.47 117.01 376.47 123.00 C 374.17 123.00 371.89 123.00 369.60 123.00 C 369.60 117.00 369.59 111.01 369.61 105.02 C 368.40 105.01 367.20 105.00 366.00 104.99 C 365.99 103.33 366.00 101.67 366.00 100.01 C 367.16 100.00 368.33 99.99 369.51 99.98 C 369.62 97.41 369.56 94.48 371.54 92.54 Z"/>
    <path fill="#ffffff" opacity="1.00" d=" M 201.53 92.00 C 204.93 92.00 208.32 91.99 211.71 92.01 C 214.11 99.77 217.38 107.27 219.16 115.21 C 221.03 107.28 224.21 99.74 226.72 91.99 C 230.01 92.00 233.31 92.00 236.61 92.01 C 236.59 102.34 236.60 112.66 236.61 122.99 C 234.31 123.00 232.02 123.00 229.73 123.00 C 229.74 114.54 229.71 106.08 229.75 97.62 C 227.97 106.32 224.29 114.47 221.72 122.94 C 219.80 122.97 217.89 123.00 215.99 123.02 C 213.20 114.52 209.71 106.25 207.44 97.59 C 207.98 106.05 207.64 114.53 207.73 123.00 C 205.66 123.00 203.60 123.00 201.53 123.00 C 201.53 112.67 201.53 102.33 201.53 92.00 Z"/>
    <path fill="#ffffff" opacity="1.00" d=" M 387.39 95.07 C 389.68 94.37 391.97 93.68 394.27 92.98 C 394.27 95.31 394.26 97.65 394.26 99.99 C 395.88 99.99 397.50 100.00 399.13 100.01 C 399.13 101.67 399.13 103.33 399.13 104.99 C 397.50 105.00 395.89 105.00 394.27 105.01 C 394.36 108.88 393.98 112.78 394.53 116.62 C 395.46 118.48 397.60 118.01 399.19 117.39 C 399.15 119.02 399.13 120.66 399.11 122.30 C 395.27 123.58 389.51 123.56 387.96 118.98 C 386.90 114.42 387.58 109.65 387.40 105.01 C 386.52 105.00 384.75 104.99 383.87 104.99 C 383.86 103.33 383.86 101.67 383.87 100.01 C 384.75 100.01 386.52 99.99 387.40 99.99 C 387.39 98.35 387.39 96.71 387.39 95.07 Z"/>
    <path fill="#ffffff" opacity="1.00" d=" M 242.87 100.00 C 245.12 100.00 247.36 100.00 249.61 100.02 C 249.59 107.67 249.60 115.33 249.61 122.99 C 247.36 123.00 245.11 123.00 242.87 123.00 C 242.87 115.33 242.87 107.66 242.87 100.00 Z"/>
    <path fill="#ffffff" opacity="1.00" d=" M 259.76 101.82 C 263.57 99.55 268.34 99.50 272.47 100.89 C 272.48 102.83 272.50 104.78 272.56 106.73 C 270.45 105.41 267.88 104.32 265.40 105.34 C 259.71 106.96 260.04 116.95 266.01 117.90 C 268.36 118.55 270.53 117.25 272.55 116.26 C 272.50 118.15 272.47 120.05 272.46 121.94 C 268.27 123.22 263.43 123.77 259.52 121.36 C 252.67 117.31 252.94 105.77 259.76 101.82 Z"/>
    <path fill="#ffffff" opacity="1.00" d=" M 276.73 100.00 C 279.02 100.00 281.31 100.00 283.60 100.00 C 283.59 101.49 283.59 102.99 283.57 104.49 C 284.90 101.39 287.80 99.49 291.22 99.86 C 291.25 102.09 291.25 104.32 291.26 106.56 C 288.64 105.43 285.08 105.95 284.16 109.03 C 283.07 113.59 283.79 118.35 283.61 122.99 C 281.31 123.00 279.02 123.00 276.73 123.00 C 276.73 115.33 276.73 107.67 276.73 100.00 Z"/>
    <path fill="#ffffff" opacity="1.00" d=" M 301.40 100.55 C 305.03 99.47 309.13 99.82 312.44 101.70 C 319.42 105.90 318.91 117.92 311.67 121.60 C 306.81 123.94 300.21 123.60 296.32 119.59 C 291.08 113.78 293.22 102.40 301.40 100.55 M 301.77 106.69 C 298.97 110.42 300.10 118.70 306.05 118.03 C 311.57 117.18 311.30 109.64 309.04 105.86 C 306.69 104.90 303.51 104.33 301.77 106.69 Z"/>
    <path fill="#ffffff" opacity="1.00" d=" M 322.90 101.95 C 326.73 99.26 331.68 99.82 335.99 100.75 C 335.99 102.47 336.00 104.19 336.01 105.91 C 333.10 105.28 329.56 103.98 326.96 106.07 C 327.45 109.16 331.55 108.80 333.71 110.29 C 338.11 111.80 338.45 118.31 334.86 120.88 C 330.62 123.78 325.08 123.34 320.39 121.89 C 320.39 119.97 320.37 118.04 320.35 116.12 C 323.42 117.49 327.23 119.11 330.42 117.22 C 331.41 116.56 330.41 114.92 329.46 114.77 C 327.12 113.74 324.51 113.25 322.44 111.69 C 319.43 109.28 319.80 104.11 322.90 101.95 Z"/>
    <path fill="#ffffff" opacity="1.00" d=" M 347.36 100.56 C 352.21 99.11 358.36 100.14 361.45 104.50 C 364.82 109.74 363.80 117.89 358.27 121.28 C 353.35 123.99 346.41 123.75 342.34 119.61 C 337.09 113.82 339.20 102.45 347.36 100.56 M 347.74 106.72 C 344.98 110.48 346.12 118.74 352.09 118.03 C 357.58 117.14 357.29 109.64 355.04 105.86 C 352.67 104.89 349.48 104.33 347.74 106.72 Z"/>
    <path fill="#ffffff" opacity="1.00" d=" M 206.55 143.50 C 210.02 140.90 214.68 141.24 218.65 142.27 C 218.69 142.97 218.78 144.39 218.82 145.10 C 215.94 144.19 212.72 143.36 209.79 144.55 C 203.34 147.12 202.47 157.08 207.60 161.34 C 210.85 163.81 215.26 163.09 218.77 161.60 C 218.78 162.22 218.79 163.47 218.79 164.09 C 214.85 165.67 210.06 166.13 206.32 163.77 C 199.60 159.29 199.98 147.95 206.55 143.50 Z"/>
    <path fill="#ffffff" opacity="1.00" d=" M 230.00 142.01 C 233.96 141.99 237.92 141.96 241.87 142.09 C 241.82 142.64 241.70 143.73 241.65 144.28 C 238.67 144.26 235.70 144.27 232.73 144.27 C 232.73 146.85 232.73 149.42 232.73 152.00 C 235.49 152.00 238.25 152.00 241.01 152.00 C 241.00 152.62 240.98 153.86 240.97 154.48 C 238.22 154.47 235.48 154.47 232.74 154.47 C 232.73 157.16 232.73 159.84 232.74 162.52 C 235.92 162.53 239.10 162.53 242.28 162.54 C 242.27 163.36 242.26 164.18 242.26 165.00 C 238.17 165.00 234.09 165.00 230.00 165.00 C 230.00 157.33 230.00 149.67 230.00 142.01 Z"/>
    <path fill="#ffffff" opacity="1.00" d=" M 254.00 142.01 C 258.20 142.43 263.62 140.57 266.79 144.24 C 269.53 147.85 267.34 153.01 263.22 154.34 C 266.31 157.41 268.24 161.39 270.58 165.02 C 269.76 165.00 268.12 164.95 267.30 164.93 C 265.62 162.17 264.18 159.25 262.21 156.68 C 261.01 154.79 258.59 155.44 256.74 155.17 C 256.73 158.44 256.73 161.72 256.73 164.99 C 256.05 165.00 254.69 165.00 254.00 165.00 C 254.00 157.34 254.00 149.67 254.00 142.01 M 256.73 144.21 C 256.73 147.06 256.73 149.92 256.73 152.79 C 258.77 152.69 260.87 152.88 262.86 152.29 C 265.13 151.02 265.71 147.78 264.33 145.66 C 262.29 143.77 259.25 144.46 256.73 144.21 Z"/>
    <path fill="#ffffff" opacity="1.00" d=" M 276.73 142.00 C 282.06 141.99 287.39 142.00 292.72 142.00 C 292.72 142.57 292.72 143.70 292.72 144.27 C 290.48 144.27 288.24 144.27 286.01 144.26 C 285.99 151.18 286.01 158.09 286.00 165.00 C 285.31 165.00 283.95 164.99 283.27 164.99 C 283.27 158.08 283.27 151.18 283.26 144.27 C 281.09 144.27 278.91 144.27 276.74 144.26 C 276.74 143.70 276.73 142.57 276.73 142.00 Z"/>
    <path fill="#ffffff" opacity="1.00" d=" M 303.00 142.00 C 303.69 142.00 305.05 142.01 305.73 142.01 C 305.73 149.67 305.73 157.33 305.73 164.99 C 305.05 164.99 303.69 165.00 303.00 165.00 C 303.00 157.33 303.00 149.66 303.00 142.00 Z"/>
    <path fill="#ffffff" opacity="1.00" d=" M 318.00 142.00 C 321.94 141.99 325.88 141.98 329.82 142.05 C 329.78 142.61 329.71 143.72 329.68 144.28 C 326.69 144.27 323.71 144.27 320.73 144.27 C 320.73 146.94 320.73 149.60 320.74 152.26 C 323.49 152.27 326.24 152.27 329.00 152.27 C 329.00 152.89 329.00 154.12 329.00 154.73 C 326.24 154.73 323.49 154.73 320.74 154.74 C 320.73 158.15 320.73 161.57 320.74 164.99 C 320.05 164.99 318.69 165.00 318.00 165.01 C 317.99 157.34 318.00 149.67 318.00 142.00 Z"/>
    <path fill="#ffffff" opacity="1.00" d=" M 341.00 142.00 C 341.69 142.00 343.05 142.01 343.74 142.01 C 343.73 149.67 343.73 157.33 343.73 164.99 C 343.05 165.00 341.69 165.00 341.00 165.00 C 341.00 157.33 341.00 149.66 341.00 142.00 Z"/>
    <path fill="#ffffff" opacity="1.00" d=" M 356.00 142.00 C 359.95 141.99 363.90 141.97 367.85 142.07 C 367.80 142.62 367.71 143.73 367.66 144.28 C 364.68 144.27 361.70 144.27 358.73 144.27 C 358.73 146.85 358.73 149.42 358.73 152.00 C 361.49 152.00 364.25 152.00 367.01 152.00 C 367.00 152.62 366.98 153.86 366.96 154.48 C 364.22 154.47 361.48 154.47 358.74 154.47 C 358.73 157.16 358.73 159.84 358.74 162.52 C 361.92 162.53 365.10 162.53 368.28 162.54 C 368.27 163.36 368.26 164.18 368.26 165.00 C 364.17 165.00 360.09 165.00 356.00 165.00 C 356.00 157.33 356.00 149.67 356.00 142.00 Z"/>
    <path fill="#ffffff" opacity="1.00" d=" M 379.00 142.01 C 384.33 142.20 390.69 140.87 394.92 145.01 C 399.26 150.23 398.47 159.71 392.27 163.22 C 388.31 165.70 383.43 164.87 379.00 165.00 C 379.00 157.33 379.00 149.67 379.00 142.01 M 381.73 144.22 C 381.73 150.33 381.73 156.43 381.73 162.54 C 384.86 162.49 388.31 162.95 391.05 161.08 C 395.35 158.27 395.77 151.82 393.38 147.64 C 390.80 143.89 385.72 144.32 381.73 144.22 Z"/>
    <path fill="#ffffff" opacity="1.00" d=" M 239.59 211.85 C 345.01 207.69 450.88 214.44 554.85 232.46 C 564.77 233.86 574.38 243.33 572.16 253.89 C 564.55 294.03 556.89 334.16 549.19 374.29 C 547.38 383.72 537.20 390.26 527.86 388.39 C 378.73 362.69 225.27 362.47 76.07 387.72 C 72.37 388.39 68.53 389.22 64.81 388.22 C 57.74 386.68 51.80 380.75 50.64 373.54 C 43.06 333.67 35.39 293.80 27.85 253.92 C 25.60 243.38 35.17 233.90 45.09 232.47 C 109.37 221.33 174.40 214.51 239.59 211.85 M 323.55 255.69 C 323.33 264.13 323.31 272.57 323.12 281.01 C 324.49 281.00 325.87 281.00 327.25 281.00 C 327.24 278.00 327.32 275.02 327.48 272.03 C 330.53 271.96 333.91 272.37 336.57 270.53 C 341.37 267.66 341.51 259.19 336.09 256.91 C 332.10 255.36 327.71 256.30 323.55 255.69 M 244.52 256.81 C 244.50 265.21 245.03 273.61 245.00 282.02 C 246.47 281.90 247.95 281.78 249.43 281.69 C 249.16 273.30 248.99 264.91 248.72 256.52 C 247.32 256.62 245.92 256.72 244.52 256.81 M 262.51 256.74 C 252.17 259.73 251.36 276.54 260.84 281.09 C 265.41 283.14 271.28 282.49 274.95 278.95 C 279.65 273.81 279.70 265.12 275.36 259.75 C 272.23 256.13 266.89 255.55 262.51 256.74 M 284.00 255.73 C 284.00 264.16 284.00 272.58 284.00 281.00 C 285.42 281.00 286.84 280.99 288.26 281.00 C 288.40 274.32 288.09 267.64 287.97 260.97 C 292.17 267.72 296.64 274.30 300.93 281.00 C 302.44 280.99 303.95 281.00 305.46 281.00 C 305.47 272.58 305.46 264.15 305.47 255.73 C 304.48 255.73 302.52 255.73 301.53 255.73 C 301.55 262.23 301.49 268.74 301.58 275.24 C 297.32 268.78 293.06 262.31 288.97 255.74 C 287.31 255.73 285.65 255.73 284.00 255.73 M 344.21 280.97 C 345.54 281.09 346.88 281.21 348.22 281.34 C 348.38 277.85 348.50 274.36 348.48 270.88 C 350.20 271.12 352.36 270.86 353.44 272.55 C 355.53 275.30 356.97 278.47 358.68 281.47 C 360.29 281.46 361.90 281.47 363.53 281.48 C 360.99 277.53 359.13 273.04 355.54 269.88 C 360.20 268.87 362.69 263.24 360.06 259.22 C 356.44 254.58 349.83 256.36 344.76 256.00 C 344.63 264.33 344.26 272.64 344.21 280.97 M 220.69 257.78 C 220.73 258.66 220.81 260.42 220.85 261.30 C 223.30 261.29 225.76 261.22 228.21 261.04 C 228.28 268.29 228.78 275.54 228.75 282.81 C 230.14 282.44 233.22 283.53 232.99 281.20 C 232.73 274.48 232.57 267.76 232.20 261.06 C 234.62 260.80 237.06 260.70 239.50 260.71 C 239.49 259.55 239.49 258.39 239.49 257.24 C 233.22 257.27 226.96 257.63 220.69 257.78 M 373.50 257.67 C 366.04 260.59 364.11 270.70 367.63 277.28 C 370.79 283.05 378.92 284.56 384.40 281.34 C 391.08 277.10 392.17 266.63 387.26 260.66 C 383.95 256.74 378.14 256.21 373.50 257.67 M 207.57 258.27 C 204.92 266.90 202.02 275.45 199.30 284.06 C 200.83 283.94 202.37 283.81 203.92 283.69 C 204.52 281.56 205.12 279.44 205.72 277.32 C 209.01 277.12 212.30 276.99 215.58 276.72 C 216.47 278.79 217.31 280.89 218.16 282.98 C 219.71 282.99 221.26 282.99 222.82 283.00 C 219.38 274.74 215.84 266.52 212.38 258.27 C 210.78 258.26 209.17 258.26 207.57 258.27 M 392.02 257.77 C 391.92 258.68 391.73 260.49 391.64 261.40 C 394.10 261.46 396.56 261.59 399.02 261.78 C 398.56 269.00 398.28 276.24 397.87 283.47 C 399.23 283.47 400.60 283.48 401.97 283.50 C 402.53 276.35 402.72 269.18 403.13 262.03 C 405.57 262.10 408.01 262.23 410.46 262.32 C 410.46 261.43 410.47 259.66 410.47 258.78 C 404.31 258.51 398.16 258.20 392.02 257.77 M 187.93 259.28 C 185.76 265.99 183.37 272.63 181.34 279.39 C 178.43 272.97 175.42 266.59 172.40 260.22 C 170.43 260.36 168.46 260.50 166.49 260.60 C 167.11 269.03 167.62 277.46 168.09 285.90 C 169.41 285.71 170.73 285.53 172.06 285.36 C 171.29 278.42 171.31 271.43 170.53 264.49 C 173.34 271.50 176.96 278.15 180.12 285.01 C 180.83 285.00 182.25 285.00 182.96 285.00 C 185.21 277.59 188.21 270.39 189.72 262.78 C 190.14 269.96 190.57 277.14 191.07 284.31 C 192.44 284.26 193.82 284.21 195.20 284.17 C 194.61 275.77 194.11 267.37 193.65 258.97 C 191.74 259.04 189.84 259.16 187.93 259.28 M 414.21 284.27 C 418.87 284.40 423.52 284.85 428.19 285.07 C 428.31 283.91 428.43 282.75 428.57 281.59 C 425.18 281.39 421.79 281.15 418.41 280.91 C 418.65 278.40 418.85 275.89 419.09 273.39 C 421.96 273.65 424.83 273.85 427.71 274.05 C 427.73 272.86 427.76 271.68 427.79 270.50 C 424.91 270.33 422.04 270.14 419.17 269.88 C 419.38 267.51 419.51 265.13 419.70 262.77 C 422.83 263.03 425.96 263.24 429.10 263.42 C 429.16 262.51 429.27 260.70 429.32 259.79 C 424.80 259.62 420.29 259.36 415.79 258.94 C 415.21 267.38 414.55 275.82 414.21 284.27 M 439.78 261.66 C 431.66 265.26 429.84 277.75 436.32 283.67 C 440.21 287.11 445.87 286.90 450.64 285.83 C 450.79 284.53 450.95 283.24 451.11 281.95 C 447.43 283.18 443.00 283.65 439.78 281.06 C 434.68 276.73 436.25 266.91 442.70 264.71 C 445.94 263.53 449.40 264.52 452.39 265.94 C 452.42 264.90 452.47 262.84 452.50 261.81 C 448.43 260.43 443.79 259.73 439.78 261.66 M 143.05 262.58 C 143.69 270.98 144.51 279.36 145.06 287.76 C 146.49 287.62 147.91 287.48 149.34 287.36 C 148.95 283.86 148.61 280.36 148.52 276.85 C 154.57 276.10 156.44 282.87 159.68 286.53 C 161.34 286.41 163.01 286.29 164.68 286.17 C 161.57 282.53 159.30 278.02 155.17 275.38 C 159.89 273.93 161.99 267.37 158.27 263.84 C 154.07 260.07 148.04 262.56 143.05 262.58 M 456.02 262.01 C 455.93 262.88 455.75 264.64 455.66 265.51 C 458.00 265.77 460.34 265.99 462.69 266.17 C 462.37 273.37 461.47 280.52 460.77 287.69 C 462.16 287.84 463.55 287.99 464.96 288.14 C 465.69 280.98 466.23 273.79 467.06 266.64 C 469.44 266.86 471.81 267.10 474.19 267.34 C 474.28 266.45 474.46 264.68 474.54 263.80 C 468.37 263.22 462.19 262.66 456.02 262.01 M 123.42 263.64 C 112.26 266.55 112.48 284.80 122.93 288.51 C 127.49 289.81 133.00 288.94 136.30 285.32 C 140.46 280.37 140.20 272.55 136.57 267.39 C 133.66 263.28 128.04 262.13 123.42 263.64 M 478.80 264.32 C 478.00 272.68 476.90 281.00 476.10 289.37 C 477.51 289.50 478.92 289.65 480.34 289.80 C 481.27 281.47 482.18 273.13 483.08 264.78 C 481.65 264.62 480.22 264.47 478.80 264.32 M 95.95 267.60 C 96.93 275.93 98.04 284.25 99.11 292.57 C 100.49 292.43 101.87 292.28 103.26 292.15 C 102.76 288.63 102.35 285.10 101.94 281.57 C 104.83 281.27 107.70 280.89 110.57 280.45 C 110.46 279.58 110.22 277.84 110.11 276.96 C 107.23 277.38 104.35 277.73 101.47 278.07 C 101.14 275.56 100.81 273.06 100.47 270.57 C 103.61 270.19 106.75 269.76 109.89 269.37 C 109.70 268.19 109.51 267.02 109.32 265.85 C 104.86 266.44 100.40 266.99 95.95 267.60 M 495.47 266.70 C 488.05 268.95 485.37 278.40 487.84 285.14 C 490.48 292.35 500.86 294.61 506.59 289.76 C 511.19 285.86 512.31 278.88 510.49 273.35 C 508.29 267.49 501.19 265.03 495.47 266.70 M 84.26 268.92 C 85.26 275.40 86.22 281.88 87.41 288.33 C 82.37 282.43 77.08 276.75 71.96 270.93 C 70.34 271.16 68.73 271.41 67.12 271.65 C 68.44 279.94 69.75 288.23 71.07 296.52 C 72.40 296.31 73.72 296.11 75.05 295.92 C 74.07 289.42 72.95 282.94 72.00 276.44 C 76.75 281.85 81.58 287.18 86.41 292.50 C 87.70 294.56 90.21 293.30 92.12 293.23 C 90.88 284.93 89.46 276.66 88.23 268.35 C 87.24 268.50 85.25 268.78 84.26 268.92 M 519.34 269.65 C 517.89 277.91 516.43 286.18 515.12 294.47 C 516.42 294.72 517.73 294.98 519.05 295.24 C 520.14 288.79 521.25 282.35 522.31 275.90 C 525.55 282.98 528.51 290.19 531.61 297.34 C 533.13 297.58 534.64 297.83 536.16 298.09 C 537.53 289.86 538.89 281.63 540.40 273.43 C 539.07 273.10 537.75 272.78 536.44 272.47 C 535.36 278.91 534.18 285.34 533.22 291.80 C 530.16 284.73 527.12 277.65 524.16 270.54 C 522.54 270.24 520.94 269.94 519.34 269.65 M 55.23 273.74 C 56.87 281.96 58.42 290.20 60.05 298.43 C 61.44 298.14 62.83 297.86 64.23 297.59 C 62.63 289.36 61.06 281.13 59.43 272.92 C 58.03 273.19 56.63 273.46 55.23 273.74 M 268.98 315.59 C 269.29 322.14 269.05 328.71 269.58 335.25 C 265.33 328.66 260.88 322.20 256.51 315.70 C 254.92 315.72 253.33 315.73 251.74 315.75 C 251.57 324.17 252.20 332.58 252.00 341.00 C 253.42 340.99 254.85 340.99 256.27 341.00 C 255.73 334.37 256.23 327.71 255.67 321.08 C 260.14 327.60 264.54 334.18 269.01 340.71 C 270.50 340.59 272.00 340.49 273.51 340.40 C 273.21 332.05 273.38 323.70 272.96 315.35 C 271.63 315.44 270.30 315.52 268.98 315.59 M 332.53 315.76 C 332.64 324.17 332.18 332.56 332.17 340.97 C 333.52 341.02 334.87 341.08 336.23 341.14 C 336.27 337.72 336.45 334.30 336.50 330.89 C 338.00 331.14 339.85 330.73 340.97 332.05 C 343.35 334.78 344.77 338.20 346.67 341.26 C 348.33 341.36 349.99 341.45 351.65 341.55 C 349.11 337.55 347.09 333.13 343.61 329.82 C 348.37 328.58 350.86 322.31 347.43 318.51 C 343.55 314.51 337.44 316.61 332.53 315.76 M 240.53 316.81 C 240.45 325.21 241.03 333.60 241.00 341.99 C 242.47 341.88 243.95 341.77 245.43 341.69 C 245.18 333.28 244.90 324.88 244.72 316.48 C 243.32 316.60 241.92 316.71 240.53 316.81 M 280.00 315.73 C 280.00 324.16 280.00 332.58 280.00 341.00 C 281.50 340.99 283.00 340.99 284.51 340.99 C 284.07 332.58 284.34 324.16 284.26 315.74 C 282.84 315.73 281.42 315.73 280.00 315.73 M 292.38 317.32 C 289.21 319.47 289.14 324.57 291.96 327.02 C 294.51 329.38 298.04 330.22 300.74 332.36 C 302.53 333.72 301.78 336.94 299.62 337.48 C 296.37 338.78 292.92 337.48 289.98 336.02 C 289.99 337.41 289.99 338.80 290.00 340.19 C 294.14 341.45 298.85 342.21 302.85 340.09 C 305.91 338.61 306.84 334.52 305.45 331.59 C 303.34 328.09 299.26 326.88 295.94 324.91 C 293.98 324.02 293.61 320.76 295.68 319.79 C 298.59 318.07 302.13 318.84 305.02 320.19 C 305.00 318.80 305.00 317.41 305.00 316.03 C 300.85 315.23 296.02 314.71 292.38 317.32 M 309.74 315.74 C 309.74 316.61 309.74 318.35 309.73 319.23 C 312.15 319.34 314.57 319.45 316.99 319.50 C 316.90 326.66 317.26 333.84 316.74 341.00 C 318.16 341.00 319.58 341.00 321.00 341.00 C 320.90 333.82 321.46 326.64 321.26 319.46 C 323.67 319.46 326.08 319.46 328.49 319.48 C 328.48 318.61 328.46 316.87 328.45 316.00 C 322.21 316.18 315.98 315.58 309.74 315.74 M 227.61 316.73 C 225.19 323.41 222.66 330.05 220.47 336.81 C 217.77 330.33 214.86 323.93 212.03 317.51 C 210.10 317.54 208.17 317.57 206.26 317.63 C 206.32 326.02 206.92 334.40 207.02 342.80 C 208.36 342.76 209.70 342.73 211.04 342.71 C 210.57 335.66 210.47 328.59 210.17 321.53 C 212.52 328.77 216.23 335.46 219.14 342.48 C 219.87 342.41 221.33 342.25 222.06 342.18 C 224.55 334.98 227.20 327.84 229.64 320.63 C 229.31 327.79 229.76 334.96 230.06 342.12 C 231.46 341.97 232.86 341.82 234.27 341.66 C 233.75 333.36 233.49 325.04 233.24 316.72 C 231.36 316.73 229.49 316.73 227.61 316.73 M 362.48 317.14 C 359.13 325.40 355.73 333.65 352.34 341.90 C 353.84 341.99 355.35 342.10 356.87 342.23 C 357.66 340.05 358.46 337.89 359.27 335.72 C 362.56 335.97 365.86 336.04 369.16 336.01 C 369.82 338.25 370.53 340.48 371.32 342.68 C 372.81 342.70 374.29 342.71 375.79 342.73 C 372.94 334.25 370.17 325.75 367.22 317.30 C 365.63 317.25 364.06 317.19 362.48 317.14 M 375.77 316.76 C 375.70 317.67 375.54 319.51 375.47 320.42 C 377.90 320.44 380.33 320.49 382.76 320.65 C 382.56 327.86 382.06 335.05 381.96 342.26 C 383.29 342.36 384.62 342.46 385.95 342.56 C 386.52 335.33 386.44 328.07 386.99 320.84 C 389.41 320.97 391.83 321.02 394.26 321.09 C 394.26 319.91 394.26 318.74 394.27 317.57 C 388.10 317.41 381.93 317.12 375.77 316.76 M 403.45 318.64 C 393.48 321.73 392.02 337.91 401.19 342.81 C 406.04 345.27 412.69 344.58 416.29 340.28 C 420.35 335.06 420.75 326.81 416.31 321.69 C 413.14 318.19 407.83 317.39 403.45 318.64 M 178.67 319.59 C 179.22 327.99 179.69 336.39 180.07 344.80 C 185.07 344.37 190.55 344.99 194.99 342.18 C 202.00 338.06 202.60 326.63 196.41 321.56 C 191.23 317.89 184.56 319.61 178.67 319.59 M 160.95 320.03 C 158.38 328.68 155.87 337.34 153.31 345.98 C 154.84 345.87 156.37 345.77 157.90 345.69 C 158.44 343.49 158.98 341.30 159.52 339.11 C 162.87 338.80 166.23 338.52 169.59 338.41 C 170.44 340.45 171.31 342.48 172.16 344.52 C 173.71 344.45 175.26 344.38 176.81 344.30 C 173.05 336.18 169.50 327.95 165.62 319.89 C 164.06 319.75 162.50 319.97 160.95 320.03 M 425.79 319.98 C 425.47 328.42 424.56 336.82 424.19 345.26 C 425.20 345.33 427.22 345.46 428.23 345.52 C 428.49 342.04 428.71 338.55 429.09 335.08 C 430.72 335.53 432.90 335.40 433.87 337.08 C 435.69 340.03 437.09 343.22 438.79 346.25 C 440.37 346.35 441.95 346.45 443.53 346.54 C 441.30 342.38 439.35 337.98 436.15 334.44 C 441.03 333.64 443.88 327.37 440.58 323.45 C 436.86 319.30 430.69 320.88 425.79 319.98 Z"/>
    <path fill="#ffffff" opacity="1.00" d=" M 327.48 259.19 C 330.12 259.62 333.73 258.78 335.32 261.56 C 336.05 263.41 336.05 265.96 334.35 267.30 C 332.48 269.04 329.78 268.42 327.48 268.56 C 327.46 265.44 327.46 262.32 327.48 259.19 Z"/>
    <path fill="#ffffff" opacity="1.00" d=" M 263.34 260.46 C 267.12 258.60 272.41 260.58 273.45 264.84 C 274.39 268.69 274.70 273.61 271.57 276.58 C 268.38 279.84 262.26 279.04 260.12 274.97 C 257.59 270.37 258.11 262.93 263.34 260.46 Z"/>
    <path fill="#ffffff" opacity="1.00" d=" M 348.74 259.42 C 351.02 259.61 353.64 258.96 355.60 260.48 C 357.68 262.59 356.69 266.60 353.84 267.46 C 352.16 267.84 350.42 267.55 348.73 267.54 C 348.73 264.83 348.73 262.13 348.74 259.42 Z"/>
    <path fill="#ffffff" opacity="1.00" d=" M 375.24 261.14 C 379.06 259.31 384.30 261.47 385.31 265.69 C 386.11 269.12 386.12 273.09 384.18 276.16 C 381.60 280.39 374.40 280.41 371.92 276.05 C 369.01 271.33 370.02 263.82 375.24 261.14 Z"/>
    <path fill="#ffffff" opacity="1.00" d=" M 206.71 273.78 C 207.83 269.91 209.02 266.07 210.04 262.18 C 211.38 266.00 212.95 269.73 214.45 273.50 C 211.87 273.57 209.29 273.70 206.71 273.78 Z"/>
    <path fill="#ffffff" opacity="1.00" d=" M 147.41 265.52 C 149.97 265.58 153.38 264.34 155.20 266.85 C 156.45 268.99 155.68 272.27 153.22 273.15 C 151.58 273.63 149.85 273.64 148.18 273.85 C 147.92 271.07 147.69 268.29 147.41 265.52 Z"/>
    <path fill="#ffffff" opacity="1.00" d=" M 124.22 267.27 C 127.14 266.07 130.83 266.74 132.75 269.37 C 136.72 274.45 135.82 284.92 128.00 285.46 C 118.70 286.13 116.19 270.80 124.22 267.27 Z"/>
    <path fill="#ffffff" opacity="1.00" d=" M 496.42 270.48 C 499.85 269.14 504.55 270.23 506.10 273.85 C 507.68 277.67 507.13 282.40 504.79 285.79 C 501.89 290.04 494.44 289.39 492.34 284.70 C 490.14 279.92 491.48 273.02 496.42 270.48 Z"/>
    <path fill="#ffffff" opacity="1.00" d=" M 336.79 319.19 C 339.03 319.50 341.63 318.95 343.53 320.49 C 345.58 322.59 344.53 326.41 341.81 327.39 C 340.02 327.62 338.21 327.53 336.43 327.56 C 336.48 324.76 336.66 321.98 336.79 319.19 Z"/>
    <path fill="#ffffff" opacity="1.00" d=" M 364.61 321.12 C 365.73 325.00 366.96 328.85 368.20 332.71 C 365.60 332.54 363.00 332.51 360.41 332.52 C 361.84 328.73 363.35 324.97 364.61 321.12 Z"/>
    <path fill="#ffffff" opacity="1.00" d=" M 404.36 322.43 C 408.22 320.41 413.71 322.75 414.60 327.12 C 415.41 330.92 415.29 335.55 412.42 338.50 C 409.27 341.77 403.16 341.04 400.92 337.05 C 398.24 332.39 399.17 324.95 404.36 322.43 Z"/>
    <path fill="#ffffff" opacity="1.00" d=" M 183.04 322.95 C 186.72 322.66 191.12 322.09 193.98 324.98 C 197.44 329.06 197.18 336.41 192.47 339.47 C 189.98 341.06 186.88 340.80 184.06 341.09 C 183.68 335.04 183.45 328.99 183.04 322.95 Z"/>
    <path fill="#ffffff" opacity="1.00" d=" M 429.18 331.94 C 429.40 329.16 429.59 326.39 429.82 323.61 C 432.80 323.83 437.82 323.74 437.59 328.04 C 437.37 332.44 432.42 332.43 429.18 331.94 Z"/>
    <path fill="#ffffff" opacity="1.00" d=" M 160.41 335.59 C 161.45 331.67 162.53 327.76 163.54 323.84 C 164.87 327.62 166.53 331.28 168.12 334.96 C 165.55 335.23 162.98 335.43 160.41 335.59 Z"/>
    <path fill="#ffffff" opacity="1.00" d=" M 244.14 408.13 C 248.25 405.62 253.57 405.79 258.09 406.91 C 259.30 408.59 258.55 411.01 258.83 412.99 C 255.64 411.62 251.55 410.11 248.43 412.40 C 247.10 413.32 247.64 415.27 248.90 415.93 C 252.03 417.87 256.03 418.48 258.51 421.42 C 261.62 424.88 260.51 431.14 256.25 433.15 C 251.67 435.23 246.31 434.80 241.57 433.48 C 241.50 431.29 241.38 429.11 241.18 426.94 C 244.85 429.34 250.86 431.31 253.89 426.98 C 251.54 422.54 245.62 423.00 242.53 419.39 C 239.69 416.12 240.28 410.37 244.14 408.13 Z"/>
    <path fill="#ffffff" opacity="1.00" d=" M 274.37 406.50 C 279.42 404.87 285.67 405.52 289.40 409.61 C 293.62 414.31 293.77 421.75 291.16 427.26 C 287.12 435.51 274.13 436.48 268.65 429.26 C 263.17 422.20 265.37 409.52 274.37 406.50 M 277.42 411.50 C 269.76 414.15 271.11 429.02 279.95 428.51 C 285.14 428.16 286.70 422.10 285.95 417.81 C 285.79 413.65 281.59 409.95 277.42 411.50 Z"/>
    <path fill="#ffffff" opacity="1.00" d=" M 305.49 407.51 C 309.99 405.05 315.46 405.39 320.28 406.64 C 320.26 408.70 320.26 410.77 320.28 412.84 C 317.11 411.47 313.38 410.43 310.07 411.97 C 304.02 414.56 303.64 424.47 309.40 427.58 C 312.80 429.37 316.70 428.26 320.04 426.91 C 320.00 428.90 319.98 430.90 319.95 432.90 C 314.39 434.50 307.68 434.92 302.94 431.05 C 296.03 424.93 297.35 411.98 305.49 407.51 Z"/>
    <path fill="#ffffff" opacity="1.00" d=" M 216.62 409.57 C 220.85 406.28 226.64 406.77 231.62 407.54 C 231.78 409.62 231.93 411.69 232.08 413.78 C 228.98 412.37 225.20 411.14 222.02 413.01 C 220.62 413.53 220.60 415.52 221.71 416.35 C 224.78 418.74 229.15 419.05 231.80 422.08 C 235.21 425.60 233.90 432.30 229.32 434.18 C 224.94 435.95 219.90 435.93 215.43 434.50 C 214.64 432.45 214.98 430.12 214.68 427.97 C 218.34 430.32 223.20 431.56 227.02 428.83 C 226.89 424.37 221.62 424.12 218.60 422.38 C 213.67 420.36 212.39 412.92 216.62 409.57 Z"/>
    <path fill="#ffffff" opacity="1.00" d=" M 328.01 406.19 C 330.17 406.29 332.33 406.42 334.51 406.55 C 334.45 415.62 334.26 424.69 333.95 433.76 C 331.88 433.75 329.81 433.75 327.75 433.75 C 327.57 424.56 328.16 415.38 328.01 406.19 Z"/>
    <path fill="#ffffff" opacity="1.00" d=" M 350.13 406.73 C 352.64 406.91 355.15 407.01 357.67 407.06 C 360.69 416.29 363.67 425.52 366.53 434.80 C 364.18 434.76 361.84 434.66 359.50 434.47 C 358.95 432.49 358.39 430.52 357.84 428.54 C 354.67 428.30 351.50 428.20 348.32 428.24 C 347.64 430.24 346.93 432.23 346.19 434.22 C 343.88 434.06 341.57 433.99 339.26 433.96 C 342.88 424.88 346.37 415.75 350.13 406.73 M 353.50 412.58 C 352.50 416.17 351.17 419.66 349.89 423.17 C 352.09 423.26 354.30 423.40 356.51 423.55 C 355.47 419.90 354.31 416.28 353.50 412.58 Z"/>
    <path fill="#ffffff" opacity="1.00" d=" M 368.00 407.46 C 375.43 407.59 382.85 408.11 390.28 408.35 C 390.22 410.10 390.16 411.84 390.08 413.59 C 387.49 413.52 384.90 413.39 382.33 413.18 C 381.78 420.52 381.61 427.89 381.20 435.25 C 379.04 435.25 376.90 435.24 374.75 435.25 C 375.21 427.86 375.30 420.45 375.82 413.06 C 373.21 412.86 370.61 412.74 368.01 412.71 C 368.00 410.96 367.99 409.20 368.00 407.46 Z"/>
    <path fill="#ffffff" opacity="1.00" d=" M 190.48 409.14 C 193.06 408.98 195.64 408.83 198.22 408.70 C 201.93 417.70 205.87 426.60 209.36 435.69 C 207.02 435.74 204.69 435.82 202.36 435.93 C 201.62 433.94 200.89 431.96 200.16 429.98 C 197.00 430.20 193.83 430.38 190.67 430.56 C 190.16 432.61 189.65 434.66 189.15 436.71 C 186.83 436.84 184.52 436.96 182.21 437.06 C 184.85 427.71 187.84 418.48 190.48 409.14 M 191.80 425.50 C 194.00 425.38 196.20 425.27 198.40 425.20 C 197.06 421.68 195.64 418.19 194.58 414.58 C 193.77 418.25 192.77 421.87 191.80 425.50 Z"/>
    <path fill="#ffffff" opacity="1.00" d=" M 397.02 408.68 C 402.37 409.11 407.73 409.25 413.07 409.75 C 413.00 411.44 412.93 413.15 412.87 414.86 C 409.59 414.73 406.32 414.54 403.05 414.32 C 402.97 416.27 402.88 418.22 402.78 420.17 C 405.73 420.29 408.68 420.45 411.64 420.53 C 411.58 422.28 411.53 424.04 411.50 425.80 C 408.48 425.69 405.48 425.52 402.48 425.35 C 402.37 427.31 402.28 429.28 402.21 431.25 C 405.57 431.50 408.93 431.70 412.30 431.82 C 412.21 433.56 412.12 435.31 412.02 437.06 C 406.49 436.84 400.98 436.36 395.45 436.19 C 396.02 427.02 396.32 417.84 397.02 408.68 Z"/>
    <path fill="#ffffff" opacity="1.00" d=" M 249.56 481.74 C 252.40 472.79 255.31 463.85 258.26 454.94 C 261.19 463.87 264.09 472.81 267.00 481.74 C 276.33 481.78 285.65 481.69 294.98 481.79 C 287.53 487.43 279.83 492.73 272.37 498.36 C 275.26 507.24 278.25 516.08 281.00 525.01 C 273.40 519.53 265.81 514.05 258.28 508.50 C 250.69 514.00 243.14 519.56 235.52 525.00 C 238.27 516.05 241.30 507.19 244.13 498.27 C 236.61 492.75 228.98 487.38 221.51 481.79 C 230.86 481.69 240.21 481.79 249.56 481.74 Z"/>
    <path fill="#ffffff" opacity="1.00" d=" M 341.73 454.94 C 344.69 463.85 347.60 472.79 350.44 481.74 C 359.79 481.79 369.13 481.69 378.48 481.79 C 371.02 487.38 363.39 492.75 355.87 498.27 C 358.70 507.19 361.73 516.05 364.48 525.00 C 356.85 519.56 349.31 514.00 341.72 508.50 C 334.18 514.05 326.59 519.55 318.99 525.00 C 321.75 516.07 324.78 507.22 327.62 498.32 C 320.13 492.75 312.47 487.40 305.02 481.79 C 314.34 481.69 323.67 481.78 333.00 481.74 C 335.91 472.81 338.81 463.87 341.73 454.94 Z"/>
  </g>
  <g id="#002050ff">
    <path fill="#002050" opacity="1.00" d="M 280.93 9.24 C 293.29 5.63 306.66 5.63 319.02 9.22 C 372.22 25.33 425.45 41.36 478.65 57.49 C 496.42 62.99 509.39 80.5 509.69 99.07 C 509.84 137.11 509.71 175.15 509.75 213.19 C 517.089 221.79 483.785 218.653 471.704 213.838 C 471.574 177.398 465.273 139.977 465.193 103.547 C 465.433 93.047 471.641 87.376 461.481 84.496 C 408.751 68.526 361.451 55.114 308.741 39.134 C 300.171 36.574 295.845 35.107 287.285 37.667 C 234.575 53.617 189.773 69.527 137.063 85.477 C 126.923 88.337 123.706 96.931 123.906 107.401 C 123.826 143.871 114.543 179.35 114.433 215.81 C 107.003 217.861 95.272 218.335 90.25 213.19 C 90.29 175.15 90.17 137.11 90.31 99.08 C 90.61 80.48 103.62 62.95 121.42 57.47 C 174.58 41.36 227.77 25.34 280.93 9.24 Z"/>
    <path fill="#002050" opacity="1.00" d="M 90.57 397.78 C 89.895 391.487 102.672 387.468 112.141 387.989 C 112.231 400.569 123.119 415.141 127.519 426.961 C 135.789 449.521 146.45 468.901 163.68 485.371 C 178.15 499.131 192.744 508.664 209.574 519.384 C 238.454 537.674 262.447 546.243 294.447 558.223 C 297.147 559.613 304.386 562.492 306.956 561.582 C 343.086 547.402 371.05 531.674 402.89 509.384 C 427.74 491.734 449.664 471.389 465.564 445.079 C 475.984 427.949 480.052 408.109 479.932 387.989 C 486.812 389.099 502.72 396.14 509.5 397.82 C 509.52 398.4 509.54 399.56 509.56 400.14 C 509.13 420.71 502.59 440.82 492.53 458.65 C 477.34 485.33 455.01 507.21 430.81 525.76 C 397.75 550.86 360.8 570.49 322.52 586.33 C 315.17 589.36 307.7 592.06 300.19 594.67 C 281.71 588.72 263.85 581.02 246.3 572.74 C 212.3 556.36 179.55 536.74 151.17 511.71 C 132.92 495.44 116.48 476.72 105.13 454.94 C 96.35 438.05 90.83 419.25 90.45 400.16 C 90.48 399.56 90.54 398.37 90.57 397.78 Z"/>
  </g>
  <g id="#505050ff">
    <path fill="#505050" opacity="1.00" d="M 286.79 29.74 C 295.35 27.18 304.63 27.16 313.2 29.72 C 365.91 45.7 418.66 61.59 471.39 77.56 C 481.55 80.44 488.72 90.57 488.48 101.07 C 488.56 137.5 488.42 173.93 488.55 210.37 C 495.61 211.33 502.69 212.22 509.75 213.19 C 523.35 215.12 536.91 217.22 550.46 219.46 C 554.89 220.24 559.42 220.77 563.65 222.4 C 573.84 226.13 582.2 235.16 584.08 245.99 C 585.4 252.05 583.56 258.12 582.51 264.07 C 575.3 301.73 568.19 339.41 560.92 377.06 C 558 392.18 542.03 402.87 526.94 400.42 C 521.27 399.54 515.65 398.44 509.97 397.67 C 509.86 398.29 509.66 399.52 509.56 400.14 C 509.54 399.56 509.52 398.4 509.5 397.82 C 502.72 396.14 495.779 395.171 488.85 394.43 C 364.65 381.143 237.927 385.967 111.15 394.43 C 104.216 394.893 97.34 396.14 90.57 397.78 C 90.54 398.37 90.48 399.56 90.45 400.16 C 90.34 399.53 90.12 398.29 90.01 397.67 C 80.71 398.6 71.38 402.21 62.01 399.95 C 50.53 397.47 40.9 387.84 38.89 376.19 C 31.19 335.77 23.4 295.35 15.79 254.91 C 13.17 239.11 25.81 224.04 40.97 221.01 C 57.32 217.97 73.79 215.6 90.25 213.19 C 97.31 212.22 104.39 211.33 111.46 210.36 C 111.57 173.9 111.44 137.43 111.52 100.96 C 111.32 90.49 118.5 80.41 128.64 77.55 C 181.35 61.6 234.08 45.69 286.79 29.74 M 244.34 90.42 C 242.33 91.25 241.69 94.15 243.21 95.72 C 245.13 98.04 249.74 97.25 250.13 94.09 C 250.86 90.95 246.84 88.88 244.34 90.42 M 371.54 92.54 C 369.56 94.48 369.62 97.41 369.51 99.98 C 368.33 99.99 367.16 100 366 100.01 C 366 101.67 365.99 103.33 366 104.99 C 367.2 105 368.4 105.01 369.61 105.02 C 369.59 111.01 369.6 117 369.6 123 C 371.89 123 374.17 123 376.47 123 C 376.47 117.01 376.47 111.01 376.46 105.02 C 378.13 105.01 379.79 105 381.47 104.99 C 381.46 103.33 381.46 101.67 381.47 100.01 C 379.75 100 378.05 99.99 376.34 99.98 C 376.63 98.54 376.1 96.61 377.46 95.61 C 378.77 94.26 380.8 95.44 382.34 95.68 C 382.3 94.05 382.28 92.43 382.28 90.8 C 378.74 89.34 374.36 89.84 371.54 92.54 M 201.53 92 C 201.53 102.33 201.53 112.67 201.53 123 C 203.6 123 205.66 123 207.73 123 C 207.64 114.53 207.98 106.05 207.44 97.59 C 209.71 106.25 213.2 114.52 215.99 123.02 C 217.89 123 219.8 122.97 221.72 122.94 C 224.29 114.47 227.97 106.32 229.75 97.62 C 229.71 106.08 229.74 114.54 229.73 123 C 232.02 123 234.31 123 236.61 122.99 C 236.6 112.66 236.59 102.34 236.61 92.01 C 233.31 92 230.01 92 226.72 91.99 C 224.21 99.74 221.03 107.28 219.16 115.21 C 217.38 107.27 214.11 99.77 211.71 92.01 C 208.32 91.99 204.93 92 201.53 92 M 387.39 95.07 C 387.39 96.71 387.39 98.35 387.4 99.99 C 386.52 99.99 384.75 100.01 383.87 100.01 C 383.86 101.67 383.86 103.33 383.87 104.99 C 384.75 104.99 386.52 105 387.4 105.01 C 387.58 109.65 386.9 114.42 387.96 118.98 C 389.51 123.56 395.27 123.58 399.11 122.3 C 399.13 120.66 399.15 119.02 399.19 117.39 C 397.6 118.01 395.46 118.48 394.53 116.62 C 393.98 112.78 394.36 108.88 394.27 105.01 C 395.89 105 397.5 105 399.13 104.99 C 399.13 103.33 399.13 101.67 399.13 100.01 C 397.5 100 395.88 99.99 394.26 99.99 C 394.26 97.65 394.27 95.31 394.27 92.98 C 391.97 93.68 389.68 94.37 387.39 95.07 M 242.87 100 C 242.87 107.66 242.87 115.33 242.87 123 C 245.11 123 247.36 123 249.61 122.99 C 249.6 115.33 249.59 107.67 249.61 100.02 C 247.36 100 245.12 100 242.87 100 M 259.76 101.82 C 252.94 105.77 252.67 117.31 259.52 121.36 C 263.43 123.77 268.27 123.22 272.46 121.94 C 272.47 120.05 272.5 118.15 272.55 116.26 C 270.53 117.25 268.36 118.55 266.01 117.9 C 260.04 116.95 259.71 106.96 265.4 105.34 C 267.88 104.32 270.45 105.41 272.56 106.73 C 272.5 104.78 272.48 102.83 272.47 100.89 C 268.34 99.5 263.57 99.55 259.76 101.82 M 276.73 100 C 276.73 107.67 276.73 115.33 276.73 123 C 279.02 123 281.31 123 283.61 122.99 C 283.79 118.35 283.07 113.59 284.16 109.03 C 285.08 105.95 288.64 105.43 291.26 106.56 C 291.25 104.32 291.25 102.09 291.22 99.86 C 287.8 99.49 284.9 101.39 283.57 104.49 C 283.59 102.99 283.59 101.49 283.6 100 C 281.31 100 279.02 100 276.73 100 M 301.4 100.55 C 293.22 102.4 291.08 113.78 296.32 119.59 C 300.21 123.6 306.81 123.94 311.67 121.6 C 318.91 117.92 319.42 105.9 312.44 101.7 C 309.13 99.82 305.03 99.47 301.4 100.55 M 322.9 101.95 C 319.8 104.11 319.43 109.28 322.44 111.69 C 324.51 113.25 327.12 113.74 329.46 114.77 C 330.41 114.92 331.41 116.56 330.42 117.22 C 327.23 119.11 323.42 117.49 320.35 116.12 C 320.37 118.04 320.39 119.97 320.39 121.89 C 325.08 123.34 330.62 123.78 334.86 120.88 C 338.45 118.31 338.11 111.8 333.71 110.29 C 331.55 108.8 327.45 109.16 326.96 106.07 C 329.56 103.98 333.1 105.28 336.01 105.91 C 336 104.19 335.99 102.47 335.99 100.75 C 331.68 99.82 326.73 99.26 322.9 101.95 M 347.36 100.56 C 339.2 102.45 337.09 113.82 342.34 119.61 C 346.41 123.75 353.35 123.99 358.27 121.28 C 363.8 117.89 364.82 109.74 361.45 104.5 C 358.36 100.14 352.21 99.11 347.36 100.56 M 206.55 143.5 C 199.98 147.95 199.6 159.29 206.32 163.77 C 210.06 166.13 214.85 165.67 218.79 164.09 C 218.79 163.47 218.78 162.22 218.77 161.6 C 215.26 163.09 210.85 163.81 207.6 161.34 C 202.47 157.08 203.34 147.12 209.79 144.55 C 212.72 143.36 215.94 144.19 218.82 145.1 C 218.78 144.39 218.69 142.97 218.65 142.27 C 214.68 141.24 210.02 140.9 206.55 143.5 M 230 142.01 C 230 149.67 230 157.33 230 165 C 234.09 165 238.17 165 242.26 165 C 242.26 164.18 242.27 163.36 242.28 162.54 C 239.1 162.53 235.92 162.53 232.74 162.52 C 232.73 159.84 232.73 157.16 232.74 154.47 C 235.48 154.47 238.22 154.47 240.97 154.48 C 240.98 153.86 241 152.62 241.01 152 C 238.25 152 235.49 152 232.73 152 C 232.73 149.42 232.73 146.85 232.73 144.27 C 235.7 144.27 238.67 144.26 241.65 144.28 C 241.7 143.73 241.82 142.64 241.87 142.09 C 237.92 141.96 233.96 141.99 230 142.01 M 254 142.01 C 254 149.67 254 157.34 254 165 C 254.69 165 256.05 165 256.73 164.99 C 256.73 161.72 256.73 158.44 256.74 155.17 C 258.59 155.44 261.01 154.79 262.21 156.68 C 264.18 159.25 265.62 162.17 267.3 164.93 C 268.12 164.95 269.76 165 270.58 165.02 C 268.24 161.39 266.31 157.41 263.22 154.34 C 267.34 153.01 269.53 147.85 266.79 144.24 C 263.62 140.57 258.2 142.43 254 142.01 M 276.73 142 C 276.73 142.57 276.74 143.7 276.74 144.26 C 278.91 144.27 281.09 144.27 283.26 144.27 C 283.27 151.18 283.27 158.08 283.27 164.99 C 283.95 164.99 285.31 165 286 165 C 286.01 158.09 285.99 151.18 286.01 144.26 C 288.24 144.27 290.48 144.27 292.72 144.27 C 292.72 143.7 292.72 142.57 292.72 142 C 287.39 142 282.06 141.99 276.73 142 M 303 142 C 303 149.66 303 157.33 303 165 C 303.69 165 305.05 164.99 305.73 164.99 C 305.73 157.33 305.73 149.67 305.73 142.01 C 305.05 142.01 303.69 142 303 142 M 318 142 C 318 149.67 317.99 157.34 318 165.01 C 318.69 165 320.05 164.99 320.74 164.99 C 320.73 161.57 320.73 158.15 320.74 154.74 C 323.49 154.73 326.24 154.73 329 154.73 C 329 154.12 329 152.89 329 152.27 C 326.24 152.27 323.49 152.27 320.74 152.26 C 320.73 149.6 320.73 146.94 320.73 144.27 C 323.71 144.27 326.69 144.27 329.68 144.28 C 329.71 143.72 329.78 142.61 329.82 142.05 C 325.88 141.98 321.94 141.99 318 142 M 341 142 C 341 149.66 341 157.33 341 165 C 341.69 165 343.05 165 343.73 164.99 C 343.73 157.33 343.73 149.67 343.74 142.01 C 343.05 142.01 341.69 142 341 142 M 356 142 C 356 149.67 356 157.33 356 165 C 360.09 165 364.17 165 368.26 165 C 368.26 164.18 368.27 163.36 368.28 162.54 C 365.1 162.53 361.92 162.53 358.74 162.52 C 358.73 159.84 358.73 157.16 358.74 154.47 C 361.48 154.47 364.22 154.47 366.96 154.48 C 366.98 153.86 367 152.62 367.01 152 C 364.25 152 361.49 152 358.73 152 C 358.73 149.42 358.73 146.85 358.73 144.27 C 361.7 144.27 364.68 144.27 367.66 144.28 C 367.71 143.73 367.8 142.62 367.85 142.07 C 363.9 141.97 359.95 141.99 356 142 M 379 142.01 C 379 149.67 379 157.33 379 165 C 383.43 164.87 388.31 165.7 392.27 163.22 C 398.47 159.71 399.26 150.23 394.92 145.01 C 390.69 140.87 384.33 142.2 379 142.01 M 239.59 211.85 C 174.4 214.51 109.37 221.33 45.09 232.47 C 35.17 233.9 25.6 243.38 27.85 253.92 C 35.39 293.8 43.06 333.67 50.64 373.54 C 51.8 380.75 57.74 386.68 64.81 388.22 C 68.53 389.22 72.37 388.39 76.07 387.72 C 225.27 362.47 378.73 362.69 527.86 388.39 C 537.2 390.26 547.38 383.72 549.19 374.29 C 556.89 334.16 564.55 294.03 572.16 253.89 C 574.38 243.33 564.77 233.86 554.85 232.46 C 450.88 214.44 345.01 207.69 239.59 211.85 Z"/>
    <path fill="#505050" opacity="1.00" d=" M 301.77 106.69 C 303.51 104.33 306.69 104.90 309.04 105.86 C 311.30 109.64 311.57 117.18 306.05 118.03 C 300.10 118.70 298.97 110.42 301.77 106.69 Z"/>
    <path fill="#505050" opacity="1.00" d=" M 347.74 106.72 C 349.48 104.33 352.67 104.89 355.04 105.86 C 357.29 109.64 357.58 117.14 352.09 118.03 C 346.12 118.74 344.98 110.48 347.74 106.72 Z"/>
    <path fill="#505050" opacity="1.00" d=" M 256.73 144.21 C 259.25 144.46 262.29 143.77 264.33 145.66 C 265.71 147.78 265.13 151.02 262.86 152.29 C 260.87 152.88 258.77 152.69 256.73 152.79 C 256.73 149.92 256.73 147.06 256.73 144.21 Z"/>
    <path fill="#505050" opacity="1.00" d=" M 381.73 144.22 C 385.72 144.32 390.80 143.89 393.38 147.64 C 395.77 151.82 395.35 158.27 391.05 161.08 C 388.31 162.95 384.86 162.49 381.73 162.54 C 381.73 156.43 381.73 150.33 381.73 144.22 Z"/>
  </g>
  <g id="#282828ff">
    <path fill="#282828" opacity="1.00" d=" M 323.55 255.69 C 327.71 256.30 332.10 255.36 336.09 256.91 C 341.51 259.19 341.37 267.66 336.57 270.53 C 333.91 272.37 330.53 271.96 327.48 272.03 C 327.32 275.02 327.24 278.00 327.25 281.00 C 325.87 281.00 324.49 281.00 323.12 281.01 C 323.31 272.57 323.33 264.13 323.55 255.69 M 327.48 259.19 C 327.46 262.32 327.46 265.44 327.48 268.56 C 329.78 268.42 332.48 269.04 334.35 267.30 C 336.05 265.96 336.05 263.41 335.32 261.56 C 333.73 258.78 330.12 259.62 327.48 259.19 Z"/>
    <path fill="#282828" opacity="1.00" d=" M 244.52 256.81 C 245.92 256.72 247.32 256.62 248.72 256.52 C 248.99 264.91 249.16 273.30 249.43 281.69 C 247.95 281.78 246.47 281.90 245.00 282.02 C 245.03 273.61 244.50 265.21 244.52 256.81 Z"/>
    <path fill="#282828" opacity="1.00" d=" M 262.51 256.74 C 266.89 255.55 272.23 256.13 275.36 259.75 C 279.70 265.12 279.65 273.81 274.95 278.95 C 271.28 282.49 265.41 283.14 260.84 281.09 C 251.36 276.54 252.17 259.73 262.51 256.74 M 263.34 260.46 C 258.11 262.93 257.59 270.37 260.12 274.97 C 262.26 279.04 268.38 279.84 271.57 276.58 C 274.70 273.61 274.39 268.69 273.45 264.84 C 272.41 260.58 267.12 258.60 263.34 260.46 Z"/>
    <path fill="#282828" opacity="1.00" d=" M 284.00 255.73 C 285.65 255.73 287.31 255.73 288.97 255.74 C 293.06 262.31 297.32 268.78 301.58 275.24 C 301.49 268.74 301.55 262.23 301.53 255.73 C 302.52 255.73 304.48 255.73 305.47 255.73 C 305.46 264.15 305.47 272.58 305.46 281.00 C 303.95 281.00 302.44 280.99 300.93 281.00 C 296.64 274.30 292.17 267.72 287.97 260.97 C 288.09 267.64 288.40 274.32 288.26 281.00 C 286.84 280.99 285.42 281.00 284.00 281.00 C 284.00 272.58 284.00 264.16 284.00 255.73 Z"/>
    <path fill="#282828" opacity="1.00" d=" M 344.21 280.97 C 344.26 272.64 344.63 264.33 344.76 256.00 C 349.83 256.36 356.44 254.58 360.06 259.22 C 362.69 263.24 360.20 268.87 355.54 269.88 C 359.13 273.04 360.99 277.53 363.53 281.48 C 361.90 281.47 360.29 281.46 358.68 281.47 C 356.97 278.47 355.53 275.30 353.44 272.55 C 352.36 270.86 350.20 271.12 348.48 270.88 C 348.50 274.36 348.38 277.85 348.22 281.34 C 346.88 281.21 345.54 281.09 344.21 280.97 M 348.74 259.42 C 348.73 262.13 348.73 264.83 348.73 267.54 C 350.42 267.55 352.16 267.84 353.84 267.46 C 356.69 266.60 357.68 262.59 355.60 260.48 C 353.64 258.96 351.02 259.61 348.74 259.42 Z"/>
    <path fill="#282828" opacity="1.00" d=" M 220.69 257.78 C 226.96 257.63 233.22 257.27 239.49 257.24 C 239.49 258.39 239.49 259.55 239.50 260.71 C 237.06 260.70 234.62 260.80 232.20 261.06 C 232.57 267.76 232.73 274.48 232.99 281.20 C 233.22 283.53 230.14 282.44 228.75 282.81 C 228.78 275.54 228.28 268.29 228.21 261.04 C 225.76 261.22 223.30 261.29 220.85 261.30 C 220.81 260.42 220.73 258.66 220.69 257.78 Z"/>
    <path fill="#282828" opacity="1.00" d=" M 373.50 257.67 C 378.14 256.21 383.95 256.74 387.26 260.66 C 392.17 266.63 391.08 277.10 384.40 281.34 C 378.92 284.56 370.79 283.05 367.63 277.28 C 364.11 270.70 366.04 260.59 373.50 257.67 M 375.24 261.14 C 370.02 263.82 369.01 271.33 371.92 276.05 C 374.40 280.41 381.60 280.39 384.18 276.16 C 386.12 273.09 386.11 269.12 385.31 265.69 C 384.30 261.47 379.06 259.31 375.24 261.14 Z"/>
    <path fill="#282828" opacity="1.00" d=" M 207.57 258.27 C 209.17 258.26 210.78 258.26 212.38 258.27 C 215.84 266.52 219.38 274.74 222.82 283.00 C 221.26 282.99 219.71 282.99 218.16 282.98 C 217.31 280.89 216.47 278.79 215.58 276.72 C 212.30 276.99 209.01 277.12 205.72 277.32 C 205.12 279.44 204.52 281.56 203.92 283.69 C 202.37 283.81 200.83 283.94 199.30 284.06 C 202.02 275.45 204.92 266.90 207.57 258.27 M 206.71 273.78 C 209.29 273.70 211.87 273.57 214.45 273.50 C 212.95 269.73 211.38 266.00 210.04 262.18 C 209.02 266.07 207.83 269.91 206.71 273.78 Z"/>
    <path fill="#282828" opacity="1.00" d=" M 392.02 257.77 C 398.16 258.20 404.31 258.51 410.47 258.78 C 410.47 259.66 410.46 261.43 410.46 262.32 C 408.01 262.23 405.57 262.10 403.13 262.03 C 402.72 269.18 402.53 276.35 401.97 283.50 C 400.60 283.48 399.23 283.47 397.87 283.47 C 398.28 276.24 398.56 269.00 399.02 261.78 C 396.56 261.59 394.10 261.46 391.64 261.40 C 391.73 260.49 391.92 258.68 392.02 257.77 Z"/>
    <path fill="#282828" opacity="1.00" d=" M 187.93 259.28 C 189.84 259.16 191.74 259.04 193.65 258.97 C 194.11 267.37 194.61 275.77 195.20 284.17 C 193.82 284.21 192.44 284.26 191.07 284.31 C 190.57 277.14 190.14 269.96 189.72 262.78 C 188.21 270.39 185.21 277.59 182.96 285.00 C 182.25 285.00 180.83 285.00 180.12 285.01 C 176.96 278.15 173.34 271.50 170.53 264.49 C 171.31 271.43 171.29 278.42 172.06 285.36 C 170.73 285.53 169.41 285.71 168.09 285.90 C 167.62 277.46 167.11 269.03 166.49 260.60 C 168.46 260.50 170.43 260.36 172.40 260.22 C 175.42 266.59 178.43 272.97 181.34 279.39 C 183.37 272.63 185.76 265.99 187.93 259.28 Z"/>
    <path fill="#282828" opacity="1.00" d=" M 414.21 284.27 C 414.55 275.82 415.21 267.38 415.79 258.94 C 420.29 259.36 424.80 259.62 429.32 259.79 C 429.27 260.70 429.16 262.51 429.10 263.42 C 425.96 263.24 422.83 263.03 419.70 262.77 C 419.51 265.13 419.38 267.51 419.17 269.88 C 422.04 270.14 424.91 270.33 427.79 270.50 C 427.76 271.68 427.73 272.86 427.71 274.05 C 424.83 273.85 421.96 273.65 419.09 273.39 C 418.85 275.89 418.65 278.40 418.41 280.91 C 421.79 281.15 425.18 281.39 428.57 281.59 C 428.43 282.75 428.31 283.91 428.19 285.07 C 423.52 284.85 418.87 284.40 414.21 284.27 Z"/>
    <path fill="#282828" opacity="1.00" d=" M 439.78 261.66 C 443.79 259.73 448.43 260.43 452.50 261.81 C 452.47 262.84 452.42 264.90 452.39 265.94 C 449.40 264.52 445.94 263.53 442.70 264.71 C 436.25 266.91 434.68 276.73 439.78 281.06 C 443.00 283.65 447.43 283.18 451.11 281.95 C 450.95 283.24 450.79 284.53 450.64 285.83 C 445.87 286.90 440.21 287.11 436.32 283.67 C 429.84 277.75 431.66 265.26 439.78 261.66 Z"/>
    <path fill="#282828" opacity="1.00" d=" M 143.05 262.58 C 148.04 262.56 154.07 260.07 158.27 263.84 C 161.99 267.37 159.89 273.93 155.17 275.38 C 159.30 278.02 161.57 282.53 164.68 286.17 C 163.01 286.29 161.34 286.41 159.68 286.53 C 156.44 282.87 154.57 276.10 148.52 276.85 C 148.61 280.36 148.95 283.86 149.34 287.36 C 147.91 287.48 146.49 287.62 145.06 287.76 C 144.51 279.36 143.69 270.98 143.05 262.58 M 147.41 265.52 C 147.69 268.29 147.92 271.07 148.18 273.85 C 149.85 273.64 151.58 273.63 153.22 273.15 C 155.68 272.27 156.45 268.99 155.20 266.85 C 153.38 264.34 149.97 265.58 147.41 265.52 Z"/>
    <path fill="#282828" opacity="1.00" d=" M 456.02 262.01 C 462.19 262.66 468.37 263.22 474.54 263.80 C 474.46 264.68 474.28 266.45 474.19 267.34 C 471.81 267.10 469.44 266.86 467.06 266.64 C 466.23 273.79 465.69 280.98 464.96 288.14 C 463.55 287.99 462.16 287.84 460.77 287.69 C 461.47 280.52 462.37 273.37 462.69 266.17 C 460.34 265.99 458.00 265.77 455.66 265.51 C 455.75 264.64 455.93 262.88 456.02 262.01 Z"/>
    <path fill="#282828" opacity="1.00" d=" M 123.42 263.64 C 128.04 262.13 133.66 263.28 136.57 267.39 C 140.20 272.55 140.46 280.37 136.30 285.32 C 133.00 288.94 127.49 289.81 122.93 288.51 C 112.48 284.80 112.26 266.55 123.42 263.64 M 124.22 267.27 C 116.19 270.80 118.70 286.13 128.00 285.46 C 135.82 284.92 136.72 274.45 132.75 269.37 C 130.83 266.74 127.14 266.07 124.22 267.27 Z"/>
    <path fill="#282828" opacity="1.00" d=" M 478.80 264.32 C 480.22 264.47 481.65 264.62 483.08 264.78 C 482.18 273.13 481.27 281.47 480.34 289.80 C 478.92 289.65 477.51 289.50 476.10 289.37 C 476.90 281.00 478.00 272.68 478.80 264.32 Z"/>
    <path fill="#282828" opacity="1.00" d=" M 95.95 267.60 C 100.40 266.99 104.86 266.44 109.32 265.85 C 109.51 267.02 109.70 268.19 109.89 269.37 C 106.75 269.76 103.61 270.19 100.47 270.57 C 100.81 273.06 101.14 275.56 101.47 278.07 C 104.35 277.73 107.23 277.38 110.11 276.96 C 110.22 277.84 110.46 279.58 110.57 280.45 C 107.70 280.89 104.83 281.27 101.94 281.57 C 102.35 285.10 102.76 288.63 103.26 292.15 C 101.87 292.28 100.49 292.43 99.11 292.57 C 98.04 284.25 96.93 275.93 95.95 267.60 Z"/>
    <path fill="#282828" opacity="1.00" d=" M 495.47 266.70 C 501.19 265.03 508.29 267.49 510.49 273.35 C 512.31 278.88 511.19 285.86 506.59 289.76 C 500.86 294.61 490.48 292.35 487.84 285.14 C 485.37 278.40 488.05 268.95 495.47 266.70 M 496.42 270.48 C 491.48 273.02 490.14 279.92 492.34 284.70 C 494.44 289.39 501.89 290.04 504.79 285.79 C 507.13 282.40 507.68 277.67 506.10 273.85 C 504.55 270.23 499.85 269.14 496.42 270.48 Z"/>
    <path fill="#282828" opacity="1.00" d=" M 84.26 268.92 C 85.25 268.78 87.24 268.50 88.23 268.35 C 89.46 276.66 90.88 284.93 92.12 293.23 C 90.21 293.30 87.70 294.56 86.41 292.50 C 81.58 287.18 76.75 281.85 72.00 276.44 C 72.95 282.94 74.07 289.42 75.05 295.92 C 73.72 296.11 72.40 296.31 71.07 296.52 C 69.75 288.23 68.44 279.94 67.12 271.65 C 68.73 271.41 70.34 271.16 71.96 270.93 C 77.08 276.75 82.37 282.43 87.41 288.33 C 86.22 281.88 85.26 275.40 84.26 268.92 Z"/>
    <path fill="#282828" opacity="1.00" d=" M 519.34 269.65 C 520.94 269.94 522.54 270.24 524.16 270.54 C 527.12 277.65 530.16 284.73 533.22 291.80 C 534.18 285.34 535.36 278.91 536.44 272.47 C 537.75 272.78 539.07 273.10 540.40 273.43 C 538.89 281.63 537.53 289.86 536.16 298.09 C 534.64 297.83 533.13 297.58 531.61 297.34 C 528.51 290.19 525.55 282.98 522.31 275.90 C 521.25 282.35 520.14 288.79 519.05 295.24 C 517.73 294.98 516.42 294.72 515.12 294.47 C 516.43 286.18 517.89 277.91 519.34 269.65 Z"/>
    <path fill="#282828" opacity="1.00" d=" M 55.23 273.74 C 56.63 273.46 58.03 273.19 59.43 272.92 C 61.06 281.13 62.63 289.36 64.23 297.59 C 62.83 297.86 61.44 298.14 60.05 298.43 C 58.42 290.20 56.87 281.96 55.23 273.74 Z"/>
    <path fill="#282828" opacity="1.00" d=" M 268.98 315.59 C 270.30 315.52 271.63 315.44 272.96 315.35 C 273.38 323.70 273.21 332.05 273.51 340.40 C 272.00 340.49 270.50 340.59 269.01 340.71 C 264.54 334.18 260.14 327.60 255.67 321.08 C 256.23 327.71 255.73 334.37 256.27 341.00 C 254.85 340.99 253.42 340.99 252.00 341.00 C 252.20 332.58 251.57 324.17 251.74 315.75 C 253.33 315.73 254.92 315.72 256.51 315.70 C 260.88 322.20 265.33 328.66 269.58 335.25 C 269.05 328.71 269.29 322.14 268.98 315.59 Z"/>
    <path fill="#282828" opacity="1.00" d=" M 332.53 315.76 C 337.44 316.61 343.55 314.51 347.43 318.51 C 350.86 322.31 348.37 328.58 343.61 329.82 C 347.09 333.13 349.11 337.55 351.65 341.55 C 349.99 341.45 348.33 341.36 346.67 341.26 C 344.77 338.20 343.35 334.78 340.97 332.05 C 339.85 330.73 338.00 331.14 336.50 330.89 C 336.45 334.30 336.27 337.72 336.23 341.14 C 334.87 341.08 333.52 341.02 332.17 340.97 C 332.18 332.56 332.64 324.17 332.53 315.76 M 336.79 319.19 C 336.66 321.98 336.48 324.76 336.43 327.56 C 338.21 327.53 340.02 327.62 341.81 327.39 C 344.53 326.41 345.58 322.59 343.53 320.49 C 341.63 318.95 339.03 319.50 336.79 319.19 Z"/>
    <path fill="#282828" opacity="1.00" d=" M 240.53 316.81 C 241.92 316.71 243.32 316.60 244.72 316.48 C 244.90 324.88 245.18 333.28 245.43 341.69 C 243.95 341.77 242.47 341.88 241.00 341.99 C 241.03 333.60 240.45 325.21 240.53 316.81 Z"/>
    <path fill="#282828" opacity="1.00" d=" M 280.00 315.73 C 281.42 315.73 282.84 315.73 284.26 315.74 C 284.34 324.16 284.07 332.58 284.51 340.99 C 283.00 340.99 281.50 340.99 280.00 341.00 C 280.00 332.58 280.00 324.16 280.00 315.73 Z"/>
    <path fill="#282828" opacity="1.00" d=" M 292.38 317.32 C 296.02 314.71 300.85 315.23 305.00 316.03 C 305.00 317.41 305.00 318.80 305.02 320.19 C 302.13 318.84 298.59 318.07 295.68 319.79 C 293.61 320.76 293.98 324.02 295.94 324.91 C 299.26 326.88 303.34 328.09 305.45 331.59 C 306.84 334.52 305.91 338.61 302.85 340.09 C 298.85 342.21 294.14 341.45 290.00 340.19 C 289.99 338.80 289.99 337.41 289.98 336.02 C 292.92 337.48 296.37 338.78 299.62 337.48 C 301.78 336.94 302.53 333.72 300.74 332.36 C 298.04 330.22 294.51 329.38 291.96 327.02 C 289.14 324.57 289.21 319.47 292.38 317.32 Z"/>
    <path fill="#282828" opacity="1.00" d=" M 309.74 315.74 C 315.98 315.58 322.21 316.18 328.45 316.00 C 328.46 316.87 328.48 318.61 328.49 319.48 C 326.08 319.46 323.67 319.46 321.26 319.46 C 321.46 326.64 320.90 333.82 321.00 341.00 C 319.58 341.00 318.16 341.00 316.74 341.00 C 317.26 333.84 316.90 326.66 316.99 319.50 C 314.57 319.45 312.15 319.34 309.73 319.23 C 309.74 318.35 309.74 316.61 309.74 315.74 Z"/>
    <path fill="#282828" opacity="1.00" d=" M 227.61 316.73 C 229.49 316.73 231.36 316.73 233.24 316.72 C 233.49 325.04 233.75 333.36 234.27 341.66 C 232.86 341.82 231.46 341.97 230.06 342.12 C 229.76 334.96 229.31 327.79 229.64 320.63 C 227.20 327.84 224.55 334.98 222.06 342.18 C 221.33 342.25 219.87 342.41 219.14 342.48 C 216.23 335.46 212.52 328.77 210.17 321.53 C 210.47 328.59 210.57 335.66 211.04 342.71 C 209.70 342.73 208.36 342.76 207.02 342.80 C 206.92 334.40 206.32 326.02 206.26 317.63 C 208.17 317.57 210.10 317.54 212.03 317.51 C 214.86 323.93 217.77 330.33 220.47 336.81 C 222.66 330.05 225.19 323.41 227.61 316.73 Z"/>
    <path fill="#282828" opacity="1.00" d=" M 362.48 317.14 C 364.06 317.19 365.63 317.25 367.22 317.30 C 370.17 325.75 372.94 334.25 375.79 342.73 C 374.29 342.71 372.81 342.70 371.32 342.68 C 370.53 340.48 369.82 338.25 369.16 336.01 C 365.86 336.04 362.56 335.97 359.27 335.72 C 358.46 337.89 357.66 340.05 356.87 342.23 C 355.35 342.10 353.84 341.99 352.34 341.90 C 355.73 333.65 359.13 325.40 362.48 317.14 M 364.61 321.12 C 363.35 324.97 361.84 328.73 360.41 332.52 C 363.00 332.51 365.60 332.54 368.20 332.71 C 366.96 328.85 365.73 325.00 364.61 321.12 Z"/>
    <path fill="#282828" opacity="1.00" d=" M 375.77 316.76 C 381.93 317.12 388.10 317.41 394.27 317.57 C 394.26 318.74 394.26 319.91 394.26 321.09 C 391.83 321.02 389.41 320.97 386.99 320.84 C 386.44 328.07 386.52 335.33 385.95 342.56 C 384.62 342.46 383.29 342.36 381.96 342.26 C 382.06 335.05 382.56 327.86 382.76 320.65 C 380.33 320.49 377.90 320.44 375.47 320.42 C 375.54 319.51 375.70 317.67 375.77 316.76 Z"/>
    <path fill="#282828" opacity="1.00" d=" M 403.45 318.64 C 407.83 317.39 413.14 318.19 416.31 321.69 C 420.75 326.81 420.35 335.06 416.29 340.28 C 412.69 344.58 406.04 345.27 401.19 342.81 C 392.02 337.91 393.48 321.73 403.45 318.64 M 404.36 322.43 C 399.17 324.95 398.24 332.39 400.92 337.05 C 403.16 341.04 409.27 341.77 412.42 338.50 C 415.29 335.55 415.41 330.92 414.60 327.12 C 413.71 322.75 408.22 320.41 404.36 322.43 Z"/>
    <path fill="#282828" opacity="1.00" d=" M 178.67 319.59 C 184.56 319.61 191.23 317.89 196.41 321.56 C 202.60 326.63 202.00 338.06 194.99 342.18 C 190.55 344.99 185.07 344.37 180.07 344.80 C 179.69 336.39 179.22 327.99 178.67 319.59 M 183.04 322.95 C 183.45 328.99 183.68 335.04 184.06 341.09 C 186.88 340.80 189.98 341.06 192.47 339.47 C 197.18 336.41 197.44 329.06 193.98 324.98 C 191.12 322.09 186.72 322.66 183.04 322.95 Z"/>
    <path fill="#282828" opacity="1.00" d=" M 160.95 320.03 C 162.50 319.97 164.06 319.75 165.62 319.89 C 169.50 327.95 173.05 336.18 176.81 344.30 C 175.26 344.38 173.71 344.45 172.16 344.52 C 171.31 342.48 170.44 340.45 169.59 338.41 C 166.23 338.52 162.87 338.80 159.52 339.11 C 158.98 341.30 158.44 343.49 157.90 345.69 C 156.37 345.77 154.84 345.87 153.31 345.98 C 155.87 337.34 158.38 328.68 160.95 320.03 M 160.41 335.59 C 162.98 335.43 165.55 335.23 168.12 334.96 C 166.53 331.28 164.87 327.62 163.54 323.84 C 162.53 327.76 161.45 331.67 160.41 335.59 Z"/>
    <path fill="#282828" opacity="1.00" d=" M 425.79 319.98 C 430.69 320.88 436.86 319.30 440.58 323.45 C 443.88 327.37 441.03 333.64 436.15 334.44 C 439.35 337.98 441.30 342.38 443.53 346.54 C 441.95 346.45 440.37 346.35 438.79 346.25 C 437.09 343.22 435.69 340.03 433.87 337.08 C 432.90 335.40 430.72 335.53 429.09 335.08 C 428.71 338.55 428.49 342.04 428.23 345.52 C 427.22 345.46 425.20 345.33 424.19 345.26 C 424.56 336.82 425.47 328.42 425.79 319.98 M 429.18 331.94 C 432.42 332.43 437.37 332.44 437.59 328.04 C 437.82 323.74 432.80 323.83 429.82 323.61 C 429.59 326.39 429.40 329.16 429.18 331.94 Z"/>
  </g>
  <g id="#0064b5ff">
    <path fill="#0064b5" opacity="1.00" d=" M 111.15 394.43 C 236.20 376.47 363.80 376.47 488.85 394.43 C 488.97 414.55 482.92 434.39 472.50 451.52 C 456.60 477.83 433.19 498.67 408.34 516.32 C 376.50 538.61 341.60 556.32 305.47 570.50 C 302.90 571.41 300.12 572.99 297.42 571.60 C 265.42 559.62 234.49 544.61 205.61 526.32 C 188.78 515.60 172.70 503.59 158.23 489.83 C 141.00 473.36 125.88 453.98 117.61 431.42 C 113.21 419.60 111.24 407.01 111.15 394.43 M 244.14 408.13 C 240.28 410.37 239.69 416.12 242.53 419.39 C 245.62 423.00 251.54 422.54 253.89 426.98 C 250.86 431.31 244.85 429.34 241.18 426.94 C 241.38 429.11 241.50 431.29 241.57 433.48 C 246.31 434.80 251.67 435.23 256.25 433.15 C 260.51 431.14 261.62 424.88 258.51 421.42 C 256.03 418.48 252.03 417.87 248.90 415.93 C 247.64 415.27 247.10 413.32 248.43 412.40 C 251.55 410.11 255.64 411.62 258.83 412.99 C 258.55 411.01 259.30 408.59 258.09 406.91 C 253.57 405.79 248.25 405.62 244.14 408.13 M 274.37 406.50 C 265.37 409.52 263.17 422.20 268.65 429.26 C 274.13 436.48 287.12 435.51 291.16 427.26 C 293.77 421.75 293.62 414.31 289.40 409.61 C 285.67 405.52 279.42 404.87 274.37 406.50 M 305.49 407.51 C 297.35 411.98 296.03 424.93 302.94 431.05 C 307.68 434.92 314.39 434.50 319.95 432.90 C 319.98 430.90 320.00 428.90 320.04 426.91 C 316.70 428.26 312.80 429.37 309.40 427.58 C 303.64 424.47 304.02 414.56 310.07 411.97 C 313.38 410.43 317.11 411.47 320.28 412.84 C 320.26 410.77 320.26 408.70 320.28 406.64 C 315.46 405.39 309.99 405.05 305.49 407.51 M 216.62 409.57 C 212.39 412.92 213.67 420.36 218.60 422.38 C 221.62 424.12 226.89 424.37 227.02 428.83 C 223.20 431.56 218.34 430.32 214.68 427.97 C 214.98 430.12 214.64 432.45 215.43 434.50 C 219.90 435.93 224.94 435.95 229.32 434.18 C 233.90 432.30 235.21 425.60 231.80 422.08 C 229.15 419.05 224.78 418.74 221.71 416.35 C 220.60 415.52 220.62 413.53 222.02 413.01 C 225.20 411.14 228.98 412.37 232.08 413.78 C 231.93 411.69 231.78 409.62 231.62 407.54 C 226.64 406.77 220.85 406.28 216.62 409.57 M 328.01 406.19 C 328.16 415.38 327.57 424.56 327.75 433.75 C 329.81 433.75 331.88 433.75 333.95 433.76 C 334.26 424.69 334.45 415.62 334.51 406.55 C 332.33 406.42 330.17 406.29 328.01 406.19 M 350.13 406.73 C 346.37 415.75 342.88 424.88 339.26 433.96 C 341.57 433.99 343.88 434.06 346.19 434.22 C 346.93 432.23 347.64 430.24 348.32 428.24 C 351.50 428.20 354.67 428.30 357.84 428.54 C 358.39 430.52 358.95 432.49 359.50 434.47 C 361.84 434.66 364.18 434.76 366.53 434.80 C 363.67 425.52 360.69 416.29 357.67 407.06 C 355.15 407.01 352.64 406.91 350.13 406.73 M 368.00 407.46 C 367.99 409.20 368.00 410.96 368.01 412.71 C 370.61 412.74 373.21 412.86 375.82 413.06 C 375.30 420.45 375.21 427.86 374.75 435.25 C 376.90 435.24 379.04 435.25 381.20 435.25 C 381.61 427.89 381.78 420.52 382.33 413.18 C 384.90 413.39 387.49 413.52 390.08 413.59 C 390.16 411.84 390.22 410.10 390.28 408.35 C 382.85 408.11 375.43 407.59 368.00 407.46 M 190.48 409.14 C 187.84 418.48 184.85 427.71 182.21 437.06 C 184.52 436.96 186.83 436.84 189.15 436.71 C 189.65 434.66 190.16 432.61 190.67 430.56 C 193.83 430.38 197.00 430.20 200.16 429.98 C 200.89 431.96 201.62 433.94 202.36 435.93 C 204.69 435.82 207.02 435.74 209.36 435.69 C 205.87 426.60 201.93 417.70 198.22 408.70 C 195.64 408.83 193.06 408.98 190.48 409.14 M 397.02 408.68 C 396.32 417.84 396.02 427.02 395.45 436.19 C 400.98 436.36 406.49 436.84 412.02 437.06 C 412.12 435.31 412.21 433.56 412.30 431.82 C 408.93 431.70 405.57 431.50 402.21 431.25 C 402.28 429.28 402.37 427.31 402.48 425.35 C 405.48 425.52 408.48 425.69 411.50 425.80 C 411.53 424.04 411.58 422.28 411.64 420.53 C 408.68 420.45 405.73 420.29 402.78 420.17 C 402.88 418.22 402.97 416.27 403.05 414.32 C 406.32 414.54 409.59 414.73 412.87 414.86 C 412.93 413.15 413.00 411.44 413.07 409.75 C 407.73 409.25 402.37 409.11 397.02 408.68 M 249.56 481.74 C 240.21 481.79 230.86 481.69 221.51 481.79 C 228.98 487.38 236.61 492.75 244.13 498.27 C 241.30 507.19 238.27 516.05 235.52 525.00 C 243.14 519.56 250.69 514.00 258.28 508.50 C 265.81 514.05 273.40 519.53 281.00 525.01 C 278.25 516.08 275.26 507.24 272.37 498.36 C 279.83 492.73 287.53 487.43 294.98 481.79 C 285.65 481.69 276.33 481.78 267.00 481.74 C 264.09 472.81 261.19 463.87 258.26 454.94 C 255.31 463.85 252.40 472.79 249.56 481.74 M 341.73 454.94 C 338.81 463.87 335.91 472.81 333.00 481.74 C 323.67 481.78 314.34 481.69 305.02 481.79 C 312.47 487.40 320.13 492.75 327.62 498.32 C 324.78 507.22 321.75 516.07 318.99 525.00 C 326.59 519.55 334.18 514.05 341.72 508.50 C 349.31 514.00 356.85 519.56 364.48 525.00 C 361.73 516.05 358.70 507.19 355.87 498.27 C 363.39 492.75 371.02 487.38 378.48 481.79 C 369.13 481.69 359.79 481.79 350.44 481.74 C 347.60 472.79 344.69 463.85 341.73 454.94 Z"/>
    <path fill="#0064b5" opacity="1.00" d=" M 277.42 411.50 C 281.59 409.95 285.79 413.65 285.95 417.81 C 286.70 422.10 285.14 428.16 279.95 428.51 C 271.11 429.02 269.76 414.15 277.42 411.50 Z"/>
    <path fill="#0064b5" opacity="1.00" d=" M 353.50 412.58 C 354.31 416.28 355.47 419.90 356.51 423.55 C 354.30 423.40 352.09 423.26 349.89 423.17 C 351.17 419.66 352.50 416.17 353.50 412.58 Z"/>
    <path fill="#0064b5" opacity="1.00" d=" M 191.80 425.50 C 192.77 421.87 193.77 418.25 194.58 414.58 C 195.64 418.19 197.06 421.68 198.40 425.20 C 196.20 425.27 194.00 425.38 191.80 425.50 Z"/>
  </g>
</svg>