<?xml version="1.0" encoding="utf-8"?>
<svg version="1.1" id="Capa_1" x="0px" y="0px" viewBox="0 0 112.196 112.196" style="enable-background:new 0 0 112.196 112.196;" xmlns="http://www.w3.org/2000/svg">
  <path d="M 112.196 56.097 C 112.196 87.079 87.08 112.195 56.098 112.195 C 25.116 112.195 0 87.079 0 56.097 C 0 25.115 25.116 -0.001 56.098 -0.001 C 87.08 -0.001 112.196 25.115 112.196 56.097 Z M 74.18 42.462 C 67.055 42.462 63.877 46.382 62.095 49.124 L 62.095 49.256 L 62.006 49.256 C 62.03 49.213 62.068 49.169 62.095 49.124 L 62.095 43.409 L 48.684 43.409 C 48.864 47.192 48.684 83.738 48.684 83.738 L 62.094 83.738 L 62.094 61.214 C 62.094 60.005 62.185 58.808 62.538 57.946 C 63.51 55.534 65.711 53.043 69.416 53.043 C 74.271 53.043 76.207 56.743 76.207 62.161 L 76.207 83.739 L 89.616 83.739 L 89.616 60.611 C 89.616 48.226 83.002 42.462 74.18 42.462 Z M 34.656 23.969 C 30.069 23.969 27.068 26.98 27.068 30.936 C 27.068 34.808 29.982 37.906 34.48 37.906 L 34.567 37.906 C 39.244 37.906 42.152 34.808 42.152 30.936 C 42.063 26.98 39.244 23.969 34.656 23.969 Z M 27.865 83.739 L 41.27 83.739 L 41.27 43.409 L 27.865 43.409 Z" style="fill:#041445;"/>
</svg>