<?xml version="1.0" encoding="utf-8"?>
<svg width="600pt" height="600pt" viewBox="0 0 600 600" version="1.1" xmlns="http://www.w3.org/2000/svg">
  <g id="#505050ff">
    <path fill="#505050" opacity="1.00" d="M 281.37 8.5 C 293.63 5.05 306.87 5.09 319.11 8.64 C 368.79 23.67 418.47 38.67 468.15 53.69 C 475.31 55.91 482.84 57.59 489.14 61.87 C 501.59 69.82 509.49 84.2 509.71 98.96 C 509.84 136.85 509.67 174.74 509.79 212.63 C 524.55 214.62 539.25 217 553.94 219.43 C 568.6 220.72 582.77 231.92 584.34 247.09 C 585.02 252.08 583.71 257.02 582.81 261.89 C 575.62 299.54 568.44 337.2 561.26 374.86 C 559.98 382.57 555.6 389.7 549.24 394.25 C 542.91 398.92 534.74 400.82 526.97 399.79 C 521.22 398.96 515.51 397.88 509.79 396.96 C 509.4 417.75 503.53 438.27 493.43 456.41 C 479.01 482.48 457.69 504.05 434.43 522.35 C 405.16 545.24 372.53 563.51 338.72 578.77 C 326.08 584.44 313.22 589.66 300.09 594.1 C 264.39 582.02 230.18 565.59 198.12 545.8 C 166.33 525.77 136.15 501.7 114.77 470.43 C 99.91 448.88 90.58 423.26 90.19 396.95 C 80.71 398.18 71.11 401.52 61.54 399.23 C 50.38 396.65 41.11 387.28 38.97 375.99 C 31.39 336.5 23.93 296.99 16.34 257.51 C 15.18 252.34 15.13 246.88 16.77 241.81 C 20.37 230.25 31.24 221.89 43 219.97 C 58.7 217.29 74.42 214.77 90.2 212.64 C 90.34 174.75 90.16 136.86 90.29 98.97 C 90.43 80.33 103.27 62.6 121.08 56.98 C 174.5 40.77 227.95 24.69 281.37 8.5 M 250.58 210.83 C 181.7 213.14 112.96 220.1 45.05 231.86 C 35.29 233.32 25.88 242.47 27.79 252.88 C 34.99 291.34 42.47 329.75 49.72 368.2 C 50.47 372.15 51.01 376.31 53.32 379.72 C 57.39 386 65.42 389.22 72.73 387.68 C 221 362.2 373.53 361.88 521.9 386.78 C 526.84 387.63 532.09 388.89 536.99 387.1 C 543.31 385.06 548.3 379.45 549.37 372.86 C 556.97 332.9 564.68 292.96 572.19 252.98 C 574.18 242.57 564.78 233.36 555.02 231.87 C 454.61 214.53 352.42 207.47 250.58 210.83 M 120.078 397.854 C 120.208 411.314 122.954 417.867 128.004 430.387 C 137.134 453.547 151.827 470.76 170.077 487.4 C 184.517 500.57 197.425 510.604 214.005 520.924 C 242.695 538.674 268.805 546.923 300.485 558.523 C 338.045 544.413 369.271 531.207 402.321 508.377 C 427.641 490.587 448.093 471.569 464.313 444.889 C 474.883 427.679 482.489 423.038 482.389 402.788 C 357.369 384.748 245.098 379.764 120.078 397.854 Z"/>
  </g>
  <g>
    <path fill="#ffffff" opacity="1.00" d="M 250.332 211.048 C 352.172 207.688 454.362 214.748 554.772 232.088 C 564.532 233.578 573.932 242.788 571.942 253.198 C 564.432 293.178 556.722 333.118 549.122 373.078 C 548.052 379.668 543.062 385.278 536.742 387.318 C 531.842 389.108 526.592 387.848 521.652 386.998 C 373.282 362.098 220.752 362.418 72.482 387.898 C 65.172 389.438 57.142 386.218 53.072 379.938 C 50.762 376.528 34.742 291.558 27.542 253.098 C 25.632 242.688 35.042 233.538 44.802 232.078 C 112.712 220.318 181.452 213.358 250.332 211.048"/>
  </g>
  <g>
    <path fill="#0064b5" opacity="1.00" d="M 111.16 393.89 C 236.18 375.8 363.81 375.83 488.83 393.87 C 488.93 414.12 482.81 434.12 472.24 451.33 C 456.02 478.01 432.1 499.01 406.78 516.8 C 373.73 539.63 337.55 557.79 299.99 571.9 C 268.31 560.3 237.74 545.61 209.05 527.86 C 192.47 517.54 127.72 456.52 118.59 433.36 C 113.54 420.84 111.29 407.35 111.16 393.89"/>
  </g>
</svg>