<?xml version="1.0" encoding="utf-8"?>
<svg width="600pt" height="600pt" viewBox="0 0 600 600" version="1.1" xmlns="http://www.w3.org/2000/svg">
  <g id="#ffffffff">
    <path fill="#ffffff" opacity="1.00" d=" M 201.35 89.42 C 203.84 87.90 207.82 89.92 207.13 93.06 C 206.79 96.23 202.20 97.03 200.25 94.77 C 198.68 93.21 199.30 90.26 201.35 89.42 Z"/>
    <path fill="#ffffff" opacity="1.00" d=" M 329.08 91.04 C 331.94 88.69 335.83 88.69 339.24 89.61 C 339.27 91.23 339.30 92.85 339.35 94.46 C 337.54 94.41 335.18 93.26 333.90 95.10 C 333.63 96.37 333.39 97.64 333.19 98.92 C 334.95 98.96 336.71 99.00 338.47 99.02 C 338.46 100.67 338.47 102.32 338.47 103.98 C 336.79 104.00 335.12 104.01 333.45 104.04 C 333.48 110.02 333.46 116.01 333.47 122.00 C 331.17 122.00 328.89 122.00 326.60 122.00 C 326.60 116.02 326.58 110.03 326.62 104.05 C 325.41 104.02 324.20 104.00 323.00 103.98 C 323.00 102.32 323.00 100.66 323.00 99.00 C 324.14 99.00 325.28 99.00 326.43 99.00 C 326.68 96.23 326.62 92.91 329.08 91.04 Z"/>
    <path fill="#ffffff" opacity="1.00" d=" M 158.53 91.00 C 161.92 91.00 165.32 91.00 168.71 91.01 C 171.13 98.72 174.29 106.21 176.17 114.09 C 178.09 106.21 181.21 98.69 183.71 90.99 C 187.01 91.00 190.31 91.00 193.61 91.01 C 193.59 101.34 193.60 111.66 193.61 121.99 C 191.31 122.00 189.02 122.00 186.73 122.00 C 186.76 113.57 186.67 105.13 186.78 96.69 C 184.90 105.34 181.32 113.50 178.72 121.94 C 176.80 121.98 174.89 122.00 172.99 122.02 C 170.20 113.57 166.77 105.32 164.45 96.71 C 164.97 105.13 164.65 113.57 164.73 122.00 C 162.66 122.00 160.60 122.00 158.53 122.00 C 158.53 111.67 158.53 101.33 158.53 91.00 Z"/>
    <path fill="#ffffff" opacity="1.00" d=" M 372.60 92.46 C 377.24 90.82 382.82 89.97 387.18 92.81 C 390.71 95.07 391.17 100.42 388.65 103.58 C 387.47 105.03 385.63 105.61 383.99 106.34 C 385.88 106.85 388.07 107.07 389.42 108.67 C 392.44 111.85 391.31 117.52 387.70 119.79 C 382.96 122.99 376.88 122.20 371.63 120.93 C 371.55 119.03 371.48 117.12 371.41 115.22 C 374.93 116.64 379.32 118.22 382.83 115.94 C 384.83 114.64 384.75 111.41 382.72 110.20 C 380.32 108.66 377.29 109.11 374.59 108.89 C 374.59 107.30 374.59 105.71 374.59 104.13 C 377.18 103.87 380.24 104.40 382.39 102.57 C 383.83 100.85 383.72 97.59 381.54 96.52 C 378.57 95.08 375.31 96.62 372.53 97.75 C 372.56 95.99 372.58 94.22 372.60 92.46 Z"/>
    <path fill="#ffffff" opacity="1.00" d=" M 404.30 92.24 C 407.82 90.47 411.85 90.92 415.60 91.54 C 415.60 93.33 415.61 95.13 415.64 96.92 C 412.62 96.18 409.00 95.13 406.30 97.28 C 403.80 98.94 403.26 102.07 402.48 104.73 C 405.22 102.94 408.42 101.07 411.82 102.28 C 417.98 103.99 419.45 112.38 416.19 117.24 C 412.86 122.70 404.35 123.71 399.84 119.19 C 396.49 115.73 395.89 110.55 396.22 105.95 C 396.54 100.50 399.08 94.61 404.30 92.24 M 405.33 107.38 C 401.08 109.47 402.99 117.77 407.96 116.97 C 413.62 115.68 411.60 104.32 405.33 107.38 Z"/>
    <path fill="#ffffff" opacity="1.00" d=" M 423.50 107.26 C 423.94 101.84 424.40 96.42 424.68 90.99 C 430.12 91.00 435.56 91.00 441.00 91.00 C 441.00 93.00 441.00 95.00 441.00 97.00 C 437.25 97.00 433.50 97.00 429.75 97.00 C 429.61 98.63 429.47 100.26 429.33 101.88 C 432.82 101.98 436.79 101.86 439.55 104.38 C 444.31 108.67 442.93 117.42 437.33 120.36 C 432.97 122.89 427.71 122.09 423.06 120.92 C 423.02 119.00 422.99 117.09 422.97 115.18 C 426.12 116.49 429.92 118.08 433.19 116.22 C 436.51 114.51 436.35 108.70 432.67 107.52 C 429.71 106.54 426.53 107.10 423.50 107.26 Z"/>
    <path fill="#ffffff" opacity="1.00" d=" M 343.39 94.07 C 345.68 93.37 347.98 92.68 350.27 91.97 C 350.27 94.31 350.26 96.65 350.26 98.98 C 351.88 98.99 353.50 99.00 355.13 99.01 C 355.13 100.67 355.13 102.33 355.13 103.99 C 353.51 104.00 351.89 104.00 350.27 104.01 C 350.36 107.88 349.96 111.79 350.55 115.63 C 351.49 117.50 353.54 116.83 355.19 116.59 C 355.15 118.19 355.12 119.79 355.10 121.40 C 351.43 122.27 346.32 122.73 344.29 118.75 C 342.65 114.05 343.67 108.90 343.41 104.01 C 342.52 104.00 340.75 104.00 339.87 103.99 C 339.86 102.33 339.86 100.67 339.87 99.01 C 340.75 99.00 342.52 99.00 343.41 98.99 C 343.40 97.35 343.39 95.71 343.39 94.07 Z"/>
    <path fill="#ffffff" opacity="1.00" d=" M 199.87 98.99 C 202.12 99.00 204.36 99.01 206.61 99.02 C 206.59 106.67 206.59 114.32 206.62 121.97 C 204.37 121.99 202.12 122.00 199.87 122.01 C 199.87 114.34 199.87 106.66 199.87 98.99 Z"/>
    <path fill="#ffffff" opacity="1.00" d=" M 217.41 100.46 C 221.11 98.45 225.46 98.81 229.42 99.71 C 229.46 101.66 229.51 103.62 229.58 105.57 C 227.39 104.56 224.89 103.32 222.45 104.32 C 217.11 105.82 216.91 114.75 222.03 116.63 C 224.60 117.74 227.22 116.40 229.57 115.40 C 229.50 117.27 229.47 119.15 229.44 121.03 C 225.25 122.10 220.51 122.80 216.62 120.42 C 209.43 116.30 209.97 104.03 217.41 100.46 Z"/>
    <path fill="#ffffff" opacity="1.00" d=" M 233.73 99.00 C 236.03 99.00 238.32 99.00 240.62 99.00 C 240.59 100.40 240.55 101.80 240.52 103.21 C 242.16 100.39 244.86 98.63 248.21 98.72 C 248.25 100.93 248.27 103.15 248.29 105.37 C 245.83 104.91 242.70 104.61 241.46 107.35 C 239.85 112.03 240.85 117.12 240.63 121.97 C 238.33 121.99 236.03 122.00 233.73 122.01 C 233.73 114.34 233.73 106.67 233.73 99.00 Z"/>
    <path fill="#ffffff" opacity="1.00" d=" M 257.45 99.53 C 261.25 98.44 265.62 98.83 268.96 101.04 C 275.65 105.68 274.61 117.82 266.95 120.93 C 262.21 122.89 256.05 122.42 252.35 118.62 C 247.06 112.80 249.22 101.37 257.45 99.53 M 258.71 104.82 C 255.97 106.90 256.03 110.92 256.90 113.92 C 257.94 117.72 263.97 118.16 265.66 114.66 C 267.26 111.46 266.41 107.86 265.11 104.73 C 263.00 104.36 260.62 103.32 258.71 104.82 Z"/>
    <path fill="#ffffff" opacity="1.00" d=" M 279.39 101.36 C 283.19 98.18 288.48 98.84 292.99 99.70 C 292.99 101.41 293.00 103.12 293.01 104.84 C 290.00 104.24 286.63 103.18 283.82 104.98 C 284.56 108.05 288.47 107.85 290.72 109.33 C 295.14 110.81 295.44 117.37 291.83 119.89 C 287.61 122.82 282.11 122.25 277.40 120.95 C 277.39 119.03 277.37 117.11 277.33 115.19 C 280.62 116.50 284.78 118.32 287.96 115.82 C 287.32 112.90 283.40 113.13 281.25 111.73 C 276.95 110.36 276.09 104.20 279.39 101.36 Z"/>
    <path fill="#ffffff" opacity="1.00" d=" M 304.41 99.54 C 308.01 98.48 312.08 98.81 315.38 100.67 C 322.43 104.83 321.93 116.94 314.64 120.61 C 310.19 122.77 304.47 122.59 300.43 119.62 C 293.84 114.32 295.70 101.51 304.41 99.54 M 305.71 104.81 C 302.96 106.89 303.02 110.94 303.92 113.95 C 304.97 117.70 310.91 118.15 312.63 114.71 C 314.27 111.50 313.42 107.87 312.11 104.73 C 310.00 104.36 307.63 103.32 305.71 104.81 Z"/>
    <path fill="#ffffff" opacity="1.00" d=" M 208.51 143.53 C 211.97 140.87 216.60 141.35 220.61 142.16 C 220.67 142.85 220.80 144.24 220.86 144.94 C 217.92 144.32 214.75 143.36 211.82 144.54 C 204.86 147.24 204.31 158.80 210.94 162.15 C 214.22 163.79 217.87 162.59 221.16 161.64 C 221.05 165.38 216.86 165.35 214.06 165.41 C 210.07 165.46 206.24 163.07 204.59 159.44 C 202.30 154.08 203.50 146.94 208.51 143.53 Z"/>
    <path fill="#ffffff" opacity="1.00" d=" M 232.00 142.00 C 235.94 142.00 239.89 141.98 243.83 142.05 C 243.79 142.61 243.71 143.72 243.66 144.28 C 240.68 144.27 237.71 144.27 234.73 144.27 C 234.73 146.84 234.73 149.42 234.73 152.00 C 237.50 152.00 240.27 152.00 243.03 152.00 C 243.01 152.62 242.96 153.87 242.93 154.49 C 240.20 154.47 237.47 154.47 234.74 154.47 C 234.73 157.15 234.73 159.84 234.74 162.53 C 237.92 162.53 241.10 162.53 244.28 162.53 C 244.27 163.35 244.27 164.18 244.26 165.00 C 240.17 165.00 236.09 165.00 232.00 165.00 C 232.00 157.33 232.00 149.67 232.00 142.00 Z"/>
    <path fill="#ffffff" opacity="1.00" d=" M 255.00 142.00 C 259.34 142.43 265.39 140.40 268.18 144.87 C 270.41 148.56 267.96 152.83 264.35 154.38 C 267.21 157.60 269.36 161.37 271.59 165.03 C 270.76 165.01 269.11 164.95 268.28 164.92 C 266.63 162.15 265.19 159.22 263.18 156.68 C 261.95 154.90 259.57 155.43 257.75 155.06 C 257.72 158.37 257.73 161.68 257.74 164.98 C 257.05 164.99 255.69 165.00 255.00 165.01 C 255.00 157.34 255.00 149.67 255.00 142.00 M 257.74 144.14 C 257.73 147.04 257.73 149.95 257.74 152.85 C 261.14 153.02 266.58 152.71 266.04 147.96 C 266.03 143.65 260.67 144.41 257.74 144.14 Z"/>
    <path fill="#ffffff" opacity="1.00" d=" M 277.26 142.11 C 282.89 141.93 288.53 141.94 294.17 142.12 C 293.66 145.66 289.47 143.84 287.00 144.30 C 287.00 151.20 287.00 158.10 287.00 165.00 C 286.32 165.00 284.95 164.99 284.26 164.99 C 284.27 158.10 284.26 151.21 284.27 144.32 C 281.89 143.83 277.77 145.66 277.26 142.11 Z"/>
    <path fill="#ffffff" opacity="1.00" d=" M 304.00 141.99 C 304.69 142.00 306.05 142.01 306.74 142.02 C 306.72 149.67 306.73 157.33 306.74 164.99 C 306.05 164.99 304.69 165.00 304.00 165.01 C 304.00 157.33 304.00 149.66 304.00 141.99 Z"/>
    <path fill="#ffffff" opacity="1.00" d=" M 319.00 142.00 C 322.95 142.00 326.90 141.98 330.85 142.06 C 330.80 142.62 330.70 143.73 330.65 144.28 C 327.67 144.27 324.70 144.27 321.73 144.27 C 321.73 146.93 321.73 149.60 321.73 152.27 C 324.49 152.27 327.24 152.27 330.00 152.27 C 330.00 152.88 330.00 154.12 329.99 154.73 C 327.24 154.73 324.48 154.73 321.73 154.73 C 321.73 158.15 321.73 161.57 321.74 164.99 C 321.05 164.99 319.69 165.00 319.00 165.01 C 319.00 157.34 319.00 149.67 319.00 142.00 Z"/>
    <path fill="#ffffff" opacity="1.00" d=" M 342.00 141.99 C 342.69 142.00 344.05 142.01 344.74 142.01 C 344.73 149.67 344.72 157.33 344.74 164.98 C 344.06 164.99 342.69 165.00 342.00 165.01 C 342.00 157.34 342.00 149.66 342.00 141.99 Z"/>
    <path fill="#ffffff" opacity="1.00" d=" M 357.00 142.00 C 360.95 142.00 364.91 141.98 368.86 142.07 C 368.81 142.62 368.70 143.73 368.64 144.28 C 365.67 144.27 362.70 144.27 359.73 144.27 C 359.73 146.84 359.73 149.42 359.73 152.00 C 362.49 152.00 365.26 152.00 368.03 152.00 C 368.01 152.62 367.97 153.86 367.95 154.49 C 365.21 154.47 362.47 154.47 359.74 154.47 C 359.73 157.15 359.73 159.84 359.74 162.53 C 362.92 162.53 366.11 162.53 369.30 162.53 C 369.27 163.35 369.25 164.18 369.23 165.00 C 365.15 165.00 361.08 165.00 357.00 165.00 C 357.00 157.33 357.00 149.67 357.00 142.00 Z"/>
    <path fill="#ffffff" opacity="1.00" d=" M 380.00 142.00 C 385.34 142.20 391.74 140.87 395.95 145.05 C 400.26 150.27 399.45 159.73 393.27 163.22 C 389.30 165.68 384.43 164.87 380.00 165.01 C 380.00 157.34 380.00 149.67 380.00 142.00 M 382.74 144.18 C 382.72 150.31 382.73 156.44 382.73 162.57 C 385.86 162.47 389.30 162.93 392.05 161.08 C 396.35 158.26 396.77 151.81 394.37 147.63 C 391.80 143.89 386.72 144.37 382.74 144.18 Z"/>
    <path fill="#ffffff" opacity="1.00" d=" M 250.58 210.83 C 352.42 207.47 454.61 214.53 555.02 231.87 C 564.78 233.36 574.18 242.57 572.19 252.98 C 564.68 292.96 556.97 332.90 549.37 372.86 C 548.30 379.45 543.31 385.06 536.99 387.10 C 532.09 388.89 526.84 387.63 521.90 386.78 C 373.53 361.88 221.00 362.20 72.73 387.68 C 65.42 389.22 57.39 386.00 53.32 379.72 C 51.01 376.31 50.47 372.15 49.72 368.20 C 42.47 329.75 34.99 291.34 27.79 252.88 C 25.88 242.47 35.29 233.32 45.05 231.86 C 112.96 220.10 181.70 213.14 250.58 210.83 M 249.07 250.09 C 240.15 256.96 240.36 273.05 250.18 279.03 C 255.72 282.30 262.67 281.50 268.44 279.23 C 268.46 277.53 268.50 275.83 268.54 274.13 C 264.29 276.12 259.18 277.28 254.72 275.23 C 246.22 271.11 246.33 256.77 254.78 252.64 C 258.92 250.44 263.88 251.16 268.03 252.96 C 268.00 251.09 267.97 249.24 267.91 247.38 C 261.63 245.95 254.29 245.72 249.07 250.09 M 296.27 247.27 C 296.24 254.20 296.30 261.13 296.26 268.06 C 296.26 271.19 295.22 275.06 291.89 276.15 C 289.29 276.91 286.05 276.89 283.98 274.91 C 281.75 272.98 281.31 269.82 281.26 267.03 C 281.24 260.44 281.28 253.86 281.27 247.27 C 279.35 247.26 277.42 247.26 275.51 247.25 C 275.43 254.16 275.83 261.06 275.72 267.97 C 275.64 272.00 276.59 276.51 279.99 279.06 C 283.95 281.95 289.36 281.96 293.93 280.73 C 297.95 279.62 300.89 275.99 301.50 271.92 C 302.74 263.75 301.41 255.48 301.73 247.27 C 299.91 247.26 298.08 247.26 296.27 247.27 M 310.52 246.52 C 310.56 257.68 310.07 268.84 310.26 280.00 C 312.08 280.00 313.91 280.00 315.74 280.00 C 315.74 275.43 315.72 270.86 315.76 266.29 C 318.10 266.49 320.89 266.38 322.45 268.49 C 325.26 272.15 327.19 276.37 329.62 280.28 C 331.77 280.27 333.92 280.26 336.07 280.26 C 332.56 275.06 330.05 269.04 325.16 264.91 C 331.92 263.40 335.09 254.13 329.86 249.27 C 324.41 244.91 316.91 247.05 310.52 246.52 M 218.95 248.31 C 219.37 259.44 219.80 270.57 220.07 281.71 C 226.40 281.76 232.71 281.27 239.03 281.23 C 238.99 279.65 238.95 278.08 238.91 276.51 C 234.43 276.60 229.95 276.71 225.48 276.96 C 225.47 273.67 225.31 270.37 225.20 267.08 C 229.07 266.79 232.94 266.72 236.82 266.59 C 236.75 265.14 236.72 263.69 236.56 262.25 C 232.75 261.63 228.90 262.26 225.08 262.34 C 224.94 259.16 224.73 255.98 224.68 252.80 C 228.89 252.54 233.12 252.47 237.34 252.30 C 237.22 250.73 237.10 249.16 236.98 247.59 C 230.97 247.82 224.95 247.97 218.95 248.31 M 341.73 247.54 C 341.85 258.71 341.18 269.87 341.26 281.04 C 343.15 281.15 345.04 281.24 346.94 281.31 C 346.98 270.04 347.52 258.78 347.48 247.52 C 345.56 247.53 343.64 247.53 341.73 247.54 M 354.04 247.50 C 353.89 249.08 353.76 250.65 353.63 252.24 C 356.90 252.24 360.17 252.31 363.44 252.48 C 363.13 262.11 362.73 271.74 362.50 281.37 C 364.32 281.42 366.14 281.46 367.97 281.50 C 368.57 271.91 368.45 262.29 369.07 252.70 C 372.29 252.69 375.51 252.79 378.73 253.04 C 378.73 251.46 378.73 249.88 378.74 248.31 C 370.52 247.88 362.28 247.65 354.04 247.50 M 193.19 252.21 C 189.74 255.01 189.35 260.50 192.12 263.92 C 195.50 267.64 200.72 268.58 204.86 271.17 C 207.56 272.59 207.46 277.18 204.59 278.38 C 200.20 280.42 195.26 279.04 191.12 277.07 C 191.32 278.99 191.51 280.92 191.67 282.85 C 197.45 284.31 204.15 284.85 209.35 281.39 C 213.50 278.60 213.81 272.05 210.30 268.63 C 207.05 265.14 202.19 264.18 198.22 261.84 C 195.62 260.56 195.45 256.36 198.06 255.00 C 201.82 252.79 206.44 253.71 210.35 255.02 C 210.20 253.22 210.04 251.43 209.89 249.64 C 204.31 248.54 197.88 248.55 193.19 252.21 M 381.94 248.47 C 384.66 254.96 387.61 261.35 390.42 267.80 C 392.67 272.37 390.80 277.57 390.93 282.42 C 392.78 282.57 394.64 282.71 396.51 282.84 C 396.96 278.63 396.50 274.27 397.48 270.17 C 401.17 263.25 405.33 256.59 409.15 249.75 C 407.18 249.63 405.23 249.53 403.27 249.45 C 400.44 254.70 397.63 259.96 394.73 265.17 C 392.68 259.64 390.41 254.20 388.23 248.72 C 386.13 248.60 384.03 248.52 381.94 248.47 M 291.25 308.19 C 287.13 310.69 286.31 316.89 289.45 320.50 C 292.71 324.29 297.89 325.32 301.79 328.24 C 304.05 329.96 303.69 333.86 301.06 335.05 C 296.58 337.06 291.45 335.49 287.44 333.10 C 287.50 335.05 287.55 337.01 287.59 338.97 C 293.33 340.66 300.06 341.64 305.43 338.37 C 309.64 335.87 310.24 329.48 307.14 325.88 C 304.02 321.99 298.89 320.85 294.95 318.08 C 292.96 316.60 292.78 313.31 294.94 311.90 C 298.78 309.29 303.87 310.47 307.78 312.37 C 307.74 310.52 307.73 308.67 307.72 306.83 C 302.32 305.44 296.11 304.99 291.25 308.19 M 236.47 307.26 C 236.48 318.43 237.05 329.59 237.01 340.76 C 238.84 340.75 240.68 340.74 242.52 340.74 C 242.42 332.05 242.03 323.38 242.00 314.69 C 247.79 323.23 253.70 331.68 259.42 340.27 C 261.48 340.26 263.54 340.26 265.60 340.28 C 265.42 329.11 265.06 317.94 264.95 306.77 C 263.13 306.75 261.31 306.73 259.50 306.72 C 259.77 315.46 259.72 324.21 260.27 332.95 C 254.53 324.35 248.72 315.80 242.90 307.25 C 240.75 307.26 238.61 307.26 236.47 307.26 M 313.26 311.27 C 316.42 311.26 319.57 311.26 322.73 311.27 C 322.89 320.94 322.44 330.60 322.54 340.27 C 324.34 340.26 326.14 340.26 327.95 340.27 C 328.49 330.59 328.02 320.89 328.49 311.21 C 331.65 311.29 334.82 311.46 337.99 311.51 C 337.99 309.92 338.00 308.34 338.00 306.77 C 329.76 306.49 321.51 306.54 313.26 306.50 C 313.26 308.09 313.26 309.67 313.26 311.27 M 203.89 308.64 C 200.89 317.58 197.61 326.42 194.86 335.43 C 191.11 326.79 187.08 318.28 183.17 309.71 C 180.60 309.90 178.03 310.02 175.46 310.12 C 175.84 321.34 176.64 332.54 177.12 343.76 C 178.86 343.66 180.60 343.53 182.34 343.42 C 181.64 334.24 181.55 325.02 180.66 315.85 C 184.64 324.97 189.00 333.92 193.18 342.94 C 194.45 342.84 195.72 342.75 197.00 342.67 C 200.24 333.16 203.56 323.69 206.58 314.11 C 206.34 323.44 207.38 332.75 207.72 342.07 C 209.57 342.02 211.41 341.99 213.26 341.97 C 212.59 330.72 212.11 319.45 211.42 308.20 C 208.91 308.41 206.40 308.55 203.89 308.64 M 220.96 308.34 C 221.23 319.48 221.83 330.61 222.04 341.75 C 223.95 341.74 225.86 341.73 227.77 341.72 C 227.59 330.45 226.93 319.20 226.70 307.94 C 224.79 308.07 222.87 308.21 220.96 308.34 M 273.73 307.27 C 273.85 318.51 274.14 329.75 274.00 341.00 C 275.91 341.00 277.82 341.00 279.74 341.00 C 279.91 329.74 279.49 318.50 279.49 307.25 C 277.57 307.26 275.65 307.26 273.73 307.27 M 344.07 307.48 C 343.69 318.71 343.39 329.95 343.27 341.18 C 345.07 341.23 346.88 341.27 348.69 341.30 C 348.71 336.68 349.05 332.08 349.06 327.46 C 351.23 327.84 353.94 327.55 355.44 329.53 C 358.36 333.24 360.21 337.66 362.65 341.69 C 364.80 341.72 366.94 341.73 369.09 341.73 C 365.65 336.49 363.26 330.40 358.44 326.21 C 360.54 325.19 362.88 324.28 364.25 322.27 C 366.98 318.23 366.22 311.72 361.57 309.41 C 356.18 306.67 349.87 308.09 344.07 307.48 M 384.38 307.93 C 379.79 318.96 375.09 329.94 370.41 340.93 C 372.41 341.08 374.42 341.23 376.43 341.36 C 377.56 338.54 378.67 335.71 379.73 332.87 C 384.07 333.10 388.43 333.08 392.76 333.47 C 394.07 336.21 394.69 339.21 395.62 342.09 C 397.65 342.20 399.68 342.27 401.73 342.35 C 398.12 330.98 394.35 319.67 390.75 308.30 C 388.63 308.12 386.51 308.00 384.38 307.93 M 402.81 309.47 C 402.70 311.04 402.58 312.62 402.47 314.20 C 405.67 314.33 408.88 314.49 412.08 314.74 C 411.68 324.39 411.01 334.02 410.47 343.66 C 412.32 343.72 414.19 343.78 416.06 343.89 C 416.61 334.27 417.15 324.66 417.73 315.04 C 420.96 315.28 424.20 315.44 427.44 315.55 C 427.46 313.95 427.50 312.36 427.54 310.77 C 419.28 310.57 411.06 309.80 402.81 309.47 M 439.21 312.11 C 429.09 315.20 425.87 328.39 429.77 337.32 C 434.27 347.96 451.26 349.14 457.34 339.36 C 461.73 332.20 462.01 321.52 455.60 315.44 C 451.38 311.22 444.72 310.66 439.21 312.11 M 139.45 313.31 C 140.37 324.42 141.32 335.53 142.06 346.66 C 149.10 345.96 157.00 346.56 162.88 341.89 C 170.69 336.09 170.86 323.47 164.60 316.51 C 157.72 310.31 147.78 312.75 139.45 313.31 M 469.63 314.00 C 468.50 325.13 467.28 336.25 466.15 347.38 C 467.98 347.60 469.81 347.82 471.66 348.05 C 472.17 343.44 472.53 338.81 473.17 334.22 C 475.23 334.84 477.92 334.70 479.21 336.76 C 481.86 340.65 483.34 345.20 485.41 349.41 C 487.57 349.67 489.74 349.92 491.92 350.15 C 489.06 344.85 487.08 338.99 483.10 334.37 C 482.62 333.89 482.43 333.26 482.30 332.63 L 483.72 333.69 C 489.87 331.83 493.22 323.37 488.45 318.51 C 483.46 313.77 475.88 315.23 469.63 314.00 M 114.36 316.19 C 111.29 327.75 108.45 339.36 105.36 350.91 C 107.37 350.72 109.39 350.52 111.40 350.35 C 112.10 347.41 112.75 344.46 113.42 341.51 C 117.82 340.99 122.23 340.49 126.64 340.13 C 127.93 342.85 129.21 345.56 130.50 348.28 C 132.53 348.04 134.57 347.81 136.61 347.61 C 131.14 336.97 125.81 326.26 120.65 315.47 C 118.55 315.71 116.45 315.95 114.36 316.19 Z"/>
    <path fill="#ffffff" opacity="1.00" d=" M 316.00 250.95 C 318.92 251.13 322.18 250.52 324.79 252.17 C 327.93 254.68 326.74 260.45 322.94 261.63 C 320.68 262.23 318.31 261.95 316.00 262.04 C 316.00 258.34 316.00 254.65 316.00 250.95 Z"/>
    <path fill="#ffffff" opacity="1.00" d=" M 349.51 312.21 C 352.24 312.42 355.30 311.77 357.77 313.25 C 361.16 315.31 360.40 321.00 356.94 322.58 C 354.52 323.68 351.81 323.16 349.25 323.10 C 349.22 319.47 349.30 315.83 349.51 312.21 Z"/>
    <path fill="#ffffff" opacity="1.00" d=" M 387.21 313.27 C 388.47 318.52 390.17 323.64 391.72 328.80 C 388.28 328.63 384.83 328.51 381.39 328.47 C 383.30 323.39 385.41 318.39 387.21 313.27 Z"/>
    <path fill="#ffffff" opacity="1.00" d=" M 441.48 316.68 C 446.17 315.17 452.08 317.35 453.72 322.24 C 455.42 327.27 454.94 333.33 451.80 337.71 C 447.86 342.76 438.88 342.22 435.78 336.53 C 432.21 329.97 433.92 319.59 441.48 316.68 Z"/>
    <path fill="#ffffff" opacity="1.00" d=" M 145.38 317.53 C 150.48 317.00 156.83 316.06 160.55 320.50 C 163.96 325.37 164.32 332.76 160.44 337.48 C 157.13 341.10 151.89 341.20 147.36 341.65 C 146.54 333.62 146.06 325.57 145.38 317.53 Z"/>
    <path fill="#ffffff" opacity="1.00" d=" M 474.62 319.15 C 477.30 319.45 480.18 319.23 482.63 320.54 C 485.86 322.70 485.20 328.14 481.83 329.82 C 479.21 331.14 476.25 330.08 473.51 329.97 C 473.93 326.37 474.31 322.76 474.62 319.15 Z"/>
    <path fill="#ffffff" opacity="1.00" d=" M 117.85 321.04 C 119.94 325.99 122.30 330.81 124.63 335.65 C 121.22 336.10 117.81 336.47 114.39 336.83 C 115.56 331.57 116.90 326.34 117.85 321.04 Z"/>
    <path fill="#ffffff" opacity="1.00" d=" M 275.40 405.58 C 280.35 404.23 286.24 405.28 289.68 409.31 C 293.52 413.98 293.71 420.97 291.34 426.35 C 287.80 433.98 276.66 435.77 270.41 430.50 C 262.44 423.84 264.77 408.13 275.40 405.58 M 276.36 411.33 C 271.82 414.08 271.47 420.85 274.08 425.05 C 276.12 428.42 281.31 428.90 283.95 425.99 C 286.62 422.97 286.47 418.37 285.31 414.74 C 284.14 411.15 279.62 409.50 276.36 411.33 Z"/>
    <path fill="#ffffff" opacity="1.00" d=" M 305.11 407.15 C 309.63 404.31 315.26 404.86 320.25 405.90 C 320.25 407.95 320.25 410.01 320.27 412.07 C 317.05 411.00 313.51 409.81 310.21 411.26 C 304.11 413.73 303.57 423.50 309.17 426.81 C 312.56 428.75 316.63 427.74 320.02 426.32 C 320.00 428.31 320.00 430.31 320.00 432.31 C 314.35 433.87 307.49 434.40 302.76 430.28 C 296.24 424.16 297.30 411.77 305.11 407.15 Z"/>
    <path fill="#ffffff" opacity="1.00" d=" M 244.36 407.32 C 248.70 404.89 253.94 405.32 258.63 406.29 C 258.70 408.27 258.76 410.25 258.82 412.24 C 255.40 411.04 249.79 408.98 247.60 413.03 C 248.76 416.96 253.88 416.89 256.71 419.21 C 261.31 421.79 261.51 429.31 257.03 432.09 C 252.38 434.82 246.70 434.16 241.66 433.05 C 241.52 430.85 241.40 428.66 241.19 426.47 C 244.59 428.25 249.23 430.35 252.72 427.67 C 254.26 426.90 253.09 424.68 252.03 424.04 C 249.11 422.15 245.40 421.61 242.89 419.09 C 239.58 415.86 240.26 409.59 244.36 407.32 Z"/>
    <path fill="#ffffff" opacity="1.00" d=" M 328.00 405.75 C 330.17 405.75 332.33 405.74 334.51 405.75 C 334.46 414.92 334.23 424.09 333.94 433.26 C 331.88 433.25 329.81 433.25 327.75 433.25 C 327.56 424.08 328.16 414.92 328.00 405.75 Z"/>
    <path fill="#ffffff" opacity="1.00" d=" M 350.09 406.18 C 352.64 406.23 355.18 406.33 357.73 406.50 C 360.68 415.75 363.68 424.99 366.56 434.27 C 364.19 434.12 361.82 434.00 359.46 433.90 C 358.93 431.86 358.39 429.83 357.85 427.81 C 354.71 427.78 351.57 427.70 348.44 427.46 C 347.69 429.47 346.96 431.48 346.24 433.50 C 343.90 433.50 341.55 433.50 339.21 433.52 C 342.77 424.38 346.43 415.28 350.09 406.18 M 353.50 412.00 C 352.45 415.63 351.11 419.18 349.87 422.75 C 352.05 422.75 354.24 422.75 356.43 422.76 C 355.40 419.18 354.32 415.62 353.50 412.00 Z"/>
    <path fill="#ffffff" opacity="1.00" d=" M 217.45 408.34 C 221.69 405.72 226.93 406.44 231.65 406.89 C 231.79 408.92 231.94 410.96 232.08 413.00 C 228.97 411.97 225.47 410.61 222.30 412.23 C 221.14 412.79 220.70 413.73 220.97 415.04 C 224.11 418.18 229.29 418.26 232.11 421.85 C 234.82 425.22 234.06 431.00 230.14 433.13 C 225.54 435.60 220.05 435.08 215.13 433.99 C 215.00 431.79 214.84 429.60 214.67 427.42 C 217.82 429.14 221.62 430.73 225.17 429.20 C 226.64 428.70 227.46 426.96 226.32 425.69 C 223.42 422.94 218.86 422.83 216.04 419.93 C 212.90 416.69 213.56 410.70 217.45 408.34 Z"/>
    <path fill="#ffffff" opacity="1.00" d=" M 368.00 406.80 C 375.44 407.11 382.89 407.37 390.33 407.81 C 390.24 409.55 390.16 411.30 390.06 413.05 C 387.47 412.91 384.87 412.77 382.28 412.68 C 381.80 420.06 381.60 427.45 381.19 434.82 C 379.04 434.73 376.90 434.63 374.76 434.49 C 375.20 427.10 375.33 419.70 375.81 412.31 C 373.20 412.26 370.60 412.18 368.00 412.03 C 367.99 410.28 367.99 408.54 368.00 406.80 Z"/>
    <path fill="#ffffff" opacity="1.00" d=" M 190.58 408.53 C 193.12 408.37 195.69 408.02 198.25 408.34 C 202.15 417.13 205.71 426.07 209.39 434.95 C 207.06 435.10 204.73 435.23 202.40 435.32 C 201.64 433.35 200.89 431.39 200.14 429.42 C 196.96 429.56 193.79 429.76 190.62 430.04 C 190.15 432.05 189.67 434.07 189.19 436.08 C 186.85 436.23 184.50 436.38 182.16 436.54 C 184.93 427.19 187.72 417.85 190.58 408.53 M 194.48 414.05 C 193.75 417.69 192.78 421.28 191.83 424.88 C 194.01 424.76 196.19 424.64 198.37 424.48 C 197.05 421.01 195.67 417.56 194.48 414.05 Z"/>
    <path fill="#ffffff" opacity="1.00" d=" M 396.94 408.18 C 402.35 408.38 407.74 408.75 413.14 409.08 C 413.02 410.77 412.95 412.47 412.68 414.15 C 409.47 414.22 406.28 413.96 403.09 413.69 C 402.99 415.61 402.89 417.53 402.77 419.46 C 405.78 419.68 408.79 419.86 411.80 420.07 C 411.65 421.81 411.52 423.54 411.40 425.29 C 408.44 425.08 405.49 424.90 402.54 424.69 C 402.39 426.67 402.26 428.66 402.15 430.66 C 405.54 430.87 408.95 431.06 412.35 431.32 C 412.24 433.05 412.13 434.79 412.01 436.53 C 406.49 436.11 400.96 435.90 395.44 435.50 C 396.00 426.39 396.41 417.28 396.94 408.18 Z"/>
    <path fill="#ffffff" opacity="1.00" d=" M 249.61 480.94 C 252.48 472.12 255.23 463.26 258.28 454.49 C 261.29 463.29 264.03 472.17 266.96 481.00 C 276.38 481.02 285.81 480.96 295.24 481.03 C 287.64 486.63 279.96 492.11 272.37 497.72 C 275.32 506.62 278.15 515.57 281.11 524.48 C 273.47 518.99 265.87 513.46 258.27 507.92 C 250.61 513.44 243.01 519.04 235.33 524.54 C 238.36 515.59 241.30 506.61 244.10 497.59 C 236.48 492.11 228.85 486.67 221.36 481.03 C 230.78 480.92 240.19 481.09 249.61 480.94 Z"/>
    <path fill="#ffffff" opacity="1.00" d=" M 333.04 481.00 C 335.99 472.15 338.74 463.24 341.75 454.42 C 344.70 463.23 347.54 472.09 350.40 480.95 C 359.81 481.08 369.22 480.93 378.63 481.03 C 371.24 486.82 363.27 491.87 356.00 497.81 C 358.61 506.77 361.80 515.56 364.56 524.48 C 356.94 518.97 349.35 513.44 341.75 507.93 C 334.12 513.44 326.54 519.00 318.89 524.48 C 321.86 515.57 324.67 506.61 327.63 497.70 C 320.05 492.12 312.37 486.69 304.84 481.04 C 314.24 480.95 323.64 481.02 333.04 481.00 Z"/>
  </g>
  <g id="#505050ff">
    <path fill="#505050" opacity="1.00" d="M 281.37 8.5 C 293.63 5.05 306.87 5.09 319.11 8.64 C 368.79 23.67 418.47 38.67 468.15 53.69 C 475.31 55.91 482.84 57.59 489.14 61.87 C 501.59 69.82 509.49 84.2 509.71 98.96 C 509.84 136.85 509.67 174.74 509.79 212.63 C 524.55 214.62 539.25 217 553.94 219.43 C 568.6 220.72 582.77 231.92 584.34 247.09 C 585.02 252.08 583.71 257.02 582.81 261.89 C 575.62 299.54 568.44 337.2 561.26 374.86 C 559.98 382.57 555.6 389.7 549.24 394.25 C 542.91 398.92 534.74 400.82 526.97 399.79 C 521.22 398.96 515.51 397.88 509.79 396.96 C 509.4 417.75 503.53 438.27 493.43 456.41 C 479.01 482.48 457.69 504.05 434.43 522.35 C 405.16 545.24 372.53 563.51 338.72 578.77 C 326.08 584.44 313.22 589.66 300.09 594.1 C 264.39 582.02 230.18 565.59 198.12 545.8 C 166.33 525.77 136.15 501.7 114.77 470.43 C 99.91 448.88 90.58 423.26 90.19 396.95 C 80.71 398.18 71.11 401.52 61.54 399.23 C 50.38 396.65 41.11 387.28 38.97 375.99 C 31.39 336.5 23.93 296.99 16.34 257.51 C 15.18 252.34 15.13 246.88 16.77 241.81 C 20.37 230.25 31.24 221.89 43 219.97 C 58.7 217.29 74.42 214.77 90.2 212.64 C 90.34 174.75 90.16 136.86 90.29 98.97 C 90.43 80.33 103.27 62.6 121.08 56.98 C 174.5 40.77 227.95 24.69 281.37 8.5 M 201.35 89.42 C 199.3 90.26 198.68 93.21 200.25 94.77 C 202.2 97.03 206.79 96.23 207.13 93.06 C 207.82 89.92 203.84 87.9 201.35 89.42 M 329.08 91.04 C 326.62 92.91 326.68 96.23 326.43 99 C 325.28 99 324.14 99 323 99 C 323 100.66 323 102.32 323 103.98 C 324.2 104 325.41 104.02 326.62 104.05 C 326.58 110.03 326.6 116.02 326.6 122 C 328.89 122 331.17 122 333.47 122 C 333.46 116.01 333.48 110.02 333.45 104.04 C 335.12 104.01 336.79 104 338.47 103.98 C 338.47 102.32 338.46 100.67 338.47 99.02 C 336.71 99 334.95 98.96 333.19 98.92 C 333.39 97.64 333.63 96.37 333.9 95.1 C 335.18 93.26 337.54 94.41 339.35 94.46 C 339.3 92.85 339.27 91.23 339.24 89.61 C 335.83 88.69 331.94 88.69 329.08 91.04 M 158.53 91 C 158.53 101.33 158.53 111.67 158.53 122 C 160.6 122 162.66 122 164.73 122 C 164.65 113.57 164.97 105.13 164.45 96.71 C 166.77 105.32 170.2 113.57 172.99 122.02 C 174.89 122 176.8 121.98 178.72 121.94 C 181.32 113.5 184.9 105.34 186.78 96.69 C 186.67 105.13 186.76 113.57 186.73 122 C 189.02 122 191.31 122 193.61 121.99 C 193.6 111.66 193.59 101.34 193.61 91.01 C 190.31 91 187.01 91 183.71 90.99 C 181.21 98.69 178.09 106.21 176.17 114.09 C 174.29 106.21 171.13 98.72 168.71 91.01 C 165.32 91 161.92 91 158.53 91 M 372.6 92.46 C 372.58 94.22 372.56 95.99 372.53 97.75 C 375.31 96.62 378.57 95.08 381.54 96.52 C 383.72 97.59 383.83 100.85 382.39 102.57 C 380.24 104.4 377.18 103.87 374.59 104.13 C 374.59 105.71 374.59 107.3 374.59 108.89 C 377.29 109.11 380.32 108.66 382.72 110.2 C 384.75 111.41 384.83 114.64 382.83 115.94 C 379.32 118.22 374.93 116.64 371.41 115.22 C 371.48 117.12 371.55 119.03 371.63 120.93 C 376.88 122.2 382.96 122.99 387.7 119.79 C 391.31 117.52 392.44 111.85 389.42 108.67 C 388.07 107.07 385.88 106.85 383.99 106.34 C 385.63 105.61 387.47 105.03 388.65 103.58 C 391.17 100.42 390.71 95.07 387.18 92.81 C 382.82 89.97 377.24 90.82 372.6 92.46 M 404.3 92.24 C 399.08 94.61 396.54 100.5 396.22 105.95 C 395.89 110.55 396.49 115.73 399.84 119.19 C 404.35 123.71 412.86 122.7 416.19 117.24 C 419.45 112.38 417.98 103.99 411.82 102.28 C 408.42 101.07 405.22 102.94 402.48 104.73 C 403.26 102.07 403.8 98.94 406.3 97.28 C 409 95.13 412.62 96.18 415.64 96.92 C 415.61 95.13 415.6 93.33 415.6 91.54 C 411.85 90.92 407.82 90.47 404.3 92.24 M 423.5 107.26 C 426.53 107.1 429.71 106.54 432.67 107.52 C 436.35 108.7 436.51 114.51 433.19 116.22 C 429.92 118.08 426.12 116.49 422.97 115.18 C 422.99 117.09 423.02 119 423.06 120.92 C 427.71 122.09 432.97 122.89 437.33 120.36 C 442.93 117.42 444.31 108.67 439.55 104.38 C 436.79 101.86 432.82 101.98 429.33 101.88 C 429.47 100.26 429.61 98.63 429.75 97 C 433.5 97 437.25 97 441 97 C 441 95 441 93 441 91 C 435.56 91 430.12 91 424.68 90.99 C 424.4 96.42 423.94 101.84 423.5 107.26 M 343.39 94.07 C 343.39 95.71 343.4 97.35 343.41 98.99 C 342.52 99 340.75 99 339.87 99.01 C 339.86 100.67 339.86 102.33 339.87 103.99 C 340.75 104 342.52 104 343.41 104.01 C 343.67 108.9 342.65 114.05 344.29 118.75 C 346.32 122.73 351.43 122.27 355.1 121.4 C 355.12 119.79 355.15 118.19 355.19 116.59 C 353.54 116.83 351.49 117.5 350.55 115.63 C 349.96 111.79 350.36 107.88 350.27 104.01 C 351.89 104 353.51 104 355.13 103.99 C 355.13 102.33 355.13 100.67 355.13 99.01 C 353.5 99 351.88 98.99 350.26 98.98 C 350.26 96.65 350.27 94.31 350.27 91.97 C 347.98 92.68 345.68 93.37 343.39 94.07 M 199.87 98.99 C 199.87 106.66 199.87 114.34 199.87 122.01 C 202.12 122 204.37 121.99 206.62 121.97 C 206.59 114.32 206.59 106.67 206.61 99.02 C 204.36 99.01 202.12 99 199.87 98.99 M 217.41 100.46 C 209.97 104.03 209.43 116.3 216.62 120.42 C 220.51 122.8 225.25 122.1 229.44 121.03 C 229.47 119.15 229.5 117.27 229.57 115.4 C 227.22 116.4 224.6 117.74 222.03 116.63 C 216.91 114.75 217.11 105.82 222.45 104.32 C 224.89 103.32 227.39 104.56 229.58 105.57 C 229.51 103.62 229.46 101.66 229.42 99.71 C 225.46 98.81 221.11 98.45 217.41 100.46 M 233.73 99 C 233.73 106.67 233.73 114.34 233.73 122.01 C 236.03 122 238.33 121.99 240.63 121.97 C 240.85 117.12 239.85 112.03 241.46 107.35 C 242.7 104.61 245.83 104.91 248.29 105.37 C 248.27 103.15 248.25 100.93 248.21 98.72 C 244.86 98.63 242.16 100.39 240.52 103.21 C 240.55 101.8 240.59 100.4 240.62 99 C 238.32 99 236.03 99 233.73 99 M 257.45 99.53 C 249.22 101.37 247.06 112.8 252.35 118.62 C 256.05 122.42 262.21 122.89 266.95 120.93 C 274.61 117.82 275.65 105.68 268.96 101.04 C 265.62 98.83 261.25 98.44 257.45 99.53 M 279.39 101.36 C 276.09 104.2 276.95 110.36 281.25 111.73 C 283.4 113.13 287.32 112.9 287.96 115.82 C 284.78 118.32 280.62 116.5 277.33 115.19 C 277.37 117.11 277.39 119.03 277.4 120.95 C 282.11 122.25 287.61 122.82 291.83 119.89 C 295.44 117.37 295.14 110.81 290.72 109.33 C 288.47 107.85 284.56 108.05 283.82 104.98 C 286.63 103.18 290 104.24 293.01 104.84 C 293 103.12 292.99 101.41 292.99 99.7 C 288.48 98.84 283.19 98.18 279.39 101.36 M 304.41 99.54 C 295.7 101.51 293.84 114.32 300.43 119.62 C 304.47 122.59 310.19 122.77 314.64 120.61 C 321.93 116.94 322.43 104.83 315.38 100.67 C 312.08 98.81 308.01 98.48 304.41 99.54 M 208.51 143.53 C 203.5 146.94 202.3 154.08 204.59 159.44 C 206.24 163.07 210.07 165.46 214.06 165.41 C 216.86 165.35 221.05 165.38 221.16 161.64 C 217.87 162.59 214.22 163.79 210.94 162.15 C 204.31 158.8 204.86 147.24 211.82 144.54 C 214.75 143.36 217.92 144.32 220.86 144.94 C 220.8 144.24 220.67 142.85 220.61 142.16 C 216.6 141.35 211.97 140.87 208.51 143.53 M 232 142 C 232 149.67 232 157.33 232 165 C 236.09 165 240.17 165 244.26 165 C 244.27 164.18 244.27 163.35 244.28 162.53 C 241.1 162.53 237.92 162.53 234.74 162.53 C 234.73 159.84 234.73 157.15 234.74 154.47 C 237.47 154.47 240.2 154.47 242.93 154.49 C 242.96 153.87 243.01 152.62 243.03 152 C 240.27 152 237.5 152 234.73 152 C 234.73 149.42 234.73 146.84 234.73 144.27 C 237.71 144.27 240.68 144.27 243.66 144.28 C 243.71 143.72 243.79 142.61 243.83 142.05 C 239.89 141.98 235.94 142 232 142 M 255 142 C 255 149.67 255 157.34 255 165.01 C 255.69 165 257.05 164.99 257.74 164.98 C 257.73 161.68 257.72 158.37 257.75 155.06 C 259.57 155.43 261.95 154.9 263.18 156.68 C 265.19 159.22 266.63 162.15 268.28 164.92 C 269.11 164.95 270.76 165.01 271.59 165.03 C 269.36 161.37 267.21 157.6 264.35 154.38 C 267.96 152.83 270.41 148.56 268.18 144.87 C 265.39 140.4 259.34 142.43 255 142 M 277.26 142.11 C 277.77 145.66 281.89 143.83 284.27 144.32 C 284.26 151.21 284.27 158.1 284.26 164.99 C 284.95 164.99 286.32 165 287 165 C 287 158.1 287 151.2 287 144.3 C 289.47 143.84 293.66 145.66 294.17 142.12 C 288.53 141.94 282.89 141.93 277.26 142.11 M 304 141.99 C 304 149.66 304 157.33 304 165.01 C 304.69 165 306.05 164.99 306.74 164.99 C 306.73 157.33 306.72 149.67 306.74 142.02 C 306.05 142.01 304.69 142 304 141.99 M 319 142 C 319 149.67 319 157.34 319 165.01 C 319.69 165 321.05 164.99 321.74 164.99 C 321.73 161.57 321.73 158.15 321.73 154.73 C 324.48 154.73 327.24 154.73 329.99 154.73 C 330 154.12 330 152.88 330 152.27 C 327.24 152.27 324.49 152.27 321.73 152.27 C 321.73 149.6 321.73 146.93 321.73 144.27 C 324.7 144.27 327.67 144.27 330.65 144.28 C 330.7 143.73 330.8 142.62 330.85 142.06 C 326.9 141.98 322.95 142 319 142 M 342 141.99 C 342 149.66 342 157.34 342 165.01 C 342.69 165 344.06 164.99 344.74 164.98 C 344.72 157.33 344.73 149.67 344.74 142.01 C 344.05 142.01 342.69 142 342 141.99 M 357 142 C 357 149.67 357 157.33 357 165 C 361.08 165 365.15 165 369.23 165 C 369.25 164.18 369.27 163.35 369.3 162.53 C 366.11 162.53 362.92 162.53 359.74 162.53 C 359.73 159.84 359.73 157.15 359.74 154.47 C 362.47 154.47 365.21 154.47 367.95 154.49 C 367.97 153.86 368.01 152.62 368.03 152 C 365.26 152 362.49 152 359.73 152 C 359.73 149.42 359.73 146.84 359.73 144.27 C 362.7 144.27 365.67 144.27 368.64 144.28 C 368.7 143.73 368.81 142.62 368.86 142.07 C 364.91 141.98 360.95 142 357 142 M 380 142 C 380 149.67 380 157.34 380 165.01 C 384.43 164.87 389.3 165.68 393.27 163.22 C 399.45 159.73 400.26 150.27 395.95 145.05 C 391.74 140.87 385.34 142.2 380 142 M 250.58 210.83 C 181.7 213.14 112.96 220.1 45.05 231.86 C 35.29 233.32 25.88 242.47 27.79 252.88 C 34.99 291.34 42.47 329.75 49.72 368.2 C 50.47 372.15 51.01 376.31 53.32 379.72 C 57.39 386 65.42 389.22 72.73 387.68 C 221 362.2 373.53 361.88 521.9 386.78 C 526.84 387.63 532.09 388.89 536.99 387.1 C 543.31 385.06 548.3 379.45 549.37 372.86 C 556.97 332.9 564.68 292.96 572.19 252.98 C 574.18 242.57 564.78 233.36 555.02 231.87 C 454.61 214.53 352.42 207.47 250.58 210.83 M 120.078 397.854 C 120.208 411.314 122.954 417.867 128.004 430.387 C 137.134 453.547 151.827 470.76 170.077 487.4 C 184.517 500.57 197.425 510.604 214.005 520.924 C 242.695 538.674 268.805 546.923 300.485 558.523 C 338.045 544.413 369.271 531.207 402.321 508.377 C 427.641 490.587 448.093 471.569 464.313 444.889 C 474.883 427.679 482.489 423.038 482.389 402.788 C 357.369 384.748 245.098 379.764 120.078 397.854 Z"/>
    <path fill="#505050" opacity="1.00" d=" M 258.71 104.82 C 260.62 103.32 263.00 104.36 265.11 104.73 C 266.41 107.86 267.26 111.46 265.66 114.66 C 263.97 118.16 257.94 117.72 256.90 113.92 C 256.03 110.92 255.97 106.90 258.71 104.82 Z"/>
    <path fill="#505050" opacity="1.00" d=" M 305.71 104.81 C 307.63 103.32 310.00 104.36 312.11 104.73 C 313.42 107.87 314.27 111.50 312.63 114.71 C 310.91 118.15 304.97 117.70 303.92 113.95 C 303.02 110.94 302.96 106.89 305.71 104.81 Z"/>
    <path fill="#505050" opacity="1.00" d=" M 405.33 107.38 C 411.60 104.32 413.62 115.68 407.96 116.97 C 402.99 117.77 401.08 109.47 405.33 107.38 Z"/>
    <path fill="#505050" opacity="1.00" d=" M 257.74 144.14 C 260.67 144.41 266.03 143.65 266.04 147.96 C 266.58 152.71 261.14 153.02 257.74 152.85 C 257.73 149.95 257.73 147.04 257.74 144.14 Z"/>
    <path fill="#505050" opacity="1.00" d=" M 382.74 144.18 C 386.72 144.37 391.80 143.89 394.37 147.63 C 396.77 151.81 396.35 158.26 392.05 161.08 C 389.30 162.93 385.86 162.47 382.73 162.57 C 382.73 156.44 382.72 150.31 382.74 144.18 Z"/>
  </g>
  <g id="#282828ff">
    <path fill="#282828" opacity="1.00" d=" M 249.07 250.09 C 254.29 245.72 261.63 245.95 267.91 247.38 C 267.97 249.24 268.00 251.09 268.03 252.96 C 263.88 251.16 258.92 250.44 254.78 252.64 C 246.33 256.77 246.22 271.11 254.72 275.23 C 259.18 277.28 264.29 276.12 268.54 274.13 C 268.50 275.83 268.46 277.53 268.44 279.23 C 262.67 281.50 255.72 282.30 250.18 279.03 C 240.36 273.05 240.15 256.96 249.07 250.09 Z"/>
    <path fill="#282828" opacity="1.00" d=" M 296.27 247.27 C 298.08 247.26 299.91 247.26 301.73 247.27 C 301.41 255.48 302.74 263.75 301.50 271.92 C 300.89 275.99 297.95 279.62 293.93 280.73 C 289.36 281.96 283.95 281.95 279.99 279.06 C 276.59 276.51 275.64 272.00 275.72 267.97 C 275.83 261.06 275.43 254.16 275.51 247.25 C 277.42 247.26 279.35 247.26 281.27 247.27 C 281.28 253.86 281.24 260.44 281.26 267.03 C 281.31 269.82 281.75 272.98 283.98 274.91 C 286.05 276.89 289.29 276.91 291.89 276.15 C 295.22 275.06 296.26 271.19 296.26 268.06 C 296.30 261.13 296.24 254.20 296.27 247.27 Z"/>
    <path fill="#282828" opacity="1.00" d=" M 310.52 246.52 C 316.91 247.05 324.41 244.91 329.86 249.27 C 335.09 254.13 331.92 263.40 325.16 264.91 C 330.05 269.04 332.56 275.06 336.07 280.26 C 333.92 280.26 331.77 280.27 329.62 280.28 C 327.19 276.37 325.26 272.15 322.45 268.49 C 320.89 266.38 318.10 266.49 315.76 266.29 C 315.72 270.86 315.74 275.43 315.74 280.00 C 313.91 280.00 312.08 280.00 310.26 280.00 C 310.07 268.84 310.56 257.68 310.52 246.52 M 316.00 250.95 C 316.00 254.65 316.00 258.34 316.00 262.04 C 318.31 261.95 320.68 262.23 322.94 261.63 C 326.74 260.45 327.93 254.68 324.79 252.17 C 322.18 250.52 318.92 251.13 316.00 250.95 Z"/>
    <path fill="#282828" opacity="1.00" d=" M 218.95 248.31 C 224.95 247.97 230.97 247.82 236.98 247.59 C 237.10 249.16 237.22 250.73 237.34 252.30 C 233.12 252.47 228.89 252.54 224.68 252.80 C 224.73 255.98 224.94 259.16 225.08 262.34 C 228.90 262.26 232.75 261.63 236.56 262.25 C 236.72 263.69 236.75 265.14 236.82 266.59 C 232.94 266.72 229.07 266.79 225.20 267.08 C 225.31 270.37 225.47 273.67 225.48 276.96 C 229.95 276.71 234.43 276.60 238.91 276.51 C 238.95 278.08 238.99 279.65 239.03 281.23 C 232.71 281.27 226.40 281.76 220.07 281.71 C 219.80 270.57 219.37 259.44 218.95 248.31 Z"/>
    <path fill="#282828" opacity="1.00" d=" M 341.73 247.54 C 343.64 247.53 345.56 247.53 347.48 247.52 C 347.52 258.78 346.98 270.04 346.94 281.31 C 345.04 281.24 343.15 281.15 341.26 281.04 C 341.18 269.87 341.85 258.71 341.73 247.54 Z"/>
    <path fill="#282828" opacity="1.00" d=" M 354.04 247.50 C 362.28 247.65 370.52 247.88 378.74 248.31 C 378.73 249.88 378.73 251.46 378.73 253.04 C 375.51 252.79 372.29 252.69 369.07 252.70 C 368.45 262.29 368.57 271.91 367.97 281.50 C 366.14 281.46 364.32 281.42 362.50 281.37 C 362.73 271.74 363.13 262.11 363.44 252.48 C 360.17 252.31 356.90 252.24 353.63 252.24 C 353.76 250.65 353.89 249.08 354.04 247.50 Z"/>
    <path fill="#282828" opacity="1.00" d=" M 193.19 252.21 C 197.88 248.55 204.31 248.54 209.89 249.64 C 210.04 251.43 210.20 253.22 210.35 255.02 C 206.44 253.71 201.82 252.79 198.06 255.00 C 195.45 256.36 195.62 260.56 198.22 261.84 C 202.19 264.18 207.05 265.14 210.30 268.63 C 213.81 272.05 213.50 278.60 209.35 281.39 C 204.15 284.85 197.45 284.31 191.67 282.85 C 191.51 280.92 191.32 278.99 191.12 277.07 C 195.26 279.04 200.20 280.42 204.59 278.38 C 207.46 277.18 207.56 272.59 204.86 271.17 C 200.72 268.58 195.50 267.64 192.12 263.92 C 189.35 260.50 189.74 255.01 193.19 252.21 Z"/>
    <path fill="#282828" opacity="1.00" d=" M 381.94 248.47 C 384.03 248.52 386.13 248.60 388.23 248.72 C 390.41 254.20 392.68 259.64 394.73 265.17 C 397.63 259.96 400.44 254.70 403.27 249.45 C 405.23 249.53 407.18 249.63 409.15 249.75 C 405.33 256.59 401.17 263.25 397.48 270.17 C 396.50 274.27 396.96 278.63 396.51 282.84 C 394.64 282.71 392.78 282.57 390.93 282.42 C 390.80 277.57 392.67 272.37 390.42 267.80 C 387.61 261.35 384.66 254.96 381.94 248.47 Z"/>
    <path fill="#282828" opacity="1.00" d=" M 291.25 308.19 C 296.11 304.99 302.32 305.44 307.72 306.83 C 307.73 308.67 307.74 310.52 307.78 312.37 C 303.87 310.47 298.78 309.29 294.94 311.90 C 292.78 313.31 292.96 316.60 294.95 318.08 C 298.89 320.85 304.02 321.99 307.14 325.88 C 310.24 329.48 309.64 335.87 305.43 338.37 C 300.06 341.64 293.33 340.66 287.59 338.97 C 287.55 337.01 287.50 335.05 287.44 333.10 C 291.45 335.49 296.58 337.06 301.06 335.05 C 303.69 333.86 304.05 329.96 301.79 328.24 C 297.89 325.32 292.71 324.29 289.45 320.50 C 286.31 316.89 287.13 310.69 291.25 308.19 Z"/>
    <path fill="#282828" opacity="1.00" d=" M 236.47 307.26 C 238.61 307.26 240.75 307.26 242.90 307.25 C 248.72 315.80 254.53 324.35 260.27 332.95 C 259.72 324.21 259.77 315.46 259.50 306.72 C 261.31 306.73 263.13 306.75 264.95 306.77 C 265.06 317.94 265.42 329.11 265.60 340.28 C 263.54 340.26 261.48 340.26 259.42 340.27 C 253.70 331.68 247.79 323.23 242.00 314.69 C 242.03 323.38 242.42 332.05 242.52 340.74 C 240.68 340.74 238.84 340.75 237.01 340.76 C 237.05 329.59 236.48 318.43 236.47 307.26 Z"/>
    <path fill="#282828" opacity="1.00" d=" M 313.26 311.27 C 313.26 309.67 313.26 308.09 313.26 306.50 C 321.51 306.54 329.76 306.49 338.00 306.77 C 338.00 308.34 337.99 309.92 337.99 311.51 C 334.82 311.46 331.65 311.29 328.49 311.21 C 328.02 320.89 328.49 330.59 327.95 340.27 C 326.14 340.26 324.34 340.26 322.54 340.27 C 322.44 330.60 322.89 320.94 322.73 311.27 C 319.57 311.26 316.42 311.26 313.26 311.27 Z"/>
    <path fill="#282828" opacity="1.00" d=" M 203.89 308.64 C 206.40 308.55 208.91 308.41 211.42 308.20 C 212.11 319.45 212.59 330.72 213.26 341.97 C 211.41 341.99 209.57 342.02 207.72 342.07 C 207.38 332.75 206.34 323.44 206.58 314.11 C 203.56 323.69 200.24 333.16 197.00 342.67 C 195.72 342.75 194.45 342.84 193.18 342.94 C 189.00 333.92 184.64 324.97 180.66 315.85 C 181.55 325.02 181.64 334.24 182.34 343.42 C 180.60 343.53 178.86 343.66 177.12 343.76 C 176.64 332.54 175.84 321.34 175.46 310.12 C 178.03 310.02 180.60 309.90 183.17 309.71 C 187.08 318.28 191.11 326.79 194.86 335.43 C 197.61 326.42 200.89 317.58 203.89 308.64 Z"/>
    <path fill="#282828" opacity="1.00" d=" M 220.96 308.34 C 222.87 308.21 224.79 308.07 226.70 307.94 C 226.93 319.20 227.59 330.45 227.77 341.72 C 225.86 341.73 223.95 341.74 222.04 341.75 C 221.83 330.61 221.23 319.48 220.96 308.34 Z"/>
    <path fill="#282828" opacity="1.00" d=" M 273.73 307.27 C 275.65 307.26 277.57 307.26 279.49 307.25 C 279.49 318.50 279.91 329.74 279.74 341.00 C 277.82 341.00 275.91 341.00 274.00 341.00 C 274.14 329.75 273.85 318.51 273.73 307.27 Z"/>
    <path fill="#282828" opacity="1.00" d=" M 344.07 307.48 C 349.87 308.09 356.18 306.67 361.57 309.41 C 366.22 311.72 366.98 318.23 364.25 322.27 C 362.88 324.28 360.54 325.19 358.44 326.21 C 363.26 330.40 365.65 336.49 369.09 341.73 C 366.94 341.73 364.80 341.72 362.65 341.69 C 360.21 337.66 358.36 333.24 355.44 329.53 C 353.94 327.55 351.23 327.84 349.06 327.46 C 349.05 332.08 348.71 336.68 348.69 341.30 C 346.88 341.27 345.07 341.23 343.27 341.18 C 343.39 329.95 343.69 318.71 344.07 307.48 M 349.51 312.21 C 349.30 315.83 349.22 319.47 349.25 323.10 C 351.81 323.16 354.52 323.68 356.94 322.58 C 360.40 321.00 361.16 315.31 357.77 313.25 C 355.30 311.77 352.24 312.42 349.51 312.21 Z"/>
    <path fill="#282828" opacity="1.00" d=" M 384.38 307.93 C 386.51 308.00 388.63 308.12 390.75 308.30 C 394.35 319.67 398.12 330.98 401.73 342.35 C 399.68 342.27 397.65 342.20 395.62 342.09 C 394.69 339.21 394.07 336.21 392.76 333.47 C 388.43 333.08 384.07 333.10 379.73 332.87 C 378.67 335.71 377.56 338.54 376.43 341.36 C 374.42 341.23 372.41 341.08 370.41 340.93 C 375.09 329.94 379.79 318.96 384.38 307.93 M 387.21 313.27 C 385.41 318.39 383.30 323.39 381.39 328.47 C 384.83 328.51 388.28 328.63 391.72 328.80 C 390.17 323.64 388.47 318.52 387.21 313.27 Z"/>
    <path fill="#282828" opacity="1.00" d=" M 402.81 309.47 C 411.06 309.80 419.28 310.57 427.54 310.77 C 427.50 312.36 427.46 313.95 427.44 315.55 C 424.20 315.44 420.96 315.28 417.73 315.04 C 417.15 324.66 416.61 334.27 416.06 343.89 C 414.19 343.78 412.32 343.72 410.47 343.66 C 411.01 334.02 411.68 324.39 412.08 314.74 C 408.88 314.49 405.67 314.33 402.47 314.20 C 402.58 312.62 402.70 311.04 402.81 309.47 Z"/>
    <path fill="#282828" opacity="1.00" d=" M 439.21 312.11 C 444.72 310.66 451.38 311.22 455.60 315.44 C 462.01 321.52 461.73 332.20 457.34 339.36 C 451.26 349.14 434.27 347.96 429.77 337.32 C 425.87 328.39 429.09 315.20 439.21 312.11 M 441.48 316.68 C 433.92 319.59 432.21 329.97 435.78 336.53 C 438.88 342.22 447.86 342.76 451.80 337.71 C 454.94 333.33 455.42 327.27 453.72 322.24 C 452.08 317.35 446.17 315.17 441.48 316.68 Z"/>
    <path fill="#282828" opacity="1.00" d=" M 139.45 313.31 C 147.78 312.75 157.72 310.31 164.60 316.51 C 170.86 323.47 170.69 336.09 162.88 341.89 C 157.00 346.56 149.10 345.96 142.06 346.66 C 141.32 335.53 140.37 324.42 139.45 313.31 M 145.38 317.53 C 146.06 325.57 146.54 333.62 147.36 341.65 C 151.89 341.20 157.13 341.10 160.44 337.48 C 164.32 332.76 163.96 325.37 160.55 320.50 C 156.83 316.06 150.48 317.00 145.38 317.53 Z"/>
    <path fill="#282828" opacity="1.00" d=" M 469.63 314.00 C 475.88 315.23 483.46 313.77 488.45 318.51 C 493.22 323.37 489.87 331.83 483.72 333.69 L 482.30 332.63 C 482.43 333.26 482.62 333.89 483.10 334.37 C 487.08 338.99 489.06 344.85 491.92 350.15 C 489.74 349.92 487.57 349.67 485.41 349.41 C 483.34 345.20 481.86 340.65 479.21 336.76 C 477.92 334.70 475.23 334.84 473.17 334.22 C 472.53 338.81 472.17 343.44 471.66 348.05 C 469.81 347.82 467.98 347.60 466.15 347.38 C 467.28 336.25 468.50 325.13 469.63 314.00 M 474.62 319.15 C 474.31 322.76 473.93 326.37 473.51 329.97 C 476.25 330.08 479.21 331.14 481.83 329.82 C 485.20 328.14 485.86 322.70 482.63 320.54 C 480.18 319.23 477.30 319.45 474.62 319.15 Z"/>
    <path fill="#282828" opacity="1.00" d=" M 114.36 316.19 C 116.45 315.95 118.55 315.71 120.65 315.47 C 125.81 326.26 131.14 336.97 136.61 347.61 C 134.57 347.81 132.53 348.04 130.50 348.28 C 129.21 345.56 127.93 342.85 126.64 340.13 C 122.23 340.49 117.82 340.99 113.42 341.51 C 112.75 344.46 112.10 347.41 111.40 350.35 C 109.39 350.52 107.37 350.72 105.36 350.91 C 108.45 339.36 111.29 327.75 114.36 316.19 M 117.85 321.04 C 116.90 326.34 115.56 331.57 114.39 336.83 C 117.81 336.47 121.22 336.10 124.63 335.65 C 122.30 330.81 119.94 325.99 117.85 321.04 Z"/>
  </g>
  <g id="#0064b5ff">
    <path fill="#0064b5" opacity="1.00" d=" M 111.16 393.89 C 236.18 375.80 363.81 375.83 488.83 393.87 C 488.93 414.12 482.81 434.12 472.24 451.33 C 456.02 478.01 432.10 499.01 406.78 516.80 C 373.73 539.63 337.55 557.79 299.99 571.90 C 268.31 560.30 237.74 545.61 209.05 527.86 C 192.47 517.54 176.59 506.02 162.15 492.85 C 143.90 476.21 127.72 456.52 118.59 433.36 C 113.54 420.84 111.29 407.35 111.16 393.89 M 275.40 405.58 C 264.77 408.13 262.44 423.84 270.41 430.50 C 276.66 435.77 287.80 433.98 291.34 426.35 C 293.71 420.97 293.52 413.98 289.68 409.31 C 286.24 405.28 280.35 404.23 275.40 405.58 M 305.11 407.15 C 297.30 411.77 296.24 424.16 302.76 430.28 C 307.49 434.40 314.35 433.87 320.00 432.31 C 320.00 430.31 320.00 428.31 320.02 426.32 C 316.63 427.74 312.56 428.75 309.17 426.81 C 303.57 423.50 304.11 413.73 310.21 411.26 C 313.51 409.81 317.05 411.00 320.27 412.07 C 320.25 410.01 320.25 407.95 320.25 405.90 C 315.26 404.86 309.63 404.31 305.11 407.15 M 244.36 407.32 C 240.26 409.59 239.58 415.86 242.89 419.09 C 245.40 421.61 249.11 422.15 252.03 424.04 C 253.09 424.68 254.26 426.90 252.72 427.67 C 249.23 430.35 244.59 428.25 241.19 426.47 C 241.40 428.66 241.52 430.85 241.66 433.05 C 246.70 434.16 252.38 434.82 257.03 432.09 C 261.51 429.31 261.31 421.79 256.71 419.21 C 253.88 416.89 248.76 416.96 247.60 413.03 C 249.79 408.98 255.40 411.04 258.82 412.24 C 258.76 410.25 258.70 408.27 258.63 406.29 C 253.94 405.32 248.70 404.89 244.36 407.32 M 328.00 405.75 C 328.16 414.92 327.56 424.08 327.75 433.25 C 329.81 433.25 331.88 433.25 333.94 433.26 C 334.23 424.09 334.46 414.92 334.51 405.75 C 332.33 405.74 330.17 405.75 328.00 405.75 M 350.09 406.18 C 346.43 415.28 342.77 424.38 339.21 433.52 C 341.55 433.50 343.90 433.50 346.24 433.50 C 346.96 431.48 347.69 429.47 348.44 427.46 C 351.57 427.70 354.71 427.78 357.85 427.81 C 358.39 429.83 358.93 431.86 359.46 433.90 C 361.82 434.00 364.19 434.12 366.56 434.27 C 363.68 424.99 360.68 415.75 357.73 406.50 C 355.18 406.33 352.64 406.23 350.09 406.18 M 217.45 408.34 C 213.56 410.70 212.90 416.69 216.04 419.93 C 218.86 422.83 223.42 422.94 226.32 425.69 C 227.46 426.96 226.64 428.70 225.17 429.20 C 221.62 430.73 217.82 429.14 214.67 427.42 C 214.84 429.60 215.00 431.79 215.13 433.99 C 220.05 435.08 225.54 435.60 230.14 433.13 C 234.06 431.00 234.82 425.22 232.11 421.85 C 229.29 418.26 224.11 418.18 220.97 415.04 C 220.70 413.73 221.14 412.79 222.30 412.23 C 225.47 410.61 228.97 411.97 232.08 413.00 C 231.94 410.96 231.79 408.92 231.65 406.89 C 226.93 406.44 221.69 405.72 217.45 408.34 M 368.00 406.80 C 367.99 408.54 367.99 410.28 368.00 412.03 C 370.60 412.18 373.20 412.26 375.81 412.31 C 375.33 419.70 375.20 427.10 374.76 434.49 C 376.90 434.63 379.04 434.73 381.19 434.82 C 381.60 427.45 381.80 420.06 382.28 412.68 C 384.87 412.77 387.47 412.91 390.06 413.05 C 390.16 411.30 390.24 409.55 390.33 407.81 C 382.89 407.37 375.44 407.11 368.00 406.80 M 190.58 408.53 C 187.72 417.85 184.93 427.19 182.16 436.54 C 184.50 436.38 186.85 436.23 189.19 436.08 C 189.67 434.07 190.15 432.05 190.62 430.04 C 193.79 429.76 196.96 429.56 200.14 429.42 C 200.89 431.39 201.64 433.35 202.40 435.32 C 204.73 435.23 207.06 435.10 209.39 434.95 C 205.71 426.07 202.15 417.13 198.25 408.34 C 195.69 408.02 193.12 408.37 190.58 408.53 M 396.94 408.18 C 396.41 417.28 396.00 426.39 395.44 435.50 C 400.96 435.90 406.49 436.11 412.01 436.53 C 412.13 434.79 412.24 433.05 412.35 431.32 C 408.95 431.06 405.54 430.87 402.15 430.66 C 402.26 428.66 402.39 426.67 402.54 424.69 C 405.49 424.90 408.44 425.08 411.40 425.29 C 411.52 423.54 411.65 421.81 411.80 420.07 C 408.79 419.86 405.78 419.68 402.77 419.46 C 402.89 417.53 402.99 415.61 403.09 413.69 C 406.28 413.96 409.47 414.22 412.68 414.15 C 412.95 412.47 413.02 410.77 413.14 409.08 C 407.74 408.75 402.35 408.38 396.94 408.18 M 249.61 480.94 C 240.19 481.09 230.78 480.92 221.36 481.03 C 228.85 486.67 236.48 492.11 244.10 497.59 C 241.30 506.61 238.36 515.59 235.33 524.54 C 243.01 519.04 250.61 513.44 258.27 507.92 C 265.87 513.46 273.47 518.99 281.11 524.48 C 278.15 515.57 275.32 506.62 272.37 497.72 C 279.96 492.11 287.64 486.63 295.24 481.03 C 285.81 480.96 276.38 481.02 266.96 481.00 C 264.03 472.17 261.29 463.29 258.28 454.49 C 255.23 463.26 252.48 472.12 249.61 480.94 M 333.04 481.00 C 323.64 481.02 314.24 480.95 304.84 481.04 C 312.37 486.69 320.05 492.12 327.63 497.70 C 324.67 506.61 321.86 515.57 318.89 524.48 C 326.54 519.00 334.12 513.44 341.75 507.93 C 349.35 513.44 356.94 518.97 364.56 524.48 C 361.80 515.56 358.61 506.77 356.00 497.81 C 363.27 491.87 371.24 486.82 378.63 481.03 C 369.22 480.93 359.81 481.08 350.40 480.95 C 347.54 472.09 344.70 463.23 341.75 454.42 C 338.74 463.24 335.99 472.15 333.04 481.00 Z"/>
    <path fill="#0064b5" opacity="1.00" d=" M 276.36 411.33 C 279.62 409.50 284.14 411.15 285.31 414.74 C 286.47 418.37 286.62 422.97 283.95 425.99 C 281.31 428.90 276.12 428.42 274.08 425.05 C 271.47 420.85 271.82 414.08 276.36 411.33 Z"/>
    <path fill="#0064b5" opacity="1.00" d=" M 353.50 412.00 C 354.32 415.62 355.40 419.18 356.43 422.76 C 354.24 422.75 352.05 422.75 349.87 422.75 C 351.11 419.18 352.45 415.63 353.50 412.00 Z"/>
    <path fill="#0064b5" opacity="1.00" d=" M 194.48 414.05 C 195.67 417.56 197.05 421.01 198.37 424.48 C 196.19 424.64 194.01 424.76 191.83 424.88 C 192.78 421.28 193.75 417.69 194.48 414.05 Z"/>
  </g>
</svg>