<?xml version="1.0" encoding="utf-8"?>
<svg width="600pt" height="600pt" viewBox="0 0 600 600" version="1.1" xmlns="http://www.w3.org/2000/svg">
  <g id="#ffffffff">
    <path fill="#ffffff" opacity="1.00" d="M 250.49 210.84 C 350.63 207.51 451.13 214.32 549.94 230.98 C 554.91 231.72 560.11 232.61 564.25 235.68 C 569.71 239.47 573.61 246.25 572.2 253.02 C 564.66 292.98 556.98 332.92 549.37 372.87 C 548.28 379.7 542.94 385.44 536.32 387.31 C 531.61 388.82 526.68 387.56 521.97 386.79 C 373.58 361.88 221.02 362.2 72.73 387.68 C 62.93 389.92 52.14 382.95 50.64 372.91 C 43.03 332.93 35.32 292.96 27.8 252.96 C 25.82 242.52 35.28 233.3 45.08 231.85 C 112.95 220.11 181.65 213.14 250.49 210.84"/>
  </g>
  <g id="#505050ff">
    <path fill="#505050" opacity="1.00" d="M 281.41 8.49 C 293.94 4.97 307.49 5.1 319.94 8.88 C 372.93 24.95 425.96 40.9 478.94 56.98 C 496.73 62.61 509.55 80.31 509.71 98.92 C 509.83 136.82 509.68 174.73 509.79 212.63 C 524.3 214.59 538.77 216.91 553.22 219.32 C 559.83 220.17 566.46 222.14 571.83 226.24 C 580.79 232.59 586.18 244.05 584.1 255 C 576.45 295.34 568.75 335.66 561.03 375.98 C 558.34 390.96 542.95 401.87 527.93 399.89 C 521.85 399.13 515.84 397.92 509.8 396.95 C 509.38 418.21 503.26 439.17 492.76 457.61 C 478.23 483.36 457.01 504.65 433.89 522.77 C 403.58 546.35 369.74 565.07 334.67 580.57 C 323.77 585.34 312.72 589.82 301.44 593.62 C 299.64 594.38 297.84 593.23 296.13 592.78 C 261.24 580.5 227.72 564.31 196.36 544.7 C 164.45 524.37 134.16 499.87 113.15 467.99 C 99.21 447 90.57 422.28 90.21 396.97 C 83.83 397.91 77.51 399.34 71.09 399.97 C 59.34 401.03 47.31 394.55 41.87 384.06 C 39.6 380.05 38.82 375.48 37.99 371.02 C 30.66 332.32 23.21 293.64 15.89 254.94 C 13.57 242.72 20.6 230.17 31.22 224.23 C 35.15 221.9 39.57 220.49 44.07 219.78 C 59.41 217.19 74.78 214.71 90.21 212.63 C 90.32 174.74 90.17 136.85 90.29 98.97 C 90.43 80.35 103.24 62.63 121.03 56.99 C 174.47 40.77 227.96 24.68 281.41 8.49 M 261.232 47.879 C 212.072 62.749 180.728 66.174 131.568 81.074 C 121.828 84.064 117.911 89.385 117.981 99.515 C 117.901 136.095 121.419 163.261 121.419 199.831 C 246.449 184.211 357.029 186.203 482.059 201.813 C 482.069 167.913 481.058 145.904 481.068 112.004 C 481.048 106.334 479.526 99.928 477.316 94.568 C 474.686 87.738 473.691 84.805 466.651 82.805 C 417.741 68.005 369.812 52.74 320.902 37.95 C 312.932 35.62 308.46 33.926 300.01 34.156 C 291.54 33.926 286.067 40.605 278.077 42.925 M 250.49 210.84 C 181.65 213.14 112.95 220.11 45.08 231.85 C 35.28 233.3 25.82 242.52 27.8 252.96 C 35.32 292.96 43.03 332.93 50.64 372.91 C 52.14 382.95 62.93 389.92 72.73 387.68 C 221.02 362.2 373.58 361.88 521.97 386.79 C 526.68 387.56 531.61 388.82 536.32 387.31 C 542.94 385.44 548.28 379.7 549.37 372.87 C 556.98 332.92 564.66 292.98 572.2 253.02 C 573.61 246.25 569.71 239.47 564.25 235.68 C 560.11 232.61 554.91 231.72 549.94 230.98 C 451.13 214.32 350.63 207.51 250.49 210.84 M 127.004 398.814 C 127.074 412.544 117.604 418.853 122.814 431.593 C 132.094 454.653 147.323 473.252 165.573 489.822 C 179.723 502.642 196.224 513.426 212.404 523.536 C 241.274 541.456 266.108 554.78 297.998 566.47 C 334.898 552.63 371.409 536.316 403.999 514.096 C 429.629 496.296 449.935 477.318 466.545 450.578 C 477.555 433.078 486.027 418.564 485.867 397.804 C 359.284 377.738 246.2 384.366 127.004 398.814 Z"/>
  </g>
  <g id="#002050ff">
    <path fill="#002050" opacity="1.00" d="M 275.6 32.52 C 283.59 30.2 291.54 26.99 300.01 27.22 C 308.46 26.99 316.4 30.17 324.37 32.5 C 373.28 47.29 422.2 62.06 471.11 76.86 C 478.15 78.86 484.1 84.27 486.73 91.1 C 488.94 96.46 488.48 102.37 488.5 108.04 C 488.49 141.94 488.51 175.84 488.5 209.74 C 363.47 194.13 236.54 194.12 111.51 209.74 C 111.51 173.17 111.46 136.59 111.54 100.01 C 111.47 89.88 118.36 80.1 128.1 77.11 C 177.26 62.21 226.44 47.39 275.6 32.52"/>
  </g>
  <g id="#0064b5ff">
    <path fill="#0064b5" opacity="1.00" d="M 111.15 393.86 C 236.19 375.82 363.8 375.85 488.84 393.84 C 489 414.6 482.51 435.06 471.5 452.56 C 454.89 479.3 430.62 500.26 404.99 518.06 C 372.4 540.28 336.88 558.08 299.98 571.92 C 268.09 560.23 237.31 545.42 208.44 527.5 C 192.26 517.39 176.75 506.11 162.6 493.29 C 144.35 476.72 128.13 457.13 118.85 434.07 C 113.64 421.33 111.22 407.59 111.15 393.86"/>
  </g>
</svg>