<?xml version="1.0" encoding="utf-8"?>
<svg width="600pt" height="600pt" viewBox="0 0 600 600" version="1.1" xmlns="http://www.w3.org/2000/svg">
  <g id="#ffffffff">
    <path fill="#ffffff" opacity="1.00" d=" M 201.45 89.38 C 203.91 87.94 207.79 89.95 207.13 93.00 C 206.86 96.20 202.17 97.07 200.23 94.75 C 198.66 93.15 199.34 90.15 201.45 89.38 Z"/>
    <path fill="#ffffff" opacity="1.00" d=" M 328.57 91.52 C 331.38 88.83 335.72 88.35 339.27 89.77 C 339.27 91.41 339.30 93.04 339.34 94.67 C 337.79 94.45 335.78 93.25 334.46 94.60 C 333.09 95.58 333.65 97.54 333.33 98.97 C 335.04 98.99 336.75 99.00 338.47 99.01 C 338.46 100.66 338.46 102.32 338.47 103.97 C 336.79 104.00 335.11 104.02 333.43 104.05 C 333.50 110.04 333.45 116.02 333.47 122.00 C 331.17 122.00 328.89 122.00 326.60 122.00 C 326.60 116.00 326.59 110.01 326.61 104.01 C 325.40 104.00 324.20 104.00 323.00 103.99 C 323.00 102.33 323.00 100.67 323.00 99.00 C 324.16 99.00 325.33 99.00 326.50 99.00 C 326.61 96.42 326.56 93.46 328.57 91.52 Z"/>
    <path fill="#ffffff" opacity="1.00" d=" M 158.53 91.00 C 161.92 91.00 165.31 91.00 168.71 91.01 C 171.11 98.78 174.39 106.29 176.17 114.24 C 178.00 106.29 181.22 98.75 183.71 90.99 C 187.01 91.00 190.31 91.00 193.60 91.01 C 193.60 101.34 193.60 111.66 193.61 121.99 C 191.31 122.00 189.02 122.00 186.73 122.00 C 186.75 113.52 186.68 105.04 186.78 96.57 C 184.98 105.28 181.31 113.46 178.70 121.95 C 176.80 121.98 174.89 122.00 172.98 122.01 C 170.26 113.51 166.58 105.29 164.56 96.57 C 164.86 105.04 164.69 113.52 164.73 122.00 C 162.66 122.00 160.60 122.00 158.53 122.00 C 158.53 111.67 158.53 101.33 158.53 91.00 Z"/>
    <path fill="#ffffff" opacity="1.00" d=" M 372.62 92.47 C 377.25 90.76 382.85 89.99 387.20 92.83 C 391.15 95.36 391.24 101.84 387.56 104.63 C 386.43 105.50 385.00 105.84 383.71 106.37 C 385.74 106.65 387.95 107.00 389.39 108.63 C 392.45 111.81 391.32 117.52 387.70 119.78 C 382.95 122.96 376.81 122.30 371.59 120.83 C 371.54 118.93 371.50 117.02 371.44 115.12 C 374.73 116.71 378.80 117.99 382.30 116.28 C 384.39 115.29 385.00 112.32 383.32 110.68 C 380.94 108.57 377.52 109.08 374.60 108.95 C 374.59 107.32 374.59 105.69 374.60 104.06 C 377.05 103.92 379.75 104.34 381.94 102.95 C 383.92 101.43 383.87 97.62 381.49 96.50 C 378.51 95.11 375.24 96.53 372.52 97.85 C 372.56 96.06 372.60 94.26 372.62 92.47 Z"/>
    <path fill="#ffffff" opacity="1.00" d=" M 403.61 92.58 C 407.27 90.53 411.65 90.72 415.61 91.62 C 415.60 93.43 415.60 95.25 415.62 97.06 C 412.66 96.01 409.00 95.17 406.31 97.28 C 403.76 98.97 403.13 102.11 402.59 104.89 C 405.22 102.52 408.97 101.03 412.43 102.49 C 418.12 104.58 419.29 112.48 416.23 117.17 C 412.93 122.71 404.33 123.72 399.80 119.15 C 396.48 115.67 395.89 110.51 396.23 105.92 C 396.56 100.72 398.83 95.16 403.61 92.58 M 405.38 107.36 C 401.09 109.38 402.95 117.69 407.89 116.98 C 413.62 115.80 411.64 104.35 405.38 107.36 Z"/>
    <path fill="#ffffff" opacity="1.00" d=" M 423.49 107.36 C 423.93 101.91 424.42 96.46 424.65 91.00 C 430.10 91.00 435.55 91.00 441.00 91.00 C 441.00 93.00 441.00 95.00 441.00 97.00 C 437.25 97.00 433.50 97.00 429.75 97.00 C 429.61 98.65 429.47 100.30 429.34 101.95 C 432.86 101.88 436.85 101.88 439.62 104.44 C 444.29 108.74 442.91 117.42 437.36 120.34 C 432.98 122.85 427.67 122.20 423.04 120.83 C 423.01 118.93 422.99 117.02 422.98 115.11 C 426.09 116.57 429.96 118.09 433.22 116.19 C 436.30 114.58 436.41 109.29 433.21 107.77 C 430.15 106.41 426.69 107.05 423.49 107.36 Z"/>
    <path fill="#ffffff" opacity="1.00" d=" M 343.38 94.08 C 345.67 93.37 347.97 92.68 350.27 91.98 C 350.26 94.31 350.26 96.65 350.26 98.99 C 351.88 99.00 353.50 99.00 355.13 99.01 C 355.13 100.67 355.13 102.33 355.13 103.99 C 353.51 104.00 351.88 104.00 350.27 104.01 C 350.36 107.86 349.98 111.76 350.52 115.59 C 351.46 117.57 353.53 116.92 355.20 116.39 C 355.16 118.03 355.13 119.67 355.11 121.31 C 351.26 122.57 345.50 122.55 343.96 117.96 C 342.91 113.40 343.58 108.65 343.40 104.01 C 342.52 104.00 340.75 104.00 339.87 103.99 C 339.86 102.33 339.86 100.67 339.87 99.01 C 340.75 99.00 342.52 99.00 343.41 98.99 C 343.39 97.35 343.39 95.71 343.38 94.08 Z"/>
    <path fill="#ffffff" opacity="1.00" d=" M 199.87 99.00 C 202.11 99.00 204.36 99.00 206.60 99.01 C 206.60 106.67 206.60 114.33 206.61 121.99 C 204.36 122.00 202.11 122.00 199.87 122.00 C 199.87 114.33 199.87 106.67 199.87 99.00 Z"/>
    <path fill="#ffffff" opacity="1.00" d=" M 216.79 100.81 C 220.59 98.54 225.36 98.49 229.47 99.90 C 229.48 101.84 229.50 103.78 229.56 105.72 C 227.46 104.44 224.93 103.33 222.47 104.32 C 217.09 105.78 216.89 114.86 222.12 116.65 C 224.69 117.73 227.30 116.48 229.55 115.27 C 229.49 117.16 229.47 119.05 229.46 120.94 C 225.28 122.23 220.45 122.77 216.54 120.38 C 209.66 116.33 209.93 104.73 216.79 100.81 Z"/>
    <path fill="#ffffff" opacity="1.00" d=" M 233.73 99.00 C 236.03 99.00 238.32 99.00 240.62 99.00 C 240.60 100.53 240.57 102.07 240.53 103.60 C 241.86 100.48 244.74 98.47 248.22 98.84 C 248.25 101.06 248.26 103.28 248.29 105.50 C 245.62 104.46 242.08 104.95 241.15 108.04 C 240.07 112.60 240.80 117.35 240.61 121.99 C 238.31 122.00 236.02 122.00 233.73 122.00 C 233.73 114.33 233.73 106.67 233.73 99.00 Z"/>
    <path fill="#ffffff" opacity="1.00" d=" M 257.37 99.56 C 260.98 98.46 265.08 98.82 268.39 100.67 C 275.20 104.72 274.96 116.15 268.32 120.25 C 263.93 122.71 258.17 122.70 253.91 119.98 C 246.78 114.98 248.46 101.58 257.37 99.56 M 258.68 104.83 C 255.95 106.93 256.03 110.97 256.93 113.99 C 258.01 117.74 263.98 118.14 265.66 114.66 C 267.14 111.50 266.63 107.86 265.04 104.85 C 262.99 104.20 260.59 103.31 258.68 104.83 Z"/>
    <path fill="#ffffff" opacity="1.00" d=" M 280.54 100.53 C 284.32 98.31 288.90 98.87 292.99 99.75 C 293.00 101.47 293.00 103.19 293.01 104.91 C 290.22 104.38 284.97 102.34 283.95 106.06 C 286.70 108.60 291.27 108.30 293.52 111.54 C 295.15 114.42 294.23 118.54 291.33 120.25 C 287.10 122.72 281.89 122.31 277.38 120.88 C 277.39 118.96 277.38 117.04 277.35 115.11 C 280.23 116.41 283.57 117.82 286.72 116.61 C 288.15 116.51 288.10 114.37 286.93 114.03 C 284.48 112.78 281.62 112.35 279.39 110.66 C 276.21 108.05 276.93 102.41 280.54 100.53 Z"/>
    <path fill="#ffffff" opacity="1.00" d=" M 304.38 99.56 C 307.99 98.46 312.08 98.82 315.38 100.67 C 322.20 104.71 321.96 116.15 315.31 120.26 C 310.94 122.70 305.20 122.70 300.95 120.00 C 293.77 115.02 295.45 101.56 304.38 99.56 M 305.69 104.82 C 302.96 106.92 303.04 110.95 303.92 113.96 C 304.97 117.73 310.96 118.15 312.66 114.68 C 314.15 111.51 313.63 107.85 312.03 104.84 C 309.99 104.20 307.60 103.31 305.69 104.82 Z"/>
    <path fill="#ffffff" opacity="1.00" d=" M 208.49 143.54 C 211.97 140.90 216.68 141.22 220.68 142.29 C 220.71 143.00 220.77 144.44 220.80 145.15 C 217.76 144.06 214.20 143.26 211.17 144.84 C 205.44 147.72 204.75 156.53 209.07 160.91 C 212.28 163.84 217.06 163.20 220.76 161.61 C 220.77 162.23 220.79 163.48 220.80 164.10 C 216.85 165.66 212.07 166.14 208.33 163.77 C 201.62 159.31 201.98 148.02 208.49 143.54 Z"/>
    <path fill="#ffffff" opacity="1.00" d=" M 232.00 142.00 C 235.94 142.00 239.87 141.98 243.81 142.05 C 243.78 142.60 243.72 143.72 243.68 144.28 C 240.70 144.26 237.71 144.26 234.73 144.27 C 234.73 146.84 234.73 149.42 234.73 152.00 C 237.49 152.00 240.24 152.00 243.00 152.00 C 243.00 152.62 243.00 153.85 243.00 154.46 C 240.25 154.47 237.49 154.47 234.74 154.47 C 234.73 157.16 234.73 159.84 234.74 162.53 C 237.93 162.53 241.12 162.53 244.31 162.53 C 244.27 163.36 244.23 164.19 244.19 165.03 C 240.13 164.99 236.06 164.99 232.00 165.00 C 232.00 157.33 232.00 149.67 232.00 142.00 Z"/>
    <path fill="#ffffff" opacity="1.00" d=" M 255.00 142.01 C 259.33 142.45 265.34 140.40 268.16 144.83 C 270.39 148.49 268.05 153.03 264.23 154.34 C 267.31 157.42 269.24 161.39 271.58 165.02 C 270.77 165.00 269.14 164.97 268.33 164.95 C 266.63 162.18 265.18 159.25 263.20 156.66 C 261.99 154.80 259.59 155.43 257.74 155.15 C 257.73 158.43 257.73 161.71 257.74 164.99 C 257.05 165.00 255.69 165.00 255.00 165.00 C 255.00 157.34 255.00 149.67 255.00 142.01 M 257.74 144.20 C 257.73 147.06 257.73 149.93 257.74 152.80 C 259.76 152.70 261.84 152.87 263.82 152.31 C 266.13 151.06 266.71 147.81 265.34 145.67 C 263.30 143.78 260.26 144.45 257.74 144.20 Z"/>
    <path fill="#ffffff" opacity="1.00" d=" M 277.73 142.00 C 283.06 142.00 288.40 142.00 293.74 142.00 C 293.73 142.57 293.73 143.70 293.73 144.27 C 291.48 144.26 289.24 144.26 287.00 144.26 C 286.99 151.18 287.00 158.09 287.00 165.00 C 286.31 165.00 284.95 165.00 284.26 164.99 C 284.27 158.09 284.26 151.18 284.27 144.27 C 282.09 144.27 279.91 144.26 277.74 144.26 C 277.74 143.70 277.73 142.57 277.73 142.00 Z"/>
    <path fill="#ffffff" opacity="1.00" d=" M 304.00 142.00 C 304.69 142.00 306.05 142.00 306.74 142.01 C 306.73 149.67 306.73 157.33 306.74 164.99 C 306.05 165.00 304.69 165.00 304.00 165.00 C 304.00 157.33 304.00 149.66 304.00 142.00 Z"/>
    <path fill="#ffffff" opacity="1.00" d=" M 319.00 142.00 C 322.95 142.00 326.91 141.96 330.86 142.08 C 330.81 142.63 330.71 143.73 330.65 144.28 C 327.68 144.26 324.70 144.26 321.73 144.27 C 321.73 146.93 321.73 149.60 321.74 152.26 C 324.49 152.27 327.24 152.27 330.00 152.27 C 330.00 152.88 330.00 154.12 330.00 154.73 C 327.24 154.73 324.49 154.73 321.74 154.74 C 321.73 158.15 321.73 161.57 321.74 164.99 C 321.05 165.00 319.69 165.00 319.00 165.00 C 319.00 157.34 319.00 149.67 319.00 142.00 Z"/>
    <path fill="#ffffff" opacity="1.00" d=" M 342.00 142.00 C 342.68 142.00 344.05 142.00 344.74 142.00 C 344.73 149.67 344.73 157.33 344.74 164.99 C 344.05 165.00 342.69 165.00 342.00 165.00 C 342.00 157.33 342.00 149.67 342.00 142.00 Z"/>
    <path fill="#ffffff" opacity="1.00" d=" M 357.00 142.00 C 360.94 142.00 364.87 141.98 368.81 142.05 C 368.78 142.60 368.72 143.72 368.68 144.28 C 365.70 144.26 362.71 144.26 359.73 144.27 C 359.73 146.84 359.73 149.42 359.73 152.00 C 362.49 152.00 365.25 152.00 368.01 152.00 C 368.00 152.62 367.99 153.86 367.98 154.47 C 365.23 154.46 362.48 154.46 359.74 154.47 C 359.73 157.16 359.73 159.84 359.74 162.53 C 362.90 162.53 366.06 162.53 369.23 162.53 C 369.26 163.13 369.33 164.33 369.36 164.92 C 365.24 165.04 361.12 165.00 357.00 165.00 C 357.00 157.33 357.00 149.67 357.00 142.00 Z"/>
    <path fill="#ffffff" opacity="1.00" d=" M 380.00 142.01 C 385.32 142.21 391.67 140.87 395.89 144.98 C 400.27 150.19 399.48 159.72 393.27 163.22 C 389.31 165.70 384.42 164.87 380.00 165.00 C 380.00 157.33 380.00 149.67 380.00 142.01 M 382.74 144.22 C 382.73 150.33 382.73 156.44 382.74 162.55 C 385.85 162.48 389.29 162.95 392.02 161.10 C 396.35 158.31 396.77 151.84 394.39 147.65 C 391.82 143.89 386.73 144.33 382.74 144.22 Z"/>
    <path fill="#ffffff" opacity="1.00" d=" M 250.49 210.84 C 350.63 207.51 451.13 214.32 549.94 230.98 C 554.91 231.72 560.11 232.61 564.25 235.68 C 569.71 239.47 573.61 246.25 572.20 253.02 C 564.66 292.98 556.98 332.92 549.37 372.87 C 548.28 379.70 542.94 385.44 536.32 387.31 C 531.61 388.82 526.68 387.56 521.97 386.79 C 373.58 361.88 221.02 362.20 72.73 387.68 C 62.93 389.92 52.14 382.95 50.64 372.91 C 43.03 332.93 35.32 292.96 27.80 252.96 C 25.82 242.52 35.28 233.30 45.08 231.85 C 112.95 220.11 181.65 213.14 250.49 210.84 M 315.20 242.29 C 314.96 254.83 314.73 267.39 314.73 279.94 C 316.82 279.99 318.91 280.05 321.01 280.19 C 321.00 275.61 320.99 271.04 321.01 266.46 C 325.94 266.46 331.54 267.07 335.61 263.67 C 342.03 258.99 341.88 247.18 334.14 243.91 C 328.16 241.50 321.49 242.52 315.20 242.29 M 215.75 244.13 C 215.74 245.92 215.73 247.71 215.73 249.51 C 219.40 249.31 223.08 249.25 226.76 249.20 C 226.88 259.96 227.55 270.71 227.77 281.47 C 229.86 281.46 231.95 281.46 234.05 281.46 C 233.67 270.59 233.30 259.72 232.95 248.84 C 236.56 248.75 240.16 248.66 243.76 248.46 C 243.74 246.72 243.72 244.99 243.69 243.25 C 234.37 243.49 225.06 243.83 215.75 244.13 M 250.00 243.00 C 250.13 255.66 250.43 268.32 250.75 280.98 C 257.79 280.62 264.84 280.69 271.89 280.47 C 271.80 278.73 271.74 276.99 271.68 275.26 C 266.70 275.14 261.72 275.52 256.74 275.57 C 256.73 271.80 256.73 268.03 256.73 264.27 C 260.98 264.31 265.24 264.29 269.48 263.94 C 269.47 262.19 269.46 260.44 269.46 258.69 C 265.13 258.73 260.80 259.07 256.47 259.01 C 256.50 255.43 256.45 251.85 256.24 248.27 C 261.00 248.35 265.77 248.16 270.53 247.93 C 270.43 246.19 270.32 244.46 270.21 242.73 C 263.47 242.64 256.74 243.19 250.00 243.00 M 279.50 243.25 C 279.47 255.84 279.63 268.42 279.73 281.00 C 281.82 281.00 283.91 281.00 286.00 281.00 C 286.07 275.78 285.96 270.55 285.69 265.34 C 288.28 265.59 291.46 265.36 293.25 267.66 C 296.50 271.83 298.80 276.64 301.72 281.04 C 304.14 281.00 306.56 281.00 308.98 280.99 C 304.75 275.15 301.95 268.03 296.07 263.59 C 298.53 262.81 301.02 261.65 302.51 259.44 C 306.26 254.34 304.18 245.82 297.80 244.02 C 291.86 242.44 285.58 243.63 279.50 243.25 M 347.77 243.28 C 347.53 255.94 346.91 268.60 346.72 281.26 C 348.80 281.26 350.89 281.26 352.97 281.27 C 352.94 276.14 353.39 271.02 353.27 265.89 C 355.90 266.03 359.08 265.92 360.74 268.40 C 363.80 272.53 365.87 277.28 368.51 281.67 C 370.96 281.81 373.40 281.97 375.86 282.04 C 372.00 276.07 369.42 268.93 363.70 264.41 C 366.11 263.48 368.73 262.49 370.26 260.25 C 373.75 255.74 372.76 248.08 367.40 245.46 C 361.33 242.43 354.27 244.13 347.77 243.28 M 383.31 244.47 C 382.70 257.05 382.16 269.64 381.69 282.23 C 383.83 282.29 385.97 282.47 388.11 282.33 C 388.65 269.77 389.16 257.20 389.74 244.64 C 387.59 244.55 385.45 244.52 383.31 244.47 M 201.65 244.54 C 202.27 254.42 202.39 264.35 203.53 274.19 C 196.75 264.65 189.97 255.09 182.90 245.77 C 180.50 245.32 177.98 245.88 175.55 245.93 C 176.35 258.53 176.93 271.14 177.70 283.75 C 179.72 283.61 181.75 283.49 183.78 283.41 C 183.07 273.45 182.72 263.47 182.01 253.52 C 188.68 263.31 195.95 272.69 202.86 282.32 C 205.15 282.24 207.45 282.10 209.75 281.97 C 209.00 269.38 208.34 256.78 207.65 244.19 C 205.65 244.28 203.65 244.41 201.65 244.54 M 401.25 248.20 C 396.76 251.21 396.19 258.29 399.98 262.10 C 403.31 266.03 408.51 267.44 412.42 270.62 C 414.67 272.44 414.67 276.58 412.10 278.10 C 406.91 280.70 400.64 278.59 396.25 275.31 C 396.25 277.51 396.14 279.71 396.01 281.91 C 401.91 284.30 408.76 285.56 414.86 283.12 C 418.17 281.82 420.58 278.59 420.69 275.02 C 421.19 270.80 418.31 267.16 415.03 264.90 C 411.97 262.49 408.06 261.35 405.23 258.63 C 403.09 256.55 404.00 252.60 406.79 251.59 C 411.21 249.71 416.31 250.96 420.29 253.34 C 420.37 251.25 420.46 249.17 420.53 247.09 C 414.34 245.20 406.86 244.27 401.25 248.20 M 431.59 246.67 C 430.46 259.22 429.65 271.79 428.66 284.34 C 435.73 284.84 442.78 285.52 449.86 285.87 C 449.94 284.15 450.02 282.43 450.11 280.71 C 445.18 280.36 440.26 279.88 435.32 279.58 C 435.53 275.85 435.87 272.12 436.10 268.39 C 440.43 268.73 444.75 269.10 449.08 269.43 C 449.22 267.65 449.36 265.86 449.51 264.08 C 445.15 263.82 440.80 263.47 436.45 263.18 C 436.82 259.59 437.11 255.98 437.38 252.38 C 442.02 252.95 446.70 253.17 451.36 253.56 C 451.50 251.82 451.65 250.09 451.83 248.37 C 445.10 247.59 438.33 247.36 431.59 246.67 M 146.65 249.04 C 147.71 261.54 148.68 274.04 149.61 286.55 C 156.70 286.12 163.80 285.59 170.88 284.85 C 170.66 283.12 170.46 281.39 170.27 279.67 C 165.36 280.13 160.44 280.55 155.51 280.80 C 155.18 277.11 154.85 273.42 154.64 269.73 C 158.95 269.37 163.26 269.12 167.57 268.66 C 167.43 266.93 167.30 265.19 167.18 263.46 C 162.83 263.75 158.48 264.15 154.14 264.46 C 153.91 260.89 153.59 257.33 153.38 253.77 C 158.06 253.44 162.74 253.11 167.41 252.66 C 167.26 250.92 167.10 249.18 166.93 247.45 C 160.17 247.89 153.41 248.48 146.65 249.04 M 289.52 304.57 C 284.88 307.81 284.75 315.38 288.94 319.05 C 292.65 322.66 298.03 323.67 301.99 326.89 C 304.62 328.87 303.83 333.61 300.70 334.60 C 295.78 336.62 290.28 334.96 285.95 332.33 C 285.99 334.48 286.03 336.65 286.12 338.81 C 292.27 340.82 299.50 341.60 305.43 338.52 C 310.82 335.74 311.63 327.66 307.43 323.51 C 303.90 319.66 298.62 318.43 294.45 315.52 C 291.87 313.92 291.68 309.86 294.37 308.27 C 298.67 305.59 304.27 306.69 308.54 308.88 C 308.48 306.80 308.46 304.73 308.44 302.66 C 302.25 301.02 294.97 300.66 289.52 304.57 M 315.50 302.25 C 315.52 303.99 315.52 305.73 315.53 307.47 C 319.11 307.40 322.70 307.58 326.28 307.80 C 325.98 318.62 326.04 329.44 325.71 340.26 C 327.78 340.26 329.86 340.26 331.94 340.27 C 332.45 329.43 332.26 318.58 332.47 307.74 C 336.10 307.69 339.73 307.71 343.35 308.04 C 343.42 306.20 343.47 304.36 343.52 302.52 C 334.18 302.75 324.85 302.13 315.50 302.25 M 211.04 304.03 C 211.62 316.61 212.20 329.20 212.57 341.79 C 214.73 341.72 216.88 341.60 219.04 341.46 C 218.55 328.86 218.16 316.25 217.42 303.66 C 215.29 303.77 213.16 303.93 211.04 304.03 M 253.75 303.28 C 253.93 313.18 254.11 323.09 254.67 332.97 C 248.34 323.19 241.52 313.73 235.11 304.00 C 232.65 304.00 230.18 304.00 227.72 304.00 C 227.89 316.58 228.43 329.15 228.68 341.73 C 230.71 341.73 232.75 341.73 234.79 341.72 C 234.28 331.85 234.36 321.96 233.91 312.08 C 240.53 321.88 247.23 331.62 254.00 341.32 C 256.27 341.20 258.53 341.04 260.80 340.92 C 260.22 328.38 260.22 315.81 259.69 303.26 C 257.70 303.26 255.72 303.27 253.75 303.28 M 271.31 303.07 C 271.21 315.72 271.58 328.37 271.69 341.02 C 273.77 341.00 275.86 340.98 277.95 340.94 C 278.25 328.28 277.52 315.64 277.74 302.99 C 275.59 303.00 273.45 303.01 271.31 303.07 M 350.77 303.28 C 350.54 315.94 349.90 328.60 349.72 341.26 C 351.80 341.26 353.89 341.26 355.97 341.27 C 355.94 336.14 356.39 331.02 356.27 325.89 C 358.86 326.04 362.00 325.90 363.66 328.32 C 366.79 332.44 368.81 337.27 371.51 341.67 C 373.96 341.81 376.40 341.97 378.85 342.06 C 374.97 336.09 372.44 328.93 366.70 324.41 C 368.89 323.54 371.26 322.71 372.80 320.82 C 376.82 316.43 376.01 308.22 370.44 305.48 C 364.36 302.42 357.28 304.13 350.77 303.28 M 191.38 305.08 C 188.33 315.20 184.33 325.01 181.55 335.21 C 177.30 325.56 172.60 316.11 168.31 306.48 C 165.37 306.56 162.43 306.71 159.50 306.81 C 160.00 319.46 160.94 332.09 161.71 344.73 C 163.63 344.58 165.56 344.46 167.50 344.36 C 166.54 333.55 166.64 322.64 165.07 311.89 C 169.15 322.74 174.90 332.88 179.57 343.48 C 181.04 343.47 182.51 343.46 183.98 343.46 C 187.47 332.44 191.45 321.58 194.59 310.46 C 194.30 321.17 195.57 331.85 196.08 342.54 C 198.16 342.45 200.23 342.34 202.31 342.23 C 201.42 329.65 200.80 317.05 199.93 304.47 C 197.08 304.58 194.22 304.73 191.38 305.08 M 395.35 305.02 C 390.11 317.37 384.80 329.70 379.40 341.99 C 381.69 342.14 383.99 342.26 386.29 342.34 C 387.57 339.23 388.77 336.08 390.01 332.95 C 394.97 333.04 399.92 333.48 404.89 333.48 C 405.86 336.78 406.87 340.08 407.81 343.40 C 410.12 343.47 412.42 343.59 414.73 343.77 C 410.67 330.94 406.60 318.11 402.52 305.30 C 400.13 305.13 397.73 305.00 395.35 305.02 M 415.50 305.21 C 415.38 307.01 415.29 308.82 415.23 310.63 C 418.81 310.80 422.38 311.07 425.96 311.30 C 425.19 322.09 424.61 332.90 423.74 343.69 C 425.84 343.90 427.95 344.05 430.05 344.27 C 430.84 333.40 431.34 322.51 432.34 311.66 C 435.92 311.99 439.52 312.22 443.11 312.47 C 443.23 310.66 443.34 308.86 443.48 307.06 C 434.14 306.57 424.82 305.91 415.50 305.21 M 456.42 309.63 C 445.74 313.68 442.25 327.79 446.50 337.61 C 450.82 347.86 465.48 350.62 473.98 344.06 C 479.65 339.59 481.61 331.94 481.22 325.01 C 480.85 318.86 477.24 312.77 471.50 310.23 C 466.80 308.17 461.26 307.88 456.42 309.63 M 119.20 310.91 C 120.26 323.47 121.50 336.01 122.65 348.56 C 130.31 347.62 138.86 348.23 145.34 343.31 C 155.03 336.59 155.03 320.35 146.07 313.07 C 138.14 307.53 128.08 310.46 119.20 310.91 M 491.47 312.16 C 489.76 324.64 488.25 337.14 486.62 349.63 C 488.70 349.86 490.78 350.11 492.88 350.31 C 493.42 345.22 494.08 340.13 494.84 335.06 C 497.33 335.50 500.39 335.69 501.78 338.18 C 504.46 342.63 506.12 347.62 508.23 352.36 C 510.68 352.66 513.12 352.98 515.57 353.32 C 512.26 346.99 510.28 339.74 505.18 334.54 C 507.93 333.95 510.82 332.99 512.55 330.62 C 516.33 326.03 515.28 317.96 509.57 315.43 C 503.91 312.90 497.48 313.22 491.47 312.16 M 90.59 314.66 C 87.45 327.72 84.62 340.85 81.37 353.89 C 83.64 353.61 85.92 353.36 88.19 353.10 C 88.87 349.78 89.54 346.46 90.16 343.13 C 95.09 342.43 100.03 341.79 104.97 341.20 C 106.47 344.25 107.97 347.31 109.64 350.27 C 111.89 349.95 114.14 349.64 116.39 349.35 C 110.11 337.47 103.81 325.60 97.57 313.70 C 95.24 314.03 92.92 314.36 90.59 314.66 Z"/>
    <path fill="#ffffff" opacity="1.00" d=" M 321.27 247.43 C 324.37 247.53 327.67 247.13 330.57 248.49 C 334.84 250.82 334.52 258.00 330.35 260.28 C 327.57 261.82 324.29 261.14 321.27 261.27 C 321.26 256.66 321.26 252.05 321.27 247.43 Z"/>
    <path fill="#ffffff" opacity="1.00" d=" M 285.73 248.27 C 288.75 248.41 291.96 247.76 294.83 248.93 C 299.24 251.05 298.43 258.47 293.92 260.01 C 291.29 260.88 288.46 260.45 285.74 260.54 C 285.73 256.45 285.73 252.36 285.73 248.27 Z"/>
    <path fill="#ffffff" opacity="1.00" d=" M 353.78 248.57 C 356.73 248.83 359.85 248.37 362.67 249.47 C 367.31 251.55 366.26 259.43 361.48 260.66 C 358.85 261.30 356.09 260.92 353.41 260.99 C 353.66 256.86 353.79 252.71 353.78 248.57 Z"/>
    <path fill="#ffffff" opacity="1.00" d=" M 356.78 308.57 C 359.71 308.83 362.81 308.38 365.63 309.45 C 370.32 311.50 369.28 319.39 364.50 320.65 C 361.86 321.30 359.10 320.92 356.41 320.99 C 356.67 316.85 356.79 312.71 356.78 308.57 Z"/>
    <path fill="#ffffff" opacity="1.00" d=" M 391.92 327.94 C 394.04 322.16 396.67 316.57 398.54 310.70 C 399.80 316.73 401.87 322.55 403.53 328.47 C 399.66 328.22 395.79 328.00 391.92 327.94 Z"/>
    <path fill="#ffffff" opacity="1.00" d=" M 459.48 314.68 C 463.79 313.16 469.20 314.23 472.05 317.97 C 474.69 321.35 474.95 325.94 474.49 330.05 C 473.98 333.87 472.53 337.94 469.22 340.21 C 463.95 343.83 455.68 342.10 452.94 336.11 C 449.62 328.88 451.48 317.98 459.48 314.68 Z"/>
    <path fill="#ffffff" opacity="1.00" d=" M 125.95 315.59 C 131.89 314.95 139.49 313.83 143.49 319.47 C 146.97 325.08 147.36 333.53 142.53 338.52 C 138.79 342.19 133.22 342.32 128.32 342.71 C 127.63 333.66 126.55 324.65 125.95 315.59 Z"/>
    <path fill="#ffffff" opacity="1.00" d=" M 496.98 317.96 C 499.82 318.40 502.87 318.32 505.51 319.65 C 509.75 321.93 508.46 329.26 503.97 330.49 C 501.13 331.12 498.22 330.44 495.38 330.20 C 495.94 326.12 496.40 322.03 496.98 317.96 Z"/>
    <path fill="#ffffff" opacity="1.00" d=" M 94.57 319.51 C 96.84 325.31 100.00 330.70 102.65 336.33 C 98.83 336.80 95.03 337.33 91.22 337.83 C 92.22 331.70 94.03 325.70 94.57 319.51 Z"/>
    <path fill="#ffffff" opacity="1.00" d=" M 275.50 407.25 C 280.61 407.49 285.87 406.57 290.86 407.99 C 297.22 410.02 297.66 419.83 292.32 423.27 C 289.38 425.40 285.62 425.35 282.17 425.21 C 282.27 428.38 282.26 431.57 282.25 434.75 C 280.08 434.75 277.91 434.75 275.75 434.75 C 275.94 425.58 275.37 416.42 275.50 407.25 M 282.02 412.15 C 281.99 414.97 281.99 417.80 282.02 420.64 C 284.96 420.64 289.47 420.17 289.18 416.18 C 289.38 412.28 284.82 412.05 282.02 412.15 Z"/>
    <path fill="#ffffff" opacity="1.00" d=" M 304.51 407.24 C 309.94 407.26 315.37 407.22 320.80 407.28 C 320.65 409.01 320.53 410.76 320.42 412.50 C 317.29 412.50 314.16 412.50 311.03 412.49 C 310.89 414.40 310.78 416.32 310.68 418.24 C 313.70 418.24 316.73 418.24 319.75 418.25 C 319.75 419.99 319.75 421.75 319.75 423.50 C 316.75 423.50 313.75 423.50 310.76 423.51 C 310.75 425.50 310.75 427.49 310.75 429.49 C 314.16 429.50 317.58 429.50 320.99 429.49 C 320.99 431.24 320.99 433.00 321.00 434.76 C 315.40 434.75 309.80 434.76 304.20 434.75 C 304.65 425.58 304.46 416.41 304.51 407.24 Z"/>
    <path fill="#ffffff" opacity="1.00" d=" M 242.36 408.02 C 245.09 407.99 247.82 408.00 250.55 408.05 C 252.12 411.30 253.88 414.45 255.34 417.76 C 256.76 414.29 258.51 410.98 260.15 407.62 C 262.62 407.51 265.09 407.48 267.56 407.49 C 264.93 412.11 262.18 416.66 259.55 421.28 C 262.53 425.82 265.46 430.40 268.39 434.98 C 265.83 434.99 263.28 435.00 260.73 435.05 C 258.79 431.82 256.92 428.55 255.28 425.16 C 253.77 428.56 252.05 431.86 250.44 435.22 C 247.84 435.47 245.23 435.53 242.62 435.54 C 245.31 430.82 248.16 426.21 250.94 421.55 C 248.05 417.05 245.21 412.53 242.36 408.02 Z"/>
    <path fill="#ffffff" opacity="1.00" d=" M 330.31 407.47 C 335.99 407.91 342.26 406.65 347.47 409.46 C 352.56 413.04 349.98 421.52 344.24 422.89 C 348.22 426.27 350.14 431.28 352.92 435.57 C 350.36 435.46 347.82 435.29 345.28 435.09 C 343.57 432.00 342.04 428.78 339.92 425.96 C 339.12 424.74 337.53 424.86 336.30 424.50 C 336.27 428.00 336.25 431.51 335.98 435.00 C 333.90 435.00 331.82 434.99 329.75 435.00 C 329.85 425.82 329.91 416.64 330.31 407.47 M 336.51 412.41 C 336.50 414.88 336.50 417.35 336.50 419.83 C 338.49 419.62 340.90 420.14 342.42 418.50 C 343.53 417.28 343.34 415.55 343.08 414.08 C 341.37 412.27 338.75 412.57 336.51 412.41 Z"/>
    <path fill="#ffffff" opacity="1.00" d=" M 357.25 408.21 C 364.69 408.38 372.13 408.80 379.57 409.06 C 379.49 410.81 379.40 412.56 379.31 414.31 C 376.71 414.23 374.11 414.09 371.52 413.96 C 371.07 421.34 370.95 428.73 370.48 436.11 C 368.38 436.04 366.30 435.99 364.21 435.96 C 364.34 428.56 364.66 421.17 365.04 413.78 C 362.44 413.61 359.85 413.50 357.25 413.46 C 357.24 411.70 357.24 409.95 357.25 408.21 Z"/>
    <path fill="#ffffff" opacity="1.00" d=" M 218.27 409.03 C 223.65 408.92 229.03 408.54 234.41 408.45 C 234.55 410.19 234.69 411.94 234.83 413.69 C 231.54 413.73 228.26 413.90 224.97 414.05 C 225.10 415.96 225.22 417.88 225.33 419.81 C 228.27 419.72 231.22 419.55 234.16 419.45 C 234.28 421.19 234.42 422.93 234.56 424.69 C 231.52 424.76 228.48 424.92 225.45 425.07 C 225.57 427.05 225.70 429.03 225.82 431.02 C 229.19 430.82 232.57 430.73 235.95 430.54 C 236.02 432.26 236.10 433.99 236.21 435.72 C 230.66 436.10 225.10 436.18 219.56 436.55 C 219.23 427.37 218.78 418.20 218.27 409.03 Z"/>
    <path fill="#ffffff" opacity="1.00" d=" M 365.13 475.75 C 367.86 467.63 370.37 459.44 373.12 451.32 C 375.89 459.44 378.40 467.63 381.13 475.77 C 389.49 475.75 397.86 475.70 406.23 475.80 C 399.67 481.04 392.67 485.72 385.94 490.74 C 388.64 498.81 391.28 506.91 393.81 515.03 C 386.90 510.06 380.01 505.06 373.13 500.04 C 366.24 505.06 359.35 510.07 352.43 515.05 C 354.97 506.92 357.62 498.83 360.29 490.75 C 353.41 485.74 346.55 480.71 339.64 475.75 C 348.13 475.75 356.63 475.75 365.13 475.75 Z"/>
    <path fill="#ffffff" opacity="1.00" d=" M 226.83 453.30 C 229.72 461.29 232.13 469.44 234.84 477.49 C 243.36 477.50 251.89 477.51 260.42 477.49 C 253.57 482.55 246.63 487.49 239.75 492.52 C 242.30 500.68 245.05 508.78 247.63 516.94 C 240.70 511.95 233.80 506.90 226.90 501.88 C 219.93 506.87 213.04 511.96 206.08 516.96 C 208.74 508.81 211.40 500.66 214.01 492.50 C 207.06 487.55 200.20 482.49 193.29 477.50 C 201.81 477.51 210.34 477.48 218.86 477.52 C 221.62 469.48 224.08 461.34 226.83 453.30 Z"/>
    <path fill="#ffffff" opacity="1.00" d=" M 291.30 501.50 C 294.24 492.68 296.92 483.78 300.01 475.02 C 303.06 483.80 305.78 492.68 308.71 501.50 C 318.10 501.53 327.50 501.42 336.89 501.56 C 329.34 507.14 321.71 512.62 314.12 518.14 C 317.06 527.08 319.87 536.06 322.88 544.98 C 315.22 539.51 307.64 533.91 300.00 528.41 C 292.36 533.91 284.78 539.51 277.12 544.98 C 280.11 536.06 282.96 527.09 285.88 518.14 C 278.29 512.61 270.66 507.15 263.11 501.57 C 272.50 501.41 281.90 501.54 291.30 501.50 Z"/>
  </g>
  <g id="#505050ff">
    <path fill="#505050" opacity="1.00" d="M 281.41 8.49 C 293.94 4.97 307.49 5.1 319.94 8.88 C 372.93 24.95 425.96 40.9 478.94 56.98 C 496.73 62.61 509.55 80.31 509.71 98.92 C 509.83 136.82 509.68 174.73 509.79 212.63 C 524.3 214.59 538.77 216.91 553.22 219.32 C 559.83 220.17 566.46 222.14 571.83 226.24 C 580.79 232.59 586.18 244.05 584.1 255 C 576.45 295.34 568.75 335.66 561.03 375.98 C 558.34 390.96 542.95 401.87 527.93 399.89 C 521.85 399.13 515.84 397.92 509.8 396.95 C 509.38 418.21 503.26 439.17 492.76 457.61 C 478.23 483.36 457.01 504.65 433.89 522.77 C 403.58 546.35 369.74 565.07 334.67 580.57 C 323.77 585.34 312.72 589.82 301.44 593.62 C 299.64 594.38 297.84 593.23 296.13 592.78 C 261.24 580.5 227.72 564.31 196.36 544.7 C 164.45 524.37 134.16 499.87 113.15 467.99 C 99.21 447 90.57 422.28 90.21 396.97 C 83.83 397.91 77.51 399.34 71.09 399.97 C 59.34 401.03 47.31 394.55 41.87 384.06 C 39.6 380.05 38.82 375.48 37.99 371.02 C 30.66 332.32 23.21 293.64 15.89 254.94 C 13.57 242.72 20.6 230.17 31.22 224.23 C 35.15 221.9 39.57 220.49 44.07 219.78 C 59.41 217.19 74.78 214.71 90.21 212.63 C 90.32 174.74 90.17 136.85 90.29 98.97 C 90.43 80.35 103.24 62.63 121.03 56.99 C 174.47 40.77 227.96 24.68 281.41 8.49 M 261.232 47.879 C 212.072 62.749 180.728 66.174 131.568 81.074 C 121.828 84.064 117.911 89.385 117.981 99.515 C 117.901 136.095 121.419 163.261 121.419 199.831 C 246.449 184.211 357.029 186.203 482.059 201.813 C 482.069 167.913 481.058 145.904 481.068 112.004 C 481.048 106.334 479.526 99.928 477.316 94.568 C 474.686 87.738 473.691 84.805 466.651 82.805 C 417.741 68.005 369.812 52.74 320.902 37.95 C 312.932 35.62 308.46 33.926 300.01 34.156 C 291.54 33.926 286.067 40.605 278.077 42.925 M 250.49 210.84 C 181.65 213.14 112.95 220.11 45.08 231.85 C 35.28 233.3 25.82 242.52 27.8 252.96 C 35.32 292.96 43.03 332.93 50.64 372.91 C 52.14 382.95 62.93 389.92 72.73 387.68 C 221.02 362.2 373.58 361.88 521.97 386.79 C 526.68 387.56 531.61 388.82 536.32 387.31 C 542.94 385.44 548.28 379.7 549.37 372.87 C 556.98 332.92 564.66 292.98 572.2 253.02 C 573.61 246.25 569.71 239.47 564.25 235.68 C 560.11 232.61 554.91 231.72 549.94 230.98 C 451.13 214.32 350.63 207.51 250.49 210.84 M 127.004 398.814 C 127.074 412.544 117.604 418.853 122.814 431.593 C 132.094 454.653 147.323 473.252 165.573 489.822 C 179.723 502.642 196.224 513.426 212.404 523.536 C 241.274 541.456 266.108 554.78 297.998 566.47 C 334.898 552.63 371.409 536.316 403.999 514.096 C 429.629 496.296 449.935 477.318 466.545 450.578 C 477.555 433.078 486.027 418.564 485.867 397.804 C 359.284 377.738 246.2 384.366 127.004 398.814 Z"/>
  </g>
  <g id="#002050ff">
    <path fill="#002050" opacity="1.00" d=" M 275.60 32.52 C 283.59 30.20 291.54 26.99 300.01 27.22 C 308.46 26.99 316.40 30.17 324.37 32.50 C 373.28 47.29 422.20 62.06 471.11 76.86 C 478.15 78.86 484.10 84.27 486.73 91.10 C 488.94 96.46 488.48 102.37 488.50 108.04 C 488.49 141.94 488.51 175.84 488.50 209.74 C 363.47 194.13 236.54 194.12 111.51 209.74 C 111.51 173.17 111.46 136.59 111.54 100.01 C 111.47 89.88 118.36 80.10 128.10 77.11 C 177.26 62.21 226.44 47.39 275.60 32.52 M 201.45 89.38 C 199.34 90.15 198.66 93.15 200.23 94.75 C 202.17 97.07 206.86 96.20 207.13 93.00 C 207.79 89.95 203.91 87.94 201.45 89.38 M 328.57 91.52 C 326.56 93.46 326.61 96.42 326.50 99.00 C 325.33 99.00 324.16 99.00 323.00 99.00 C 323.00 100.67 323.00 102.33 323.00 103.99 C 324.20 104.00 325.40 104.00 326.61 104.01 C 326.59 110.01 326.60 116.00 326.60 122.00 C 328.89 122.00 331.17 122.00 333.47 122.00 C 333.45 116.02 333.50 110.04 333.43 104.05 C 335.11 104.02 336.79 104.00 338.47 103.97 C 338.46 102.32 338.46 100.66 338.47 99.01 C 336.75 99.00 335.04 98.99 333.33 98.97 C 333.65 97.54 333.09 95.58 334.46 94.60 C 335.78 93.25 337.79 94.45 339.34 94.67 C 339.30 93.04 339.27 91.41 339.27 89.77 C 335.72 88.35 331.38 88.83 328.57 91.52 M 158.53 91.00 C 158.53 101.33 158.53 111.67 158.53 122.00 C 160.60 122.00 162.66 122.00 164.73 122.00 C 164.69 113.52 164.86 105.04 164.56 96.57 C 166.58 105.29 170.26 113.51 172.98 122.01 C 174.89 122.00 176.80 121.98 178.70 121.95 C 181.31 113.46 184.98 105.28 186.78 96.57 C 186.68 105.04 186.75 113.52 186.73 122.00 C 189.02 122.00 191.31 122.00 193.61 121.99 C 193.60 111.66 193.60 101.34 193.60 91.01 C 190.31 91.00 187.01 91.00 183.71 90.99 C 181.22 98.75 178.00 106.29 176.17 114.24 C 174.39 106.29 171.11 98.78 168.71 91.01 C 165.31 91.00 161.92 91.00 158.53 91.00 M 372.62 92.47 C 372.60 94.26 372.56 96.06 372.52 97.85 C 375.24 96.53 378.51 95.11 381.49 96.50 C 383.87 97.62 383.92 101.43 381.94 102.95 C 379.75 104.34 377.05 103.92 374.60 104.06 C 374.59 105.69 374.59 107.32 374.60 108.95 C 377.52 109.08 380.94 108.57 383.32 110.68 C 385.00 112.32 384.39 115.29 382.30 116.28 C 378.80 117.99 374.73 116.71 371.44 115.12 C 371.50 117.02 371.54 118.93 371.59 120.83 C 376.81 122.30 382.95 122.96 387.70 119.78 C 391.32 117.52 392.45 111.81 389.39 108.63 C 387.95 107.00 385.74 106.65 383.71 106.37 C 385.00 105.84 386.43 105.50 387.56 104.63 C 391.24 101.84 391.15 95.36 387.20 92.83 C 382.85 89.99 377.25 90.76 372.62 92.47 M 403.61 92.58 C 398.83 95.16 396.56 100.72 396.23 105.92 C 395.89 110.51 396.48 115.67 399.80 119.15 C 404.33 123.72 412.93 122.71 416.23 117.17 C 419.29 112.48 418.12 104.58 412.43 102.49 C 408.97 101.03 405.22 102.52 402.59 104.89 C 403.13 102.11 403.76 98.97 406.31 97.28 C 409.00 95.17 412.66 96.01 415.62 97.06 C 415.60 95.25 415.60 93.43 415.61 91.62 C 411.65 90.72 407.27 90.53 403.61 92.58 M 423.49 107.36 C 426.69 107.05 430.15 106.41 433.21 107.77 C 436.41 109.29 436.30 114.58 433.22 116.19 C 429.96 118.09 426.09 116.57 422.98 115.11 C 422.99 117.02 423.01 118.93 423.04 120.83 C 427.67 122.20 432.98 122.85 437.36 120.34 C 442.91 117.42 444.29 108.74 439.62 104.44 C 436.85 101.88 432.86 101.88 429.34 101.95 C 429.47 100.30 429.61 98.65 429.75 97.00 C 433.50 97.00 437.25 97.00 441.00 97.00 C 441.00 95.00 441.00 93.00 441.00 91.00 C 435.55 91.00 430.10 91.00 424.65 91.00 C 424.42 96.46 423.93 101.91 423.49 107.36 M 343.38 94.08 C 343.39 95.71 343.39 97.35 343.41 98.99 C 342.52 99.00 340.75 99.00 339.87 99.01 C 339.86 100.67 339.86 102.33 339.87 103.99 C 340.75 104.00 342.52 104.00 343.40 104.01 C 343.58 108.65 342.91 113.40 343.96 117.96 C 345.50 122.55 351.26 122.57 355.11 121.31 C 355.13 119.67 355.16 118.03 355.20 116.39 C 353.53 116.92 351.46 117.57 350.52 115.59 C 349.98 111.76 350.36 107.86 350.27 104.01 C 351.88 104.00 353.51 104.00 355.13 103.99 C 355.13 102.33 355.13 100.67 355.13 99.01 C 353.50 99.00 351.88 99.00 350.26 98.99 C 350.26 96.65 350.26 94.31 350.27 91.98 C 347.97 92.68 345.67 93.37 343.38 94.08 M 199.87 99.00 C 199.87 106.67 199.87 114.33 199.87 122.00 C 202.11 122.00 204.36 122.00 206.61 121.99 C 206.60 114.33 206.60 106.67 206.60 99.01 C 204.36 99.00 202.11 99.00 199.87 99.00 M 216.79 100.81 C 209.93 104.73 209.66 116.33 216.54 120.38 C 220.45 122.77 225.28 122.23 229.46 120.94 C 229.47 119.05 229.49 117.16 229.55 115.27 C 227.30 116.48 224.69 117.73 222.12 116.65 C 216.89 114.86 217.09 105.78 222.47 104.32 C 224.93 103.33 227.46 104.44 229.56 105.72 C 229.50 103.78 229.48 101.84 229.47 99.90 C 225.36 98.49 220.59 98.54 216.79 100.81 M 233.73 99.00 C 233.73 106.67 233.73 114.33 233.73 122.00 C 236.02 122.00 238.31 122.00 240.61 121.99 C 240.80 117.35 240.07 112.60 241.15 108.04 C 242.08 104.95 245.62 104.46 248.29 105.50 C 248.26 103.28 248.25 101.06 248.22 98.84 C 244.74 98.47 241.86 100.48 240.53 103.60 C 240.57 102.07 240.60 100.53 240.62 99.00 C 238.32 99.00 236.03 99.00 233.73 99.00 M 257.37 99.56 C 248.46 101.58 246.78 114.98 253.91 119.98 C 258.17 122.70 263.93 122.71 268.32 120.25 C 274.96 116.15 275.20 104.72 268.39 100.67 C 265.08 98.82 260.98 98.46 257.37 99.56 M 280.54 100.53 C 276.93 102.41 276.21 108.05 279.39 110.66 C 281.62 112.35 284.48 112.78 286.93 114.03 C 288.10 114.37 288.15 116.51 286.72 116.61 C 283.57 117.82 280.23 116.41 277.35 115.11 C 277.38 117.04 277.39 118.96 277.38 120.88 C 281.89 122.31 287.10 122.72 291.33 120.25 C 294.23 118.54 295.15 114.42 293.52 111.54 C 291.27 108.30 286.70 108.60 283.95 106.06 C 284.97 102.34 290.22 104.38 293.01 104.91 C 293.00 103.19 293.00 101.47 292.99 99.75 C 288.90 98.87 284.32 98.31 280.54 100.53 M 304.38 99.56 C 295.45 101.56 293.77 115.02 300.95 120.00 C 305.20 122.70 310.94 122.70 315.31 120.26 C 321.96 116.15 322.20 104.71 315.38 100.67 C 312.08 98.82 307.99 98.46 304.38 99.56 M 208.49 143.54 C 201.98 148.02 201.62 159.31 208.33 163.77 C 212.07 166.14 216.85 165.66 220.80 164.10 C 220.79 163.48 220.77 162.23 220.76 161.61 C 217.06 163.20 212.28 163.84 209.07 160.91 C 204.75 156.53 205.44 147.72 211.17 144.84 C 214.20 143.26 217.76 144.06 220.80 145.15 C 220.77 144.44 220.71 143.00 220.68 142.29 C 216.68 141.22 211.97 140.90 208.49 143.54 M 232.00 142.00 C 232.00 149.67 232.00 157.33 232.00 165.00 C 236.06 164.99 240.13 164.99 244.19 165.03 C 244.23 164.19 244.27 163.36 244.31 162.53 C 241.12 162.53 237.93 162.53 234.74 162.53 C 234.73 159.84 234.73 157.16 234.74 154.47 C 237.49 154.47 240.25 154.47 243.00 154.46 C 243.00 153.85 243.00 152.62 243.00 152.00 C 240.24 152.00 237.49 152.00 234.73 152.00 C 234.73 149.42 234.73 146.84 234.73 144.27 C 237.71 144.26 240.70 144.26 243.68 144.28 C 243.72 143.72 243.78 142.60 243.81 142.05 C 239.87 141.98 235.94 142.00 232.00 142.00 M 255.00 142.01 C 255.00 149.67 255.00 157.34 255.00 165.00 C 255.69 165.00 257.05 165.00 257.74 164.99 C 257.73 161.71 257.73 158.43 257.74 155.15 C 259.59 155.43 261.99 154.80 263.20 156.66 C 265.18 159.25 266.63 162.18 268.33 164.95 C 269.14 164.97 270.77 165.00 271.58 165.02 C 269.24 161.39 267.31 157.42 264.23 154.34 C 268.05 153.03 270.39 148.49 268.16 144.83 C 265.34 140.40 259.33 142.45 255.00 142.01 M 277.73 142.00 C 277.73 142.57 277.74 143.70 277.74 144.26 C 279.91 144.26 282.09 144.27 284.27 144.27 C 284.26 151.18 284.27 158.09 284.26 164.99 C 284.95 165.00 286.31 165.00 287.00 165.00 C 287.00 158.09 286.99 151.18 287.00 144.26 C 289.24 144.26 291.48 144.26 293.73 144.27 C 293.73 143.70 293.73 142.57 293.74 142.00 C 288.40 142.00 283.06 142.00 277.73 142.00 M 304.00 142.00 C 304.00 149.66 304.00 157.33 304.00 165.00 C 304.69 165.00 306.05 165.00 306.74 164.99 C 306.73 157.33 306.73 149.67 306.74 142.01 C 306.05 142.00 304.69 142.00 304.00 142.00 M 319.00 142.00 C 319.00 149.67 319.00 157.34 319.00 165.00 C 319.69 165.00 321.05 165.00 321.74 164.99 C 321.73 161.57 321.73 158.15 321.74 154.74 C 324.49 154.73 327.24 154.73 330.00 154.73 C 330.00 154.12 330.00 152.88 330.00 152.27 C 327.24 152.27 324.49 152.27 321.74 152.26 C 321.73 149.60 321.73 146.93 321.73 144.27 C 324.70 144.26 327.68 144.26 330.65 144.28 C 330.71 143.73 330.81 142.63 330.86 142.08 C 326.91 141.96 322.95 142.00 319.00 142.00 M 342.00 142.00 C 342.00 149.67 342.00 157.33 342.00 165.00 C 342.69 165.00 344.05 165.00 344.74 164.99 C 344.73 157.33 344.73 149.67 344.74 142.00 C 344.05 142.00 342.68 142.00 342.00 142.00 M 357.00 142.00 C 357.00 149.67 357.00 157.33 357.00 165.00 C 361.12 165.00 365.24 165.04 369.36 164.92 C 369.33 164.33 369.26 163.13 369.23 162.53 C 366.06 162.53 362.90 162.53 359.74 162.53 C 359.73 159.84 359.73 157.16 359.74 154.47 C 362.48 154.46 365.23 154.46 367.98 154.47 C 367.99 153.86 368.00 152.62 368.01 152.00 C 365.25 152.00 362.49 152.00 359.73 152.00 C 359.73 149.42 359.73 146.84 359.73 144.27 C 362.71 144.26 365.70 144.26 368.68 144.28 C 368.72 143.72 368.78 142.60 368.81 142.05 C 364.87 141.98 360.94 142.00 357.00 142.00 M 380.00 142.01 C 380.00 149.67 380.00 157.33 380.00 165.00 C 384.42 164.87 389.31 165.70 393.27 163.22 C 399.48 159.72 400.27 150.19 395.89 144.98 C 391.67 140.87 385.32 142.21 380.00 142.01 Z"/>
    <path fill="#002050" opacity="1.00" d=" M 258.68 104.83 C 260.59 103.31 262.99 104.20 265.04 104.85 C 266.63 107.86 267.14 111.50 265.66 114.66 C 263.98 118.14 258.01 117.74 256.93 113.99 C 256.03 110.97 255.95 106.93 258.68 104.83 Z"/>
    <path fill="#002050" opacity="1.00" d=" M 305.69 104.82 C 307.60 103.31 309.99 104.20 312.03 104.84 C 313.63 107.85 314.15 111.51 312.66 114.68 C 310.96 118.15 304.97 117.73 303.92 113.96 C 303.04 110.95 302.96 106.92 305.69 104.82 Z"/>
    <path fill="#002050" opacity="1.00" d=" M 405.38 107.36 C 411.64 104.35 413.62 115.80 407.89 116.98 C 402.95 117.69 401.09 109.38 405.38 107.36 Z"/>
    <path fill="#002050" opacity="1.00" d=" M 257.74 144.20 C 260.26 144.45 263.30 143.78 265.34 145.67 C 266.71 147.81 266.13 151.06 263.82 152.31 C 261.84 152.87 259.76 152.70 257.74 152.80 C 257.73 149.93 257.73 147.06 257.74 144.20 Z"/>
    <path fill="#002050" opacity="1.00" d=" M 382.74 144.22 C 386.73 144.33 391.82 143.89 394.39 147.65 C 396.77 151.84 396.35 158.31 392.02 161.10 C 389.29 162.95 385.85 162.48 382.74 162.55 C 382.73 156.44 382.73 150.33 382.74 144.22 Z"/>
  </g>
  <g id="#282828ff">
    <path fill="#282828" opacity="1.00" d=" M 315.20 242.29 C 321.49 242.52 328.16 241.50 334.14 243.91 C 341.88 247.18 342.03 258.99 335.61 263.67 C 331.54 267.07 325.94 266.46 321.01 266.46 C 320.99 271.04 321.00 275.61 321.01 280.19 C 318.91 280.05 316.82 279.99 314.73 279.94 C 314.73 267.39 314.96 254.83 315.20 242.29 M 321.27 247.43 C 321.26 252.05 321.26 256.66 321.27 261.27 C 324.29 261.14 327.57 261.82 330.35 260.28 C 334.52 258.00 334.84 250.82 330.57 248.49 C 327.67 247.13 324.37 247.53 321.27 247.43 Z"/>
    <path fill="#282828" opacity="1.00" d=" M 215.75 244.13 C 225.06 243.83 234.37 243.49 243.69 243.25 C 243.72 244.99 243.74 246.72 243.76 248.46 C 240.16 248.66 236.56 248.75 232.95 248.84 C 233.30 259.72 233.67 270.59 234.05 281.46 C 231.95 281.46 229.86 281.46 227.77 281.47 C 227.55 270.71 226.88 259.96 226.76 249.20 C 223.08 249.25 219.40 249.31 215.73 249.51 C 215.73 247.71 215.74 245.92 215.75 244.13 Z"/>
    <path fill="#282828" opacity="1.00" d=" M 250.00 243.00 C 256.74 243.19 263.47 242.64 270.21 242.73 C 270.32 244.46 270.43 246.19 270.53 247.93 C 265.77 248.16 261.00 248.35 256.24 248.27 C 256.45 251.85 256.50 255.43 256.47 259.01 C 260.80 259.07 265.13 258.73 269.46 258.69 C 269.46 260.44 269.47 262.19 269.48 263.94 C 265.24 264.29 260.98 264.31 256.73 264.27 C 256.73 268.03 256.73 271.80 256.74 275.57 C 261.72 275.52 266.70 275.14 271.68 275.26 C 271.74 276.99 271.80 278.73 271.89 280.47 C 264.84 280.69 257.79 280.62 250.75 280.98 C 250.43 268.32 250.13 255.66 250.00 243.00 Z"/>
    <path fill="#282828" opacity="1.00" d=" M 279.50 243.25 C 285.58 243.63 291.86 242.44 297.80 244.02 C 304.18 245.82 306.26 254.34 302.51 259.44 C 301.02 261.65 298.53 262.81 296.07 263.59 C 301.95 268.03 304.75 275.15 308.98 280.99 C 306.56 281.00 304.14 281.00 301.72 281.04 C 298.80 276.64 296.50 271.83 293.25 267.66 C 291.46 265.36 288.28 265.59 285.69 265.34 C 285.96 270.55 286.07 275.78 286.00 281.00 C 283.91 281.00 281.82 281.00 279.73 281.00 C 279.63 268.42 279.47 255.84 279.50 243.25 M 285.73 248.27 C 285.73 252.36 285.73 256.45 285.74 260.54 C 288.46 260.45 291.29 260.88 293.92 260.01 C 298.43 258.47 299.24 251.05 294.83 248.93 C 291.96 247.76 288.75 248.41 285.73 248.27 Z"/>
    <path fill="#282828" opacity="1.00" d=" M 347.77 243.28 C 354.27 244.13 361.33 242.43 367.40 245.46 C 372.76 248.08 373.75 255.74 370.26 260.25 C 368.73 262.49 366.11 263.48 363.70 264.41 C 369.42 268.93 372.00 276.07 375.86 282.04 C 373.40 281.97 370.96 281.81 368.51 281.67 C 365.87 277.28 363.80 272.53 360.74 268.40 C 359.08 265.92 355.90 266.03 353.27 265.89 C 353.39 271.02 352.94 276.14 352.97 281.27 C 350.89 281.26 348.80 281.26 346.72 281.26 C 346.91 268.60 347.53 255.94 347.77 243.28 M 353.78 248.57 C 353.79 252.71 353.66 256.86 353.41 260.99 C 356.09 260.92 358.85 261.30 361.48 260.66 C 366.26 259.43 367.31 251.55 362.67 249.47 C 359.85 248.37 356.73 248.83 353.78 248.57 Z"/>
    <path fill="#282828" opacity="1.00" d=" M 383.31 244.47 C 385.45 244.52 387.59 244.55 389.74 244.64 C 389.16 257.20 388.65 269.77 388.11 282.33 C 385.97 282.47 383.83 282.29 381.69 282.23 C 382.16 269.64 382.70 257.05 383.31 244.47 Z"/>
    <path fill="#282828" opacity="1.00" d=" M 201.65 244.54 C 203.65 244.41 205.65 244.28 207.65 244.19 C 208.34 256.78 209.00 269.38 209.75 281.97 C 207.45 282.10 205.15 282.24 202.86 282.32 C 195.95 272.69 188.68 263.31 182.01 253.52 C 182.72 263.47 183.07 273.45 183.78 283.41 C 181.75 283.49 179.72 283.61 177.70 283.75 C 176.93 271.14 176.35 258.53 175.55 245.93 C 177.98 245.88 180.50 245.32 182.90 245.77 C 189.97 255.09 196.75 264.65 203.53 274.19 C 202.39 264.35 202.27 254.42 201.65 244.54 Z"/>
    <path fill="#282828" opacity="1.00" d=" M 401.25 248.20 C 406.86 244.27 414.34 245.20 420.53 247.09 C 420.46 249.17 420.37 251.25 420.29 253.34 C 416.31 250.96 411.21 249.71 406.79 251.59 C 404.00 252.60 403.09 256.55 405.23 258.63 C 408.06 261.35 411.97 262.49 415.03 264.90 C 418.31 267.16 421.19 270.80 420.69 275.02 C 420.58 278.59 418.17 281.82 414.86 283.12 C 408.76 285.56 401.91 284.30 396.01 281.91 C 396.14 279.71 396.25 277.51 396.25 275.31 C 400.64 278.59 406.91 280.70 412.10 278.10 C 414.67 276.58 414.67 272.44 412.42 270.62 C 408.51 267.44 403.31 266.03 399.98 262.10 C 396.19 258.29 396.76 251.21 401.25 248.20 Z"/>
    <path fill="#282828" opacity="1.00" d=" M 431.59 246.67 C 438.33 247.36 445.10 247.59 451.83 248.37 C 451.65 250.09 451.50 251.82 451.36 253.56 C 446.70 253.17 442.02 252.95 437.38 252.38 C 437.11 255.98 436.82 259.59 436.45 263.18 C 440.80 263.47 445.15 263.82 449.51 264.08 C 449.36 265.86 449.22 267.65 449.08 269.43 C 444.75 269.10 440.43 268.73 436.10 268.39 C 435.87 272.12 435.53 275.85 435.32 279.58 C 440.26 279.88 445.18 280.36 450.11 280.71 C 450.02 282.43 449.94 284.15 449.86 285.87 C 442.78 285.52 435.73 284.84 428.66 284.34 C 429.65 271.79 430.46 259.22 431.59 246.67 Z"/>
    <path fill="#282828" opacity="1.00" d=" M 146.65 249.04 C 153.41 248.48 160.17 247.89 166.93 247.45 C 167.10 249.18 167.26 250.92 167.41 252.66 C 162.74 253.11 158.06 253.44 153.38 253.77 C 153.59 257.33 153.91 260.89 154.14 264.46 C 158.48 264.15 162.83 263.75 167.18 263.46 C 167.30 265.19 167.43 266.93 167.57 268.66 C 163.26 269.12 158.95 269.37 154.64 269.73 C 154.85 273.42 155.18 277.11 155.51 280.80 C 160.44 280.55 165.36 280.13 170.27 279.67 C 170.46 281.39 170.66 283.12 170.88 284.85 C 163.80 285.59 156.70 286.12 149.61 286.55 C 148.68 274.04 147.71 261.54 146.65 249.04 Z"/>
    <path fill="#282828" opacity="1.00" d=" M 289.52 304.57 C 294.97 300.66 302.25 301.02 308.44 302.66 C 308.46 304.73 308.48 306.80 308.54 308.88 C 304.27 306.69 298.67 305.59 294.37 308.27 C 291.68 309.86 291.87 313.92 294.45 315.52 C 298.62 318.43 303.90 319.66 307.43 323.51 C 311.63 327.66 310.82 335.74 305.43 338.52 C 299.50 341.60 292.27 340.82 286.12 338.81 C 286.03 336.65 285.99 334.48 285.95 332.33 C 290.28 334.96 295.78 336.62 300.70 334.60 C 303.83 333.61 304.62 328.87 301.99 326.89 C 298.03 323.67 292.65 322.66 288.94 319.05 C 284.75 315.38 284.88 307.81 289.52 304.57 Z"/>
    <path fill="#282828" opacity="1.00" d=" M 315.50 302.25 C 324.85 302.13 334.18 302.75 343.52 302.52 C 343.47 304.36 343.42 306.20 343.35 308.04 C 339.73 307.71 336.10 307.69 332.47 307.74 C 332.26 318.58 332.45 329.43 331.94 340.27 C 329.86 340.26 327.78 340.26 325.71 340.26 C 326.04 329.44 325.98 318.62 326.28 307.80 C 322.70 307.58 319.11 307.40 315.53 307.47 C 315.52 305.73 315.52 303.99 315.50 302.25 Z"/>
    <path fill="#282828" opacity="1.00" d=" M 211.04 304.03 C 213.16 303.93 215.29 303.77 217.42 303.66 C 218.16 316.25 218.55 328.86 219.04 341.46 C 216.88 341.60 214.73 341.72 212.57 341.79 C 212.20 329.20 211.62 316.61 211.04 304.03 Z"/>
    <path fill="#282828" opacity="1.00" d=" M 253.75 303.28 C 255.72 303.27 257.70 303.26 259.69 303.26 C 260.22 315.81 260.22 328.38 260.80 340.92 C 258.53 341.04 256.27 341.20 254.00 341.32 C 247.23 331.62 240.53 321.88 233.91 312.08 C 234.36 321.96 234.28 331.85 234.79 341.72 C 232.75 341.73 230.71 341.73 228.68 341.73 C 228.43 329.15 227.89 316.58 227.72 304.00 C 230.18 304.00 232.65 304.00 235.11 304.00 C 241.52 313.73 248.34 323.19 254.67 332.97 C 254.11 323.09 253.93 313.18 253.75 303.28 Z"/>
    <path fill="#282828" opacity="1.00" d=" M 271.31 303.07 C 273.45 303.01 275.59 303.00 277.74 302.99 C 277.52 315.64 278.25 328.28 277.95 340.94 C 275.86 340.98 273.77 341.00 271.69 341.02 C 271.58 328.37 271.21 315.72 271.31 303.07 Z"/>
    <path fill="#282828" opacity="1.00" d=" M 350.77 303.28 C 357.28 304.13 364.36 302.42 370.44 305.48 C 376.01 308.22 376.82 316.43 372.80 320.82 C 371.26 322.71 368.89 323.54 366.70 324.41 C 372.44 328.93 374.97 336.09 378.85 342.06 C 376.40 341.97 373.96 341.81 371.51 341.67 C 368.81 337.27 366.79 332.44 363.66 328.32 C 362.00 325.90 358.86 326.04 356.27 325.89 C 356.39 331.02 355.94 336.14 355.97 341.27 C 353.89 341.26 351.80 341.26 349.72 341.26 C 349.90 328.60 350.54 315.94 350.77 303.28 M 356.78 308.57 C 356.79 312.71 356.67 316.85 356.41 320.99 C 359.10 320.92 361.86 321.30 364.50 320.65 C 369.28 319.39 370.32 311.50 365.63 309.45 C 362.81 308.38 359.71 308.83 356.78 308.57 Z"/>
    <path fill="#282828" opacity="1.00" d=" M 191.38 305.08 C 194.22 304.73 197.08 304.58 199.93 304.47 C 200.80 317.05 201.42 329.65 202.31 342.23 C 200.23 342.34 198.16 342.45 196.08 342.54 C 195.57 331.85 194.30 321.17 194.59 310.46 C 191.45 321.58 187.47 332.44 183.98 343.46 C 182.51 343.46 181.04 343.47 179.57 343.48 C 174.90 332.88 169.15 322.74 165.07 311.89 C 166.64 322.64 166.54 333.55 167.50 344.36 C 165.56 344.46 163.63 344.58 161.71 344.73 C 160.94 332.09 160.00 319.46 159.50 306.81 C 162.43 306.71 165.37 306.56 168.31 306.48 C 172.60 316.11 177.30 325.56 181.55 335.21 C 184.33 325.01 188.33 315.20 191.38 305.08 Z"/>
    <path fill="#282828" opacity="1.00" d=" M 395.35 305.02 C 397.73 305.00 400.13 305.13 402.52 305.30 C 406.60 318.11 410.67 330.94 414.73 343.77 C 412.42 343.59 410.12 343.47 407.81 343.40 C 406.87 340.08 405.86 336.78 404.89 333.48 C 399.92 333.48 394.97 333.04 390.01 332.95 C 388.77 336.08 387.57 339.23 386.29 342.34 C 383.99 342.26 381.69 342.14 379.40 341.99 C 384.80 329.70 390.11 317.37 395.35 305.02 M 391.92 327.94 C 395.79 328.00 399.66 328.22 403.53 328.47 C 401.87 322.55 399.80 316.73 398.54 310.70 C 396.67 316.57 394.04 322.16 391.92 327.94 Z"/>
    <path fill="#282828" opacity="1.00" d=" M 415.50 305.21 C 424.82 305.91 434.14 306.57 443.48 307.06 C 443.34 308.86 443.23 310.66 443.11 312.47 C 439.52 312.22 435.92 311.99 432.34 311.66 C 431.34 322.51 430.84 333.40 430.05 344.27 C 427.95 344.05 425.84 343.90 423.74 343.69 C 424.61 332.90 425.19 322.09 425.96 311.30 C 422.38 311.07 418.81 310.80 415.23 310.63 C 415.29 308.82 415.38 307.01 415.50 305.21 Z"/>
    <path fill="#282828" opacity="1.00" d=" M 456.42 309.63 C 461.26 307.88 466.80 308.17 471.50 310.23 C 477.24 312.77 480.85 318.86 481.22 325.01 C 481.61 331.94 479.65 339.59 473.98 344.06 C 465.48 350.62 450.82 347.86 446.50 337.61 C 442.25 327.79 445.74 313.68 456.42 309.63 M 459.48 314.68 C 451.48 317.98 449.62 328.88 452.94 336.11 C 455.68 342.10 463.95 343.83 469.22 340.21 C 472.53 337.94 473.98 333.87 474.49 330.05 C 474.95 325.94 474.69 321.35 472.05 317.97 C 469.20 314.23 463.79 313.16 459.48 314.68 Z"/>
    <path fill="#282828" opacity="1.00" d=" M 119.20 310.91 C 128.08 310.46 138.14 307.53 146.07 313.07 C 155.03 320.35 155.03 336.59 145.34 343.31 C 138.86 348.23 130.31 347.62 122.65 348.56 C 121.50 336.01 120.26 323.47 119.20 310.91 M 125.95 315.59 C 126.55 324.65 127.63 333.66 128.32 342.71 C 133.22 342.32 138.79 342.19 142.53 338.52 C 147.36 333.53 146.97 325.08 143.49 319.47 C 139.49 313.83 131.89 314.95 125.95 315.59 Z"/>
    <path fill="#282828" opacity="1.00" d=" M 491.47 312.16 C 497.48 313.22 503.91 312.90 509.57 315.43 C 515.28 317.96 516.33 326.03 512.55 330.62 C 510.82 332.99 507.93 333.95 505.18 334.54 C 510.28 339.74 512.26 346.99 515.57 353.32 C 513.12 352.98 510.68 352.66 508.23 352.36 C 506.12 347.62 504.46 342.63 501.78 338.18 C 500.39 335.69 497.33 335.50 494.84 335.06 C 494.08 340.13 493.42 345.22 492.88 350.31 C 490.78 350.11 488.70 349.86 486.62 349.63 C 488.25 337.14 489.76 324.64 491.47 312.16 M 496.98 317.96 C 496.40 322.03 495.94 326.12 495.38 330.20 C 498.22 330.44 501.13 331.12 503.97 330.49 C 508.46 329.26 509.75 321.93 505.51 319.65 C 502.87 318.32 499.82 318.40 496.98 317.96 Z"/>
    <path fill="#282828" opacity="1.00" d=" M 90.59 314.66 C 92.92 314.36 95.24 314.03 97.57 313.70 C 103.81 325.60 110.11 337.47 116.39 349.35 C 114.14 349.64 111.89 349.95 109.64 350.27 C 107.97 347.31 106.47 344.25 104.97 341.20 C 100.03 341.79 95.09 342.43 90.16 343.13 C 89.54 346.46 88.87 349.78 88.19 353.10 C 85.92 353.36 83.64 353.61 81.37 353.89 C 84.62 340.85 87.45 327.72 90.59 314.66 M 94.57 319.51 C 94.03 325.70 92.22 331.70 91.22 337.83 C 95.03 337.33 98.83 336.80 102.65 336.33 C 100.00 330.70 96.84 325.31 94.57 319.51 Z"/>
  </g>
  <g id="#0064b5ff">
    <path fill="#0064b5" opacity="1.00" d=" M 111.15 393.86 C 236.19 375.82 363.80 375.85 488.84 393.84 C 489.00 414.60 482.51 435.06 471.50 452.56 C 454.89 479.30 430.62 500.26 404.99 518.06 C 372.40 540.28 336.88 558.08 299.98 571.92 C 268.09 560.23 237.31 545.42 208.44 527.50 C 192.26 517.39 176.75 506.11 162.60 493.29 C 144.35 476.72 128.13 457.13 118.85 434.07 C 113.64 421.33 111.22 407.59 111.15 393.86 M 275.50 407.25 C 275.37 416.42 275.94 425.58 275.75 434.75 C 277.91 434.75 280.08 434.75 282.25 434.75 C 282.26 431.57 282.27 428.38 282.17 425.21 C 285.62 425.35 289.38 425.40 292.32 423.27 C 297.66 419.83 297.22 410.02 290.86 407.99 C 285.87 406.57 280.61 407.49 275.50 407.25 M 304.51 407.24 C 304.46 416.41 304.65 425.58 304.20 434.75 C 309.80 434.76 315.40 434.75 321.00 434.76 C 320.99 433.00 320.99 431.24 320.99 429.49 C 317.58 429.50 314.16 429.50 310.75 429.49 C 310.75 427.49 310.75 425.50 310.76 423.51 C 313.75 423.50 316.75 423.50 319.75 423.50 C 319.75 421.75 319.75 419.99 319.75 418.25 C 316.73 418.24 313.70 418.24 310.68 418.24 C 310.78 416.32 310.89 414.40 311.03 412.49 C 314.16 412.50 317.29 412.50 320.42 412.50 C 320.53 410.76 320.65 409.01 320.80 407.28 C 315.37 407.22 309.94 407.26 304.51 407.24 M 242.36 408.02 C 245.21 412.53 248.05 417.05 250.94 421.55 C 248.16 426.21 245.31 430.82 242.62 435.54 C 245.23 435.53 247.84 435.47 250.44 435.22 C 252.05 431.86 253.77 428.56 255.28 425.16 C 256.92 428.55 258.79 431.82 260.73 435.05 C 263.28 435.00 265.83 434.99 268.39 434.98 C 265.46 430.40 262.53 425.82 259.55 421.28 C 262.18 416.66 264.93 412.11 267.56 407.49 C 265.09 407.48 262.62 407.51 260.15 407.62 C 258.51 410.98 256.76 414.29 255.34 417.76 C 253.88 414.45 252.12 411.30 250.55 408.05 C 247.82 408.00 245.09 407.99 242.36 408.02 M 330.31 407.47 C 329.91 416.64 329.85 425.82 329.75 435.00 C 331.82 434.99 333.90 435.00 335.98 435.00 C 336.25 431.51 336.27 428.00 336.30 424.50 C 337.53 424.86 339.12 424.74 339.92 425.96 C 342.04 428.78 343.57 432.00 345.28 435.09 C 347.82 435.29 350.36 435.46 352.92 435.57 C 350.14 431.28 348.22 426.27 344.24 422.89 C 349.98 421.52 352.56 413.04 347.47 409.46 C 342.26 406.65 335.99 407.91 330.31 407.47 M 357.25 408.21 C 357.24 409.95 357.24 411.70 357.25 413.46 C 359.85 413.50 362.44 413.61 365.04 413.78 C 364.66 421.17 364.34 428.56 364.21 435.96 C 366.30 435.99 368.38 436.04 370.48 436.11 C 370.95 428.73 371.07 421.34 371.52 413.96 C 374.11 414.09 376.71 414.23 379.31 414.31 C 379.40 412.56 379.49 410.81 379.57 409.06 C 372.13 408.80 364.69 408.38 357.25 408.21 M 218.27 409.03 C 218.78 418.20 219.23 427.37 219.56 436.55 C 225.10 436.18 230.66 436.10 236.21 435.72 C 236.10 433.99 236.02 432.26 235.95 430.54 C 232.57 430.73 229.19 430.82 225.82 431.02 C 225.70 429.03 225.57 427.05 225.45 425.07 C 228.48 424.92 231.52 424.76 234.56 424.69 C 234.42 422.93 234.28 421.19 234.16 419.45 C 231.22 419.55 228.27 419.72 225.33 419.81 C 225.22 417.88 225.10 415.96 224.97 414.05 C 228.26 413.90 231.54 413.73 234.83 413.69 C 234.69 411.94 234.55 410.19 234.41 408.45 C 229.03 408.54 223.65 408.92 218.27 409.03 M 365.13 475.75 C 356.63 475.75 348.13 475.75 339.64 475.75 C 346.55 480.71 353.41 485.74 360.29 490.75 C 357.62 498.83 354.97 506.92 352.43 515.05 C 359.35 510.07 366.24 505.06 373.13 500.04 C 380.01 505.06 386.90 510.06 393.81 515.03 C 391.28 506.91 388.64 498.81 385.94 490.74 C 392.67 485.72 399.67 481.04 406.23 475.80 C 397.86 475.70 389.49 475.75 381.13 475.77 C 378.40 467.63 375.89 459.44 373.12 451.32 C 370.37 459.44 367.86 467.63 365.13 475.75 M 226.83 453.30 C 224.08 461.34 221.62 469.48 218.86 477.52 C 210.34 477.48 201.81 477.51 193.29 477.50 C 200.20 482.49 207.06 487.55 214.01 492.50 C 211.40 500.66 208.74 508.81 206.08 516.96 C 213.04 511.96 219.93 506.87 226.90 501.88 C 233.80 506.90 240.70 511.95 247.63 516.94 C 245.05 508.78 242.30 500.68 239.75 492.52 C 246.63 487.49 253.57 482.55 260.42 477.49 C 251.89 477.51 243.36 477.50 234.84 477.49 C 232.13 469.44 229.72 461.29 226.83 453.30 M 291.30 501.50 C 281.90 501.54 272.50 501.41 263.11 501.57 C 270.66 507.15 278.29 512.61 285.88 518.14 C 282.96 527.09 280.11 536.06 277.12 544.98 C 284.78 539.51 292.36 533.91 300.00 528.41 C 307.64 533.91 315.22 539.51 322.88 544.98 C 319.87 536.06 317.06 527.08 314.12 518.14 C 321.71 512.62 329.34 507.14 336.89 501.56 C 327.50 501.42 318.10 501.53 308.71 501.50 C 305.78 492.68 303.06 483.80 300.01 475.02 C 296.92 483.78 294.24 492.68 291.30 501.50 Z"/>
    <path fill="#0064b5" opacity="1.00" d=" M 282.02 412.15 C 284.82 412.05 289.38 412.28 289.18 416.18 C 289.47 420.17 284.96 420.64 282.02 420.64 C 281.99 417.80 281.99 414.97 282.02 412.15 Z"/>
    <path fill="#0064b5" opacity="1.00" d=" M 336.51 412.41 C 338.75 412.57 341.37 412.27 343.08 414.08 C 343.34 415.55 343.53 417.28 342.42 418.50 C 340.90 420.14 338.49 419.62 336.50 419.83 C 336.50 417.35 336.50 414.88 336.51 412.41 Z"/>
  </g>
</svg>