<?xml version="1.0" encoding="utf-8"?>
<svg width="600pt" height="600pt" viewBox="0 0 600 600" version="1.1" xmlns="http://www.w3.org/2000/svg">
  <g id="#ffffffff">
    <path fill="#ffffff" opacity="1.00" d=" M 201.36 89.42 C 203.84 87.90 207.81 89.92 207.13 93.04 C 206.86 95.93 202.87 96.95 200.76 95.23 C 198.65 93.87 199.04 90.34 201.36 89.42 Z"/>
    <path fill="#ffffff" opacity="1.00" d=" M 328.56 91.53 C 331.36 88.79 335.69 88.46 339.26 89.72 C 339.28 91.34 339.31 92.96 339.35 94.58 C 337.81 94.52 335.87 93.33 334.54 94.54 C 333.15 95.52 333.65 97.52 333.29 98.97 C 335.01 98.99 336.74 99.00 338.47 99.01 C 338.46 100.67 338.46 102.33 338.47 104.00 C 336.80 104.00 335.14 104.00 333.48 104.00 C 333.46 110.00 333.47 116.00 333.47 122.00 C 331.17 122.00 328.89 122.00 326.60 122.00 C 326.60 116.00 326.59 110.01 326.61 104.01 C 325.40 104.00 324.20 104.00 323.00 103.99 C 323.00 102.33 323.00 100.67 323.00 99.01 C 324.15 99.00 325.31 99.00 326.47 98.99 C 326.67 96.43 326.56 93.47 328.56 91.53 Z"/>
    <path fill="#ffffff" opacity="1.00" d=" M 158.53 91.00 C 161.93 91.00 165.32 91.00 168.71 91.01 C 171.11 98.76 174.36 106.25 176.16 114.18 C 178.08 106.26 181.18 98.69 183.75 90.97 C 187.03 91.00 190.32 91.00 193.60 91.00 C 193.60 101.33 193.59 111.66 193.61 121.99 C 191.31 122.00 189.02 122.00 186.73 122.00 C 186.74 113.54 186.70 105.08 186.75 96.62 C 184.96 105.32 181.30 113.47 178.71 121.94 C 176.80 121.98 174.89 122.00 172.99 122.02 C 170.19 113.53 166.76 105.26 164.42 96.63 C 165.01 105.07 164.63 113.54 164.73 122.00 C 162.66 122.00 160.60 122.00 158.53 122.00 C 158.53 111.67 158.53 101.33 158.53 91.00 Z"/>
    <path fill="#ffffff" opacity="1.00" d=" M 372.67 92.36 C 377.32 90.86 382.85 89.98 387.19 92.82 C 391.14 95.35 391.25 101.82 387.57 104.62 C 386.40 105.43 385.05 105.86 383.75 106.37 C 385.76 106.71 388.01 107.01 389.42 108.67 C 392.43 111.84 391.32 117.49 387.73 119.76 C 382.98 122.98 376.86 122.25 371.60 120.88 C 371.55 118.97 371.49 117.07 371.43 115.17 C 374.90 116.72 379.30 118.17 382.81 115.96 C 384.80 114.67 384.77 111.47 382.76 110.23 C 380.36 108.64 377.31 109.10 374.60 108.92 C 374.59 107.31 374.59 105.70 374.60 104.09 C 377.20 103.88 380.29 104.43 382.42 102.54 C 383.84 100.79 383.70 97.53 381.49 96.49 C 378.50 95.10 375.25 96.59 372.50 97.82 C 372.56 96.00 372.61 94.18 372.67 92.36 Z"/>
    <path fill="#ffffff" opacity="1.00" d=" M 403.58 92.60 C 407.24 90.50 411.62 90.78 415.61 91.59 C 415.60 93.40 415.60 95.21 415.62 97.03 C 412.64 96.08 409.00 95.15 406.30 97.28 C 403.76 98.96 403.19 102.12 402.53 104.85 C 405.13 102.81 408.42 101.12 411.79 102.27 C 417.97 103.96 419.46 112.37 416.19 117.24 C 412.87 122.71 404.33 123.70 399.82 119.17 C 396.49 115.71 395.89 110.54 396.22 105.96 C 396.55 100.76 398.80 95.20 403.58 92.60 M 405.33 107.38 C 401.10 109.47 402.97 117.70 407.92 116.98 C 413.64 115.74 411.60 104.29 405.33 107.38 Z"/>
    <path fill="#ffffff" opacity="1.00" d=" M 423.49 107.31 C 423.94 101.88 424.40 96.45 424.66 91.00 C 430.11 91.00 435.55 91.00 441.00 91.00 C 441.00 93.00 441.00 95.00 441.00 97.00 C 437.25 97.00 433.50 97.00 429.75 97.01 C 429.61 98.64 429.47 100.28 429.35 101.91 C 432.86 101.95 436.84 101.87 439.60 104.42 C 444.27 108.71 442.93 117.34 437.43 120.30 C 433.05 122.88 427.72 122.15 423.05 120.88 C 423.01 118.97 422.99 117.05 422.97 115.14 C 426.09 116.52 429.89 118.08 433.16 116.23 C 436.30 114.64 436.44 109.29 433.20 107.76 C 430.14 106.40 426.69 107.10 423.49 107.31 Z"/>
    <path fill="#ffffff" opacity="1.00" d=" M 343.39 94.07 C 345.68 93.37 347.97 92.68 350.27 91.98 C 350.27 94.32 350.27 96.65 350.27 99.00 C 351.88 99.00 353.50 99.00 355.13 99.00 C 355.13 100.67 355.13 102.33 355.13 104.00 C 353.51 104.00 351.89 104.00 350.27 104.00 C 350.35 107.87 349.97 111.78 350.54 115.63 C 351.48 117.55 353.53 116.81 355.20 116.50 C 355.16 118.11 355.13 119.73 355.11 121.34 C 351.43 122.35 346.27 122.71 344.26 118.70 C 342.66 114.00 343.67 108.88 343.41 104.01 C 342.52 104.01 340.75 104.00 339.87 103.99 C 339.86 102.33 339.86 100.67 339.87 99.01 C 340.75 99.00 342.52 98.99 343.41 98.99 C 343.40 97.35 343.39 95.71 343.39 94.07 Z"/>
    <path fill="#ffffff" opacity="1.00" d=" M 199.87 99.00 C 202.12 99.00 204.36 99.00 206.61 99.02 C 206.59 106.67 206.60 114.34 206.60 122.00 C 204.36 122.00 202.11 122.00 199.87 122.00 C 199.87 114.33 199.87 106.66 199.87 99.00 Z"/>
    <path fill="#ffffff" opacity="1.00" d=" M 216.76 100.82 C 220.57 98.50 225.29 98.60 229.46 99.82 C 229.48 101.77 229.50 103.71 229.57 105.66 C 227.42 104.50 224.92 103.32 222.47 104.31 C 216.76 105.87 216.99 115.82 222.90 116.87 C 225.27 117.58 227.48 116.24 229.56 115.32 C 229.50 117.20 229.47 119.09 229.46 120.98 C 225.27 122.17 220.47 122.78 216.57 120.39 C 209.67 116.37 209.92 104.78 216.76 100.82 Z"/>
    <path fill="#ffffff" opacity="1.00" d=" M 233.73 99.00 C 236.02 99.00 238.31 99.00 240.61 99.00 C 240.59 100.40 240.58 101.81 240.56 103.21 C 242.13 100.35 244.87 98.57 248.22 98.79 C 248.25 101.02 248.26 103.25 248.28 105.48 C 245.83 104.77 242.66 104.66 241.43 107.40 C 239.86 112.07 240.86 117.15 240.61 122.00 C 238.31 122.00 236.02 122.00 233.73 122.00 C 233.73 114.33 233.73 106.67 233.73 99.00 Z"/>
    <path fill="#ffffff" opacity="1.00" d=" M 257.34 99.56 C 261.19 98.42 265.62 98.82 269.01 101.07 C 275.20 105.46 274.74 116.30 268.29 120.26 C 263.94 122.71 258.22 122.69 253.97 120.02 C 246.79 115.06 248.43 101.62 257.34 99.56 M 258.81 104.75 C 255.94 106.81 256.01 110.96 256.94 114.01 C 258.04 117.74 264.00 118.13 265.66 114.65 C 267.21 111.47 266.51 107.87 265.08 104.80 C 263.04 104.31 260.70 103.32 258.81 104.75 Z"/>
    <path fill="#ffffff" opacity="1.00" d=" M 280.52 100.54 C 284.31 98.30 288.88 98.92 292.99 99.72 C 293.00 101.44 293.00 103.16 293.01 104.87 C 290.16 104.44 285.05 102.33 283.90 106.05 C 286.69 108.50 291.12 108.36 293.44 111.45 C 295.22 114.35 294.23 118.63 291.22 120.32 C 287.00 122.73 281.89 122.23 277.39 120.92 C 277.39 119.00 277.37 117.07 277.34 115.15 C 280.76 116.82 284.81 117.88 288.36 115.92 C 286.43 112.27 281.40 113.02 278.82 110.08 C 276.27 107.30 277.21 102.30 280.52 100.54 Z"/>
    <path fill="#ffffff" opacity="1.00" d=" M 304.43 99.54 C 308.26 98.43 312.66 98.84 316.02 101.08 C 322.20 105.48 321.74 116.31 315.29 120.26 C 310.93 122.71 305.19 122.69 300.95 120.00 C 293.76 115.01 295.47 101.52 304.43 99.54 M 305.75 104.79 C 302.95 106.87 303.02 110.95 303.93 113.99 C 305.01 117.73 310.96 118.14 312.65 114.68 C 314.21 111.50 313.52 107.88 312.09 104.81 C 310.03 104.29 307.66 103.32 305.75 104.79 Z"/>
    <path fill="#ffffff" opacity="1.00" d=" M 208.52 143.52 C 211.99 140.88 216.64 141.30 220.64 142.22 C 220.69 142.91 220.79 144.29 220.84 144.98 C 217.91 144.28 214.71 143.34 211.78 144.55 C 205.34 147.13 204.47 157.08 209.60 161.34 C 212.85 163.84 217.23 163.03 220.77 161.64 C 220.78 162.26 220.79 163.50 220.80 164.12 C 216.82 165.60 212.04 166.18 208.31 163.75 C 201.60 159.28 201.99 147.97 208.52 143.52 Z"/>
    <path fill="#ffffff" opacity="1.00" d=" M 232.00 142.00 C 235.95 141.99 239.90 141.98 243.86 142.07 C 243.81 142.62 243.71 143.73 243.65 144.28 C 240.68 144.27 237.70 144.27 234.73 144.27 C 234.73 146.84 234.73 149.42 234.73 152.00 C 237.51 152.00 240.28 152.00 243.06 152.00 C 243.01 152.63 242.91 153.89 242.86 154.52 C 240.15 154.47 237.44 154.46 234.74 154.46 C 234.73 157.15 234.73 159.84 234.74 162.53 C 237.92 162.53 241.10 162.53 244.28 162.54 C 244.27 163.35 244.27 164.17 244.27 165.00 C 240.18 165.00 236.09 165.00 232.00 165.00 C 232.00 157.33 232.00 149.67 232.00 142.00 Z"/>
    <path fill="#ffffff" opacity="1.00" d=" M 255.00 142.01 C 259.33 142.43 265.34 140.41 268.16 144.82 C 270.41 148.50 268.03 152.92 264.29 154.34 C 267.24 157.51 269.30 161.36 271.58 165.02 C 270.76 165.00 269.13 164.96 268.31 164.94 C 266.64 162.19 265.20 159.27 263.23 156.72 C 262.02 154.84 259.60 155.42 257.74 155.12 C 257.73 158.41 257.73 161.71 257.73 165.00 C 257.05 165.00 255.69 165.00 255.00 165.00 C 255.00 157.34 255.00 149.67 255.00 142.01 M 257.74 144.17 C 257.73 147.05 257.73 149.93 257.74 152.82 C 259.76 152.71 261.85 152.83 263.83 152.30 C 266.12 151.05 266.70 147.83 265.36 145.70 C 263.33 143.78 260.26 144.48 257.74 144.17 Z"/>
    <path fill="#ffffff" opacity="1.00" d=" M 277.44 142.04 C 282.87 141.95 288.30 142.02 293.73 142.00 C 293.72 142.57 293.71 143.70 293.71 144.27 C 291.47 144.27 289.24 144.27 287.00 144.27 C 287.00 151.18 287.00 158.09 287.00 165.00 C 286.31 165.00 284.95 165.00 284.27 165.00 C 284.27 158.10 284.27 151.20 284.27 144.30 C 281.96 143.75 277.39 145.82 277.44 142.04 Z"/>
    <path fill="#ffffff" opacity="1.00" d=" M 304.00 142.00 C 304.68 142.00 306.05 142.00 306.73 142.00 C 306.73 149.67 306.73 157.33 306.73 165.00 C 306.05 165.00 304.68 165.00 304.00 165.00 C 304.00 157.33 304.00 149.67 304.00 142.00 Z"/>
    <path fill="#ffffff" opacity="1.00" d=" M 319.00 142.00 C 322.94 141.99 326.88 141.98 330.83 142.05 C 330.79 142.61 330.71 143.72 330.67 144.28 C 327.69 144.27 324.71 144.27 321.73 144.27 C 321.73 146.93 321.73 149.60 321.74 152.26 C 324.49 152.27 327.25 152.27 330.01 152.27 C 330.01 152.89 330.00 154.12 330.00 154.73 C 327.24 154.73 324.49 154.73 321.74 154.73 C 321.73 158.16 321.73 161.58 321.73 165.00 C 321.05 165.00 319.68 165.00 319.00 165.00 C 319.00 157.33 319.00 149.67 319.00 142.00 Z"/>
    <path fill="#ffffff" opacity="1.00" d=" M 342.00 142.00 C 342.68 142.00 344.05 142.00 344.73 142.00 C 344.73 149.67 344.73 157.33 344.73 165.00 C 344.05 165.00 342.68 165.00 342.00 165.00 C 342.00 157.33 342.00 149.67 342.00 142.00 Z"/>
    <path fill="#ffffff" opacity="1.00" d=" M 357.00 142.00 C 360.95 141.99 364.91 141.97 368.87 142.08 C 368.81 142.63 368.70 143.73 368.65 144.28 C 365.67 144.27 362.70 144.27 359.73 144.27 C 359.73 146.84 359.73 149.42 359.73 152.00 C 362.49 152.00 365.26 152.00 368.02 152.00 C 368.00 152.62 367.97 153.86 367.95 154.48 C 365.21 154.47 362.47 154.47 359.74 154.47 C 359.73 157.15 359.73 159.84 359.74 162.53 C 362.92 162.53 366.10 162.53 369.28 162.54 C 369.27 163.35 369.26 164.17 369.26 165.00 C 365.17 165.00 361.09 165.00 357.00 165.00 C 357.00 157.33 357.00 149.67 357.00 142.00 Z"/>
    <path fill="#ffffff" opacity="1.00" d=" M 380.00 142.01 C 385.33 142.20 391.70 140.87 395.92 145.02 C 400.28 150.25 399.46 159.76 393.23 163.25 C 389.27 165.68 384.41 164.88 380.00 165.00 C 380.00 157.34 380.00 149.67 380.00 142.01 M 382.74 144.20 C 382.73 150.32 382.73 156.43 382.73 162.54 C 385.83 162.47 389.25 162.94 391.98 161.13 C 396.36 158.33 396.80 151.78 394.34 147.58 C 391.74 143.89 386.70 144.35 382.74 144.20 Z"/>
    <path fill="#ffffff" opacity="1.00" d=" M 250.56 210.83 C 352.41 207.47 454.63 214.53 555.05 231.88 C 564.79 233.38 574.16 242.56 572.20 252.95 C 564.68 292.93 556.97 332.88 549.37 372.85 C 547.88 383.06 536.82 390.06 526.90 387.62 C 379.69 362.35 228.29 361.92 80.93 386.30 C 75.98 386.99 71.02 388.51 65.98 387.84 C 58.62 386.71 52.13 380.86 50.76 373.46 C 43.20 334.17 35.78 294.86 28.24 255.57 C 25.48 247.08 30.52 237.96 38.22 234.17 C 42.50 231.89 47.41 231.47 52.10 230.65 C 117.72 219.64 184.07 213.06 250.56 210.83 M 281.75 247.00 C 282.31 255.66 281.72 264.35 282.30 273.01 C 276.50 264.50 270.95 255.82 265.21 247.27 C 263.05 247.26 260.89 247.26 258.74 247.26 C 258.87 258.51 258.87 269.76 259.27 281.00 C 261.00 281.00 262.73 280.99 264.46 281.00 C 264.57 271.97 264.17 262.94 264.25 253.91 C 269.25 263.28 275.93 271.66 281.51 280.71 C 283.59 280.63 285.68 280.51 287.77 280.44 C 287.23 269.31 287.44 258.15 287.27 247.00 C 285.43 247.00 283.59 247.00 281.75 247.00 M 311.52 246.52 C 311.66 257.67 311.06 268.81 311.26 279.96 C 318.04 280.01 325.42 281.23 331.57 277.58 C 340.68 272.70 342.30 258.85 335.70 251.35 C 329.26 245.16 319.64 246.76 311.52 246.52 M 227.24 248.33 C 227.42 259.45 227.83 270.56 228.12 281.68 C 230.00 281.72 231.88 281.73 233.77 281.74 C 233.40 277.13 233.50 272.50 233.25 267.88 C 235.61 268.04 238.49 267.72 240.06 269.92 C 242.94 273.47 245.08 277.56 247.66 281.33 C 249.80 281.27 251.94 281.20 254.09 281.07 C 250.38 275.98 247.58 270.06 242.50 266.13 C 244.52 265.05 246.82 264.10 248.06 262.04 C 251.04 257.54 249.26 250.51 243.93 248.76 C 238.52 247.17 232.78 248.32 227.24 248.33 M 347.04 247.49 C 346.80 258.74 346.36 269.98 346.26 281.23 C 352.49 281.19 358.72 281.55 364.95 281.48 C 364.99 279.96 365.05 278.45 365.12 276.94 C 360.71 276.65 356.30 276.76 351.89 276.54 C 352.02 273.24 352.01 269.95 352.00 266.65 C 355.91 266.75 359.83 266.67 363.74 266.99 C 363.73 265.43 363.74 263.88 363.75 262.32 C 359.91 262.04 356.06 261.94 352.22 261.98 C 352.29 258.81 352.45 255.64 352.51 252.47 C 356.64 252.40 360.77 252.51 364.89 252.81 C 365.01 251.22 365.15 249.64 365.30 248.06 C 359.21 247.73 353.12 247.71 347.04 247.49 M 201.68 249.27 C 202.05 260.42 202.76 271.56 203.08 282.72 C 209.42 282.54 215.76 282.28 222.10 281.94 C 221.97 280.35 221.81 278.77 221.65 277.20 C 217.27 277.55 212.89 277.68 208.51 277.78 C 208.35 274.48 208.26 271.18 208.05 267.90 C 211.86 267.71 215.67 267.51 219.49 267.42 C 219.47 265.84 219.46 264.25 219.45 262.67 C 215.56 262.82 211.67 263.00 207.79 263.26 C 207.73 260.07 207.50 256.89 207.41 253.70 C 211.61 253.41 215.82 253.30 220.04 253.19 C 219.90 251.61 219.77 250.04 219.66 248.46 C 213.66 248.64 207.66 248.86 201.68 249.27 M 375.56 250.46 C 371.38 252.76 370.22 258.93 373.24 262.61 C 376.25 266.59 381.42 267.77 385.14 270.85 C 387.32 272.40 387.10 276.40 384.58 277.53 C 380.00 279.81 374.77 277.75 370.77 275.21 C 370.74 277.15 370.73 279.10 370.72 281.05 C 376.24 283.07 382.70 284.12 388.18 281.43 C 392.84 279.15 393.92 272.31 390.51 268.51 C 387.45 264.63 382.39 263.39 378.69 260.33 C 376.70 258.77 377.11 255.36 379.30 254.18 C 383.22 252.02 387.99 253.25 391.75 255.18 C 391.86 253.38 391.97 251.58 392.08 249.79 C 386.77 248.21 380.53 247.54 375.56 250.46 M 400.08 249.66 C 399.45 260.85 398.76 272.03 398.20 283.22 C 400.02 283.34 401.84 283.45 403.67 283.57 C 404.10 278.18 404.31 272.78 404.63 267.38 C 408.81 272.75 412.42 278.53 416.18 284.19 C 418.66 284.39 421.15 284.53 423.64 284.73 C 419.18 278.62 414.75 272.49 410.34 266.35 C 415.15 261.31 419.74 256.07 424.56 251.05 C 422.31 250.91 420.07 250.76 417.82 250.66 C 413.42 255.70 409.06 260.78 404.66 265.83 C 405.12 260.54 405.37 255.25 405.59 249.95 C 403.75 249.83 401.92 249.73 400.08 249.66 M 164.95 251.06 C 165.78 262.26 166.46 273.47 167.08 284.67 C 173.98 284.16 181.63 284.83 187.57 280.62 C 196.22 274.84 196.71 260.70 189.13 253.89 C 182.21 248.58 172.97 251.02 164.95 251.06 M 428.38 250.64 C 428.26 252.20 428.14 253.77 427.98 255.33 C 431.20 255.54 434.41 255.81 437.63 256.11 C 436.91 265.66 436.11 275.21 435.45 284.77 C 437.28 284.93 439.12 285.09 440.96 285.27 C 441.67 275.68 442.47 266.09 443.10 256.50 C 446.32 256.70 449.53 256.97 452.74 257.25 C 452.85 255.69 452.95 254.12 453.04 252.56 C 444.83 251.83 436.60 251.27 428.38 250.64 M 139.59 252.78 C 132.88 254.00 127.78 260.29 127.55 267.04 C 126.95 273.25 128.65 280.22 133.91 284.07 C 141.10 289.52 153.05 287.37 157.52 279.41 C 160.72 273.15 160.38 265.14 156.80 259.11 C 153.32 253.36 145.93 251.07 139.59 252.78 M 465.22 254.28 C 454.73 257.03 450.99 270.59 455.09 279.72 C 459.55 290.05 475.90 291.66 482.27 282.39 C 486.70 275.77 487.55 266.07 482.61 259.48 C 478.67 254.28 471.33 252.70 465.22 254.28 M 110.02 256.62 C 107.79 265.75 105.06 274.76 103.10 283.96 C 98.79 275.73 94.28 267.59 89.67 259.53 C 87.13 259.13 84.44 260.02 81.86 260.22 C 83.19 271.33 84.76 282.40 86.08 293.51 C 87.78 293.27 89.49 293.04 91.20 292.82 C 89.90 283.50 89.04 274.11 87.37 264.85 C 91.78 273.97 97.14 282.61 102.01 291.49 C 103.28 291.28 104.55 291.07 105.81 290.86 C 107.78 281.85 110.96 273.07 112.22 263.93 C 112.04 263.08 112.77 261.43 113.07 263.09 C 114.02 271.95 115.21 280.79 116.39 289.63 C 118.20 289.36 120.02 289.11 121.84 288.85 C 120.36 277.78 118.99 266.70 117.52 255.63 C 115.02 255.93 112.52 256.28 110.02 256.62 M 494.55 257.30 C 493.09 268.37 491.56 279.44 490.14 290.52 C 491.95 290.78 493.75 291.03 495.57 291.30 C 496.14 287.31 496.67 283.32 497.17 279.33 C 501.25 279.67 505.66 280.80 509.50 278.77 C 516.02 275.87 517.79 265.52 511.77 261.22 C 506.72 257.82 500.29 258.42 494.55 257.30 M 291.26 308.19 C 287.11 310.70 286.30 316.97 289.50 320.57 C 292.77 324.30 297.90 325.34 301.78 328.23 C 304.06 329.97 303.68 333.89 301.02 335.08 C 296.55 337.02 291.40 335.55 287.46 333.05 C 287.50 335.01 287.54 336.97 287.57 338.93 C 293.30 340.69 300.06 341.63 305.44 338.37 C 309.63 335.86 310.24 329.50 307.16 325.90 C 304.04 321.99 298.88 320.84 294.93 318.07 C 292.69 316.41 292.96 312.80 295.43 311.50 C 299.36 309.51 304.02 310.47 307.78 312.41 C 307.74 310.56 307.73 308.72 307.73 306.88 C 302.35 305.39 296.13 305.01 291.26 308.19 M 259.50 306.72 C 259.77 315.45 259.70 324.20 260.29 332.91 C 254.50 324.36 248.72 315.81 242.92 307.27 C 240.77 307.26 238.62 307.25 236.48 307.23 C 236.47 318.41 237.05 329.58 237.01 340.76 C 238.84 340.75 240.68 340.74 242.52 340.74 C 242.41 332.05 242.04 323.36 242.00 314.68 C 247.81 323.23 253.68 331.74 259.49 340.29 C 261.53 340.27 263.57 340.26 265.62 340.27 C 265.41 329.10 265.07 317.94 264.95 306.77 C 263.13 306.74 261.31 306.73 259.50 306.72 M 313.28 311.27 C 316.43 311.26 319.58 311.26 322.73 311.27 C 322.89 320.94 322.44 330.60 322.54 340.27 C 324.34 340.26 326.15 340.26 327.96 340.27 C 328.49 330.59 328.02 320.89 328.49 311.21 C 331.66 311.29 334.82 311.46 338.00 311.50 C 337.99 309.92 338.00 308.34 338.00 306.76 C 329.75 306.49 321.49 306.53 313.23 306.51 C 313.25 308.09 313.26 309.68 313.28 311.27 M 203.90 308.64 C 200.86 317.51 197.74 326.36 194.82 335.28 C 191.03 326.72 187.08 318.23 183.17 309.72 C 180.61 309.90 178.04 310.02 175.47 310.11 C 175.81 321.33 176.68 332.51 177.10 343.73 C 178.84 343.66 180.59 343.54 182.34 343.44 C 181.63 334.24 181.58 325.00 180.63 315.83 C 184.65 324.94 188.98 333.91 193.19 342.95 C 194.45 342.84 195.72 342.75 196.99 342.67 C 200.23 333.09 203.68 323.57 206.58 313.88 C 206.32 323.29 207.38 332.67 207.72 342.07 C 209.56 342.02 211.41 341.99 213.25 341.97 C 212.60 330.72 212.09 319.46 211.43 308.21 C 208.92 308.41 206.41 308.55 203.90 308.64 M 220.97 308.33 C 221.22 319.47 221.84 330.60 222.03 341.74 C 223.94 341.73 225.85 341.73 227.76 341.73 C 227.60 330.46 226.92 319.21 226.71 307.94 C 224.79 308.07 222.88 308.21 220.97 308.33 M 273.73 307.27 C 273.84 318.51 274.14 329.75 274.00 341.00 C 275.91 341.00 277.82 341.00 279.74 341.00 C 279.92 329.74 279.49 318.50 279.50 307.25 C 277.57 307.26 275.65 307.26 273.73 307.27 M 344.06 307.49 C 343.70 318.71 343.39 329.94 343.26 341.16 C 345.07 341.23 346.88 341.27 348.70 341.31 C 348.70 336.70 349.06 332.10 349.04 327.50 C 351.23 327.81 353.94 327.54 355.45 329.54 C 358.40 333.29 360.20 337.79 362.81 341.77 C 364.90 341.74 366.99 341.72 369.09 341.68 C 365.59 336.48 363.28 330.30 358.36 326.20 C 360.29 325.29 362.41 324.53 363.81 322.83 C 367.07 318.89 366.43 311.85 361.59 309.42 C 356.20 306.67 349.87 308.08 344.06 307.49 M 384.36 307.94 C 379.81 318.98 375.06 329.95 370.41 340.96 C 372.36 341.09 374.33 341.30 376.30 341.26 C 377.74 338.60 378.65 335.69 379.71 332.86 C 384.06 333.10 388.42 333.09 392.76 333.46 C 394.07 336.18 394.69 339.16 395.57 342.03 C 397.61 342.18 399.67 342.27 401.73 342.36 C 398.15 330.99 394.33 319.69 390.78 308.31 C 388.64 308.13 386.50 308.01 384.36 307.94 M 402.80 309.48 C 402.69 311.05 402.59 312.62 402.48 314.20 C 405.68 314.33 408.88 314.49 412.07 314.75 C 411.69 324.39 410.99 334.02 410.48 343.67 C 412.33 343.72 414.19 343.79 416.05 343.89 C 416.62 334.27 417.12 324.65 417.75 315.03 C 420.97 315.29 424.21 315.44 427.45 315.54 C 427.47 313.94 427.50 312.35 427.54 310.76 C 419.28 310.58 411.05 309.79 402.80 309.48 M 439.15 312.13 C 429.08 315.25 425.88 328.39 429.76 337.30 C 434.15 347.70 450.55 349.15 456.93 339.94 C 461.92 332.60 462.15 321.04 455.05 314.94 C 450.79 311.14 444.45 310.74 439.15 312.13 M 139.44 313.32 C 140.38 324.43 141.32 335.54 142.06 346.66 C 148.89 345.96 156.48 346.56 162.33 342.30 C 170.66 336.69 171.05 323.55 164.54 316.45 C 157.63 310.34 147.74 312.74 139.44 313.32 M 469.63 313.98 C 468.50 325.12 467.28 336.25 466.15 347.39 C 467.98 347.60 469.81 347.82 471.66 348.05 C 472.17 343.44 472.54 338.83 473.16 334.24 C 475.28 334.80 477.99 334.71 479.27 336.84 C 481.87 340.71 483.36 345.20 485.38 349.38 C 487.56 349.66 489.73 349.93 491.92 350.19 C 488.87 344.65 486.99 338.30 482.44 333.73 C 489.14 333.01 493.30 324.41 488.93 319.06 C 484.13 313.64 476.05 315.30 469.63 313.98 M 114.34 316.22 C 111.30 327.77 108.44 339.37 105.36 350.91 C 107.37 350.72 109.38 350.52 111.39 350.35 C 112.10 347.41 112.75 344.46 113.42 341.52 C 117.83 340.99 122.23 340.48 126.66 340.14 C 127.93 342.86 129.21 345.58 130.52 348.29 C 132.54 348.04 134.57 347.81 136.61 347.62 C 131.10 336.97 125.85 326.20 120.58 315.44 C 118.50 315.70 116.42 315.95 114.34 316.22 Z"/>
    <path fill="#ffffff" opacity="1.00" d=" M 317.00 251.24 C 322.24 251.18 328.87 250.89 332.08 255.92 C 334.98 261.32 334.50 269.40 329.28 273.26 C 325.66 275.90 320.97 275.55 316.74 275.55 C 316.64 267.45 317.20 259.35 317.00 251.24 Z"/>
    <path fill="#ffffff" opacity="1.00" d=" M 232.76 252.45 C 235.87 252.68 239.53 251.68 242.13 253.88 C 244.66 256.30 243.83 261.11 240.72 262.66 C 238.36 263.80 235.67 263.48 233.15 263.56 C 232.98 259.86 233.03 256.15 232.76 252.45 Z"/>
    <path fill="#ffffff" opacity="1.00" d=" M 170.93 255.47 C 175.86 255.31 181.88 254.21 185.63 258.27 C 189.72 263.45 189.82 272.16 184.67 276.69 C 181.23 279.52 176.53 279.47 172.32 279.65 C 172.02 271.58 171.24 263.54 170.93 255.47 Z"/>
    <path fill="#ffffff" opacity="1.00" d=" M 140.44 257.62 C 143.55 256.84 147.21 257.04 149.68 259.30 C 153.23 262.45 154.05 267.53 153.82 272.04 C 153.76 275.09 152.43 278.14 150.04 280.09 C 146.02 283.18 139.53 282.88 136.34 278.71 C 131.33 272.48 131.99 260.49 140.44 257.62 Z"/>
    <path fill="#ffffff" opacity="1.00" d=" M 465.48 259.72 C 468.20 258.29 471.60 258.38 474.41 259.54 C 478.05 261.11 480.03 265.18 480.02 269.01 C 480.22 273.30 479.34 278.08 476.11 281.17 C 471.46 285.57 462.68 283.77 460.45 277.66 C 458.12 271.59 459.44 263.15 465.48 259.72 Z"/>
    <path fill="#ffffff" opacity="1.00" d=" M 499.43 262.57 C 501.94 262.98 504.62 262.98 506.96 264.10 C 511.11 266.32 510.12 273.30 505.88 274.84 C 503.27 275.83 500.46 274.98 497.81 274.70 C 498.37 270.66 498.89 266.61 499.43 262.57 Z"/>
    <path fill="#ffffff" opacity="1.00" d=" M 349.50 312.22 C 352.21 312.42 355.24 311.77 357.71 313.21 C 361.17 315.24 360.42 320.99 356.94 322.58 C 354.52 323.70 351.80 323.16 349.25 323.08 C 349.22 319.46 349.31 315.84 349.50 312.22 Z"/>
    <path fill="#ffffff" opacity="1.00" d=" M 387.20 313.39 C 388.53 318.57 390.16 323.67 391.72 328.79 C 388.28 328.63 384.84 328.51 381.40 328.47 C 383.29 323.42 385.36 318.45 387.20 313.39 Z"/>
    <path fill="#ffffff" opacity="1.00" d=" M 441.50 316.68 C 446.19 315.17 452.08 317.36 453.72 322.24 C 455.43 327.30 454.94 333.38 451.75 337.77 C 447.78 342.78 438.83 342.19 435.75 336.50 C 432.22 329.93 433.94 319.56 441.50 316.68 Z"/>
    <path fill="#ffffff" opacity="1.00" d=" M 145.38 317.54 C 150.47 316.99 156.81 316.06 160.54 320.49 C 163.97 325.36 164.33 332.79 160.42 337.51 C 157.10 341.10 151.88 341.20 147.37 341.65 C 146.54 333.63 146.07 325.58 145.38 317.54 Z"/>
    <path fill="#ffffff" opacity="1.00" d=" M 474.61 319.18 C 477.27 319.44 480.14 319.22 482.59 320.51 C 485.87 322.65 485.21 328.18 481.79 329.84 C 479.18 331.14 476.24 330.08 473.50 329.96 C 473.94 326.37 474.32 322.78 474.61 319.18 Z"/>
    <path fill="#ffffff" opacity="1.00" d=" M 117.83 320.91 C 119.86 325.92 122.29 330.77 124.63 335.65 C 121.22 336.10 117.81 336.47 114.39 336.83 C 115.54 331.52 116.97 326.27 117.83 320.91 Z"/>
    <path fill="#ffffff" opacity="1.00" d=" M 275.38 405.58 C 280.54 404.15 286.78 405.40 290.11 409.85 C 293.52 414.54 293.62 421.19 291.32 426.37 C 287.79 433.97 276.68 435.76 270.45 430.53 C 262.43 423.89 264.75 408.15 275.38 405.58 M 276.33 411.34 C 272.02 413.96 271.61 420.20 273.66 424.39 C 275.28 428.00 280.46 429.09 283.41 426.48 C 286.64 423.58 286.54 418.56 285.31 414.74 C 284.14 411.15 279.58 409.48 276.33 411.34 Z"/>
    <path fill="#ffffff" opacity="1.00" d=" M 305.14 407.13 C 309.67 404.31 315.28 404.84 320.26 405.94 C 320.25 408.00 320.25 410.07 320.27 412.14 C 316.89 410.83 312.95 409.71 309.55 411.58 C 304.00 414.51 303.80 423.72 309.25 426.86 C 312.64 428.71 316.68 427.80 320.02 426.28 C 320.00 428.27 320.00 430.27 320.00 432.28 C 314.35 433.92 307.44 434.38 302.72 430.24 C 296.23 424.09 297.32 411.72 305.14 407.13 Z"/>
    <path fill="#ffffff" opacity="1.00" d=" M 244.33 407.34 C 248.65 404.90 253.89 405.29 258.58 406.28 C 258.68 408.26 258.76 410.26 258.84 412.26 C 255.81 411.12 252.36 409.96 249.19 411.23 C 247.74 411.68 247.15 413.59 248.28 414.69 C 251.07 417.15 255.14 417.53 257.87 420.11 C 261.58 423.31 260.92 430.26 256.44 432.43 C 251.84 434.75 246.47 434.15 241.63 433.01 C 241.53 430.81 241.42 428.61 241.24 426.42 C 244.16 428.03 247.52 429.64 250.94 428.64 C 252.49 428.33 254.38 426.64 252.97 425.04 C 250.54 422.17 246.16 422.13 243.41 419.59 C 239.58 416.54 240.01 409.75 244.33 407.34 Z"/>
    <path fill="#ffffff" opacity="1.00" d=" M 328.00 405.75 C 330.16 405.75 332.33 405.74 334.50 405.75 C 334.45 414.92 334.25 424.09 333.94 433.26 C 331.88 433.25 329.81 433.25 327.75 433.25 C 327.56 424.08 328.16 414.92 328.00 405.75 Z"/>
    <path fill="#ffffff" opacity="1.00" d=" M 350.09 406.18 C 352.65 406.23 355.20 406.34 357.76 406.52 C 360.66 415.78 363.69 424.99 366.56 434.26 C 364.20 434.12 361.85 434.01 359.49 433.93 C 358.95 431.88 358.39 429.84 357.83 427.80 C 354.71 427.78 351.59 427.71 348.48 427.43 C 347.71 429.44 346.97 431.46 346.24 433.50 C 343.89 433.50 341.55 433.50 339.21 433.52 C 342.77 424.38 346.43 415.28 350.09 406.18 M 353.50 411.91 C 352.49 415.59 351.12 419.16 349.87 422.76 C 352.05 422.75 354.23 422.75 356.42 422.75 C 355.39 419.15 354.30 415.57 353.50 411.91 Z"/>
    <path fill="#ffffff" opacity="1.00" d=" M 217.36 408.41 C 221.60 405.72 226.91 406.41 231.65 406.92 C 231.78 408.95 231.93 410.99 232.07 413.03 C 229.00 411.94 225.55 410.65 222.39 412.18 C 221.17 412.75 220.69 413.71 220.97 415.07 C 224.13 418.20 229.33 418.25 232.12 421.87 C 234.84 425.25 234.03 431.05 230.09 433.16 C 225.48 435.57 219.98 435.16 215.09 433.91 C 214.98 431.74 214.86 429.56 214.72 427.40 C 217.98 429.32 222.23 430.90 225.81 428.86 C 227.61 427.92 226.79 425.55 225.30 424.79 C 222.32 422.99 218.61 422.46 216.07 419.96 C 212.93 416.76 213.52 410.80 217.36 408.41 Z"/>
    <path fill="#ffffff" opacity="1.00" d=" M 368.01 406.80 C 375.44 407.10 382.88 407.39 390.32 407.81 C 390.24 409.55 390.16 411.30 390.05 413.05 C 387.46 412.92 384.87 412.77 382.29 412.68 C 381.79 420.05 381.60 427.44 381.20 434.82 C 379.04 434.73 376.90 434.62 374.75 434.49 C 375.21 427.10 375.34 419.69 375.80 412.31 C 373.19 412.26 370.59 412.18 367.99 412.02 C 367.99 410.28 368.00 408.54 368.01 406.80 Z"/>
    <path fill="#ffffff" opacity="1.00" d=" M 190.57 408.55 C 193.12 408.37 195.67 408.22 198.22 408.09 C 201.98 417.02 205.72 425.97 209.39 434.94 C 207.08 435.09 204.76 435.24 202.45 435.35 C 201.67 433.39 200.90 431.41 200.14 429.44 C 196.99 429.57 193.86 429.75 190.72 429.94 C 190.20 431.98 189.68 434.03 189.17 436.08 C 186.83 436.23 184.50 436.38 182.17 436.55 C 184.92 427.20 187.72 417.86 190.57 408.55 M 194.44 413.82 C 193.84 417.55 192.81 421.20 191.82 424.84 C 193.94 424.76 196.05 424.68 198.17 424.56 C 197.12 420.91 195.61 417.43 194.44 413.82 Z"/>
    <path fill="#ffffff" opacity="1.00" d=" M 396.95 408.19 C 402.35 408.37 407.73 408.77 413.12 409.07 C 412.97 410.83 412.83 412.59 412.66 414.36 C 409.47 414.11 406.28 413.92 403.09 413.70 C 402.99 415.61 402.89 417.53 402.76 419.45 C 405.78 419.68 408.79 419.86 411.82 420.09 C 411.66 421.82 411.52 423.56 411.40 425.31 C 408.44 425.09 405.49 424.90 402.53 424.68 C 402.38 426.67 402.26 428.67 402.16 430.67 C 405.55 430.87 408.95 431.06 412.35 431.32 C 412.24 433.06 412.11 434.80 411.97 436.55 C 406.46 436.09 400.94 435.92 395.43 435.48 C 395.99 426.38 396.40 417.28 396.95 408.19 Z"/>
    <path fill="#ffffff" opacity="1.00" d=" M 249.61 480.94 C 252.51 472.17 255.11 463.31 258.31 454.65 C 261.33 463.39 264.04 472.23 266.96 481.00 C 276.36 481.01 285.75 480.96 295.15 481.03 C 287.64 486.70 279.94 492.12 272.37 497.70 C 275.33 506.62 278.13 515.59 281.13 524.51 C 273.50 518.99 265.88 513.49 258.29 507.92 C 250.60 513.39 243.05 519.05 235.35 524.51 C 238.22 515.97 241.02 507.41 243.74 498.83 C 244.59 497.44 242.72 496.81 241.97 496.05 C 235.08 491.07 228.13 486.17 221.36 481.03 C 230.78 480.92 240.19 481.10 249.61 480.94 Z"/>
    <path fill="#ffffff" opacity="1.00" d=" M 341.76 454.37 C 344.66 463.22 347.55 472.06 350.38 480.93 C 359.80 481.11 369.22 480.92 378.64 481.03 C 371.15 486.75 363.37 492.07 355.85 497.74 C 359.09 506.68 361.23 516.05 365.13 524.73 C 357.16 519.43 349.60 513.44 341.76 507.93 C 334.12 513.44 326.51 519.00 318.87 524.51 C 321.87 515.60 324.66 506.62 327.63 497.71 C 320.06 492.12 312.36 486.70 304.85 481.03 C 314.24 480.96 323.64 481.01 333.04 481.00 C 335.98 472.13 338.76 463.22 341.76 454.37 Z"/>
  </g>
  <g id="#505050ff">
    <path fill="#505050" opacity="1.00" d="M 280.7 8.69 C 290.82 5.71 301.64 5.19 312.02 6.99 C 317.16 7.84 322.09 9.58 327.07 11.05 C 377.68 26.37 428.32 41.61 478.91 56.97 C 497.1 62.7 510.02 81.04 509.74 100.04 C 509.79 137.57 509.7 175.1 509.79 212.63 C 523.92 214.54 538.01 216.79 552.09 219.13 C 556.6 219.86 561.19 220.56 565.38 222.49 C 574.94 226.66 582.69 235.56 584.19 246.04 C 585.19 251.43 583.76 256.82 582.77 262.1 C 575.59 299.69 568.42 337.29 561.26 374.89 C 559.94 382.83 555.31 390.14 548.65 394.67 C 542.19 399.2 533.98 400.88 526.22 399.7 C 520.73 398.83 515.27 397.86 509.79 396.96 C 509.41 417.99 503.39 438.72 493.09 457.02 C 478.68 482.82 457.51 504.18 434.44 522.35 C 402.75 547.09 367.2 566.51 330.36 582.44 C 320.4 586.57 310.43 590.87 300.08 593.91 C 285.55 589.54 271.57 583.5 257.68 577.41 C 224.38 562.31 192.22 544.24 163.52 521.47 C 145.24 506.9 128.36 490.3 115.13 470.95 C 100.08 449.29 90.55 423.48 90.22 396.95 C 80.71 398.17 71.08 401.55 61.47 399.21 C 50.36 396.62 41.12 387.27 38.99 376.02 C 31.38 336.5 23.92 296.95 16.32 257.43 C 15.29 252.72 15.12 247.79 16.4 243.11 C 19.47 231.28 30.2 222.39 42.02 220.16 C 58.04 217.36 74.11 214.84 90.22 212.63 C 90.31 174.72 90.17 136.8 90.29 98.89 C 90.46 80.3 103.28 62.61 121.05 56.99 C 174.25 40.83 227.5 24.83 280.7 8.69 M 201.36 89.42 C 199.04 90.34 198.65 93.87 200.76 95.23 C 202.87 96.95 206.86 95.93 207.13 93.04 C 207.81 89.92 203.84 87.9 201.36 89.42 M 328.56 91.53 C 326.56 93.47 326.67 96.43 326.47 98.99 C 325.31 99 324.15 99 323 99.01 C 323 100.67 323 102.33 323 103.99 C 324.2 104 325.4 104 326.61 104.01 C 326.59 110.01 326.6 116 326.6 122 C 328.89 122 331.17 122 333.47 122 C 333.47 116 333.46 110 333.48 104 C 335.14 104 336.8 104 338.47 104 C 338.46 102.33 338.46 100.67 338.47 99.01 C 336.74 99 335.01 98.99 333.29 98.97 C 333.65 97.52 333.15 95.52 334.54 94.54 C 335.87 93.33 337.81 94.52 339.35 94.58 C 339.31 92.96 339.28 91.34 339.26 89.72 C 335.69 88.46 331.36 88.79 328.56 91.53 M 158.53 91 C 158.53 101.33 158.53 111.67 158.53 122 C 160.6 122 162.66 122 164.73 122 C 164.63 113.54 165.01 105.07 164.42 96.63 C 166.76 105.26 170.19 113.53 172.99 122.02 C 174.89 122 176.8 121.98 178.71 121.94 C 181.3 113.47 184.96 105.32 186.75 96.62 C 186.7 105.08 186.74 113.54 186.73 122 C 189.02 122 191.31 122 193.61 121.99 C 193.59 111.66 193.6 101.33 193.6 91 C 190.32 91 187.03 91 183.75 90.97 C 181.18 98.69 178.08 106.26 176.16 114.18 C 174.36 106.25 171.11 98.76 168.71 91.01 C 165.32 91 161.93 91 158.53 91 M 372.67 92.36 C 372.61 94.18 372.56 96 372.5 97.82 C 375.25 96.59 378.5 95.1 381.49 96.49 C 383.7 97.53 383.84 100.79 382.42 102.54 C 380.29 104.43 377.2 103.88 374.6 104.09 C 374.59 105.7 374.59 107.31 374.6 108.92 C 377.31 109.1 380.36 108.64 382.76 110.23 C 384.77 111.47 384.8 114.67 382.81 115.96 C 379.3 118.17 374.9 116.72 371.43 115.17 C 371.49 117.07 371.55 118.97 371.6 120.88 C 376.86 122.25 382.98 122.98 387.73 119.76 C 391.32 117.49 392.43 111.84 389.42 108.67 C 388.01 107.01 385.76 106.71 383.75 106.37 C 385.05 105.86 386.4 105.43 387.57 104.62 C 391.25 101.82 391.14 95.35 387.19 92.82 C 382.85 89.98 377.32 90.86 372.67 92.36 M 403.58 92.6 C 398.8 95.2 396.55 100.76 396.22 105.96 C 395.89 110.54 396.49 115.71 399.82 119.17 C 404.33 123.7 412.87 122.71 416.19 117.24 C 419.46 112.37 417.97 103.96 411.79 102.27 C 408.42 101.12 405.13 102.81 402.53 104.85 C 403.19 102.12 403.76 98.96 406.3 97.28 C 409 95.15 412.64 96.08 415.62 97.03 C 415.6 95.21 415.6 93.4 415.61 91.59 C 411.62 90.78 407.24 90.5 403.58 92.6 M 423.49 107.31 C 426.69 107.1 430.14 106.4 433.2 107.76 C 436.44 109.29 436.3 114.64 433.16 116.23 C 429.89 118.08 426.09 116.52 422.97 115.14 C 422.99 117.05 423.01 118.97 423.05 120.88 C 427.72 122.15 433.05 122.88 437.43 120.3 C 442.93 117.34 444.27 108.71 439.6 104.42 C 436.84 101.87 432.86 101.95 429.35 101.91 C 429.47 100.28 429.61 98.64 429.75 97.01 C 433.5 97 437.25 97 441 97 C 441 95 441 93 441 91 C 435.55 91 430.11 91 424.66 91 C 424.4 96.45 423.94 101.88 423.49 107.31 M 343.39 94.07 C 343.39 95.71 343.4 97.35 343.41 98.99 C 342.52 98.99 340.75 99 339.87 99.01 C 339.86 100.67 339.86 102.33 339.87 103.99 C 340.75 104 342.52 104.01 343.41 104.01 C 343.67 108.88 342.66 114 344.26 118.7 C 346.27 122.71 351.43 122.35 355.11 121.34 C 355.13 119.73 355.16 118.11 355.2 116.5 C 353.53 116.81 351.48 117.55 350.54 115.63 C 349.97 111.78 350.35 107.87 350.27 104 C 351.89 104 353.51 104 355.13 104 C 355.13 102.33 355.13 100.67 355.13 99 C 353.5 99 351.88 99 350.27 99 C 350.27 96.65 350.27 94.32 350.27 91.98 C 347.97 92.68 345.68 93.37 343.39 94.07 M 199.87 99 C 199.87 106.66 199.87 114.33 199.87 122 C 202.11 122 204.36 122 206.6 122 C 206.6 114.34 206.59 106.67 206.61 99.02 C 204.36 99 202.12 99 199.87 99 M 216.76 100.82 C 209.92 104.78 209.67 116.37 216.57 120.39 C 220.47 122.78 225.27 122.17 229.46 120.98 C 229.47 119.09 229.5 117.2 229.56 115.32 C 227.48 116.24 225.27 117.58 222.9 116.87 C 216.99 115.82 216.76 105.87 222.47 104.31 C 224.92 103.32 227.42 104.5 229.57 105.66 C 229.5 103.71 229.48 101.77 229.46 99.82 C 225.29 98.6 220.57 98.5 216.76 100.82 M 233.73 99 C 233.73 106.67 233.73 114.33 233.73 122 C 236.02 122 238.31 122 240.61 122 C 240.86 117.15 239.86 112.07 241.43 107.4 C 242.66 104.66 245.83 104.77 248.28 105.48 C 248.26 103.25 248.25 101.02 248.22 98.79 C 244.87 98.57 242.13 100.35 240.56 103.21 C 240.58 101.81 240.59 100.4 240.61 99 C 238.31 99 236.02 99 233.73 99 M 257.34 99.56 C 248.43 101.62 246.79 115.06 253.97 120.02 C 258.22 122.69 263.94 122.71 268.29 120.26 C 274.74 116.3 275.2 105.46 269.01 101.07 C 265.62 98.82 261.19 98.42 257.34 99.56 M 280.52 100.54 C 277.21 102.3 276.27 107.3 278.82 110.08 C 281.4 113.02 286.43 112.27 288.36 115.92 C 284.81 117.88 280.76 116.82 277.34 115.15 C 277.37 117.07 277.39 119 277.39 120.92 C 281.89 122.23 287 122.73 291.22 120.32 C 294.23 118.63 295.22 114.35 293.44 111.45 C 291.12 108.36 286.69 108.5 283.9 106.05 C 285.05 102.33 290.16 104.44 293.01 104.87 C 293 103.16 293 101.44 292.99 99.72 C 288.88 98.92 284.31 98.3 280.52 100.54 M 304.43 99.54 C 295.47 101.52 293.76 115.01 300.95 120 C 305.19 122.69 310.93 122.71 315.29 120.26 C 321.74 116.31 322.2 105.48 316.02 101.08 C 312.66 98.84 308.26 98.43 304.43 99.54 M 208.52 143.52 C 201.99 147.97 201.6 159.28 208.31 163.75 C 212.04 166.18 216.82 165.6 220.8 164.12 C 220.79 163.5 220.78 162.26 220.77 161.64 C 217.23 163.03 212.85 163.84 209.6 161.34 C 204.47 157.08 205.34 147.13 211.78 144.55 C 214.71 143.34 217.91 144.28 220.84 144.98 C 220.79 144.29 220.69 142.91 220.64 142.22 C 216.64 141.3 211.99 140.88 208.52 143.52 M 232 142 C 232 149.67 232 157.33 232 165 C 236.09 165 240.18 165 244.27 165 C 244.27 164.17 244.27 163.35 244.28 162.54 C 241.1 162.53 237.92 162.53 234.74 162.53 C 234.73 159.84 234.73 157.15 234.74 154.46 C 237.44 154.46 240.15 154.47 242.86 154.52 C 242.91 153.89 243.01 152.63 243.06 152 C 240.28 152 237.51 152 234.73 152 C 234.73 149.42 234.73 146.84 234.73 144.27 C 237.7 144.27 240.68 144.27 243.65 144.28 C 243.71 143.73 243.81 142.62 243.86 142.07 C 239.9 141.98 235.95 141.99 232 142 M 255 142.01 C 255 149.67 255 157.34 255 165 C 255.69 165 257.05 165 257.73 165 C 257.73 161.71 257.73 158.41 257.74 155.12 C 259.6 155.42 262.02 154.84 263.23 156.72 C 265.2 159.27 266.64 162.19 268.31 164.94 C 269.13 164.96 270.76 165 271.58 165.02 C 269.3 161.36 267.24 157.51 264.29 154.34 C 268.03 152.92 270.41 148.5 268.16 144.82 C 265.34 140.41 259.33 142.43 255 142.01 M 277.44 142.04 C 277.39 145.82 281.96 143.75 284.27 144.3 C 284.27 151.2 284.27 158.1 284.27 165 C 284.95 165 286.31 165 287 165 C 287 158.09 287 151.18 287 144.27 C 289.24 144.27 291.47 144.27 293.71 144.27 C 293.71 143.7 293.72 142.57 293.73 142 C 288.3 142.02 282.87 141.95 277.44 142.04 M 304 142 C 304 149.67 304 157.33 304 165 C 304.68 165 306.05 165 306.73 165 C 306.73 157.33 306.73 149.67 306.73 142 C 306.05 142 304.68 142 304 142 M 319 142 C 319 149.67 319 157.33 319 165 C 319.68 165 321.05 165 321.73 165 C 321.73 161.58 321.73 158.16 321.74 154.73 C 324.49 154.73 327.24 154.73 330 154.73 C 330 154.12 330.01 152.89 330.01 152.27 C 327.25 152.27 324.49 152.27 321.74 152.26 C 321.73 149.6 321.73 146.93 321.73 144.27 C 324.71 144.27 327.69 144.27 330.67 144.28 C 330.71 143.72 330.79 142.61 330.83 142.05 C 326.88 141.98 322.94 141.99 319 142 M 342 142 C 342 149.67 342 157.33 342 165 C 342.68 165 344.05 165 344.73 165 C 344.73 157.33 344.73 149.67 344.73 142 C 344.05 142 342.68 142 342 142 M 357 142 C 357 149.67 357 157.33 357 165 C 361.09 165 365.17 165 369.26 165 C 369.26 164.17 369.27 163.35 369.28 162.54 C 366.1 162.53 362.92 162.53 359.74 162.53 C 359.73 159.84 359.73 157.15 359.74 154.47 C 362.47 154.47 365.21 154.47 367.95 154.48 C 367.97 153.86 368 152.62 368.02 152 C 365.26 152 362.49 152 359.73 152 C 359.73 149.42 359.73 146.84 359.73 144.27 C 362.7 144.27 365.67 144.27 368.65 144.28 C 368.7 143.73 368.81 142.63 368.87 142.08 C 364.91 141.97 360.95 141.99 357 142 M 380 142.01 C 380 149.67 380 157.34 380 165 C 384.41 164.88 389.27 165.68 393.23 163.25 C 399.46 159.76 400.28 150.25 395.92 145.02 C 391.7 140.87 385.33 142.2 380 142.01 M 250.56 210.83 C 184.07 213.06 117.72 219.64 52.1 230.65 C 47.41 231.47 42.5 231.89 38.22 234.17 C 30.52 237.96 25.48 247.08 28.24 255.57 C 35.78 294.86 43.2 334.17 50.76 373.46 C 52.13 380.86 58.62 386.71 65.98 387.84 C 71.02 388.51 75.98 386.99 80.93 386.3 C 228.29 361.92 379.69 362.35 526.9 387.62 C 536.82 390.06 547.88 383.06 549.37 372.85 C 556.97 332.88 564.68 292.93 572.2 252.95 C 574.16 242.56 564.79 233.38 555.05 231.88 C 454.63 214.53 352.41 207.47 250.56 210.83 M 126.509 402.353 C 126.669 414.993 123.655 417.258 128.135 429.128 C 136.975 453.008 149.936 467.858 168.536 484.918 C 183.516 498.648 197.579 509.607 214.849 520.277 C 243.159 537.637 270.296 546.122 301.476 557.532 C 340.146 542.992 366.496 529.652 400.296 505.812 C 425.276 487.902 447.28 471.161 462.83 444.331 C 472.4 427.811 482.104 419.245 481.774 400.075 C 479.294 399.055 459.708 403.505 457.098 403.085 C 334.598 386.365 248.869 384.503 126.509 402.353 Z"/>
    <path fill="#505050" opacity="1.00" d=" M 258.81 104.75 C 260.70 103.32 263.04 104.31 265.08 104.80 C 266.51 107.87 267.21 111.47 265.66 114.65 C 264.00 118.13 258.04 117.74 256.94 114.01 C 256.01 110.96 255.94 106.81 258.81 104.75 Z"/>
    <path fill="#505050" opacity="1.00" d=" M 305.75 104.79 C 307.66 103.32 310.03 104.29 312.09 104.81 C 313.52 107.88 314.21 111.50 312.65 114.68 C 310.96 118.14 305.01 117.73 303.93 113.99 C 303.02 110.95 302.95 106.87 305.75 104.79 Z"/>
    <path fill="#505050" opacity="1.00" d=" M 405.33 107.38 C 411.60 104.29 413.64 115.74 407.92 116.98 C 402.97 117.70 401.10 109.47 405.33 107.38 Z"/>
    <path fill="#505050" opacity="1.00" d=" M 257.74 144.17 C 260.26 144.48 263.33 143.78 265.36 145.70 C 266.70 147.83 266.12 151.05 263.83 152.30 C 261.85 152.83 259.76 152.71 257.74 152.82 C 257.73 149.93 257.73 147.05 257.74 144.17 Z"/>
    <path fill="#505050" opacity="1.00" d=" M 382.74 144.20 C 386.70 144.35 391.74 143.89 394.34 147.58 C 396.80 151.78 396.36 158.33 391.98 161.13 C 389.25 162.94 385.83 162.47 382.73 162.54 C 382.73 156.43 382.73 150.32 382.74 144.20 Z"/>
  </g>
  <g id="#282828ff">
    <path fill="#282828" opacity="1.00" d=" M 281.75 247.00 C 283.59 247.00 285.43 247.00 287.27 247.00 C 287.44 258.15 287.23 269.31 287.77 280.44 C 285.68 280.51 283.59 280.63 281.51 280.71 C 275.93 271.66 269.25 263.28 264.25 253.91 C 264.17 262.94 264.57 271.97 264.46 281.00 C 262.73 280.99 261.00 281.00 259.27 281.00 C 258.87 269.76 258.87 258.51 258.74 247.26 C 260.89 247.26 263.05 247.26 265.21 247.27 C 270.95 255.82 276.50 264.50 282.30 273.01 C 281.72 264.35 282.31 255.66 281.75 247.00 Z"/>
    <path fill="#282828" opacity="1.00" d=" M 311.52 246.52 C 319.64 246.76 329.26 245.16 335.70 251.35 C 342.30 258.85 340.68 272.70 331.57 277.58 C 325.42 281.23 318.04 280.01 311.26 279.96 C 311.06 268.81 311.66 257.67 311.52 246.52 M 317.00 251.24 C 317.20 259.35 316.64 267.45 316.74 275.55 C 320.97 275.55 325.66 275.90 329.28 273.26 C 334.50 269.40 334.98 261.32 332.08 255.92 C 328.87 250.89 322.24 251.18 317.00 251.24 Z"/>
    <path fill="#282828" opacity="1.00" d=" M 227.24 248.33 C 232.78 248.32 238.52 247.17 243.93 248.76 C 249.26 250.51 251.04 257.54 248.06 262.04 C 246.82 264.10 244.52 265.05 242.50 266.13 C 247.58 270.06 250.38 275.98 254.09 281.07 C 251.94 281.20 249.80 281.27 247.66 281.33 C 245.08 277.56 242.94 273.47 240.06 269.92 C 238.49 267.72 235.61 268.04 233.25 267.88 C 233.50 272.50 233.40 277.13 233.77 281.74 C 231.88 281.73 230.00 281.72 228.12 281.68 C 227.83 270.56 227.42 259.45 227.24 248.33 M 232.76 252.45 C 233.03 256.15 232.98 259.86 233.15 263.56 C 235.67 263.48 238.36 263.80 240.72 262.66 C 243.83 261.11 244.66 256.30 242.13 253.88 C 239.53 251.68 235.87 252.68 232.76 252.45 Z"/>
    <path fill="#282828" opacity="1.00" d=" M 347.04 247.49 C 353.12 247.71 359.21 247.73 365.30 248.06 C 365.15 249.64 365.01 251.22 364.89 252.81 C 360.77 252.51 356.64 252.40 352.51 252.47 C 352.45 255.64 352.29 258.81 352.22 261.98 C 356.06 261.94 359.91 262.04 363.75 262.32 C 363.74 263.88 363.73 265.43 363.74 266.99 C 359.83 266.67 355.91 266.75 352.00 266.65 C 352.01 269.95 352.02 273.24 351.89 276.54 C 356.30 276.76 360.71 276.65 365.12 276.94 C 365.05 278.45 364.99 279.96 364.95 281.48 C 358.72 281.55 352.49 281.19 346.26 281.23 C 346.36 269.98 346.80 258.74 347.04 247.49 Z"/>
    <path fill="#282828" opacity="1.00" d=" M 201.68 249.27 C 207.66 248.86 213.66 248.64 219.66 248.46 C 219.77 250.04 219.90 251.61 220.04 253.19 C 215.82 253.30 211.61 253.41 207.41 253.70 C 207.50 256.89 207.73 260.07 207.79 263.26 C 211.67 263.00 215.56 262.82 219.45 262.67 C 219.46 264.25 219.47 265.84 219.49 267.42 C 215.67 267.51 211.86 267.71 208.05 267.90 C 208.26 271.18 208.35 274.48 208.51 277.78 C 212.89 277.68 217.27 277.55 221.65 277.20 C 221.81 278.77 221.97 280.35 222.10 281.94 C 215.76 282.28 209.42 282.54 203.08 282.72 C 202.76 271.56 202.05 260.42 201.68 249.27 Z"/>
    <path fill="#282828" opacity="1.00" d=" M 375.56 250.46 C 380.53 247.54 386.77 248.21 392.08 249.79 C 391.97 251.58 391.86 253.38 391.75 255.18 C 387.99 253.25 383.22 252.02 379.30 254.18 C 377.11 255.36 376.70 258.77 378.69 260.33 C 382.39 263.39 387.45 264.63 390.51 268.51 C 393.92 272.31 392.84 279.15 388.18 281.43 C 382.70 284.12 376.24 283.07 370.72 281.05 C 370.73 279.10 370.74 277.15 370.77 275.21 C 374.77 277.75 380.00 279.81 384.58 277.53 C 387.10 276.40 387.32 272.40 385.14 270.85 C 381.42 267.77 376.25 266.59 373.24 262.61 C 370.22 258.93 371.38 252.76 375.56 250.46 Z"/>
    <path fill="#282828" opacity="1.00" d=" M 400.08 249.66 C 401.92 249.73 403.75 249.83 405.59 249.95 C 405.37 255.25 405.12 260.54 404.66 265.83 C 409.06 260.78 413.42 255.70 417.82 250.66 C 420.07 250.76 422.31 250.91 424.56 251.05 C 419.74 256.07 415.15 261.31 410.34 266.35 C 414.75 272.49 419.18 278.62 423.64 284.73 C 421.15 284.53 418.66 284.39 416.18 284.19 C 412.42 278.53 408.81 272.75 404.63 267.38 C 404.31 272.78 404.10 278.18 403.67 283.57 C 401.84 283.45 400.02 283.34 398.20 283.22 C 398.76 272.03 399.45 260.85 400.08 249.66 Z"/>
    <path fill="#282828" opacity="1.00" d=" M 164.95 251.06 C 172.97 251.02 182.21 248.58 189.13 253.89 C 196.71 260.70 196.22 274.84 187.57 280.62 C 181.63 284.83 173.98 284.16 167.08 284.67 C 166.46 273.47 165.78 262.26 164.95 251.06 M 170.93 255.47 C 171.24 263.54 172.02 271.58 172.32 279.65 C 176.53 279.47 181.23 279.52 184.67 276.69 C 189.82 272.16 189.72 263.45 185.63 258.27 C 181.88 254.21 175.86 255.31 170.93 255.47 Z"/>
    <path fill="#282828" opacity="1.00" d=" M 428.38 250.64 C 436.60 251.27 444.83 251.83 453.04 252.56 C 452.95 254.12 452.85 255.69 452.74 257.25 C 449.53 256.97 446.32 256.70 443.10 256.50 C 442.47 266.09 441.67 275.68 440.96 285.27 C 439.12 285.09 437.28 284.93 435.45 284.77 C 436.11 275.21 436.91 265.66 437.63 256.11 C 434.41 255.81 431.20 255.54 427.98 255.33 C 428.14 253.77 428.26 252.20 428.38 250.64 Z"/>
    <path fill="#282828" opacity="1.00" d=" M 139.59 252.78 C 145.93 251.07 153.32 253.36 156.80 259.11 C 160.38 265.14 160.72 273.15 157.52 279.41 C 153.05 287.37 141.10 289.52 133.91 284.07 C 128.65 280.22 126.95 273.25 127.55 267.04 C 127.78 260.29 132.88 254.00 139.59 252.78 M 140.44 257.62 C 131.99 260.49 131.33 272.48 136.34 278.71 C 139.53 282.88 146.02 283.18 150.04 280.09 C 152.43 278.14 153.76 275.09 153.82 272.04 C 154.05 267.53 153.23 262.45 149.68 259.30 C 147.21 257.04 143.55 256.84 140.44 257.62 Z"/>
    <path fill="#282828" opacity="1.00" d=" M 465.22 254.28 C 471.33 252.70 478.67 254.28 482.61 259.48 C 487.55 266.07 486.70 275.77 482.27 282.39 C 475.90 291.66 459.55 290.05 455.09 279.72 C 450.99 270.59 454.73 257.03 465.22 254.28 M 465.48 259.72 C 459.44 263.15 458.12 271.59 460.45 277.66 C 462.68 283.77 471.46 285.57 476.11 281.17 C 479.34 278.08 480.22 273.30 480.02 269.01 C 480.03 265.18 478.05 261.11 474.41 259.54 C 471.60 258.38 468.20 258.29 465.48 259.72 Z"/>
    <path fill="#282828" opacity="1.00" d=" M 110.02 256.62 C 112.52 256.28 115.02 255.93 117.52 255.63 C 118.99 266.70 120.36 277.78 121.84 288.85 C 120.02 289.11 118.20 289.36 116.39 289.63 C 115.21 280.79 114.02 271.95 113.07 263.09 C 112.77 261.43 112.04 263.08 112.22 263.93 C 110.96 273.07 107.78 281.85 105.81 290.86 C 104.55 291.07 103.28 291.28 102.01 291.49 C 97.14 282.61 91.78 273.97 87.37 264.85 C 89.04 274.11 89.90 283.50 91.20 292.82 C 89.49 293.04 87.78 293.27 86.08 293.51 C 84.76 282.40 83.19 271.33 81.86 260.22 C 84.44 260.02 87.13 259.13 89.67 259.53 C 94.28 267.59 98.79 275.73 103.10 283.96 C 105.06 274.76 107.79 265.75 110.02 256.62 Z"/>
    <path fill="#282828" opacity="1.00" d=" M 494.55 257.30 C 500.29 258.42 506.72 257.82 511.77 261.22 C 517.79 265.52 516.02 275.87 509.50 278.77 C 505.66 280.80 501.25 279.67 497.17 279.33 C 496.67 283.32 496.14 287.31 495.57 291.30 C 493.75 291.03 491.95 290.78 490.14 290.52 C 491.56 279.44 493.09 268.37 494.55 257.30 M 499.43 262.57 C 498.89 266.61 498.37 270.66 497.81 274.70 C 500.46 274.98 503.27 275.83 505.88 274.84 C 510.12 273.30 511.11 266.32 506.96 264.10 C 504.62 262.98 501.94 262.98 499.43 262.57 Z"/>
    <path fill="#282828" opacity="1.00" d=" M 291.26 308.19 C 296.13 305.01 302.35 305.39 307.73 306.88 C 307.73 308.72 307.74 310.56 307.78 312.41 C 304.02 310.47 299.36 309.51 295.43 311.50 C 292.96 312.80 292.69 316.41 294.93 318.07 C 298.88 320.84 304.04 321.99 307.16 325.90 C 310.24 329.50 309.63 335.86 305.44 338.37 C 300.06 341.63 293.30 340.69 287.57 338.93 C 287.54 336.97 287.50 335.01 287.46 333.05 C 291.40 335.55 296.55 337.02 301.02 335.08 C 303.68 333.89 304.06 329.97 301.78 328.23 C 297.90 325.34 292.77 324.30 289.50 320.57 C 286.30 316.97 287.11 310.70 291.26 308.19 Z"/>
    <path fill="#282828" opacity="1.00" d=" M 259.50 306.72 C 261.31 306.73 263.13 306.74 264.95 306.77 C 265.07 317.94 265.41 329.10 265.62 340.27 C 263.57 340.26 261.53 340.27 259.49 340.29 C 253.68 331.74 247.81 323.23 242.00 314.68 C 242.04 323.36 242.41 332.05 242.52 340.74 C 240.68 340.74 238.84 340.75 237.01 340.76 C 237.05 329.58 236.47 318.41 236.48 307.23 C 238.62 307.25 240.77 307.26 242.92 307.27 C 248.72 315.81 254.50 324.36 260.29 332.91 C 259.70 324.20 259.77 315.45 259.50 306.72 Z"/>
    <path fill="#282828" opacity="1.00" d=" M 313.28 311.27 C 313.26 309.68 313.25 308.09 313.23 306.51 C 321.49 306.53 329.75 306.49 338.00 306.76 C 338.00 308.34 337.99 309.92 338.00 311.50 C 334.82 311.46 331.66 311.29 328.49 311.21 C 328.02 320.89 328.49 330.59 327.96 340.27 C 326.15 340.26 324.34 340.26 322.54 340.27 C 322.44 330.60 322.89 320.94 322.73 311.27 C 319.58 311.26 316.43 311.26 313.28 311.27 Z"/>
    <path fill="#282828" opacity="1.00" d=" M 203.90 308.64 C 206.41 308.55 208.92 308.41 211.43 308.21 C 212.09 319.46 212.60 330.72 213.25 341.97 C 211.41 341.99 209.56 342.02 207.72 342.07 C 207.38 332.67 206.32 323.29 206.58 313.88 C 203.68 323.57 200.23 333.09 196.99 342.67 C 195.72 342.75 194.45 342.84 193.19 342.95 C 188.98 333.91 184.65 324.94 180.63 315.83 C 181.58 325.00 181.63 334.24 182.34 343.44 C 180.59 343.54 178.84 343.66 177.10 343.73 C 176.68 332.51 175.81 321.33 175.47 310.11 C 178.04 310.02 180.61 309.90 183.17 309.72 C 187.08 318.23 191.03 326.72 194.82 335.28 C 197.74 326.36 200.86 317.51 203.90 308.64 Z"/>
    <path fill="#282828" opacity="1.00" d=" M 220.97 308.33 C 222.88 308.21 224.79 308.07 226.71 307.94 C 226.92 319.21 227.60 330.46 227.76 341.73 C 225.85 341.73 223.94 341.73 222.03 341.74 C 221.84 330.60 221.22 319.47 220.97 308.33 Z"/>
    <path fill="#282828" opacity="1.00" d=" M 273.73 307.27 C 275.65 307.26 277.57 307.26 279.50 307.25 C 279.49 318.50 279.92 329.74 279.74 341.00 C 277.82 341.00 275.91 341.00 274.00 341.00 C 274.14 329.75 273.84 318.51 273.73 307.27 Z"/>
    <path fill="#282828" opacity="1.00" d=" M 344.06 307.49 C 349.87 308.08 356.20 306.67 361.59 309.42 C 366.43 311.85 367.07 318.89 363.81 322.83 C 362.41 324.53 360.29 325.29 358.36 326.20 C 363.28 330.30 365.59 336.48 369.09 341.68 C 366.99 341.72 364.90 341.74 362.81 341.77 C 360.20 337.79 358.40 333.29 355.45 329.54 C 353.94 327.54 351.23 327.81 349.04 327.50 C 349.06 332.10 348.70 336.70 348.70 341.31 C 346.88 341.27 345.07 341.23 343.26 341.16 C 343.39 329.94 343.70 318.71 344.06 307.49 M 349.50 312.22 C 349.31 315.84 349.22 319.46 349.25 323.08 C 351.80 323.16 354.52 323.70 356.94 322.58 C 360.42 320.99 361.17 315.24 357.71 313.21 C 355.24 311.77 352.21 312.42 349.50 312.22 Z"/>
    <path fill="#282828" opacity="1.00" d=" M 384.36 307.94 C 386.50 308.01 388.64 308.13 390.78 308.31 C 394.33 319.69 398.15 330.99 401.73 342.36 C 399.67 342.27 397.61 342.18 395.57 342.03 C 394.69 339.16 394.07 336.18 392.76 333.46 C 388.42 333.09 384.06 333.10 379.71 332.86 C 378.65 335.69 377.74 338.60 376.30 341.26 C 374.33 341.30 372.36 341.09 370.41 340.96 C 375.06 329.95 379.81 318.98 384.36 307.94 M 387.20 313.39 C 385.36 318.45 383.29 323.42 381.40 328.47 C 384.84 328.51 388.28 328.63 391.72 328.79 C 390.16 323.67 388.53 318.57 387.20 313.39 Z"/>
    <path fill="#282828" opacity="1.00" d=" M 402.80 309.48 C 411.05 309.79 419.28 310.58 427.54 310.76 C 427.50 312.35 427.47 313.94 427.45 315.54 C 424.21 315.44 420.97 315.29 417.75 315.03 C 417.12 324.65 416.62 334.27 416.05 343.89 C 414.19 343.79 412.33 343.72 410.48 343.67 C 410.99 334.02 411.69 324.39 412.07 314.75 C 408.88 314.49 405.68 314.33 402.48 314.20 C 402.59 312.62 402.69 311.05 402.80 309.48 Z"/>
    <path fill="#282828" opacity="1.00" d=" M 439.15 312.13 C 444.45 310.74 450.79 311.14 455.05 314.94 C 462.15 321.04 461.92 332.60 456.93 339.94 C 450.55 349.15 434.15 347.70 429.76 337.30 C 425.88 328.39 429.08 315.25 439.15 312.13 M 441.50 316.68 C 433.94 319.56 432.22 329.93 435.75 336.50 C 438.83 342.19 447.78 342.78 451.75 337.77 C 454.94 333.38 455.43 327.30 453.72 322.24 C 452.08 317.36 446.19 315.17 441.50 316.68 Z"/>
    <path fill="#282828" opacity="1.00" d=" M 139.44 313.32 C 147.74 312.74 157.63 310.34 164.54 316.45 C 171.05 323.55 170.66 336.69 162.33 342.30 C 156.48 346.56 148.89 345.96 142.06 346.66 C 141.32 335.54 140.38 324.43 139.44 313.32 M 145.38 317.54 C 146.07 325.58 146.54 333.63 147.37 341.65 C 151.88 341.20 157.10 341.10 160.42 337.51 C 164.33 332.79 163.97 325.36 160.54 320.49 C 156.81 316.06 150.47 316.99 145.38 317.54 Z"/>
    <path fill="#282828" opacity="1.00" d=" M 469.63 313.98 C 476.05 315.30 484.13 313.64 488.93 319.06 C 493.30 324.41 489.14 333.01 482.44 333.73 C 486.99 338.30 488.87 344.65 491.92 350.19 C 489.73 349.93 487.56 349.66 485.38 349.38 C 483.36 345.20 481.87 340.71 479.27 336.84 C 477.99 334.71 475.28 334.80 473.16 334.24 C 472.54 338.83 472.17 343.44 471.66 348.05 C 469.81 347.82 467.98 347.60 466.15 347.39 C 467.28 336.25 468.50 325.12 469.63 313.98 M 474.61 319.18 C 474.32 322.78 473.94 326.37 473.50 329.96 C 476.24 330.08 479.18 331.14 481.79 329.84 C 485.21 328.18 485.87 322.65 482.59 320.51 C 480.14 319.22 477.27 319.44 474.61 319.18 Z"/>
    <path fill="#282828" opacity="1.00" d=" M 114.34 316.22 C 116.42 315.95 118.50 315.70 120.58 315.44 C 125.85 326.20 131.10 336.97 136.61 347.62 C 134.57 347.81 132.54 348.04 130.52 348.29 C 129.21 345.58 127.93 342.86 126.66 340.14 C 122.23 340.48 117.83 340.99 113.42 341.52 C 112.75 344.46 112.10 347.41 111.39 350.35 C 109.38 350.52 107.37 350.72 105.36 350.91 C 108.44 339.37 111.30 327.77 114.34 316.22 M 117.83 320.91 C 116.97 326.27 115.54 331.52 114.39 336.83 C 117.81 336.47 121.22 336.10 124.63 335.65 C 122.29 330.77 119.86 325.92 117.83 320.91 Z"/>
  </g>
  <g id="#0064b5ff">
    <path fill="#0064b5" opacity="1.00" d=" M 111.15 393.93 C 233.51 376.08 358.38 375.96 480.88 392.68 C 483.49 393.10 486.23 393.11 488.71 394.13 C 489.04 413.30 483.30 432.27 473.73 448.79 C 458.18 475.62 434.69 496.82 409.71 514.73 C 375.91 538.57 338.66 557.36 299.99 571.90 C 268.81 560.49 238.70 546.06 210.39 528.70 C 193.12 518.03 176.58 506.08 161.60 492.35 C 143.00 475.29 126.57 454.99 117.73 431.11 C 113.25 419.24 111.31 406.57 111.15 393.93 M 275.38 405.58 C 264.75 408.15 262.43 423.89 270.45 430.53 C 276.68 435.76 287.79 433.97 291.32 426.37 C 293.62 421.19 293.52 414.54 290.11 409.85 C 286.78 405.40 280.54 404.15 275.38 405.58 M 305.14 407.13 C 297.32 411.72 296.23 424.09 302.72 430.24 C 307.44 434.38 314.35 433.92 320.00 432.28 C 320.00 430.27 320.00 428.27 320.02 426.28 C 316.68 427.80 312.64 428.71 309.25 426.86 C 303.80 423.72 304.00 414.51 309.55 411.58 C 312.95 409.71 316.89 410.83 320.27 412.14 C 320.25 410.07 320.25 408.00 320.26 405.94 C 315.28 404.84 309.67 404.31 305.14 407.13 M 244.33 407.34 C 240.01 409.75 239.58 416.54 243.41 419.59 C 246.16 422.13 250.54 422.17 252.97 425.04 C 254.38 426.64 252.49 428.33 250.94 428.64 C 247.52 429.64 244.16 428.03 241.24 426.42 C 241.42 428.61 241.53 430.81 241.63 433.01 C 246.47 434.15 251.84 434.75 256.44 432.43 C 260.92 430.26 261.58 423.31 257.87 420.11 C 255.14 417.53 251.07 417.15 248.28 414.69 C 247.15 413.59 247.74 411.68 249.19 411.23 C 252.36 409.96 255.81 411.12 258.84 412.26 C 258.76 410.26 258.68 408.26 258.58 406.28 C 253.89 405.29 248.65 404.90 244.33 407.34 M 328.00 405.75 C 328.16 414.92 327.56 424.08 327.75 433.25 C 329.81 433.25 331.88 433.25 333.94 433.26 C 334.25 424.09 334.45 414.92 334.50 405.75 C 332.33 405.74 330.16 405.75 328.00 405.75 M 350.09 406.18 C 346.43 415.28 342.77 424.38 339.21 433.52 C 341.55 433.50 343.89 433.50 346.24 433.50 C 346.97 431.46 347.71 429.44 348.48 427.43 C 351.59 427.71 354.71 427.78 357.83 427.80 C 358.39 429.84 358.95 431.88 359.49 433.93 C 361.85 434.01 364.20 434.12 366.56 434.26 C 363.69 424.99 360.66 415.78 357.76 406.52 C 355.20 406.34 352.65 406.23 350.09 406.18 M 217.36 408.41 C 213.52 410.80 212.93 416.76 216.07 419.96 C 218.61 422.46 222.32 422.99 225.30 424.79 C 226.79 425.55 227.61 427.92 225.81 428.86 C 222.23 430.90 217.98 429.32 214.72 427.40 C 214.86 429.56 214.98 431.74 215.09 433.91 C 219.98 435.16 225.48 435.57 230.09 433.16 C 234.03 431.05 234.84 425.25 232.12 421.87 C 229.33 418.25 224.13 418.20 220.97 415.07 C 220.69 413.71 221.17 412.75 222.39 412.18 C 225.55 410.65 229.00 411.94 232.07 413.03 C 231.93 410.99 231.78 408.95 231.65 406.92 C 226.91 406.41 221.60 405.72 217.36 408.41 M 368.01 406.80 C 368.00 408.54 367.99 410.28 367.99 412.02 C 370.59 412.18 373.19 412.26 375.80 412.31 C 375.34 419.69 375.21 427.10 374.75 434.49 C 376.90 434.62 379.04 434.73 381.20 434.82 C 381.60 427.44 381.79 420.05 382.29 412.68 C 384.87 412.77 387.46 412.92 390.05 413.05 C 390.16 411.30 390.24 409.55 390.32 407.81 C 382.88 407.39 375.44 407.10 368.01 406.80 M 190.57 408.55 C 187.72 417.86 184.92 427.20 182.17 436.55 C 184.50 436.38 186.83 436.23 189.17 436.08 C 189.68 434.03 190.20 431.98 190.72 429.94 C 193.86 429.75 196.99 429.57 200.14 429.44 C 200.90 431.41 201.67 433.39 202.45 435.35 C 204.76 435.24 207.08 435.09 209.39 434.94 C 205.72 425.97 201.98 417.02 198.22 408.09 C 195.67 408.22 193.12 408.37 190.57 408.55 M 396.95 408.19 C 396.40 417.28 395.99 426.38 395.43 435.48 C 400.94 435.92 406.46 436.09 411.97 436.55 C 412.11 434.80 412.24 433.06 412.35 431.32 C 408.95 431.06 405.55 430.87 402.16 430.67 C 402.26 428.67 402.38 426.67 402.53 424.68 C 405.49 424.90 408.44 425.09 411.40 425.31 C 411.52 423.56 411.66 421.82 411.82 420.09 C 408.79 419.86 405.78 419.68 402.76 419.45 C 402.89 417.53 402.99 415.61 403.09 413.70 C 406.28 413.92 409.47 414.11 412.66 414.36 C 412.83 412.59 412.97 410.83 413.12 409.07 C 407.73 408.77 402.35 408.37 396.95 408.19 M 249.61 480.94 C 240.19 481.10 230.78 480.92 221.36 481.03 C 228.13 486.17 235.08 491.07 241.97 496.05 C 242.72 496.81 244.59 497.44 243.74 498.83 C 241.02 507.41 238.22 515.97 235.35 524.51 C 243.05 519.05 250.60 513.39 258.29 507.92 C 265.88 513.49 273.50 518.99 281.13 524.51 C 278.13 515.59 275.33 506.62 272.37 497.70 C 279.94 492.12 287.64 486.70 295.15 481.03 C 285.75 480.96 276.36 481.01 266.96 481.00 C 264.04 472.23 261.33 463.39 258.31 454.65 C 255.11 463.31 252.51 472.17 249.61 480.94 M 341.76 454.37 C 338.76 463.22 335.98 472.13 333.04 481.00 C 323.64 481.01 314.24 480.96 304.85 481.03 C 312.36 486.70 320.06 492.12 327.63 497.71 C 324.66 506.62 321.87 515.60 318.87 524.51 C 326.51 519.00 334.12 513.44 341.76 507.93 C 349.60 513.44 357.16 519.43 365.13 524.73 C 361.23 516.05 359.09 506.68 355.85 497.74 C 363.37 492.07 371.15 486.75 378.64 481.03 C 369.22 480.92 359.80 481.11 350.38 480.93 C 347.55 472.06 344.66 463.22 341.76 454.37 Z"/>
    <path fill="#0064b5" opacity="1.00" d=" M 276.33 411.34 C 279.58 409.48 284.14 411.15 285.31 414.74 C 286.54 418.56 286.64 423.58 283.41 426.48 C 280.46 429.09 275.28 428.00 273.66 424.39 C 271.61 420.20 272.02 413.96 276.33 411.34 Z"/>
    <path fill="#0064b5" opacity="1.00" d=" M 353.50 411.91 C 354.30 415.57 355.39 419.15 356.42 422.75 C 354.23 422.75 352.05 422.75 349.87 422.76 C 351.12 419.16 352.49 415.59 353.50 411.91 Z"/>
    <path fill="#0064b5" opacity="1.00" d=" M 194.44 413.82 C 195.61 417.43 197.12 420.91 198.17 424.56 C 196.05 424.68 193.94 424.76 191.82 424.84 C 192.81 421.20 193.84 417.55 194.44 413.82 Z"/>
  </g>
</svg>