<?xml version="1.0" encoding="utf-8"?>
<svg xmlns="http://www.w3.org/2000/svg" width="150" height="150" fill="none">
  <g clip-path="url(#a)">
    <path fill="#141D2F" d="m17.171 91.64 17.05 28.869 40.81 25.626 36.401-24.91 21.457-31.521V44.892L75.03 78.69 17.171 44.892v46.747Z"/>
    <path stroke="#4D7DF6" stroke-miterlimit="10" stroke-width=".339" d="M132.596 49.044 74.727 82.841 16.868 49.044"/>
    <path stroke="#4D7DF6" stroke-miterlimit="10" stroke-width=".339" d="M132.596 54.397 74.727 88.195 16.868 54.397"/>
    <path stroke="#4D7DF6" stroke-miterlimit="10" stroke-width=".339" d="M132.596 59.74 74.727 93.53 16.868 59.74"/>
    <path stroke="#4D7DF6" stroke-miterlimit="10" stroke-width=".339" d="M132.596 65.084 74.727 98.883 16.868 65.084"/>
    <path stroke="#4D7DF6" stroke-miterlimit="10" stroke-width=".339" d="m132.596 70.438-57.869 33.798-57.859-33.798"/>
    <path stroke="#4D7DF6" stroke-miterlimit="10" stroke-width=".339" d="m132.596 75.781-57.869 33.798-57.859-33.798"/>
    <path stroke="#4D7DF6" stroke-miterlimit="10" stroke-width=".339" d="m132.596 81.135-57.869 33.788-57.859-33.788"/>
    <path stroke="#4D7DF6" stroke-miterlimit="10" stroke-width=".339" d="m132.596 86.478-57.869 33.798-57.859-33.798"/>
    <path stroke="#4D7DF6" stroke-miterlimit="10" stroke-width=".339" d="M132.596 91.832 74.727 125.63 16.868 91.832"/>
    <path fill="url(#b)" d="M16.868 28.284v59.143l11.458 21.905 46.401 38.228 48.75-41.938 9.119-21.661V28.799L72.01 5.185"/>
    <path stroke="#4D7DF6" stroke-miterlimit="10" stroke-width=".339" d="m26.93 113.741 48.09-28.09 46.92 27.403"/>
    <path stroke="#4D7DF6" stroke-miterlimit="10" stroke-width=".339" d="M125.707 109.903 75.03 80.296l-46.1 26.932"/>
    <path stroke="#4D7DF6" stroke-miterlimit="10" stroke-width=".339" d="m22.16 105.832 52.87-30.88 52.909 30.9"/>
    <path stroke="#4D7DF6" stroke-miterlimit="10" stroke-width=".339" d="M125.857 99.291 75.03 69.61 24.33 99.218"/>
    <path stroke="#4D7DF6" stroke-miterlimit="10" stroke-width=".339" d="M125.25 93.592 75.03 64.256 22.265 95.079"/>
    <path stroke="#4D7DF6" stroke-miterlimit="10" stroke-width=".339" d="m17.171 92.71 57.86-33.797 57.858 33.798"/>
    <path stroke="#4D7DF6" stroke-miterlimit="10" stroke-width=".339" d="m17.171 87.357 57.86-33.798 57.858 33.798"/>
    <path stroke="#4D7DF6" stroke-miterlimit="10" stroke-width=".339" d="m17.171 82.004 57.86-33.799 57.858 33.799"/>
    <path stroke="#4D7DF6" stroke-miterlimit="10" stroke-width=".339" d="m17.171 76.65 57.86-33.788 57.858 33.788"/>
    <path stroke="#4D7DF6" stroke-miterlimit="10" stroke-width=".339" d="m17.171 71.317 57.86-33.799 57.858 33.799"/>
    <path stroke="#4D7DF6" stroke-miterlimit="10" stroke-width=".339" d="m17.171 65.933 57.86-33.799 57.858 33.799"/>
    <path stroke="#4D7DF6" stroke-miterlimit="10" stroke-width=".339" d="m17.171 60.61 57.86-33.799 57.858 33.798"/>
    <path stroke="#4D7DF6" stroke-miterlimit="10" stroke-width=".339" d="m17.171 55.266 57.86-33.809 57.858 33.809"/>
    <path stroke="#4D7DF6" stroke-miterlimit="10" stroke-width=".339" d="m17.171 49.912 57.86-33.788 57.858 33.788"/>
    <path stroke="#4D7DF6" stroke-miterlimit="10" stroke-width=".339" d="m17.171 44.569 57.86-33.799 57.858 33.799"/>
    <path stroke="#4D7DF6" stroke-miterlimit="10" stroke-width=".339" d="m17.171 39.215 57.86-33.798 57.858 33.798"/>
    <path fill="url(#c)" d="m34.99 117.933 38.904 24.219 39.428-23.64 1.648-29.115-39.99 23.354-39.99-23.354v28.536Z"/>
    <path stroke="#4D7DF6" stroke-miterlimit="10" stroke-width=".339" d="m114.808 92.266-39.98 23.354-39.98-23.354"/>
    <path stroke="#4D7DF6" stroke-miterlimit="10" stroke-width=".339" d="m114.808 95.963-39.98 23.354-39.98-23.354"/>
    <path stroke="#4D7DF6" stroke-miterlimit="10" stroke-width=".339" d="m114.808 99.66-39.98 23.354-39.98-23.354"/>
    <path stroke="#4D7DF6" stroke-miterlimit="10" stroke-width=".339" d="m114.808 103.357-39.98 23.354-39.98-23.354"/>
    <path stroke="#4D7DF6" stroke-miterlimit="10" stroke-width=".339" d="m114.808 107.054-39.98 23.354-39.98-23.354"/>
    <path stroke="#4D7DF6" stroke-miterlimit="10" stroke-width=".339" d="m114.808 110.741-39.98 23.364-39.98-23.364"/>
    <path stroke="#4D7DF6" stroke-miterlimit="10" stroke-width=".339" d="m114.808 114.418-39.98 23.354-39.98-23.354"/>
    <path stroke="#4D7DF6" stroke-miterlimit="10" stroke-width=".339" d="m114.808 118.145-39.98 23.354-39.98-23.354"/>
    <path stroke="#4D7DF6" stroke-miterlimit="10" stroke-width=".339" d="m114.808 121.842-39.98 23.354-39.98-23.354M35.01 26.993 75 3.639l39.979 23.354"/>
    <path fill="url(#d)" d="m33.919 56.963 41.06 23.364 41.062-23.364V22.357L74.811 4.835 33.92 21.928v35.035Z"/>
    <path stroke="#4D7DF6" stroke-miterlimit="10" stroke-width=".339" d="m62.012 9.029 12.766 7.459 10.872-6.353"/>
    <path stroke="#4D7DF6" stroke-miterlimit="10" stroke-width=".339" d="m68.775 9.029 6.072 3.548 5.173-3.022"/>
    <path stroke="#4D7DF6" stroke-miterlimit="10" stroke-width=".339" d="m61.627 12.478 13.151 7.686 13.923-8.124"/>
    <path stroke="#4D7DF6" stroke-miterlimit="10" stroke-width=".339" d="m58.562 14.4 16.215 9.472 17.704-10.341"/>
    <path stroke="#4D7DF6" stroke-miterlimit="10" stroke-width=".339" d="m54.667 15.824 20.11 11.745L95.14 15.676"/>
    <path stroke="#4D7DF6" stroke-miterlimit="10" stroke-width=".339" d="m52.572 18.293 22.205 12.962 21.746-12.694"/>
    <path stroke="#4D7DF6" stroke-miterlimit="10" stroke-width=".339" d="m47.478 19.013 27.3 15.94L102.64 18.68"/>
    <path stroke="#4D7DF6" stroke-miterlimit="10" stroke-width=".339" d="m43.365 20.271 31.462 18.378 31.647-18.485"/>
    <path stroke="#4D7DF6" stroke-miterlimit="10" stroke-width=".339" d="m114.808 18.993-39.98 23.353-39.98-23.353"/>
    <path stroke="#4D7DF6" stroke-miterlimit="10" stroke-width=".339" d="m114.808 22.69-39.98 23.364-39.98-23.364"/>
    <path stroke="#4D7DF6" stroke-miterlimit="10" stroke-width=".339" d="m114.808 26.387-39.98 23.354-39.98-23.354"/>
    <path stroke="#4D7DF6" stroke-miterlimit="10" stroke-width=".339" d="m114.808 30.084-39.98 23.354-39.98-23.354"/>
    <path stroke="#4D7DF6" stroke-miterlimit="10" stroke-width=".339" d="m114.808 33.78-39.98 23.355-39.98-23.354"/>
    <path stroke="#4D7DF6" stroke-miterlimit="10" stroke-width=".339" d="m114.808 37.478-39.98 23.354-39.98-23.354"/>
    <path stroke="#4D7DF6" stroke-miterlimit="10" stroke-width=".339" d="m114.808 41.175-39.98 23.344-39.98-23.344"/>
    <path stroke="#4D7DF6" stroke-miterlimit="10" stroke-width=".339" d="m114.808 44.862-39.98 23.354-39.98-23.354"/>
    <path stroke="#4D7DF6" stroke-miterlimit="10" stroke-width=".339" d="m114.808 48.559-39.98 23.353-39.98-23.353"/>
    <path stroke="#4D7DF6" stroke-miterlimit="10" stroke-width=".339" d="M114.808 52.256 74.828 75.62l-39.98-23.364"/>
    <path stroke="#4D7DF6" stroke-miterlimit="10" stroke-width=".339" d="m114.808 55.953-39.98 23.364-39.98-23.364"/>
    <path fill="url(#e)" d="m115.758 57.347-40.99-23.344-40.98 23.344v63.304l12.898 9.899 28.081-16 23.137 13.18 6.112-4.386 11.742-9.119V57.347Z"/>
    <path stroke="#4D7DF6" stroke-miterlimit="10" stroke-width=".339" d="M48.307 128.161 74.99 112.58l25.854 15.103"/>
    <path stroke="#4D7DF6" stroke-miterlimit="10" stroke-width=".339" d="m48.424 124.378 26.565-15.506 25.663 14.995"/>
    <path stroke="#4D7DF6" stroke-miterlimit="10" stroke-width=".339" d="m46.812 121.636 28.178-16.45 28.756 16.793"/>
    <path stroke="#4D7DF6" stroke-miterlimit="10" stroke-width=".339" d="M42.181 120.654 75 101.489l31.548 18.428"/>
    <path stroke="#4D7DF6" stroke-miterlimit="10" stroke-width=".339" d="M35.01 121.145 75 97.792l39.979 23.353"/>
    <path stroke="#4D7DF6" stroke-miterlimit="10" stroke-width=".339" d="M35.01 117.448 75 94.095l39.979 23.353"/>
    <path stroke="#4D7DF6" stroke-miterlimit="10" stroke-width=".339" d="M35.01 113.751 75 90.397l39.979 23.354"/>
    <path stroke="#4D7DF6" stroke-miterlimit="10" stroke-width=".339" d="M35.01 110.054 75 86.71l39.979 23.344"/>
    <path stroke="#4D7DF6" stroke-miterlimit="10" stroke-width=".339" d="M35.01 106.337 75 82.983l39.979 23.354"/>
    <path stroke="#4D7DF6" stroke-miterlimit="10" stroke-width=".339" d="M35.01 102.67 75 79.316l39.979 23.354"/>
    <path stroke="#4D7DF6" stroke-miterlimit="10" stroke-width=".339" d="M35.01 98.973 75 75.619l39.979 23.354"/>
    <path stroke="#4D7DF6" stroke-miterlimit="10" stroke-width=".339" d="M35.01 95.276 75 71.922l39.979 23.354"/>
    <path stroke="#4D7DF6" stroke-miterlimit="10" stroke-width=".339" d="M35.01 91.579 75 68.225l39.979 23.354"/>
    <path stroke="#4D7DF6" stroke-miterlimit="10" stroke-width=".339" d="M35.01 87.882 75 64.53l39.979 23.353"/>
    <path stroke="#4D7DF6" stroke-miterlimit="10" stroke-width=".339" d="M35.01 84.185 75 60.831l39.979 23.354"/>
    <path stroke="#4D7DF6" stroke-miterlimit="10" stroke-width=".339" d="M35.01 80.488 75 57.135l39.979 23.353"/>
    <path stroke="#4D7DF6" stroke-miterlimit="10" stroke-width=".339" d="M35.01 76.791 75 53.448l39.979 23.343"/>
    <path stroke="#4D7DF6" stroke-miterlimit="10" stroke-width=".339" d="M35.01 73.104 75 49.751l39.979 23.353"/>
    <path stroke="#4D7DF6" stroke-miterlimit="10" stroke-width=".339" d="M35.01 69.407 75 46.054l39.979 23.353"/>
    <path stroke="#4D7DF6" stroke-miterlimit="10" stroke-width=".339" d="M35.01 65.71 75 42.346l39.979 23.364"/>
    <path stroke="#4D7DF6" stroke-miterlimit="10" stroke-width=".339" d="M35.01 62.014 75 38.65l39.979 23.364"/>
    <path stroke="#4D7DF6" stroke-miterlimit="10" stroke-width=".339" d="M35.01 58.316 75 34.963l39.979 23.353"/>
    <path fill="url(#f)" d="M133.74 25.613a3.34 3.34 0 0 0-1.523-1.238L75.819 1.19a2.485 2.485 0 0 0-1.904 0L17.517 24.375c-.62.251-1.151.683-1.524 1.238a3.428 3.428 0 0 0-.57 1.905v57.92c0 10.522 6.55 27.871 25.137 42.078a195.509 195.509 0 0 0 34.278 21.138 195.518 195.518 0 0 0 34.279-21.138c18.577-14.207 25.137-31.556 25.137-42.077v-57.94a3.4 3.4 0 0 0-.514-1.886Zm-5.174 58.083c0 8.799-5.686 26.56-21.216 38.481-8.93 6.868-22.304 15.465-32.455 20.353-10.147-4.888-23.474-12.945-32.402-19.814-15.54-11.883-21.258-30.183-21.258-39.02V31.302c.004-.56.173-1.106.485-1.571.31-.466.751-.83 1.267-1.048L74.105 8.31c.254-.102.526-.153.8-.152.274-.002.546.05.8.152l51.118 20.373c.519.216.963.58 1.276 1.048.317.463.486 1.01.486 1.57l-.019 52.395Z"/>
    <path fill="url(#g)" d="M134.062 25.959a3.337 3.337 0 0 0-1.524-1.238L76.141 1.535a2.485 2.485 0 0 0-1.905 0L17.84 24.721c-.62.25-1.151.682-1.524 1.238a3.428 3.428 0 0 0-.571 1.904v57.921c0 10.522 6.55 27.871 25.137 42.077A195.507 195.507 0 0 0 75.16 149a195.532 195.532 0 0 0 34.279-21.139c18.577-14.206 25.137-31.555 25.137-42.077v-57.94a3.4 3.4 0 0 0-.514-1.885Zm-9.122 58.083c0 8.798-5.494 23.309-21.024 35.231a163.37 163.37 0 0 1-28.699 17.682 163.268 163.268 0 0 1-28.689-17.682c-15.54-11.883-21.024-26.395-21.024-35.23V35.594c.004-.56.173-1.106.485-1.571.31-.466.751-.83 1.267-1.047l47.17-19.387c.255-.102.527-.153.8-.152.275-.002.546.05.8.152l47.171 19.387c.52.215.964.58 1.277 1.047.316.463.485 1.01.485 1.571l-.019 48.447Z"/>
    <g filter="url(#h)">
      <path fill="#fff" d="M129.849 28.872a3.133 3.133 0 0 0-1.424-1.162L75.758 6.063a2.303 2.303 0 0 0-1.758 0L21.333 27.71a3.202 3.202 0 0 0-1.424 1.162 3.172 3.172 0 0 0-.526 1.757v54.092c0 9.818 6.061 26.02 23.465 39.293a182.013 182.013 0 0 0 32.03 19.737 182.007 182.007 0 0 0 32.031-19.737c17.344-13.273 23.475-29.475 23.475-39.293V30.629a3.186 3.186 0 0 0-.535-1.757Zm-1.246 56.34c0 9.334-6.805 24.728-23.29 37.375a172.746 172.746 0 0 1-30.434 18.757 173.162 173.162 0 0 1-30.435-18.757c-16.485-12.606-23.29-28-23.29-37.374V31.845a3.03 3.03 0 0 1 .515-1.667 3.03 3.03 0 0 1 1.344-1.111L74.04 8.5a2.192 2.192 0 0 1 1.677 0l51.028 20.566a3.085 3.085 0 0 1 1.353 1.11c.328.495.504 1.074.505 1.668v53.368Z"/>
    </g>
    <path fill="#1F1D20" d="M 118.428 86.182 C 118.428 93.871 113.635 106.552 100.055 116.97 C 92.254 122.974 83.852 128.152 74.983 132.423 C 66.116 128.142 57.719 122.949 49.927 116.929 C 36.347 106.544 31.554 93.862 31.554 86.14 L 31.554 43.802 C 31.555 43.313 31.7 42.836 31.97 42.429 C 32.242 42.021 32.63 41.705 33.085 41.522 C 56.747 54.915 105.383 42.161 74.309 24.572 C 74.75 24.397 75.241 24.397 75.682 24.572 L 116.905 41.522 C 117.361 41.702 117.751 42.019 118.02 42.429 C 118.293 42.835 118.441 43.312 118.445 43.802 L 118.428 86.182 Z" opacity=".15"/>
    <path fill="url(#i)" d="M118.428 82.258c0 7.69-4.793 20.371-18.373 30.789A142.488 142.488 0 0 1 74.983 128.5a141.859 141.859 0 0 1-25.055-15.494c-13.58-10.385-18.374-23.067-18.374-30.79V39.879c.002-.488.146-.966.416-1.373.272-.408.66-.724 1.115-.907l41.224-16.95a1.865 1.865 0 0 1 1.373 0l41.224 16.95c.456.18.845.498 1.115.907.273.406.42.884.424 1.373l-.017 42.38Z"/>
    <g filter="url(#j)">
      <path fill="#fff" d="M112.332 80.295c0 6.61-4.12 17.511-15.794 26.467a122.48 122.48 0 0 1-21.553 13.284 121.947 121.947 0 0 1-21.538-13.32c-11.675-8.927-15.795-19.829-15.795-26.467V67.548h74.694l-.014 12.747Z"/>
    </g>
    <path fill="#fff" d="M37.648 57.249h74.704v13.128H37.648z"/>
    <path fill="url(#k)" d="M109.432 61.366h8.993v19.253h-8.993V61.366Z"/>
    <path fill="url(#l)" d="M31.554 61.366h8.993v19.253h-8.993V61.366Z"/>
    <g filter="url(#m)" style="" transform="matrix(1.412788, 0, 0, 1.412788, -30.959246, -40.62888)">
      <path fill="#fff" d="M73.528 75.985c.137-.299.352-.555.621-.743a1.7 1.7 0 0 1 .919-.27c.33 0 .653.094.931.27.27.185.48.443.608.743l2.404 5.402a.837.837 0 0 0 .283.364c.132.094.286.15.446.163l5.996.5c.33.031.645.158.905.364.254.216.445.496.554.81.088.323.088.663 0 .986a1.729 1.729 0 0 1-.54.81l-4.484 3.728c-.122.11-.214.25-.27.405a.851.851 0 0 0 0 .486l1.35 5.618a1.688 1.688 0 0 1-.635 1.742c-.262.196-.577.31-.904.324a1.689 1.689 0 0 1-.946-.216l-5.334-3.052a.825.825 0 0 0-.864 0l-5.402 3.052a1.661 1.661 0 0 1-2.417-.891 1.662 1.662 0 0 1 0-.96l1.35-5.617a.851.851 0 0 0 0-.486 1.014 1.014 0 0 0-.27-.405l-4.483-3.728a1.701 1.701 0 0 1-.54-.823 1.823 1.823 0 0 1 0-.973 1.69 1.69 0 0 1 1.471-1.175l5.996-.5a.892.892 0 0 0 .446-.162.986.986 0 0 0 .297-.364l2.512-5.402Z"/>
      <path stroke="#fff" stroke-width="1.442" d="M75.067 74.251c.467 0 .924.133 1.318.382l.011.007.011.008c.38.26.677.622.859 1.044l2.404 5.402.005.012.005.013c.007.018.02.034.035.046a.171.171 0 0 0 .083.03h.002l5.996.5h.01a2.45 2.45 0 0 1 1.282.517l.01.008.01.009c.308.262.55.591.706.962l.062.162.008.023.007.023c.121.447.121.918 0 1.364l-.008.026a2.45 2.45 0 0 1-.766 1.148l-.002.002-4.458 3.705-.046.054a.285.285 0 0 0-.022.042.13.13 0 0 0-.002.02l.005.037.006.019.004.019 1.35 5.618.001.002a2.411 2.411 0 0 1-.905 2.484c-.373.281-.823.443-1.29.467h-.004l-.01.002v-.001a2.407 2.407 0 0 1-1.333-.309h-.003l-5.334-3.054-.01-.005-.01-.006a.103.103 0 0 0-.054-.016.103.103 0 0 0-.054.016l-.023.013L69.52 98.1a2.38 2.38 0 0 1-3.454-1.286l-.007-.025a2.38 2.38 0 0 1-.011-1.335l1.35-5.618.004-.02.006-.018a.13.13 0 0 0 .002-.057.291.291 0 0 0-.067-.096h-.001l-4.457-3.705-.002-.002a2.423 2.423 0 0 1-.712-1.003l-.06-.182a2.543 2.543 0 0 1 0-1.356l.003-.013.004-.011a2.41 2.41 0 0 1 2.1-1.677l5.996-.5h.002a.17.17 0 0 0 .078-.028.261.261 0 0 0 .068-.085l2.512-5.4c.19-.416.49-.772.864-1.032l.011-.007.01-.008c.39-.25.845-.383 1.308-.384Z"/>
    </g>
    <path fill="url(#n)" d="M 72.92 66.722 C 73.114 66.299 73.418 65.938 73.798 65.672 C 74.185 65.423 74.636 65.291 75.096 65.291 C 75.562 65.291 76.018 65.423 76.411 65.672 C 76.793 65.933 77.089 66.298 77.27 66.722 L 80.667 74.354 C 80.749 74.559 80.888 74.737 81.066 74.868 C 81.253 75.001 81.47 75.08 81.696 75.098 L 90.168 75.805 C 90.634 75.848 91.079 76.028 91.446 76.319 C 91.805 76.624 92.075 77.02 92.229 77.463 C 92.353 77.92 92.353 78.4 92.229 78.856 C 92.089 79.303 91.825 79.7 91.466 80.001 L 85.131 85.267 C 84.959 85.423 84.829 85.621 84.75 85.84 C 84.683 86.064 84.683 86.302 84.75 86.526 L 86.657 94.463 C 86.875 95.389 86.523 96.356 85.76 96.924 C 85.39 97.201 84.944 97.362 84.482 97.382 C 84.017 97.413 83.552 97.307 83.146 97.077 L 75.61 92.765 C 75.236 92.535 74.764 92.535 74.39 92.765 L 66.758 97.077 C 65.478 97.834 63.825 97.225 63.343 95.818 C 63.21 95.376 63.21 94.904 63.343 94.462 L 65.25 86.526 C 65.317 86.302 65.317 86.064 65.25 85.84 C 65.171 85.621 65.04 85.424 64.869 85.267 L 58.535 80.001 C 58.172 79.697 57.906 79.292 57.772 78.838 C 57.648 78.388 57.648 77.913 57.772 77.463 C 58.064 76.54 58.885 75.884 59.851 75.803 L 68.322 75.097 C 68.548 75.079 68.766 75 68.952 74.868 C 69.131 74.733 69.275 74.556 69.371 74.354 L 72.92 66.722 L 72.92 66.722 Z" style=""/>
  </g>
  <defs>
    <linearGradient id="b" x1="101.073" x2="100.796" y1="-28.355" y2="227.258" gradientUnits="userSpaceOnUse">
      <stop offset="0.032"/>
      <stop offset="0.384" stop-color="#091F2C"/>
      <stop offset="0.983" stop-color="#0078D4"/>
    </linearGradient>
    <linearGradient id="c" x1="69.116" x2="70.37" y1="7.014" y2="206.784" gradientUnits="userSpaceOnUse">
      <stop offset="0.088"/>
      <stop offset="0.476" stop-color="#091F2C"/>
      <stop offset="0.89" stop-color="#0078D4"/>
    </linearGradient>
    <linearGradient id="d" x1="69.609" x2="70.108" y1="-19.331" y2="130.116" gradientUnits="userSpaceOnUse">
      <stop offset="0.088"/>
      <stop offset="0.572" stop-color="#091F2C"/>
      <stop offset="1" stop-color="#0078D4"/>
    </linearGradient>
    <linearGradient id="e" x1="80.339" x2="84.054" y1="-41.088" y2="198.453" gradientUnits="userSpaceOnUse">
      <stop offset="0.088"/>
      <stop offset="0.541" stop-color="#091F2C"/>
      <stop offset="0.803" stop-color="#04528C"/>
    </linearGradient>
    <linearGradient id="f" x1="47.678" x2="354.641" y1="-170.269" y2="-73.609" gradientUnits="userSpaceOnUse">
      <stop offset="0.167" stop-color="#FF5C39"/>
      <stop offset="0.381" stop-color="#F4364C"/>
      <stop offset="0.605" stop-color="#C73ECC"/>
      <stop offset="0.834" stop-color="#0078D4"/>
    </linearGradient>
    <linearGradient id="g" x1="48" x2="354.963" y1="-169.924" y2="-73.263" gradientUnits="userSpaceOnUse">
      <stop offset="0.167" stop-color="#FF5C39"/>
      <stop offset="0.381" stop-color="#F4364C"/>
      <stop offset="0.605" stop-color="#C73ECC"/>
      <stop offset="0.834" stop-color="#0078D4"/>
    </linearGradient>
    <linearGradient id="i" x1="73.193" x2="75.67" y1="26.64" y2="195.703" gradientUnits="userSpaceOnUse">
      <stop offset="0.2" stop-color="#fff"/>
      <stop offset="0.63" stop-color="#F4F3F5"/>
      <stop offset="1" stop-color="#E8E6DF"/>
    </linearGradient>
    <linearGradient id="k" x1="113.928" x2="113.928" y1="61.366" y2="80.619" gradientUnits="userSpaceOnUse">
      <stop offset="0.294" stop-color="#fff"/>
      <stop offset="0.866" stop-color="#fff" stop-opacity="0"/>
    </linearGradient>
    <linearGradient id="l" x1="36.051" x2="36.051" y1="61.366" y2="80.619" gradientUnits="userSpaceOnUse">
      <stop offset="0.294" stop-color="#fff"/>
      <stop offset="0.866" stop-color="#fff" stop-opacity="0"/>
    </linearGradient>
    <linearGradient id="n" x1="59.733" x2="92.714" y1="71.856" y2="116.797" gradientUnits="userSpaceOnUse" gradientTransform="matrix(1.412788, 0, 0, 1.412788, -30.959246, -40.62888)">
      <stop offset="0.11" stop-color="#FF5C39"/>
      <stop offset="0.33" stop-color="#F4364C"/>
      <stop offset="0.6" stop-color="#C73ECC"/>
      <stop offset="1" stop-color="#0078D4"/>
    </linearGradient>
    <filter id="h" width="125.804" height="153.652" x="17.41" y="4.902" color-interpolation-filters="sRGB" filterUnits="userSpaceOnUse">
      <feFlood flood-opacity="0" result="BackgroundImageFix"/>
      <feColorMatrix in="SourceAlpha" result="hardAlpha" values="0 0 0 0 0 0 0 0 0 0 0 0 0 0 0 0 0 0 127 0"/>
      <feOffset dy=".987"/>
      <feGaussianBlur stdDeviation=".987"/>
      <feColorMatrix values="0 0 0 0 0 0 0 0 0 0 0 0 0 0 0 0 0 0 0.1 0"/>
      <feBlend in2="BackgroundImageFix" result="effect1_dropShadow_35_111"/>
      <feColorMatrix in="SourceAlpha" result="hardAlpha" values="0 0 0 0 0 0 0 0 0 0 0 0 0 0 0 0 0 0 127 0"/>
      <feOffset dx="1.974" dy="1.974"/>
      <feGaussianBlur stdDeviation="1.48"/>
      <feColorMatrix values="0 0 0 0 0 0 0 0 0 0 0 0 0 0 0 0 0 0 0.09 0"/>
      <feBlend in2="effect1_dropShadow_35_111" result="effect2_dropShadow_35_111"/>
      <feColorMatrix in="SourceAlpha" result="hardAlpha" values="0 0 0 0 0 0 0 0 0 0 0 0 0 0 0 0 0 0 127 0"/>
      <feOffset dx="3.947" dy="5.921"/>
      <feGaussianBlur stdDeviation="1.974"/>
      <feColorMatrix values="0 0 0 0 0 0 0 0 0 0 0 0 0 0 0 0 0 0 0.05 0"/>
      <feBlend in2="effect2_dropShadow_35_111" result="effect3_dropShadow_35_111"/>
      <feColorMatrix in="SourceAlpha" result="hardAlpha" values="0 0 0 0 0 0 0 0 0 0 0 0 0 0 0 0 0 0 127 0"/>
      <feOffset dx="7.895" dy="9.868"/>
      <feGaussianBlur stdDeviation="2.467"/>
      <feColorMatrix values="0 0 0 0 0 0 0 0 0 0 0 0 0 0 0 0 0 0 0.01 0"/>
      <feBlend in2="effect3_dropShadow_35_111" result="effect4_dropShadow_35_111"/>
      <feBlend in="SourceGraphic" in2="effect4_dropShadow_35_111" result="shape"/>
    </filter>
    <filter id="j" width="89.497" height="68.287" x="35.678" y="66.561" color-interpolation-filters="sRGB" filterUnits="userSpaceOnUse">
      <feFlood flood-opacity="0" result="BackgroundImageFix"/>
      <feColorMatrix in="SourceAlpha" result="hardAlpha" values="0 0 0 0 0 0 0 0 0 0 0 0 0 0 0 0 0 0 127 0"/>
      <feOffset dy=".987"/>
      <feGaussianBlur stdDeviation=".987"/>
      <feColorMatrix values="0 0 0 0 0 0 0 0 0 0 0 0 0 0 0 0 0 0 0.1 0"/>
      <feBlend in2="BackgroundImageFix" result="effect1_dropShadow_35_111"/>
      <feColorMatrix in="SourceAlpha" result="hardAlpha" values="0 0 0 0 0 0 0 0 0 0 0 0 0 0 0 0 0 0 127 0"/>
      <feOffset dx="1.974" dy="1.974"/>
      <feGaussianBlur stdDeviation="1.48"/>
      <feColorMatrix values="0 0 0 0 0 0 0 0 0 0 0 0 0 0 0 0 0 0 0.09 0"/>
      <feBlend in2="effect1_dropShadow_35_111" result="effect2_dropShadow_35_111"/>
      <feColorMatrix in="SourceAlpha" result="hardAlpha" values="0 0 0 0 0 0 0 0 0 0 0 0 0 0 0 0 0 0 127 0"/>
      <feOffset dx="3.947" dy="5.921"/>
      <feGaussianBlur stdDeviation="1.974"/>
      <feColorMatrix values="0 0 0 0 0 0 0 0 0 0 0 0 0 0 0 0 0 0 0.05 0"/>
      <feBlend in2="effect2_dropShadow_35_111" result="effect3_dropShadow_35_111"/>
      <feColorMatrix in="SourceAlpha" result="hardAlpha" values="0 0 0 0 0 0 0 0 0 0 0 0 0 0 0 0 0 0 127 0"/>
      <feOffset dx="7.895" dy="9.868"/>
      <feGaussianBlur stdDeviation="2.467"/>
      <feColorMatrix values="0 0 0 0 0 0 0 0 0 0 0 0 0 0 0 0 0 0 0.01 0"/>
      <feBlend in2="effect3_dropShadow_35_111" result="effect4_dropShadow_35_111"/>
      <feBlend in="SourceGraphic" in2="effect4_dropShadow_35_111" result="shape"/>
    </filter>
    <filter id="m" width="30.77" height="30.901" x="60.336" y="73.53" color-interpolation-filters="sRGB" filterUnits="userSpaceOnUse">
      <feFlood flood-opacity="0" result="BackgroundImageFix"/>
      <feColorMatrix in="SourceAlpha" result="hardAlpha" values="0 0 0 0 0 0 0 0 0 0 0 0 0 0 0 0 0 0 127 0"/>
      <feOffset dy=".481"/>
      <feGaussianBlur stdDeviation=".24"/>
      <feColorMatrix values="0 0 0 0 0 0 0 0 0 0 0 0 0 0 0 0 0 0 0.1 0"/>
      <feBlend in2="BackgroundImageFix" result="effect1_dropShadow_35_111"/>
      <feColorMatrix in="SourceAlpha" result="hardAlpha" values="0 0 0 0 0 0 0 0 0 0 0 0 0 0 0 0 0 0 127 0"/>
      <feOffset dx=".481" dy=".961"/>
      <feGaussianBlur stdDeviation=".481"/>
      <feColorMatrix values="0 0 0 0 0 0 0 0 0 0 0 0 0 0 0 0 0 0 0.09 0"/>
      <feBlend in2="effect1_dropShadow_35_111" result="effect2_dropShadow_35_111"/>
      <feColorMatrix in="SourceAlpha" result="hardAlpha" values="0 0 0 0 0 0 0 0 0 0 0 0 0 0 0 0 0 0 127 0"/>
      <feOffset dx=".481" dy="2.403"/>
      <feGaussianBlur stdDeviation=".721"/>
      <feColorMatrix values="0 0 0 0 0 0 0 0 0 0 0 0 0 0 0 0 0 0 0.05 0"/>
      <feBlend in2="effect2_dropShadow_35_111" result="effect3_dropShadow_35_111"/>
      <feColorMatrix in="SourceAlpha" result="hardAlpha" values="0 0 0 0 0 0 0 0 0 0 0 0 0 0 0 0 0 0 127 0"/>
      <feOffset dx=".961" dy="3.845"/>
      <feGaussianBlur stdDeviation=".721"/>
      <feColorMatrix values="0 0 0 0 0 0 0 0 0 0 0 0 0 0 0 0 0 0 0.01 0"/>
      <feBlend in2="effect3_dropShadow_35_111" result="effect4_dropShadow_35_111"/>
      <feBlend in="SourceGraphic" in2="effect4_dropShadow_35_111" result="shape"/>
    </filter>
    <clipPath id="a">
      <path fill="#fff" d="M0 0h150v150H0z"/>
    </clipPath>
  </defs>
</svg>