<?xml version="1.0" encoding="utf-8"?>
<svg width="600pt" height="600pt" viewBox="0 0 600 600" version="1.1" xmlns="http://www.w3.org/2000/svg">
  <path fill="#0064b5" opacity="1.00" d="M 117.626 388.479 C 242.656 370.529 370.226 370.529 495.246 388.479 C 495.416 408.349 483.05 433.92 472.86 450.9 C 456.48 478.31 431.97 499.79 406.04 517.92 C 373.19 540.47 337.31 558.53 300.01 572.49 C 268.41 560.99 237.93 546.31 209.32 528.64 C 192.52 518.2 176.44 506.52 161.82 493.17 C 145.5 478.16 130.82 460.84 121.44 440.59 C 114.59 426.22 108.2 406.855 108.22 390.955"/>
  <path fill="#002050" opacity="1.00" d="M 90.33 397.58 C 87.589 385.622 114.311 385.874 111.19 394.42 C 111.17 410.32 114.59 426.22 121.44 440.59 C 130.82 460.84 145.5 478.16 161.82 493.17 C 176.44 506.52 192.52 518.2 209.32 528.64 C 237.93 546.31 268.41 560.99 300.01 572.49 C 337.31 558.53 373.19 540.47 406.04 517.92 C 431.97 499.79 456.48 478.31 472.86 450.9 C 483.05 433.92 488.98 414.29 488.81 394.42 C 494.434 390.504 503.229 393.322 509.999 394.522 L 509.85 397.67 C 509.29 417.55 504.08 437.22 494.64 454.72 C 479.46 483.44 455.78 506.67 430.19 526.23 C 397.47 550.97 360.96 570.38 323.14 586.07 C 315.57 589.2 307.9 592.04 300.15 594.67 C 281.92 588.76 264.27 581.22 246.96 573.05 C 214.01 557.25 182.28 538.4 154.46 514.59 C 135.81 498.46 118.86 479.92 106.9 458.24 C 96.61 439.75 90.46 418.8 90.33 397.58 Z"/>
  <path fill="#002050" opacity="1.00" d="M 280.95 9.24 C 293.8 5.49 307.73 5.66 320.5 9.65 C 372.95 25.56 425.44 41.37 477.9 57.25 C 490.5 61.04 501.17 70.69 506.16 82.87 C 508.79 88.9 509.76 95.52 509.76 102.06 C 509.74 139.11 509.76 180.11 509.75 217.16 C 372.504 202.843 230.081 201.909 90.25 218.646 C 90.28 180.606 90.17 137.11 90.31 99.07 C 90.62 80.5 103.59 62.99 121.36 57.49 C 174.54 41.37 227.76 25.35 280.95 9.24"/>
  <path fill="#ffffff" opacity="1.00" d="M 239.65 211.84 C 345.3 207.69 451.42 214.46 555.61 232.61 C 565.25 234.29 574.37 243.67 572.15 253.95 C 564.54 294.05 556.89 334.13 549.21 374.22 C 547.43 383.68 537.22 390.28 527.85 388.39 C 377.41 362.47 222.56 362.47 72.11 388.4 C 62.79 390.25 52.64 383.73 50.81 374.32 C 43.25 335.08 35.85 295.8 28.31 256.55 C 27.75 253.42 27.01 250.16 27.97 247.04 C 30.08 239.3 37.35 233.71 45.11 232.46 C 109.41 221.33 174.45 214.51 239.65 211.84"/>
  <path fill="#505050" opacity="1.00" d="M 90.25 213.2 C 229.19 193.79 370.81 193.8 509.75 213.2 C 523.32 215.11 536.86 217.21 550.38 219.46 C 554.82 220.24 559.37 220.75 563.61 222.39 C 573.81 226.11 582.17 235.13 584.07 245.95 C 585.17 250.97 584.1 256.07 583.1 261.01 C 575.75 299.41 568.45 337.82 561.11 376.22 C 559.36 385.98 552.35 394.46 543.23 398.24 C 532.3 403.22 520.42 398.84 509.2 397.56 C 502.43 396.36 495.62 395.4 488.81 394.42 C 363.79 376.47 236.22 376.47 111.19 394.42 C 104.23 395.41 97.27 396.46 90.33 397.58 C 80.94 398.57 71.52 402.19 62.05 399.95 C 50.84 397.53 41.33 388.33 39.07 377.01 C 31.35 336.98 23.79 296.91 16.11 256.87 C 14.69 250.43 15.68 243.55 18.76 237.72 C 23.39 228.7 32.6 222.46 42.5 220.69 C 58.37 217.92 74.3 215.46 90.25 213.2 M 239.65 211.84 C 174.45 214.51 109.41 221.33 45.11 232.46 C 37.35 233.71 30.08 239.3 27.97 247.04 C 27.01 250.16 27.75 253.42 28.31 256.55 C 35.85 295.8 43.25 335.08 50.81 374.32 C 52.64 383.73 62.79 390.25 72.11 388.4 C 222.56 362.47 377.41 362.47 527.85 388.39 C 537.22 390.28 547.43 383.68 549.21 374.22 C 556.89 334.13 564.54 294.05 572.15 253.95 C 574.37 243.67 565.25 234.29 555.61 232.61 C 451.42 214.46 345.3 207.69 239.65 211.84 Z"/>
  <path d="M 296.979 439.754 C 297.959 436.897 302.245 436.897 303.229 439.754 L 312.639 467.14 C 313.079 468.42 314.341 469.289 315.767 469.289 L 346.238 469.289 C 349.419 469.289 350.741 473.14 348.17 474.903 L 323.515 491.832 C 322.367 492.621 321.886 494.024 322.326 495.303 L 331.743 522.689 C 332.722 525.547 329.259 527.923 326.683 526.161 L 302.034 509.232 C 300.884 508.443 299.318 508.443 298.17 509.232 L 273.52 526.161 C 270.944 527.923 267.481 525.547 268.467 522.689 L 277.878 495.303 C 278.317 494.024 277.837 492.621 276.687 491.832 L 252.038 474.903 C 249.462 473.14 250.784 469.289 253.964 469.289 L 284.435 469.289 C 285.862 469.289 287.123 468.42 287.563 467.14 L 296.979 439.754 Z" stroke-linecap="round" stroke-linejoin="round" style="fill-rule: nonzero; fill: rgb(255, 255, 255); stroke: rgb(255, 255, 255);"/>
  <path d="M 389.9 402.143 C 390.88 399.286 395.166 399.286 396.15 402.143 L 405.56 429.529 C 406 430.809 407.262 431.678 408.688 431.678 L 439.159 431.678 C 442.34 431.678 443.662 435.529 441.091 437.292 L 416.436 454.221 C 415.288 455.01 414.807 456.413 415.247 457.692 L 424.664 485.078 C 425.643 487.936 422.18 490.312 419.604 488.55 L 394.955 471.621 C 393.805 470.832 392.239 470.832 391.091 471.621 L 366.441 488.55 C 363.865 490.312 360.402 487.936 361.388 485.078 L 370.799 457.692 C 371.238 456.413 370.758 455.01 369.608 454.221 L 344.959 437.292 C 342.383 435.529 343.705 431.678 346.885 431.678 L 377.356 431.678 C 378.783 431.678 380.044 430.809 380.484 429.529 L 389.9 402.143 Z" stroke-linecap="round" stroke-linejoin="round" style="fill-rule: nonzero; fill: rgb(255, 255, 255); stroke: rgb(255, 255, 255);"/>
  <path d="M 204.031 402.143 C 205.011 399.286 209.297 399.286 210.281 402.143 L 219.691 429.529 C 220.131 430.809 221.393 431.678 222.819 431.678 L 253.29 431.678 C 256.471 431.678 257.793 435.529 255.222 437.292 L 230.567 454.221 C 229.419 455.01 228.938 456.413 229.378 457.692 L 238.795 485.078 C 239.774 487.936 236.311 490.312 233.735 488.55 L 209.086 471.621 C 207.936 470.832 206.37 470.832 205.222 471.621 L 180.572 488.55 C 177.996 490.312 174.533 487.936 175.519 485.078 L 184.93 457.692 C 185.369 456.413 184.889 455.01 183.739 454.221 L 159.09 437.292 C 156.514 435.529 157.836 431.678 161.016 431.678 L 191.487 431.678 C 192.914 431.678 194.175 430.809 194.615 429.529 L 204.031 402.143 Z" stroke-linecap="round" stroke-linejoin="round" style="fill-rule: nonzero; fill: rgb(255, 255, 255); stroke: rgb(255, 255, 255);"/>
</svg>