<?xml version="1.0" encoding="utf-8"?>
<svg viewBox="0 0 300 300" xmlns="http://www.w3.org/2000/svg">
  <path d="M283.38 118.47a16.44 16.44 0 00-10.75-6.69q-11.26-1.95-22.56-3.52V54.43A21.54 21.54 0 00235.49 34l-.16-.05h-.17l-74.74-22.61A32.63 32.63 0 00150 9.64a32.58 32.58 0 00-10.41 1.7L64.84 33.93h-.17l-.16.05a21.54 21.54 0 00-14.58 20.4v53.83q-11.3 1.58-22.56 3.52a16.44 16.44 0 00-10.75 6.69 13.48 13.48 0 00-2.25 10.25l11 57.39a14.64 14.64 0 0016.82 11.47c2.6-.45 5.2-.87 7.81-1.29.15 14.32 5.62 28.23 16.3 41.36 8.15 10 19.37 19.62 33.34 28.52a244.66 244.66 0 0047.18 23.07l3.28 1.12 3.27-1.15a250.23 250.23 0 0047.12-23.35c14-9 25.17-18.56 33.3-28.53 10.68-13.09 16.16-26.9 16.31-41 2.61.42 5.21.84 7.81 1.29a14.92 14.92 0 002.48.21 14.62 14.62 0 0014.34-11.69l10.95-57.37a13.49 13.49 0 00-2.3-10.25z" fill="#002050"/>
  <path d="M60 194.35v1.34c0 53.33 90 84.06 90 84.06s90-31.52 90-84.06v-.91a633.88 633.88 0 00-180-.43z" fill="#0064b5"/>
  <path d="M 99.209 193.91 L 104.64 210.621 L 122.226 210.621 L 108.002 220.949 L 113.433 237.659 L 99.209 227.332 L 84.985 237.659 L 90.416 220.949 L 76.192 210.621 L 93.779 210.621 L 99.209 193.91 Z M 200.794 192.641 L 206.224 209.352 L 223.798 209.352 L 209.587 219.68 L 215.017 236.391 L 200.794 226.062 L 186.57 236.391 L 192 219.68 L 177.777 209.352 L 195.362 209.352 L 200.794 192.641 Z M 150.002 208.996 L 155.977 227.37 L 175.315 227.37 L 159.67 238.738 L 165.647 257.111 L 150.002 245.755 L 134.356 257.111 L 140.333 238.738 L 124.688 227.37 L 144.025 227.37 L 150.002 208.996 Z" fill="#fff" style=""/>
  <path d="M283.38 118.47a16.44 16.44 0 00-10.75-6.69Q256.35 109 240 106.93a720.59 720.59 0 00-180.08 0q-16.28 2.07-32.55 4.85a16.44 16.44 0 00-10.75 6.69 13.48 13.48 0 00-2.25 10.25l11 57.39a14.64 14.64 0 0016.82 11.47q10.39-1.79 20.82-3.23a634.26 634.26 0 01180.08.86q7.43 1.09 14.82 2.37a14.92 14.92 0 002.48.21 14.62 14.62 0 0014.34-11.69l10.95-57.37a13.49 13.49 0 00-2.3-10.26z" fill="#505050"/>
  <path d="M271.66 117.42a716.06 716.06 0 00-243.31 0 10.69 10.69 0 00-7 4.31 7.8 7.8 0 00-1.35 5.91L31 185a8.86 8.86 0 0010.22 6.91 640.15 640.15 0 01217.66 0 8.89 8.89 0 0010.18-6.91L280 127.65a7.77 7.77 0 00-1.33-5.92 10.69 10.69 0 00-7.01-4.31z" fill="#fff"/>
</svg>