<?xml version="1.0" encoding="utf-8"?>
<svg width="600pt" height="600pt" viewBox="0 0 600 600" version="1.1" xmlns="http://www.w3.org/2000/svg" xmlns:bx="https://boxy-svg.com">
  <defs>
    <bx:guide x="300.15" y="209.571" angle="0"/>
  </defs>
  <g id="#002050ff">
    <path fill="#002050" opacity="1.00" d="M 280.93 9.24 C 293.29 5.63 306.66 5.63 319.02 9.22 C 372.22 25.33 425.45 41.36 478.65 57.49 C 496.42 62.99 509.39 80.5 509.69 99.07 C 509.84 137.11 509.71 175.15 509.75 213.19 C 517.089 221.79 483.785 218.653 471.704 213.838 C 471.574 177.398 465.273 139.977 465.193 103.547 C 465.433 93.047 471.641 87.376 461.481 84.496 C 408.751 68.526 361.451 55.114 308.741 39.134 C 300.171 36.574 295.845 35.107 287.285 37.667 C 234.575 53.617 189.773 69.527 137.063 85.477 C 126.923 88.337 123.706 96.931 123.906 107.401 C 123.826 143.871 114.543 179.35 114.433 215.81 C 107.003 217.861 95.272 218.335 90.25 213.19 C 90.29 175.15 90.17 137.11 90.31 99.08 C 90.61 80.48 103.62 62.95 121.42 57.47 C 174.58 41.36 227.77 25.34 280.93 9.24 Z"/>
    <path fill="#002050" opacity="1.00" d="M 90.57 397.78 C 89.895 391.487 102.672 387.468 112.141 387.989 C 112.231 400.569 123.119 415.141 127.519 426.961 C 135.789 449.521 146.45 468.901 163.68 485.371 C 178.15 499.131 192.744 508.664 209.574 519.384 C 238.454 537.674 262.447 546.243 294.447 558.223 C 297.147 559.613 304.386 562.492 306.956 561.582 C 343.086 547.402 371.05 531.674 402.89 509.384 C 427.74 491.734 449.664 471.389 465.564 445.079 C 475.984 427.949 480.052 408.109 479.932 387.989 C 486.812 389.099 502.72 396.14 509.5 397.82 C 509.52 398.4 509.54 399.56 509.56 400.14 C 509.13 420.71 502.59 440.82 492.53 458.65 C 477.34 485.33 455.01 507.21 430.81 525.76 C 397.75 550.86 360.8 570.49 322.52 586.33 C 315.17 589.36 307.7 592.06 300.19 594.67 C 281.71 588.72 263.85 581.02 246.3 572.74 C 212.3 556.36 179.55 536.74 151.17 511.71 C 132.92 495.44 116.48 476.72 105.13 454.94 C 96.35 438.05 90.83 419.25 90.45 400.16 C 90.48 399.56 90.54 398.37 90.57 397.78 Z"/>
  </g>
  <g id="#505050ff">
    <path opacity="1.00" d="M 286.8 29.74 C 295.36 27.18 304.64 27.16 313.21 29.72 C 365.92 45.7 418.67 61.59 471.4 77.56 C 481.56 80.44 488.73 90.57 488.49 101.07 C 488.57 137.5 488.951 179.138 489.081 215.578 C 492.611 216.058 396.896 205.412 300.859 205.411 C 204.819 205.41 106.893 215.532 110.428 215.047 C 110.538 178.587 111.45 137.43 111.53 100.96 C 111.33 90.49 118.51 80.41 128.65 77.55 C 181.36 61.6 234.09 45.69 286.8 29.74" style="fill: rgb(255, 255, 255);"/>
    <path fill="#ffffff" opacity="1.00" d="M 239.65 211.84 C 345.3 207.69 451.42 214.46 555.61 232.61 C 565.25 234.29 574.37 243.67 572.15 253.95 C 564.54 294.05 556.89 334.13 549.21 374.22 C 547.43 383.68 537.22 390.28 527.85 388.39 C 377.41 362.47 222.56 362.47 72.11 388.4 C 62.79 390.25 52.64 383.73 50.81 374.32 C 43.25 335.08 35.85 295.8 28.31 256.55 C 27.75 253.42 27.01 250.16 27.97 247.04 C 30.08 239.3 37.35 233.71 45.11 232.46 C 109.41 221.33 174.45 214.51 239.65 211.84"/>
    <path fill="#505050" opacity="1.00" d="M 90.16 213.202 C 229.097 193.792 370.717 193.802 509.657 213.202 C 523.227 215.112 536.767 217.212 550.287 219.462 C 554.727 220.242 559.277 220.752 563.517 222.392 C 573.717 226.112 582.079 235.132 583.979 245.952 C 585.079 250.972 584.009 256.072 583.009 261.012 C 575.657 299.412 568.357 337.822 561.017 376.222 C 559.267 385.982 552.257 394.462 543.137 398.242 C 532.207 403.222 520.327 398.842 509.107 397.562 C 502.337 396.362 495.527 395.402 488.717 394.422 C 363.697 376.472 236.127 376.472 111.1 394.422 C 104.14 395.412 97.18 396.462 90.24 397.582 C 80.85 398.572 71.43 402.192 61.96 399.952 C 50.75 397.532 41.24 388.332 38.98 377.012 C 31.26 336.982 23.7 296.912 16.02 256.872 C 14.6 250.432 15.59 243.552 18.67 237.722 C 23.3 228.702 32.51 222.462 42.41 220.692 C 58.28 217.922 74.21 215.462 90.16 213.202 M 239.557 211.842 C 174.357 214.512 109.32 221.332 45.02 232.462 C 37.26 233.712 29.99 239.302 27.88 247.042 C 26.92 250.162 27.66 253.422 28.22 256.552 C 35.76 295.802 43.16 335.082 50.72 374.322 C 52.55 383.732 62.7 390.252 72.02 388.402 C 222.467 362.472 377.317 362.472 527.757 388.392 C 537.127 390.282 547.337 383.682 549.117 374.222 C 556.797 334.132 564.447 294.052 572.057 253.952 C 574.277 243.672 565.157 234.292 555.517 232.612 C 451.327 214.462 345.207 207.692 239.557 211.842 Z"/>
  </g>
  <g id="#0064b5ff">
    <path fill="#0064b5" opacity="1.00" d="M 111.15 394.43 C 236.2 376.47 363.8 376.47 488.85 394.43 C 488.97 414.55 482.92 434.39 472.5 451.52 C 456.6 477.83 433.19 498.67 408.34 516.32 C 376.5 538.61 341.6 556.32 305.47 570.5 C 302.9 571.41 300.12 572.99 297.42 571.6 C 265.42 559.62 234.49 544.61 205.61 526.32 C 188.78 515.6 172.7 503.59 158.23 489.83 C 141 473.36 125.88 453.98 117.61 431.42 C 113.21 419.6 111.24 407.01 111.15 394.43"/>
  </g>
  <path d="M 296.841 426.989 C 297.821 424.132 302.107 424.132 303.091 426.989 L 312.501 454.375 C 312.941 455.655 314.203 456.524 315.629 456.524 L 346.1 456.524 C 349.281 456.524 350.603 460.375 348.032 462.138 L 323.377 479.067 C 322.229 479.856 321.748 481.259 322.188 482.538 L 331.605 509.924 C 332.584 512.782 329.121 515.158 326.545 513.396 L 301.896 496.467 C 300.746 495.678 299.18 495.678 298.032 496.467 L 273.382 513.396 C 270.806 515.158 267.343 512.782 268.329 509.924 L 277.74 482.538 C 278.179 481.259 277.699 479.856 276.549 479.067 L 251.9 462.138 C 249.324 460.375 250.646 456.524 253.826 456.524 L 284.297 456.524 C 285.724 456.524 286.985 455.655 287.425 454.375 L 296.841 426.989 Z" stroke-linecap="round" stroke-linejoin="round" style="fill-rule: nonzero; fill: rgb(255, 255, 255); stroke: rgb(255, 255, 255);"/>
</svg>