<?xml version="1.0" encoding="utf-8"?>
<svg width="600pt" height="600pt" viewBox="0 0 600 600" version="1.1" xmlns="http://www.w3.org/2000/svg" xmlns:bx="https://boxy-svg.com">
  <defs>
    <bx:guide x="300.15" y="209.571" angle="0"/>
  </defs>
  <g id="#002050ff">
    <path fill="#002050" opacity="1.00" d="M 280.93 9.24 C 293.29 5.63 306.66 5.63 319.02 9.22 C 372.22 25.33 425.45 41.36 478.65 57.49 C 496.42 62.99 509.39 80.5 509.69 99.07 C 509.84 137.11 509.71 175.15 509.75 213.19 C 517.089 221.79 483.785 218.653 471.704 213.838 C 471.574 177.398 465.273 139.977 465.193 103.547 C 465.433 93.047 471.641 87.376 461.481 84.496 C 408.751 68.526 361.451 55.114 308.741 39.134 C 300.171 36.574 295.845 35.107 287.285 37.667 C 234.575 53.617 189.773 69.527 137.063 85.477 C 126.923 88.337 123.706 96.931 123.906 107.401 C 123.826 143.871 114.543 179.35 114.433 215.81 C 107.003 217.861 95.272 218.335 90.25 213.19 C 90.29 175.15 90.17 137.11 90.31 99.08 C 90.61 80.48 103.62 62.95 121.42 57.47 C 174.58 41.36 227.77 25.34 280.93 9.24 Z"/>
    <path fill="#002050" opacity="1.00" d="M 90.57 397.78 C 89.895 391.487 102.672 387.468 112.141 387.989 C 112.231 400.569 123.119 415.141 127.519 426.961 C 135.789 449.521 146.45 468.901 163.68 485.371 C 178.15 499.131 192.744 508.664 209.574 519.384 C 238.454 537.674 262.447 546.243 294.447 558.223 C 297.147 559.613 304.386 562.492 306.956 561.582 C 343.086 547.402 371.05 531.674 402.89 509.384 C 427.74 491.734 449.664 471.389 465.564 445.079 C 475.984 427.949 480.052 408.109 479.932 387.989 C 486.812 389.099 502.72 396.14 509.5 397.82 C 509.52 398.4 509.54 399.56 509.56 400.14 C 509.13 420.71 502.59 440.82 492.53 458.65 C 477.34 485.33 455.01 507.21 430.81 525.76 C 397.75 550.86 360.8 570.49 322.52 586.33 C 315.17 589.36 307.7 592.06 300.19 594.67 C 281.71 588.72 263.85 581.02 246.3 572.74 C 212.3 556.36 179.55 536.74 151.17 511.71 C 132.92 495.44 116.48 476.72 105.13 454.94 C 96.35 438.05 90.83 419.25 90.45 400.16 C 90.48 399.56 90.54 398.37 90.57 397.78 Z"/>
  </g>
  <g id="#505050ff">
    <path opacity="1.00" d="M 300 184.751 L 488.55 210.37 C 495.61 211.33 502.69 212.22 509.75 213.19 C 523.35 215.12 536.91 217.22 550.46 219.46 C 554.89 220.24 559.42 220.77 563.65 222.4 C 573.84 226.13 582.2 235.16 584.08 245.99 C 585.4 252.05 583.56 258.12 582.51 264.07 C 575.3 301.73 568.19 339.41 560.92 377.06 C 558 392.18 542.03 402.87 526.94 400.42 C 521.27 399.54 515.65 398.44 509.97 397.67 C 509.86 398.29 509.66 399.52 509.56 400.14 C 509.54 399.56 509.52 398.4 509.5 397.82 C 502.72 396.14 495.779 395.171 488.85 394.43 C 364.65 381.143 237.927 385.967 111.15 394.43 C 104.216 394.893 97.34 396.14 90.57 397.78 C 90.54 398.37 90.48 399.56 90.45 400.16 C 90.34 399.53 90.12 398.29 90.01 397.67 C 80.71 398.6 71.38 402.21 62.01 399.95 C 50.53 397.47 40.9 387.84 38.89 376.19 C 31.19 335.77 23.4 295.35 15.79 254.91 C 13.17 239.11 25.81 224.04 40.97 221.01 C 57.32 217.97 73.79 215.6 90.25 213.19 C 97.31 212.22 111.46 210.36 111.46 210.36 M 239.59 211.85 C 174.4 214.51 109.37 221.33 45.09 232.47 C 35.17 233.9 25.6 243.38 27.85 253.92 C 35.39 293.8 43.06 333.67 50.64 373.54 C 51.8 380.75 57.74 386.68 64.81 388.22 C 68.53 389.22 72.37 388.39 76.07 387.72 C 225.27 362.47 378.73 362.69 527.86 388.39 C 537.2 390.26 547.38 383.72 549.19 374.29 C 556.89 334.16 564.55 294.03 572.16 253.89 C 574.38 243.33 564.77 233.86 554.85 232.46 C 450.88 214.44 345.01 207.69 239.59 211.85 Z" fill="#505050"/>
    <path opacity="1.00" d="M 286.8 29.74 C 295.36 27.18 304.64 27.16 313.21 29.72 C 365.92 45.7 418.67 61.59 471.4 77.56 C 481.56 80.44 488.73 90.57 488.49 101.07 C 488.57 137.5 488.43 173.93 488.56 210.37 C 492.09 210.85 395.854 198.121 299.817 198.12 C 203.777 198.119 107.935 210.845 111.47 210.36 C 111.58 173.9 111.45 137.43 111.53 100.96 C 111.33 90.49 118.51 80.41 128.65 77.55 C 181.36 61.6 234.09 45.69 286.8 29.74" style="fill: rgb(0, 100, 181);"/>
    <path fill="#ffffff" opacity="1.00" d="M 239.65 211.84 C 345.3 207.69 451.42 214.46 555.61 232.61 C 565.25 234.29 574.37 243.67 572.15 253.95 C 564.54 294.05 556.89 334.13 549.21 374.22 C 547.43 383.68 537.22 390.28 527.85 388.39 C 377.41 362.47 222.56 362.47 72.11 388.4 C 62.79 390.25 52.64 383.73 50.81 374.32 C 43.25 335.08 35.85 295.8 28.31 256.55 C 27.75 253.42 27.01 250.16 27.97 247.04 C 30.08 239.3 37.35 233.71 45.11 232.46 C 109.41 221.33 174.45 214.51 239.65 211.84"/>
  </g>
  <g id="#0064b5ff">
    <path fill="#0064b5" opacity="1.00" d="M 111.15 394.43 C 236.2 376.47 363.8 376.47 488.85 394.43 C 488.97 414.55 482.92 434.39 472.5 451.52 C 456.6 477.83 433.19 498.67 408.34 516.32 C 376.5 538.61 341.6 556.32 305.47 570.5 C 302.9 571.41 300.12 572.99 297.42 571.6 C 265.42 559.62 234.49 544.61 205.61 526.32 C 188.78 515.6 172.7 503.59 158.23 489.83 C 141 473.36 125.88 453.98 117.61 431.42 C 113.21 419.6 111.24 407.01 111.15 394.43"/>
  </g>
</svg>