<?xml version="1.0" encoding="utf-8"?>
<svg width="600pt" height="600pt" viewBox="0 0 600 600" version="1.1" xmlns="http://www.w3.org/2000/svg" xmlns:bx="https://boxy-svg.com">
  <defs>
    <bx:guide x="300.15" y="209.571" angle="0"/>
  </defs>
  <g id="#002050ff">
    <path fill="#002050" opacity="1.00" d="M 280.93 9.24 C 293.29 5.63 306.66 5.63 319.02 9.22 C 372.22 25.33 425.45 41.36 478.65 57.49 C 496.42 62.99 509.39 80.5 509.69 99.07 C 509.84 137.11 509.71 175.15 509.75 213.19 C 517.089 221.79 483.785 218.653 471.704 213.838 C 471.574 177.398 465.273 139.977 465.193 103.547 C 465.433 93.047 471.641 87.376 461.481 84.496 C 408.751 68.526 361.451 55.114 308.741 39.134 C 300.171 36.574 295.845 35.107 287.285 37.667 C 234.575 53.617 189.773 69.527 137.063 85.477 C 126.923 88.337 123.706 96.931 123.906 107.401 C 123.826 143.871 114.543 179.35 114.433 215.81 C 107.003 217.861 95.272 218.335 90.25 213.19 C 90.29 175.15 90.17 137.11 90.31 99.08 C 90.61 80.48 103.62 62.95 121.42 57.47 C 174.58 41.36 227.77 25.34 280.93 9.24 Z"/>
    <path fill="#002050" opacity="1.00" d="M 90.57 397.78 C 89.895 391.487 102.672 387.468 112.141 387.989 C 112.231 400.569 123.119 415.141 127.519 426.961 C 135.789 449.521 146.45 468.901 163.68 485.371 C 178.15 499.131 192.744 508.664 209.574 519.384 C 238.454 537.674 262.447 546.243 294.447 558.223 C 297.147 559.613 304.386 562.492 306.956 561.582 C 343.086 547.402 371.05 531.674 402.89 509.384 C 427.74 491.734 449.664 471.389 465.564 445.079 C 475.984 427.949 480.052 408.109 479.932 387.989 C 486.812 389.099 502.72 396.14 509.5 397.82 C 509.52 398.4 509.54 399.56 509.56 400.14 C 509.13 420.71 502.59 440.82 492.53 458.65 C 477.34 485.33 455.01 507.21 430.81 525.76 C 397.75 550.86 360.8 570.49 322.52 586.33 C 315.17 589.36 307.7 592.06 300.19 594.67 C 281.71 588.72 263.85 581.02 246.3 572.74 C 212.3 556.36 179.55 536.74 151.17 511.71 C 132.92 495.44 116.48 476.72 105.13 454.94 C 96.35 438.05 90.83 419.25 90.45 400.16 C 90.48 399.56 90.54 398.37 90.57 397.78 Z"/>
  </g>
  <g id="#505050ff">
    <path opacity="1.00" d="M 286.8 29.74 C 295.36 27.18 304.64 27.16 313.21 29.72 C 365.92 45.7 418.67 61.59 471.4 77.56 C 481.56 80.44 488.73 90.57 488.49 101.07 C 488.57 137.5 488.43 178.648 488.56 215.088 C 492.09 215.568 396.798 204.255 300.761 204.254 C 204.721 204.253 107.963 214.665 111.498 214.18 C 111.608 177.72 111.45 137.43 111.53 100.96 C 111.33 90.49 118.51 80.41 128.65 77.55 C 181.36 61.6 234.09 45.69 286.8 29.74" style="fill: rgb(0, 100, 181);"/>
    <path fill="#ffffff" opacity="1.00" d="M 239.65 211.84 C 345.3 207.69 451.42 214.46 555.61 232.61 C 565.25 234.29 574.37 243.67 572.15 253.95 C 564.54 294.05 556.89 334.13 549.21 374.22 C 547.43 383.68 537.22 390.28 527.85 388.39 C 377.41 362.47 222.56 362.47 72.11 388.4 C 62.79 390.25 52.64 383.73 50.81 374.32 C 43.25 335.08 35.85 295.8 28.31 256.55 C 27.75 253.42 27.01 250.16 27.97 247.04 C 30.08 239.3 37.35 233.71 45.11 232.46 C 109.41 221.33 174.45 214.51 239.65 211.84"/>
    <path fill="#505050" opacity="1.00" d="M 89.98 213.292 C 228.92 193.882 370.54 193.892 509.48 213.292 C 523.05 215.202 536.59 217.302 550.11 219.552 C 554.55 220.332 559.1 220.842 563.34 222.482 C 573.54 226.202 581.902 235.222 583.802 246.042 C 584.902 251.062 583.832 256.162 582.832 261.102 C 575.48 299.502 568.18 337.912 560.84 376.312 C 559.09 386.072 552.08 394.552 542.96 398.332 C 532.03 403.312 520.15 398.932 508.93 397.652 C 502.16 396.452 495.35 395.492 488.54 394.512 C 363.52 376.562 235.95 376.562 110.92 394.512 C 103.96 395.502 97 396.552 90.06 397.672 C 80.67 398.662 71.25 402.282 61.78 400.042 C 50.57 397.622 41.06 388.422 38.8 377.102 C 31.08 337.072 23.52 297.002 15.84 256.962 C 14.42 250.522 15.41 243.642 18.49 237.812 C 23.12 228.792 32.33 222.552 42.23 220.782 C 58.1 218.012 74.03 215.552 89.98 213.292 M 239.38 211.932 C 174.18 214.602 109.14 221.422 44.84 232.552 C 37.08 233.802 29.81 239.392 27.7 247.132 C 26.74 250.252 27.48 253.512 28.04 256.642 C 35.58 295.892 42.98 335.172 50.54 374.412 C 52.37 383.822 62.52 390.342 71.84 388.492 C 222.29 362.562 377.14 362.562 527.58 388.482 C 536.95 390.372 547.16 383.772 548.94 374.312 C 556.62 334.222 564.27 294.142 571.88 254.042 C 574.1 243.762 564.98 234.382 555.34 232.702 C 451.15 214.552 345.03 207.782 239.38 211.932 Z"/>
  </g>
  <g id="#0064b5ff">
    <path fill="#0064b5" opacity="1.00" d="M 111.15 394.43 C 236.2 376.47 363.8 376.47 488.85 394.43 C 488.97 414.55 482.92 434.39 472.5 451.52 C 456.6 477.83 433.19 498.67 408.34 516.32 C 376.5 538.61 341.6 556.32 305.47 570.5 C 302.9 571.41 300.12 572.99 297.42 571.6 C 265.42 559.62 234.49 544.61 205.61 526.32 C 188.78 515.6 172.7 503.59 158.23 489.83 C 141 473.36 125.88 453.98 117.61 431.42 C 113.21 419.6 111.24 407.01 111.15 394.43"/>
  </g>
</svg>