<?xml version="1.0" encoding="utf-8"?>
<svg width="600pt" height="600pt" viewBox="0 0 600 600" version="1.1" xmlns="http://www.w3.org/2000/svg">
  <g id="#002050ff">
    <path fill="#002050" opacity="1.00" d="M 280.93 9.24 C 293.29 5.63 306.66 5.63 319.02 9.22 C 372.22 25.33 425.45 41.36 478.65 57.49 C 496.42 62.99 509.39 80.5 509.69 99.07 C 509.84 137.11 509.71 175.15 509.75 213.19 C 517.089 221.79 483.785 218.653 471.704 213.838 C 471.574 177.398 465.273 139.977 465.193 103.547 C 465.433 93.047 471.641 87.376 461.481 84.496 C 408.751 68.526 361.451 55.114 308.741 39.134 C 300.171 36.574 295.845 35.107 287.285 37.667 C 234.575 53.617 189.773 69.527 137.063 85.477 C 126.923 88.337 123.706 96.931 123.906 107.401 C 123.826 143.871 114.543 179.35 114.433 215.81 C 107.003 217.861 95.272 218.335 90.25 213.19 C 90.29 175.15 90.17 137.11 90.31 99.08 C 90.61 80.48 103.62 62.95 121.42 57.47 C 174.58 41.36 227.77 25.34 280.93 9.24 Z"/>
    <path fill="#002050" opacity="1.00" d="M 90.57 397.78 C 89.895 391.487 102.672 387.468 112.141 387.989 C 112.231 400.569 123.119 415.141 127.519 426.961 C 135.789 449.521 146.45 468.901 163.68 485.371 C 178.15 499.131 192.744 508.664 209.574 519.384 C 238.454 537.674 262.447 546.243 294.447 558.223 C 297.147 559.613 304.386 562.492 306.956 561.582 C 343.086 547.402 371.05 531.674 402.89 509.384 C 427.74 491.734 449.664 471.389 465.564 445.079 C 475.984 427.949 480.052 408.109 479.932 387.989 C 486.812 389.099 502.72 393.238 509.5 394.918 C 509.52 395.498 509.54 399.56 509.56 400.14 C 509.13 420.71 502.59 440.82 492.53 458.65 C 477.34 485.33 455.01 507.21 430.81 525.76 C 397.75 550.86 360.8 570.49 322.52 586.33 C 315.17 589.36 307.7 592.06 300.19 594.67 C 281.71 588.72 263.85 581.02 246.3 572.74 C 212.3 556.36 179.55 536.74 151.17 511.71 C 132.92 495.44 116.48 476.72 105.13 454.94 C 96.35 438.05 90.83 419.25 90.45 400.16 C 90.48 399.56 90.54 398.37 90.57 397.78 Z"/>
  </g>
  <g id="#0064b5ff">
    <path fill="#0064b5" opacity="1.00" d="M 111.15 394.43 C 236.2 376.47 364.134 371.121 489.184 389.081 C 489.304 409.201 482.92 434.39 472.5 451.52 C 456.6 477.83 433.19 498.67 408.34 516.32 C 376.5 538.61 341.6 556.32 305.47 570.5 C 302.9 571.41 300.12 572.99 297.42 571.6 C 265.42 559.62 234.49 544.61 205.61 526.32 C 188.78 515.6 172.7 503.59 158.23 489.83 C 141 473.36 125.88 453.98 117.61 431.42 C 113.21 419.6 111.24 400.992 111.15 388.412"/>
    <path opacity="1.00" d="M 286.588 24.664 C 295.148 22.104 304.428 22.084 312.998 24.644 C 365.708 40.624 418.458 56.514 471.188 72.484 C 481.348 75.364 488.518 85.494 488.278 95.994 C 488.358 132.424 488.808 177.108 488.938 213.548 C 495.998 214.508 104.773 213.329 111.843 212.359 C 111.953 175.899 111.243 132.354 111.313 95.884 C 111.113 85.414 118.303 75.334 128.433 72.474 C 181.153 56.524 233.878 40.614 286.588 24.664" style="fill: rgb(0, 100, 181);"/>
  </g>
  <g id="#505050ff">
    <path fill="#ffffff" opacity="1.00" d="M 239.65 211.84 C 345.3 207.69 451.42 214.46 555.61 232.61 C 565.25 234.29 574.37 243.67 572.15 253.95 C 564.54 294.05 556.89 334.13 549.21 374.22 C 547.43 383.68 537.22 390.28 527.85 388.39 C 377.41 362.47 222.56 362.47 72.11 388.4 C 62.79 390.25 52.64 383.73 50.81 374.32 C 43.25 335.08 35.85 295.8 28.31 256.55 C 27.75 253.42 27.01 250.16 27.97 247.04 C 30.08 239.3 37.35 233.71 45.11 232.46 C 109.41 221.33 174.45 214.51 239.65 211.84"/>
    <path fill="#505050" opacity="1.00" d="M 89.479 212.776 C 228.419 193.366 370.039 193.376 508.979 212.776 C 522.549 214.686 536.089 216.786 549.609 219.036 C 554.049 219.816 558.599 220.326 562.839 221.966 C 573.039 225.686 581.399 234.706 583.299 245.526 C 584.399 250.546 583.329 255.646 582.329 260.586 C 574.979 298.986 567.679 337.396 560.339 375.796 C 558.589 385.556 551.579 394.036 542.459 397.816 C 531.529 402.796 519.649 398.416 508.429 397.136 C 501.659 395.936 494.849 394.976 488.039 393.996 C 363.019 376.046 235.449 376.046 110.419 393.996 C 103.459 394.986 96.499 396.036 89.559 397.156 C 80.169 398.146 70.749 401.766 61.279 399.526 C 50.069 397.106 40.559 387.906 38.299 376.586 C 30.579 336.556 23.019 296.486 15.339 256.446 C 13.919 250.006 14.909 243.126 17.989 237.296 C 22.619 228.276 31.829 222.036 41.729 220.266 C 57.599 217.496 73.529 215.036 89.479 212.776 M 238.879 211.416 C 173.679 214.086 108.639 220.906 44.339 232.036 C 36.579 233.286 29.309 238.876 27.199 246.616 C 26.239 249.736 26.979 252.996 27.539 256.126 C 35.079 295.376 42.479 334.656 50.039 373.896 C 51.869 383.306 62.019 389.826 71.339 387.976 C 221.789 362.046 376.639 362.046 527.079 387.966 C 536.449 389.856 546.659 383.256 548.439 373.796 C 556.119 333.706 563.769 293.626 571.379 253.526 C 573.599 243.246 564.479 233.866 554.839 232.186 C 450.649 214.036 344.529 207.266 238.879 211.416 Z"/>
  </g>
</svg>