<?xml version="1.0" encoding="utf-8"?>
<svg version="1.1" id="Layer_1" x="0px" y="0px" viewBox="0 0 300 300" style="enable-background:new 0 0 300 300;" xmlns="http://www.w3.org/2000/svg">
  <path style="fill:#433850;" d="M 299.999 149.997 C 299.999 232.837 232.835 300 149.996 300 C 67.157 300 0.001 232.833 0.001 149.997 C 0.001 67.161 67.157 0 149.996 0 C 232.835 0 299.999 67.157 299.999 149.997 Z M 208.354 75.323 C 208.354 63.864 199.063 54.574 187.605 54.574 L 112.391 54.574 C 100.932 54.574 91.642 63.865 91.642 75.323 L 91.642 224.021 C 91.642 235.48 100.933 244.77 112.391 244.77 L 187.605 244.77 C 199.064 244.77 208.354 235.479 208.354 224.021 Z M 189.338 74.579 L 189.338 198.171 C 189.338 201.659 186.356 204.502 182.691 204.502 L 117.309 204.502 C 113.642 204.502 110.662 201.662 110.662 198.171 L 110.662 74.579 C 110.662 71.091 113.644 68.248 117.309 68.248 L 182.691 68.248 C 186.356 68.248 189.336 71.088 189.338 74.579 Z M 161.719 226.085 C 161.719 232.557 156.473 237.803 150.001 237.803 C 143.529 237.803 138.283 232.557 138.283 226.085 C 138.283 219.613 143.529 214.367 150.001 214.367 C 156.473 214.367 161.719 219.613 161.719 226.085 Z"/>
</svg>