<?xml version="1.0" encoding="utf-8"?>
<svg width="600pt" height="600pt" viewBox="0 0 600 600" version="1.1" xmlns="http://www.w3.org/2000/svg">
  <g id="#636363ff">
    <path fill="#636363" opacity="1.00" d="M 282.03 8.76 C 294.06 5.33 307.06 5.3 319.13 8.55 C 371.9 24.5 424.67 40.46 477.44 56.39 C 495.92 61.17 510.06 78.82 510.5 97.93 C 510.51 136.21 510.48 174.49 510.51 212.77 C 526.06 214.94 541.58 217.34 557.06 220 C 572.22 221.94 585.93 235.24 585.46 251.04 C 585.25 254.89 584.35 258.65 583.66 262.43 C 576.47 300.02 569.31 337.62 562.14 375.21 C 560.8 382.79 556.56 389.86 550.26 394.33 C 543.65 399.25 534.99 401.23 526.88 399.84 C 521.45 398.91 516.01 397.99 510.57 397.13 C 510.48 417.88 504.4 438.33 494.42 456.44 C 479.44 483.61 456.96 505.85 432.58 524.67 C 401.84 548.21 367.6 566.86 332.14 582.24 C 321.95 586.62 311.61 590.66 301.12 594.24 C 282.29 588.15 264.07 580.32 246.21 571.82 C 215.03 556.74 184.97 538.91 158.34 516.66 C 139.62 500.97 122.6 482.89 110.11 461.8 C 98.43 442.32 91.47 419.91 91.18 397.14 C 81.88 398.23 72.52 401.64 63.13 399.56 C 54.52 397.71 46.84 391.97 42.73 384.16 C 40.31 379.76 39.6 374.72 38.67 369.86 C 31.44 331.9 24.19 293.94 16.95 255.98 C 15.64 249.05 16.83 241.64 20.59 235.64 C 25.57 227.33 34.46 221.74 43.95 220.15 C 59.67 217.44 75.44 214.98 91.24 212.77 C 91.27 174.84 91.24 136.91 91.26 98.99 C 91.36 80.39 104.27 62.72 122.03 57.14 C 175.35 40.97 228.71 24.91 282.03 8.76 M 202.46 89.58 C 200.55 90.43 199.7 93.04 201.09 94.72 C 202.95 97.5 207.98 96.46 208.36 93.03 C 208.57 90 204.95 88.33 202.46 89.58 M 329.34 91.29 C 327.11 93.5 327.24 96.81 327.11 99.71 C 325.89 99.71 324.68 99.72 323.47 99.73 C 323.46 101.4 323.46 103.08 323.46 104.75 C 324.71 104.76 325.97 104.77 327.23 104.78 C 327.23 110.52 327.23 116.26 327.23 122 C 329.48 122 331.74 122 334 122 C 334 116.26 334 110.51 334 104.77 C 335.66 104.77 337.33 104.77 338.99 104.77 C 338.99 103.09 338.99 101.4 339 99.72 C 337.28 99.72 335.56 99.72 333.85 99.71 C 334.11 98.08 333.8 96.2 334.83 94.79 C 336.23 93.64 338.15 94.28 339.81 94.19 C 339.77 92.46 339.75 90.73 339.73 89 C 336.18 88.53 331.99 88.48 329.34 91.29 M 159 91 C 159 101.33 159 111.67 159 122 C 161.09 122 163.19 122 165.28 122 C 165.27 113.56 165.31 105.12 165.25 96.68 C 166.95 105.41 170.75 113.52 173.42 121.96 C 175.34 121.98 177.25 122 179.17 122.01 C 181.96 113.56 185.2 105.24 187.55 96.64 C 186.91 105.08 187.36 113.55 187.23 122 C 189.58 122 191.93 122 194.28 122 C 194.28 111.67 194.28 101.33 194.28 91 C 190.91 91 187.54 91 184.17 91 C 181.64 98.57 178.78 106.04 176.62 113.74 C 174.66 106 171.64 98.6 169.23 91 C 165.82 91 162.41 91 159 91 M 373.46 91.92 C 373.45 93.8 373.43 95.67 373.4 97.54 C 376.02 96.44 378.99 94.98 381.87 96.14 C 384.46 97.01 384.78 101.04 382.54 102.47 C 380.41 103.74 377.82 103.37 375.47 103.55 C 375.46 105.26 375.46 106.97 375.46 108.69 C 379.02 108.59 385.64 108.66 384.95 113.84 C 383.01 119.15 375.98 117.25 372.19 115.17 C 372.21 117.17 372.22 119.18 372.23 121.18 C 377.21 122.78 382.94 123.39 387.71 120.8 C 391.93 118.6 393.5 112.41 390.47 108.65 C 389.19 106.95 387.03 106.44 385.13 105.77 C 390.83 104.79 393.05 97.04 388.96 93.1 C 384.72 89.3 378.41 90.22 373.46 91.92 M 401.7 94.74 C 396.9 100.8 396.22 109.69 399.18 116.71 C 401.61 122.54 409.66 124.28 414.66 120.71 C 420.34 117.05 421 107.61 415.66 103.38 C 411.99 100.78 406.99 102.02 403.86 104.9 C 404.79 102.1 405.17 98.61 407.95 96.94 C 410.66 94.93 414.13 95.92 417.03 96.91 C 417 94.96 416.98 93.01 416.96 91.05 C 411.68 89.79 405.39 90.33 401.7 94.74 M 425.35 91.03 C 425.06 96.79 424.59 102.53 424.2 108.28 C 427.5 108.2 431.07 107.38 434.18 108.88 C 437.02 110.23 436.91 114.75 434.28 116.27 C 430.94 118.33 426.96 116.77 423.68 115.43 C 423.69 117.4 423.71 119.37 423.72 121.34 C 428.52 122.71 434.07 123.44 438.55 120.69 C 443.75 117.73 445.01 109.65 440.75 105.39 C 437.89 102.62 433.68 102.69 429.98 102.65 C 430.17 100.68 430.35 98.72 430.54 96.76 C 434.28 96.77 438.02 96.77 441.76 96.77 C 441.76 94.85 441.77 92.93 441.78 91.01 C 436.3 91 430.82 90.98 425.35 91.03 M 344.72 94.94 C 344.71 96.53 344.72 98.12 344.73 99.71 C 343.85 99.72 342.11 99.72 341.24 99.73 C 341.23 101.4 341.23 103.08 341.23 104.76 C 342.1 104.77 343.85 104.77 344.72 104.77 C 344.92 109.4 344.13 114.17 345.34 118.7 C 346.96 123.18 352.69 122.99 356.48 121.86 C 356.52 120.19 356.55 118.52 356.6 116.86 C 355.14 116.98 352.57 117.84 351.97 115.85 C 351.05 112.26 351.7 108.45 351.55 104.77 C 353.21 104.77 354.88 104.76 356.54 104.76 C 356.53 103.08 356.53 101.4 356.53 99.73 C 354.86 99.72 353.19 99.72 351.53 99.71 C 351.53 97.46 351.54 95.22 351.56 92.97 C 349.27 93.62 346.99 94.28 344.72 94.94 M 217.78 100.74 C 210.64 104.39 209.84 115.95 216.47 120.51 C 220.51 123.37 225.82 122.8 230.29 121.39 C 230.29 119.57 230.29 117.75 230.3 115.94 C 227.77 116.82 224.94 117.97 222.33 116.67 C 217.52 114.63 217.93 106.16 223.1 104.85 C 225.53 103.94 228.02 105.01 230.36 105.69 C 230.31 103.79 230.27 101.89 230.24 99.99 C 226.14 99.01 221.61 98.7 217.78 100.74 M 259.44 99.56 C 250.9 100.88 248.08 112.44 253.22 118.62 C 256.79 122.99 263.43 123.43 268.38 121.46 C 276.03 118.27 277.06 106.31 270.57 101.44 C 267.43 99.08 263.17 98.84 259.44 99.56 M 280.93 100.91 C 277.68 102.79 276.96 107.69 279.39 110.49 C 281.92 112.79 285.49 113.26 288.4 114.91 C 288.36 115.43 288.27 116.48 288.22 117 C 284.84 118.59 281.15 117.3 277.97 115.88 C 277.99 117.78 278.01 119.68 278.03 121.59 C 282.58 122.62 287.73 123.35 291.94 120.8 C 294.96 119.07 295.98 114.74 294.14 111.83 C 291.85 108.48 286.98 108.99 284.43 106 C 286.36 102.47 290.9 104.42 293.82 105.35 C 293.79 103.56 293.77 101.78 293.77 100 C 289.54 99.14 284.78 98.52 280.93 100.91 M 306.44 99.5 C 297.93 100.65 294.85 111.91 299.68 118.28 C 303.23 123 310.29 123.55 315.41 121.33 C 322.99 117.9 323.75 105.73 316.91 101.15 C 313.87 99.1 309.95 98.89 306.44 99.5 M 201 99.72 C 201 107.14 201 114.57 201 122 C 203.26 122 205.51 122 207.77 122 C 207.77 114.57 207.77 107.15 207.77 99.73 C 205.51 99.72 203.26 99.72 201 99.72 M 235 99.72 C 235 107.14 235 114.57 235 122 C 237.26 122 239.52 122 241.78 121.99 C 241.95 117.41 241.26 112.73 242.25 108.22 C 243.22 105.11 246.64 105.02 249.31 105.58 C 249.29 103.42 249.27 101.27 249.24 99.11 C 245.8 98.77 242.93 100.64 241.6 103.75 C 241.68 102.41 241.76 101.07 241.83 99.73 C 239.55 99.72 237.28 99.72 235 99.72 M 209.89 142.91 C 203.52 146.47 202.09 155.93 206.41 161.58 C 209.29 165.37 214.65 166.14 219.01 164.92 C 220.82 164.81 221.5 163.32 221.62 161.7 C 218.61 162.39 215.39 163.71 212.34 162.46 C 204.8 159.91 205.08 147.27 212.37 144.56 C 215.29 143.33 218.46 144.26 221.34 145.12 C 221.31 144.39 221.24 142.93 221.21 142.2 C 217.49 141.34 213.34 140.89 209.89 142.91 M 232.46 142.01 C 232.46 149.67 232.46 157.33 232.46 164.99 C 236.56 165 240.67 165 244.77 164.99 C 244.78 164.36 244.78 163.1 244.79 162.48 C 241.62 162.46 238.45 162.46 235.28 162.47 C 235.28 159.82 235.28 157.18 235.28 154.53 C 238.03 154.54 240.78 154.54 243.53 154.53 C 243.53 153.9 243.54 152.64 243.55 152.01 C 240.79 152 238.03 152 235.28 151.99 C 235.28 149.42 235.28 146.85 235.28 144.28 C 238.27 144.28 241.27 144.28 244.27 144.28 C 244.27 143.71 244.29 142.57 244.29 142 C 240.35 142 236.4 142 232.46 142.01 M 255.72 142.01 C 255.72 149.67 255.71 157.34 255.72 165 C 256.42 165 257.83 165 258.54 165 C 258.54 161.71 258.53 158.43 258.54 155.14 C 260.21 155.45 262.34 154.91 263.6 156.32 C 265.79 158.98 267.29 162.11 269.11 165.02 C 269.91 165 271.52 164.98 272.33 164.97 C 270.06 161.34 268.02 157.52 265.09 154.36 C 268.72 152.94 271.12 148.69 269.06 145.04 C 266.37 140.35 260.11 142.43 255.72 142.01 M 278.45 142.01 C 278.46 142.57 278.47 143.71 278.47 144.28 C 280.64 144.28 282.82 144.28 284.99 144.28 C 285.01 151.19 284.99 158.09 285 165 C 285.7 165 287.08 165 287.77 165 C 287.76 158.11 287.79 151.22 287.74 144.33 C 290 144.3 292.26 144.28 294.53 144.25 C 294.53 143.69 294.54 142.57 294.55 142 C 289.18 142 283.81 142 278.45 142.01 M 304.46 142.01 C 304.46 149.67 304.46 157.33 304.46 164.99 C 305.16 164.99 306.57 165 307.28 165.01 C 307.28 157.33 307.28 149.66 307.28 142 C 306.57 142 305.16 142.01 304.46 142.01 M 320 142 C 320 149.67 320 157.34 320 165 C 320.69 165 322.08 165 322.77 165 C 322.77 161.59 322.77 158.18 322.77 154.77 C 325.51 154.77 328.26 154.77 331 154.77 C 331 154.13 331 152.87 331 152.23 C 328.25 152.23 325.51 152.23 322.77 152.23 C 322.77 149.58 322.77 146.93 322.77 144.29 C 325.75 144.28 328.73 144.28 331.72 144.28 C 331.75 143.72 331.81 142.6 331.85 142.04 C 327.9 141.99 323.95 141.99 320 142 M 342.72 142 C 342.72 149.67 342.71 157.34 342.72 165.01 C 343.43 165 344.84 164.99 345.54 164.99 C 345.53 157.32 345.55 149.66 345.53 142 C 344.83 142 343.42 142 342.72 142 M 358 142 C 358 149.67 358 157.33 358 164.99 C 362.13 165.02 366.27 165.03 370.41 164.91 C 370.36 164.3 370.27 163.08 370.22 162.47 C 367.07 162.46 363.92 162.46 360.77 162.46 C 360.77 159.82 360.77 157.18 360.77 154.54 C 363.51 154.54 366.25 154.54 368.99 154.54 C 368.99 153.91 369 152.64 369.01 152.01 C 366.26 152 363.51 152 360.77 152 C 360.77 149.42 360.76 146.85 360.77 144.28 C 363.74 144.28 366.72 144.28 369.7 144.29 C 369.74 143.73 369.83 142.61 369.88 142.06 C 365.92 141.98 361.96 141.99 358 142 M 381.23 142.01 C 381.23 149.67 381.23 157.33 381.23 164.99 C 385.84 164.88 390.97 165.75 395 162.95 C 400.65 159.31 401.39 150.61 397.55 145.44 C 393.47 140.77 386.7 142.19 381.23 142.01 M 278.24 210.34 C 202.46 211.51 126.76 218.38 52.01 230.97 C 46.75 231.8 41.18 232.5 36.78 235.77 C 30.97 239.62 27.12 246.85 28.78 253.86 C 36.36 293.57 43.93 333.27 51.5 372.98 C 52.94 382.79 63.31 389.92 72.99 387.99 C 223.18 362.11 377.76 362.04 527.96 387.85 C 538.61 390.52 549.89 382.05 550.69 371.19 C 558.15 331.76 565.75 292.36 573.21 252.93 C 574.97 242.67 565.72 233.63 556.12 232.06 C 464.44 216.17 371.27 208.98 278.24 210.34 M 130.938 403.404 C 130.788 418.934 122.296 421.572 128.796 435.672 C 137.336 454.532 149.535 467.939 164.295 482.289 C 179.105 496.389 193.554 507.688 210.784 518.668 C 240.364 537.338 266.098 547.694 298.938 559.724 C 336.118 545.754 368.955 533.749 401.735 511.269 C 427.125 493.549 444.694 477.634 461.144 451.094 C 471.974 433.594 470.887 423.588 470.197 402.858 C 345.247 384.928 257.86 390.834 130.938 403.404 Z"/>
    <path fill="#636363" opacity="1.00" d=" M 260.22 105.15 C 262.63 103.71 266.45 104.56 267.27 107.47 C 267.99 110.11 268.08 113.23 266.49 115.58 C 264.37 118.54 258.88 117.47 258.14 113.85 C 257.37 110.95 257.45 106.98 260.22 105.15 Z"/>
    <path fill="#636363" opacity="1.00" d=" M 307.21 105.02 C 309.50 103.84 312.91 104.53 313.89 107.13 C 314.76 109.78 314.86 112.96 313.37 115.42 C 311.36 118.52 305.72 117.59 304.92 113.92 C 304.14 110.93 304.16 106.74 307.21 105.02 Z"/>
    <path fill="#636363" opacity="1.00" d=" M 407.13 107.22 C 413.35 104.99 414.55 116.28 409.01 117.28 C 404.02 117.47 402.75 108.99 407.13 107.22 Z"/>
    <path fill="#636363" opacity="1.00" d=" M 258.53 144.20 C 261.07 144.48 264.20 143.78 266.15 145.83 C 267.39 147.95 266.85 151.31 264.39 152.29 C 262.49 152.84 260.48 152.69 258.53 152.79 C 258.53 149.93 258.53 147.06 258.53 144.20 Z"/>
    <path fill="#636363" opacity="1.00" d=" M 384.02 144.20 C 387.92 144.40 392.85 143.91 395.47 147.48 C 398.00 151.50 397.64 157.72 393.73 160.75 C 390.96 162.91 387.28 162.40 384.01 162.50 C 384.00 156.40 383.98 150.30 384.02 144.20 Z"/>
  </g>
  <g id="#ffffffff">
    <path fill="#ffffff" opacity="1.00" d=" M 202.46 89.58 C 204.95 88.33 208.57 90.00 208.36 93.03 C 207.98 96.46 202.95 97.50 201.09 94.72 C 199.70 93.04 200.55 90.43 202.46 89.58 Z"/>
    <path fill="#ffffff" opacity="1.00" d=" M 329.34 91.29 C 331.99 88.48 336.18 88.53 339.73 89.00 C 339.75 90.73 339.77 92.46 339.81 94.19 C 338.15 94.28 336.23 93.64 334.83 94.79 C 333.80 96.20 334.11 98.08 333.85 99.71 C 335.56 99.72 337.28 99.72 339.00 99.72 C 338.99 101.40 338.99 103.09 338.99 104.77 C 337.33 104.77 335.66 104.77 334.00 104.77 C 334.00 110.51 334.00 116.26 334.00 122.00 C 331.74 122.00 329.48 122.00 327.23 122.00 C 327.23 116.26 327.23 110.52 327.23 104.78 C 325.97 104.77 324.71 104.76 323.46 104.75 C 323.46 103.08 323.46 101.40 323.47 99.73 C 324.68 99.72 325.89 99.71 327.11 99.71 C 327.24 96.81 327.11 93.50 329.34 91.29 Z"/>
    <path fill="#ffffff" opacity="1.00" d=" M 159.00 91.00 C 162.41 91.00 165.82 91.00 169.23 91.00 C 171.64 98.60 174.66 106.00 176.62 113.74 C 178.78 106.04 181.64 98.57 184.17 91.00 C 187.54 91.00 190.91 91.00 194.28 91.00 C 194.28 101.33 194.28 111.67 194.28 122.00 C 191.93 122.00 189.58 122.00 187.23 122.00 C 187.36 113.55 186.91 105.08 187.55 96.64 C 185.20 105.24 181.96 113.56 179.17 122.01 C 177.25 122.00 175.34 121.98 173.42 121.96 C 170.75 113.52 166.95 105.41 165.25 96.68 C 165.31 105.12 165.27 113.56 165.28 122.00 C 163.19 122.00 161.09 122.00 159.00 122.00 C 159.00 111.67 159.00 101.33 159.00 91.00 Z"/>
    <path fill="#ffffff" opacity="1.00" d=" M 373.46 91.92 C 378.41 90.22 384.72 89.30 388.96 93.10 C 393.05 97.04 390.83 104.79 385.13 105.77 C 387.03 106.44 389.19 106.95 390.47 108.65 C 393.50 112.41 391.93 118.60 387.71 120.80 C 382.94 123.39 377.21 122.78 372.23 121.18 C 372.22 119.18 372.21 117.17 372.19 115.17 C 375.98 117.25 383.01 119.15 384.95 113.84 C 385.64 108.66 379.02 108.59 375.46 108.69 C 375.46 106.97 375.46 105.26 375.47 103.55 C 377.82 103.37 380.41 103.74 382.54 102.47 C 384.78 101.04 384.46 97.01 381.87 96.14 C 378.99 94.98 376.02 96.44 373.40 97.54 C 373.43 95.67 373.45 93.80 373.46 91.92 Z"/>
    <path fill="#ffffff" opacity="1.00" d=" M 401.70 94.74 C 405.39 90.33 411.68 89.79 416.96 91.05 C 416.98 93.01 417.00 94.96 417.03 96.91 C 414.13 95.92 410.66 94.93 407.95 96.94 C 405.17 98.61 404.79 102.10 403.86 104.90 C 406.99 102.02 411.99 100.78 415.66 103.38 C 421.00 107.61 420.34 117.05 414.66 120.71 C 409.66 124.28 401.61 122.54 399.18 116.71 C 396.22 109.69 396.90 100.80 401.70 94.74 M 407.13 107.22 C 402.75 108.99 404.02 117.47 409.01 117.28 C 414.55 116.28 413.35 104.99 407.13 107.22 Z"/>
    <path fill="#ffffff" opacity="1.00" d=" M 425.35 91.03 C 430.82 90.98 436.30 91.00 441.78 91.01 C 441.77 92.93 441.76 94.85 441.76 96.77 C 438.02 96.77 434.28 96.77 430.54 96.76 C 430.35 98.72 430.17 100.68 429.98 102.65 C 433.68 102.69 437.89 102.62 440.75 105.39 C 445.01 109.65 443.75 117.73 438.55 120.69 C 434.07 123.44 428.52 122.71 423.72 121.34 C 423.71 119.37 423.69 117.40 423.68 115.43 C 426.96 116.77 430.94 118.33 434.28 116.27 C 436.91 114.75 437.02 110.23 434.18 108.88 C 431.07 107.38 427.50 108.20 424.20 108.28 C 424.59 102.53 425.06 96.79 425.35 91.03 Z"/>
    <path fill="#ffffff" opacity="1.00" d=" M 344.72 94.94 C 346.99 94.28 349.27 93.62 351.56 92.97 C 351.54 95.22 351.53 97.46 351.53 99.71 C 353.19 99.72 354.86 99.72 356.53 99.73 C 356.53 101.40 356.53 103.08 356.54 104.76 C 354.88 104.76 353.21 104.77 351.55 104.77 C 351.70 108.45 351.05 112.26 351.97 115.85 C 352.57 117.84 355.14 116.98 356.60 116.86 C 356.55 118.52 356.52 120.19 356.48 121.86 C 352.69 122.99 346.96 123.18 345.34 118.70 C 344.13 114.17 344.92 109.40 344.72 104.77 C 343.85 104.77 342.10 104.77 341.23 104.76 C 341.23 103.08 341.23 101.40 341.24 99.73 C 342.11 99.72 343.85 99.72 344.73 99.71 C 344.72 98.12 344.71 96.53 344.72 94.94 Z"/>
    <path fill="#ffffff" opacity="1.00" d=" M 217.78 100.74 C 221.61 98.70 226.14 99.01 230.24 99.99 C 230.27 101.89 230.31 103.79 230.36 105.69 C 228.02 105.01 225.53 103.94 223.10 104.85 C 217.93 106.16 217.52 114.63 222.33 116.67 C 224.94 117.97 227.77 116.82 230.30 115.94 C 230.29 117.75 230.29 119.57 230.29 121.39 C 225.82 122.80 220.51 123.37 216.47 120.51 C 209.84 115.95 210.64 104.39 217.78 100.74 Z"/>
    <path fill="#ffffff" opacity="1.00" d=" M 259.44 99.56 C 263.17 98.84 267.43 99.08 270.57 101.44 C 277.06 106.31 276.03 118.27 268.38 121.46 C 263.43 123.43 256.79 122.99 253.22 118.62 C 248.08 112.44 250.90 100.88 259.44 99.56 M 260.22 105.15 C 257.45 106.98 257.37 110.95 258.14 113.85 C 258.88 117.47 264.37 118.54 266.49 115.58 C 268.08 113.23 267.99 110.11 267.27 107.47 C 266.45 104.56 262.63 103.71 260.22 105.15 Z"/>
    <path fill="#ffffff" opacity="1.00" d=" M 280.93 100.91 C 284.78 98.52 289.54 99.14 293.77 100.00 C 293.77 101.78 293.79 103.56 293.82 105.35 C 290.90 104.42 286.36 102.47 284.43 106.00 C 286.98 108.99 291.85 108.48 294.14 111.83 C 295.98 114.74 294.96 119.07 291.94 120.80 C 287.73 123.35 282.58 122.62 278.03 121.59 C 278.01 119.68 277.99 117.78 277.97 115.88 C 281.15 117.30 284.84 118.59 288.22 117.00 C 288.27 116.48 288.36 115.43 288.40 114.91 C 285.49 113.26 281.92 112.79 279.39 110.49 C 276.96 107.69 277.68 102.79 280.93 100.91 Z"/>
    <path fill="#ffffff" opacity="1.00" d=" M 306.44 99.50 C 309.95 98.89 313.87 99.10 316.91 101.15 C 323.75 105.73 322.99 117.90 315.41 121.33 C 310.29 123.55 303.23 123.00 299.68 118.28 C 294.85 111.91 297.93 100.65 306.44 99.50 M 307.21 105.02 C 304.16 106.74 304.14 110.93 304.92 113.92 C 305.72 117.59 311.36 118.52 313.37 115.42 C 314.86 112.96 314.76 109.78 313.89 107.13 C 312.91 104.53 309.50 103.84 307.21 105.02 Z"/>
    <path fill="#ffffff" opacity="1.00" d=" M 201.00 99.72 C 203.26 99.72 205.51 99.72 207.77 99.73 C 207.77 107.15 207.77 114.57 207.77 122.00 C 205.51 122.00 203.26 122.00 201.00 122.00 C 201.00 114.57 201.00 107.14 201.00 99.72 Z"/>
    <path fill="#ffffff" opacity="1.00" d=" M 235.00 99.72 C 237.28 99.72 239.55 99.72 241.83 99.73 C 241.76 101.07 241.68 102.41 241.60 103.75 C 242.93 100.64 245.80 98.77 249.24 99.11 C 249.27 101.27 249.29 103.42 249.31 105.58 C 246.64 105.02 243.22 105.11 242.25 108.22 C 241.26 112.73 241.95 117.41 241.78 121.99 C 239.52 122.00 237.26 122.00 235.00 122.00 C 235.00 114.57 235.00 107.14 235.00 99.72 Z"/>
    <path fill="#ffffff" opacity="1.00" d=" M 209.89 142.91 C 213.34 140.89 217.49 141.34 221.21 142.20 C 221.24 142.93 221.31 144.39 221.34 145.12 C 218.46 144.26 215.29 143.33 212.37 144.56 C 205.08 147.27 204.80 159.91 212.34 162.46 C 215.39 163.71 218.61 162.39 221.62 161.70 C 221.50 163.32 220.82 164.81 219.01 164.92 C 214.65 166.14 209.29 165.37 206.41 161.58 C 202.09 155.93 203.52 146.47 209.89 142.91 Z"/>
    <path fill="#ffffff" opacity="1.00" d=" M 232.46 142.01 C 236.40 142.00 240.35 142.00 244.29 142.00 C 244.29 142.57 244.27 143.71 244.27 144.28 C 241.27 144.28 238.27 144.28 235.28 144.28 C 235.28 146.85 235.28 149.42 235.28 151.99 C 238.03 152.00 240.79 152.00 243.55 152.01 C 243.54 152.64 243.53 153.90 243.53 154.53 C 240.78 154.54 238.03 154.54 235.28 154.53 C 235.28 157.18 235.28 159.82 235.28 162.47 C 238.45 162.46 241.62 162.46 244.79 162.48 C 244.78 163.10 244.78 164.36 244.77 164.99 C 240.67 165.00 236.56 165.00 232.46 164.99 C 232.46 157.33 232.46 149.67 232.46 142.01 Z"/>
    <path fill="#ffffff" opacity="1.00" d=" M 255.72 142.01 C 260.11 142.43 266.37 140.35 269.06 145.04 C 271.12 148.69 268.72 152.94 265.09 154.36 C 268.02 157.52 270.06 161.34 272.33 164.97 C 271.52 164.98 269.91 165.00 269.11 165.02 C 267.29 162.11 265.79 158.98 263.60 156.32 C 262.34 154.91 260.21 155.45 258.54 155.14 C 258.53 158.43 258.54 161.71 258.54 165.00 C 257.83 165.00 256.42 165.00 255.72 165.00 C 255.71 157.34 255.72 149.67 255.72 142.01 M 258.53 144.20 C 258.53 147.06 258.53 149.93 258.53 152.79 C 260.48 152.69 262.49 152.84 264.39 152.29 C 266.85 151.31 267.39 147.95 266.15 145.83 C 264.20 143.78 261.07 144.48 258.53 144.20 Z"/>
    <path fill="#ffffff" opacity="1.00" d=" M 278.45 142.01 C 283.81 142.00 289.18 142.00 294.55 142.00 C 294.54 142.57 294.53 143.69 294.53 144.25 C 292.26 144.28 290.00 144.30 287.74 144.33 C 287.79 151.22 287.76 158.11 287.77 165.00 C 287.08 165.00 285.70 165.00 285.00 165.00 C 284.99 158.09 285.01 151.19 284.99 144.28 C 282.82 144.28 280.64 144.28 278.47 144.28 C 278.47 143.71 278.46 142.57 278.45 142.01 Z"/>
    <path fill="#ffffff" opacity="1.00" d=" M 304.46 142.01 C 305.16 142.01 306.57 142.00 307.28 142.00 C 307.28 149.66 307.28 157.33 307.28 165.01 C 306.57 165.00 305.16 164.99 304.46 164.99 C 304.46 157.33 304.46 149.67 304.46 142.01 Z"/>
    <path fill="#ffffff" opacity="1.00" d=" M 320.00 142.00 C 323.95 141.99 327.90 141.99 331.85 142.04 C 331.81 142.60 331.75 143.72 331.72 144.28 C 328.73 144.28 325.75 144.28 322.77 144.29 C 322.77 146.93 322.77 149.58 322.77 152.23 C 325.51 152.23 328.25 152.23 331.00 152.23 C 331.00 152.87 331.00 154.13 331.00 154.77 C 328.26 154.77 325.51 154.77 322.77 154.77 C 322.77 158.18 322.77 161.59 322.77 165.00 C 322.08 165.00 320.69 165.00 320.00 165.00 C 320.00 157.34 320.00 149.67 320.00 142.00 Z"/>
    <path fill="#ffffff" opacity="1.00" d=" M 342.72 142.00 C 343.42 142.00 344.83 142.00 345.53 142.00 C 345.55 149.66 345.53 157.32 345.54 164.99 C 344.84 164.99 343.43 165.00 342.72 165.01 C 342.71 157.34 342.72 149.67 342.72 142.00 Z"/>
    <path fill="#ffffff" opacity="1.00" d=" M 358.00 142.00 C 361.96 141.99 365.92 141.98 369.88 142.06 C 369.83 142.61 369.74 143.73 369.70 144.29 C 366.72 144.28 363.74 144.28 360.77 144.28 C 360.76 146.85 360.77 149.42 360.77 152.00 C 363.51 152.00 366.26 152.00 369.01 152.01 C 369.00 152.64 368.99 153.91 368.99 154.54 C 366.25 154.54 363.51 154.54 360.77 154.54 C 360.77 157.18 360.77 159.82 360.77 162.46 C 363.92 162.46 367.07 162.46 370.22 162.47 C 370.27 163.08 370.36 164.30 370.41 164.91 C 366.27 165.03 362.13 165.02 358.00 164.99 C 358.00 157.33 358.00 149.67 358.00 142.00 Z"/>
    <path fill="#ffffff" opacity="1.00" d=" M 381.23 142.01 C 386.70 142.19 393.47 140.77 397.55 145.44 C 401.39 150.61 400.65 159.31 395.00 162.95 C 390.97 165.75 385.84 164.88 381.23 164.99 C 381.23 157.33 381.23 149.67 381.23 142.01 M 384.02 144.20 C 383.98 150.30 384.00 156.40 384.01 162.50 C 387.28 162.40 390.96 162.91 393.73 160.75 C 397.64 157.72 398.00 151.50 395.47 147.48 C 392.85 143.91 387.92 144.40 384.02 144.20 Z"/>
    <path fill="#ffffff" opacity="1.00" d=" M 278.24 210.34 C 371.27 208.98 464.44 216.17 556.12 232.06 C 565.72 233.63 574.97 242.67 573.21 252.93 C 565.75 292.36 558.15 331.76 550.69 371.19 C 549.89 382.05 538.61 390.52 527.96 387.85 C 377.76 362.04 223.18 362.11 72.99 387.99 C 63.31 389.92 52.94 382.79 51.50 372.98 C 43.93 333.27 36.36 293.57 28.78 253.86 C 27.12 246.85 30.97 239.62 36.78 235.77 C 41.18 232.50 46.75 231.80 52.01 230.97 C 126.76 218.38 202.46 211.51 278.24 210.34 M 250.98 247.55 C 251.29 258.77 251.41 270.00 251.75 281.22 C 257.98 280.83 264.24 281.17 270.46 280.64 C 270.45 279.09 270.44 277.53 270.44 275.99 C 265.97 276.40 261.48 276.34 257.00 276.25 C 257.00 272.96 256.99 269.68 257.02 266.40 C 260.82 266.17 264.63 266.20 268.44 266.22 C 268.44 264.66 268.44 263.10 268.45 261.54 C 264.53 261.50 260.62 261.63 256.71 261.83 C 256.70 258.64 256.70 255.45 256.70 252.26 C 260.88 251.97 265.08 251.97 269.28 251.99 C 269.20 250.42 269.12 248.85 269.03 247.29 C 263.01 247.18 257.00 247.70 250.98 247.55 M 286.36 246.99 C 282.27 258.24 278.05 269.45 273.98 280.71 C 275.96 280.70 277.94 280.70 279.93 280.70 C 280.86 277.89 281.81 275.07 282.75 272.26 C 287.18 272.03 291.62 271.95 296.07 271.99 C 297.10 274.81 298.11 277.63 299.12 280.46 C 301.14 280.45 303.16 280.44 305.18 280.44 C 300.98 269.31 296.73 258.19 292.58 247.04 C 290.50 247.01 288.43 247.00 286.36 246.99 M 311.29 247.00 C 311.51 258.15 310.80 269.28 311.00 280.43 C 312.65 280.44 314.30 280.47 315.96 280.50 C 316.31 270.99 316.32 261.48 316.09 251.97 C 319.18 261.71 323.39 271.05 326.86 280.66 C 328.16 280.68 329.45 280.70 330.76 280.72 C 334.49 271.49 338.58 262.40 342.03 253.06 C 341.71 262.37 341.56 271.69 341.56 281.00 C 343.37 280.99 345.18 281.00 347.00 281.00 C 347.17 269.86 347.13 258.73 347.50 247.60 C 344.96 247.55 342.42 247.43 339.89 247.32 C 336.38 256.13 332.36 264.74 329.09 273.65 C 326.04 264.67 322.43 255.89 319.14 247.00 C 316.52 247.00 313.91 247.00 311.29 247.00 M 220.01 248.57 C 220.00 250.13 220.00 251.68 220.00 253.24 C 223.25 253.25 226.50 253.15 229.74 252.97 C 230.12 262.59 230.44 272.20 230.80 281.82 C 232.62 281.75 234.44 281.70 236.26 281.65 C 236.01 272.01 235.60 262.38 235.25 252.74 C 238.54 252.74 241.83 252.59 245.12 252.40 C 244.98 250.83 244.83 249.28 244.66 247.72 C 236.44 248.09 228.23 248.48 220.01 248.57 M 358.82 249.82 C 354.74 252.31 353.94 258.48 357.03 262.05 C 360.15 265.85 365.26 266.93 368.93 270.02 C 371.18 271.83 370.63 275.87 367.90 276.89 C 363.38 278.67 358.37 277.01 354.48 274.48 C 354.53 276.42 354.55 278.36 354.58 280.30 C 360.38 282.33 367.42 283.46 372.85 279.85 C 376.61 277.18 377.27 271.27 374.28 267.78 C 371.22 263.83 366.13 262.58 362.34 259.60 C 360.19 257.95 360.60 254.20 363.13 253.14 C 366.98 251.26 371.60 252.24 375.23 254.21 C 375.31 252.40 375.41 250.60 375.50 248.81 C 370.09 247.32 363.77 246.63 358.82 249.82 M 291.98 308.90 C 288.23 311.47 287.43 317.15 290.26 320.71 C 293.42 324.59 298.59 325.72 302.56 328.50 C 304.94 330.03 304.92 334.04 302.38 335.40 C 297.91 337.72 292.58 336.11 288.51 333.67 C 288.54 335.55 288.55 337.43 288.56 339.31 C 294.14 341.24 300.66 342.04 306.03 339.07 C 310.40 336.81 311.33 330.45 308.37 326.71 C 305.35 322.66 300.15 321.51 296.16 318.76 C 293.84 317.34 293.72 313.53 296.19 312.18 C 300.07 309.93 304.95 310.98 308.80 312.80 C 308.73 310.97 308.68 309.14 308.63 307.32 C 303.15 305.99 296.84 305.54 291.98 308.90 M 259.95 307.27 C 260.35 316.02 260.35 324.78 260.75 333.53 C 255.05 324.88 249.21 316.32 243.36 307.78 C 241.22 307.78 239.09 307.78 236.96 307.78 C 236.99 318.98 237.56 330.17 237.66 341.37 C 239.45 341.29 241.24 341.22 243.03 341.16 C 242.80 332.30 242.56 323.43 242.33 314.57 C 247.97 323.47 254.13 332.04 260.05 340.76 C 262.07 340.72 264.09 340.70 266.12 340.69 C 265.98 329.58 265.40 318.47 265.42 307.36 C 263.60 307.31 261.77 307.29 259.95 307.27 M 275.00 307.00 C 275.12 318.23 275.46 329.47 275.29 340.71 C 277.19 340.70 279.09 340.70 281.00 340.70 C 281.19 329.47 280.75 318.24 280.71 307.01 C 278.81 307.00 276.90 307.00 275.00 307.00 M 314.30 307.00 C 314.29 308.56 314.29 310.13 314.29 311.71 C 317.45 311.70 320.61 311.70 323.78 311.70 C 323.96 321.37 323.47 331.03 323.55 340.70 C 325.35 340.70 327.15 340.70 328.96 340.71 C 329.45 331.02 328.91 321.32 329.48 311.64 C 332.65 311.73 335.82 311.97 339.00 312.06 C 338.99 310.48 339.00 308.91 339.00 307.34 C 330.77 306.97 322.54 306.95 314.30 307.00 M 345.35 307.23 C 345.00 318.48 344.54 329.74 344.62 340.99 C 346.40 340.99 348.18 341.00 349.97 341.00 C 349.98 336.41 350.28 331.83 350.22 327.24 C 352.48 327.49 355.21 327.26 356.75 329.31 C 359.66 333.01 361.47 337.42 363.95 341.41 C 366.05 341.43 368.15 341.44 370.26 341.45 C 366.86 336.19 364.44 330.11 359.61 325.92 C 361.43 325.03 363.45 324.33 364.84 322.78 C 368.40 318.86 367.69 311.61 362.75 309.14 C 357.37 306.46 351.11 307.97 345.35 307.23 M 221.74 308.38 C 221.89 319.49 222.73 330.59 222.80 341.71 C 224.69 341.70 226.59 341.70 228.49 341.70 C 228.36 330.44 227.60 319.20 227.42 307.94 C 225.52 308.08 223.63 308.24 221.74 308.38 M 204.39 308.94 C 201.45 317.94 198.03 326.79 195.37 335.89 C 191.70 327.15 187.52 318.65 183.69 309.99 C 181.14 310.18 178.59 310.30 176.04 310.42 C 176.45 321.62 176.89 332.85 177.87 344.01 C 179.51 343.97 181.15 343.79 182.79 343.65 C 182.23 334.33 181.80 325.01 181.27 315.69 C 184.85 325.11 189.58 334.05 193.77 343.22 C 195.01 343.09 196.26 342.97 197.51 342.86 C 200.50 333.21 204.51 323.85 206.78 313.98 C 207.20 323.43 207.70 332.88 208.29 342.32 C 210.10 342.25 211.90 342.20 213.72 342.16 C 213.11 330.94 212.51 319.72 211.93 308.50 C 209.42 308.67 206.90 308.79 204.39 308.94 M 385.37 308.51 C 380.83 319.51 376.10 330.44 371.49 341.41 C 373.47 341.53 375.46 341.67 377.45 341.78 C 378.54 338.96 379.65 336.15 380.72 333.33 C 385.15 333.47 389.57 333.65 394.00 333.89 C 394.90 336.78 395.77 339.68 396.67 342.57 C 398.67 342.65 400.67 342.70 402.67 342.75 C 399.06 331.41 395.30 320.13 391.73 308.79 C 389.61 308.66 387.49 308.57 385.37 308.51 M 403.65 309.23 C 403.51 310.79 403.37 312.36 403.23 313.92 C 406.44 314.08 409.65 314.25 412.86 314.45 C 412.48 324.10 411.76 333.74 411.26 343.39 C 413.11 343.43 414.98 343.48 416.84 343.55 C 417.27 333.93 417.90 324.32 418.47 314.71 C 421.70 315.02 424.94 315.19 428.18 315.27 C 428.21 313.71 428.24 312.15 428.29 310.60 C 420.07 310.24 411.86 309.68 403.65 309.23 M 441.27 312.10 C 430.37 314.55 426.59 328.61 430.95 337.86 C 435.59 348.04 451.85 349.26 458.05 339.98 C 462.76 332.75 463.08 321.69 456.40 315.54 C 452.44 311.73 446.45 311.08 441.27 312.10 M 140.02 313.56 C 140.86 324.66 141.86 335.75 142.59 346.86 C 149.55 346.17 157.34 346.79 163.19 342.24 C 171.24 336.42 171.48 323.21 164.64 316.41 C 157.73 310.64 148.16 313.08 140.02 313.56 M 470.37 314.29 C 469.30 325.40 468.07 336.50 466.91 347.61 C 468.72 347.84 470.53 348.06 472.35 348.30 C 472.88 343.71 473.32 339.10 473.82 334.51 C 475.94 335.02 478.66 334.90 480.00 336.98 C 482.60 340.91 484.16 345.41 486.19 349.65 C 488.33 349.91 490.47 350.14 492.63 350.37 C 489.57 344.86 487.70 338.54 483.18 333.98 C 485.21 333.26 487.45 332.67 488.91 330.96 C 492.62 327.21 492.22 320.11 487.49 317.36 C 482.28 314.52 476.06 315.25 470.37 314.29 M 115.12 315.95 C 112.09 327.51 109.24 339.11 106.14 350.66 C 108.14 350.44 110.15 350.23 112.15 350.03 C 112.83 347.10 113.48 344.17 114.16 341.24 C 118.54 340.69 122.94 340.24 127.34 339.83 C 128.69 342.52 130.00 345.23 131.23 347.98 C 133.25 347.75 135.27 347.53 137.29 347.34 C 131.91 336.70 126.56 326.03 121.37 315.29 C 119.29 315.52 117.21 315.74 115.12 315.95 Z"/>
    <path fill="#ffffff" opacity="1.00" d=" M 289.39 251.99 C 290.71 257.31 292.90 262.36 294.61 267.56 C 291.14 267.55 287.68 267.56 284.22 267.54 C 285.99 262.37 287.88 257.24 289.39 251.99 Z"/>
    <path fill="#ffffff" opacity="1.00" d=" M 350.75 311.96 C 353.69 312.18 357.15 311.36 359.62 313.41 C 362.61 315.94 361.27 321.41 357.63 322.62 C 355.30 323.31 352.83 322.88 350.45 322.87 C 350.38 319.23 350.48 315.59 350.75 311.96 Z"/>
    <path fill="#ffffff" opacity="1.00" d=" M 388.21 313.57 C 389.42 318.92 391.25 324.10 392.73 329.37 C 389.28 329.16 385.83 328.96 382.38 328.95 C 384.28 323.81 386.46 318.77 388.21 313.57 Z"/>
    <path fill="#ffffff" opacity="1.00" d=" M 145.93 317.73 C 150.86 317.23 156.82 316.33 160.67 320.26 C 164.43 324.94 164.93 332.40 161.32 337.32 C 158.07 341.34 152.51 341.57 147.76 341.86 C 147.15 333.82 146.39 325.78 145.93 317.73 Z"/>
    <path fill="#ffffff" opacity="1.00" d=" M 441.31 317.41 C 445.80 315.16 452.09 316.82 454.30 321.49 C 456.59 326.48 456.09 332.66 453.30 337.36 C 449.57 343.19 439.61 342.70 436.55 336.44 C 433.49 330.20 434.78 320.92 441.31 317.41 Z"/>
    <path fill="#ffffff" opacity="1.00" d=" M 475.37 319.35 C 478.19 319.70 481.40 319.37 483.82 321.12 C 487.05 323.72 485.45 329.42 481.63 330.49 C 479.20 331.07 476.69 330.42 474.24 330.27 C 474.63 326.63 475.05 322.99 475.37 319.35 Z"/>
    <path fill="#ffffff" opacity="1.00" d=" M 118.59 320.26 C 120.32 325.54 123.28 330.31 125.29 335.49 C 121.90 335.85 118.50 336.23 115.11 336.60 C 116.24 331.14 117.83 325.78 118.59 320.26 Z"/>
    <path fill="#ffffff" opacity="1.00" d=" M 274.37 405.62 C 278.86 404.56 284.00 405.35 287.45 408.57 C 293.88 415.07 292.78 427.92 284.35 432.24 C 279.20 434.61 272.25 434.15 268.18 429.89 C 260.96 422.79 263.91 407.83 274.37 405.62 M 275.30 411.40 C 268.62 414.64 269.96 427.98 278.07 428.04 C 283.81 428.05 285.72 420.95 284.32 416.37 C 283.78 412.28 279.10 409.35 275.30 411.40 Z"/>
    <path fill="#ffffff" opacity="1.00" d=" M 303.38 407.49 C 307.99 404.42 313.86 404.93 319.00 406.13 C 319.00 408.25 319.00 410.38 319.02 412.51 C 315.98 411.26 312.56 410.01 309.32 411.29 C 302.70 413.37 301.98 424.14 308.14 427.17 C 311.57 428.93 315.48 427.70 318.84 426.42 C 318.79 428.44 318.76 430.45 318.71 432.48 C 312.87 434.07 305.61 434.61 300.89 430.10 C 295.00 423.84 296.02 412.22 303.38 407.49 Z"/>
    <path fill="#ffffff" opacity="1.00" d=" M 242.65 407.68 C 247.01 404.99 252.50 405.47 257.30 406.46 C 257.29 408.46 257.28 410.46 257.28 412.47 C 254.66 411.46 251.87 410.24 249.02 410.99 C 247.37 411.21 245.62 412.68 246.43 414.48 C 249.26 417.35 253.77 417.56 256.67 420.35 C 260.18 423.76 259.44 430.69 254.82 432.78 C 250.15 434.87 244.77 434.48 239.99 432.97 C 239.99 430.87 239.99 428.76 239.97 426.66 C 243.12 428.41 247.00 430.03 250.54 428.46 C 252.09 427.82 252.58 425.86 251.29 424.71 C 248.54 422.52 244.82 422.08 242.06 419.90 C 238.31 416.93 238.42 410.16 242.65 407.68 Z"/>
    <path fill="#ffffff" opacity="1.00" d=" M 326.77 406.00 C 328.93 406.00 331.10 406.00 333.27 406.00 C 332.77 415.18 332.95 424.39 332.63 433.59 C 330.49 433.48 328.35 433.33 326.21 433.22 C 326.41 424.15 326.30 415.06 326.77 406.00 Z"/>
    <path fill="#ffffff" opacity="1.00" d=" M 348.59 406.45 C 351.14 406.45 353.69 406.45 356.25 406.48 C 359.25 415.73 362.21 424.99 365.13 434.27 C 362.80 434.28 360.49 434.29 358.17 434.31 C 357.55 432.22 356.96 430.13 356.37 428.04 C 353.22 427.96 350.08 427.81 346.94 427.74 C 346.24 429.77 345.56 431.81 344.86 433.85 C 342.52 433.75 340.18 433.61 337.84 433.49 C 341.37 424.46 345.00 415.46 348.59 406.45 M 348.54 422.69 C 350.73 422.86 352.92 422.98 355.11 423.09 C 353.93 419.43 352.78 415.75 352.17 411.95 C 351.20 415.61 349.79 419.12 348.54 422.69 Z"/>
    <path fill="#ffffff" opacity="1.00" d=" M 215.73 408.73 C 220.06 405.87 225.67 406.13 230.52 407.31 C 230.54 409.27 230.55 411.23 230.57 413.19 C 227.88 412.09 224.94 411.30 222.03 411.93 C 220.30 412.25 218.52 414.14 220.06 415.77 C 223.02 418.14 227.09 418.56 229.99 421.05 C 233.60 424.42 232.97 431.33 228.35 433.53 C 223.76 435.76 218.23 435.38 213.46 433.90 C 213.45 431.81 213.43 429.72 213.41 427.64 C 216.86 429.56 221.34 431.23 224.97 428.79 C 226.08 427.38 225.40 425.90 224.04 425.05 C 221.09 423.19 217.31 422.77 214.79 420.23 C 211.57 417.19 212.01 411.20 215.73 408.73 Z"/>
    <path fill="#ffffff" opacity="1.00" d=" M 366.76 406.96 C 374.15 407.29 381.55 407.45 388.93 408.00 C 388.85 409.75 388.79 411.51 388.74 413.27 C 386.11 413.07 383.47 412.96 380.83 412.84 C 380.56 420.24 380.14 427.64 379.77 435.04 C 377.64 434.93 375.52 434.80 373.40 434.71 C 373.55 427.34 374.11 419.99 374.27 412.62 C 371.64 412.50 369.01 412.33 366.38 412.20 C 366.49 410.44 366.63 408.70 366.76 406.96 Z"/>
    <path fill="#ffffff" opacity="1.00" d=" M 189.29 408.59 C 191.78 408.47 194.26 408.35 196.75 408.18 C 200.64 417.14 204.30 426.21 208.10 435.21 C 205.73 435.30 203.37 435.47 201.01 435.60 C 200.25 433.62 199.51 431.64 198.78 429.66 C 195.62 429.79 192.46 429.94 189.30 430.06 C 188.80 432.12 188.30 434.17 187.79 436.23 C 185.43 436.43 183.07 436.58 180.71 436.76 C 183.56 427.36 186.18 417.90 189.29 408.59 M 190.44 425.08 C 192.62 424.94 194.79 424.78 196.97 424.64 C 195.54 421.15 194.13 417.64 193.17 413.99 C 192.46 417.73 191.36 421.38 190.44 425.08 Z"/>
    <path fill="#ffffff" opacity="1.00" d=" M 395.50 408.23 C 400.92 408.57 406.33 408.91 411.75 409.24 C 411.64 411.02 411.54 412.80 411.46 414.59 C 408.22 414.33 404.99 414.11 401.75 413.93 C 401.64 415.82 401.55 417.72 401.47 419.63 C 404.43 419.83 407.39 420.03 410.36 420.26 C 410.25 422.01 410.12 423.76 410.00 425.52 C 407.01 425.27 404.03 425.06 401.05 424.93 C 400.97 426.92 400.87 428.92 400.79 430.93 C 404.16 431.03 407.53 431.20 410.90 431.40 C 410.84 433.16 410.79 434.93 410.76 436.70 C 405.18 436.45 399.61 435.98 394.03 435.75 C 394.46 426.57 395.06 417.40 395.50 408.23 Z"/>
    <path fill="#ffffff" opacity="1.00" d=" M 250.41 481.23 C 253.41 472.35 256.11 463.38 259.23 454.55 C 262.11 463.44 265.02 472.32 267.90 481.22 C 277.32 481.23 286.73 481.18 296.15 481.25 C 288.55 486.78 280.96 492.34 273.32 497.82 C 276.15 506.73 279.13 515.58 281.94 524.50 C 274.18 519.27 266.80 513.51 259.15 508.14 C 251.56 513.60 244.10 519.24 236.40 524.52 C 239.24 515.63 242.11 506.75 245.07 497.90 C 237.48 492.32 229.78 486.89 222.26 481.22 C 231.64 481.22 241.03 481.21 250.41 481.23 Z"/>
    <path fill="#ffffff" opacity="1.00" d=" M 342.59 454.56 C 345.75 463.36 348.48 472.31 351.35 481.22 C 360.71 481.23 370.07 481.18 379.43 481.24 C 372.05 487.01 364.30 492.30 356.78 497.88 C 359.71 506.69 362.62 515.52 365.33 524.41 C 357.60 519.20 350.22 513.50 342.61 508.11 C 335.07 513.63 327.57 519.22 319.87 524.53 C 322.75 515.64 325.57 506.73 328.55 497.87 C 320.95 492.30 313.25 486.86 305.70 481.22 C 315.12 481.21 324.53 481.21 333.94 481.23 C 336.79 472.32 339.71 463.45 342.59 454.56 Z"/>
  </g>
  <g id="#353535ff">
    <path fill="#353535" opacity="1.00" d=" M 250.98 247.55 C 257.00 247.70 263.01 247.18 269.03 247.29 C 269.12 248.85 269.20 250.42 269.28 251.99 C 265.08 251.97 260.88 251.97 256.70 252.26 C 256.70 255.45 256.70 258.64 256.71 261.83 C 260.62 261.63 264.53 261.50 268.45 261.54 C 268.44 263.10 268.44 264.66 268.44 266.22 C 264.63 266.20 260.82 266.17 257.02 266.40 C 256.99 269.68 257.00 272.96 257.00 276.25 C 261.48 276.34 265.97 276.40 270.44 275.99 C 270.44 277.53 270.45 279.09 270.46 280.64 C 264.24 281.17 257.98 280.83 251.75 281.22 C 251.41 270.00 251.29 258.77 250.98 247.55 Z"/>
    <path fill="#353535" opacity="1.00" d=" M 286.36 246.99 C 288.43 247.00 290.50 247.01 292.58 247.04 C 296.73 258.19 300.98 269.31 305.18 280.44 C 303.16 280.44 301.14 280.45 299.12 280.46 C 298.11 277.63 297.10 274.81 296.07 271.99 C 291.62 271.95 287.18 272.03 282.75 272.26 C 281.81 275.07 280.86 277.89 279.93 280.70 C 277.94 280.70 275.96 280.70 273.98 280.71 C 278.05 269.45 282.27 258.24 286.36 246.99 M 289.39 251.99 C 287.88 257.24 285.99 262.37 284.22 267.54 C 287.68 267.56 291.14 267.55 294.61 267.56 C 292.90 262.36 290.71 257.31 289.39 251.99 Z"/>
    <path fill="#353535" opacity="1.00" d=" M 311.29 247.00 C 313.91 247.00 316.52 247.00 319.14 247.00 C 322.43 255.89 326.04 264.67 329.09 273.65 C 332.36 264.74 336.38 256.13 339.89 247.32 C 342.42 247.43 344.96 247.55 347.50 247.60 C 347.13 258.73 347.17 269.86 347.00 281.00 C 345.18 281.00 343.37 280.99 341.56 281.00 C 341.56 271.69 341.71 262.37 342.03 253.06 C 338.58 262.40 334.49 271.49 330.76 280.72 C 329.45 280.70 328.16 280.68 326.86 280.66 C 323.39 271.05 319.18 261.71 316.09 251.97 C 316.32 261.48 316.31 270.99 315.96 280.50 C 314.30 280.47 312.65 280.44 311.00 280.43 C 310.80 269.28 311.51 258.15 311.29 247.00 Z"/>
    <path fill="#353535" opacity="1.00" d=" M 220.01 248.57 C 228.23 248.48 236.44 248.09 244.66 247.72 C 244.83 249.28 244.98 250.83 245.12 252.40 C 241.83 252.59 238.54 252.74 235.25 252.74 C 235.60 262.38 236.01 272.01 236.26 281.65 C 234.44 281.70 232.62 281.75 230.80 281.82 C 230.44 272.20 230.12 262.59 229.74 252.97 C 226.50 253.15 223.25 253.25 220.00 253.24 C 220.00 251.68 220.00 250.13 220.01 248.57 Z"/>
    <path fill="#353535" opacity="1.00" d=" M 358.82 249.82 C 363.77 246.63 370.09 247.32 375.50 248.81 C 375.41 250.60 375.31 252.40 375.23 254.21 C 371.60 252.24 366.98 251.26 363.13 253.14 C 360.60 254.20 360.19 257.95 362.34 259.60 C 366.13 262.58 371.22 263.83 374.28 267.78 C 377.27 271.27 376.61 277.18 372.85 279.85 C 367.42 283.46 360.38 282.33 354.58 280.30 C 354.55 278.36 354.53 276.42 354.48 274.48 C 358.37 277.01 363.38 278.67 367.90 276.89 C 370.63 275.87 371.18 271.83 368.93 270.02 C 365.26 266.93 360.15 265.85 357.03 262.05 C 353.94 258.48 354.74 252.31 358.82 249.82 Z"/>
    <path fill="#353535" opacity="1.00" d=" M 291.98 308.90 C 296.84 305.54 303.15 305.99 308.63 307.32 C 308.68 309.14 308.73 310.97 308.80 312.80 C 304.95 310.98 300.07 309.93 296.19 312.18 C 293.72 313.53 293.84 317.34 296.16 318.76 C 300.15 321.51 305.35 322.66 308.37 326.71 C 311.33 330.45 310.40 336.81 306.03 339.07 C 300.66 342.04 294.14 341.24 288.56 339.31 C 288.55 337.43 288.54 335.55 288.51 333.67 C 292.58 336.11 297.91 337.72 302.38 335.40 C 304.92 334.04 304.94 330.03 302.56 328.50 C 298.59 325.72 293.42 324.59 290.26 320.71 C 287.43 317.15 288.23 311.47 291.98 308.90 Z"/>
    <path fill="#353535" opacity="1.00" d=" M 259.95 307.27 C 261.77 307.29 263.60 307.31 265.42 307.36 C 265.40 318.47 265.98 329.58 266.12 340.69 C 264.09 340.70 262.07 340.72 260.05 340.76 C 254.13 332.04 247.97 323.47 242.33 314.57 C 242.56 323.43 242.80 332.30 243.03 341.16 C 241.24 341.22 239.45 341.29 237.66 341.37 C 237.56 330.17 236.99 318.98 236.96 307.78 C 239.09 307.78 241.22 307.78 243.36 307.78 C 249.21 316.32 255.05 324.88 260.75 333.53 C 260.35 324.78 260.35 316.02 259.95 307.27 Z"/>
    <path fill="#353535" opacity="1.00" d=" M 275.00 307.00 C 276.90 307.00 278.81 307.00 280.71 307.01 C 280.75 318.24 281.19 329.47 281.00 340.70 C 279.09 340.70 277.19 340.70 275.29 340.71 C 275.46 329.47 275.12 318.23 275.00 307.00 Z"/>
    <path fill="#353535" opacity="1.00" d=" M 314.30 307.00 C 322.54 306.95 330.77 306.97 339.00 307.34 C 339.00 308.91 338.99 310.48 339.00 312.06 C 335.82 311.97 332.65 311.73 329.48 311.64 C 328.91 321.32 329.45 331.02 328.96 340.71 C 327.15 340.70 325.35 340.70 323.55 340.70 C 323.47 331.03 323.96 321.37 323.78 311.70 C 320.61 311.70 317.45 311.70 314.29 311.71 C 314.29 310.13 314.29 308.56 314.30 307.00 Z"/>
    <path fill="#353535" opacity="1.00" d=" M 345.35 307.23 C 351.11 307.97 357.37 306.46 362.75 309.14 C 367.69 311.61 368.40 318.86 364.84 322.78 C 363.45 324.33 361.43 325.03 359.61 325.92 C 364.44 330.11 366.86 336.19 370.26 341.45 C 368.15 341.44 366.05 341.43 363.95 341.41 C 361.47 337.42 359.66 333.01 356.75 329.31 C 355.21 327.26 352.48 327.49 350.22 327.24 C 350.28 331.83 349.98 336.41 349.97 341.00 C 348.18 341.00 346.40 340.99 344.62 340.99 C 344.54 329.74 345.00 318.48 345.35 307.23 M 350.75 311.96 C 350.48 315.59 350.38 319.23 350.45 322.87 C 352.83 322.88 355.30 323.31 357.63 322.62 C 361.27 321.41 362.61 315.94 359.62 313.41 C 357.15 311.36 353.69 312.18 350.75 311.96 Z"/>
    <path fill="#353535" opacity="1.00" d=" M 221.74 308.38 C 223.63 308.24 225.52 308.08 227.42 307.94 C 227.60 319.20 228.36 330.44 228.49 341.70 C 226.59 341.70 224.69 341.70 222.80 341.71 C 222.73 330.59 221.89 319.49 221.74 308.38 Z"/>
    <path fill="#353535" opacity="1.00" d=" M 204.39 308.94 C 206.90 308.79 209.42 308.67 211.93 308.50 C 212.51 319.72 213.11 330.94 213.72 342.16 C 211.90 342.20 210.10 342.25 208.29 342.32 C 207.70 332.88 207.20 323.43 206.78 313.98 C 204.51 323.85 200.50 333.21 197.51 342.86 C 196.26 342.97 195.01 343.09 193.77 343.22 C 189.58 334.05 184.85 325.11 181.27 315.69 C 181.80 325.01 182.23 334.33 182.79 343.65 C 181.15 343.79 179.51 343.97 177.87 344.01 C 176.89 332.85 176.45 321.62 176.04 310.42 C 178.59 310.30 181.14 310.18 183.69 309.99 C 187.52 318.65 191.70 327.15 195.37 335.89 C 198.03 326.79 201.45 317.94 204.39 308.94 Z"/>
    <path fill="#353535" opacity="1.00" d=" M 385.37 308.51 C 387.49 308.57 389.61 308.66 391.73 308.79 C 395.30 320.13 399.06 331.41 402.67 342.75 C 400.67 342.70 398.67 342.65 396.67 342.57 C 395.77 339.68 394.90 336.78 394.00 333.89 C 389.57 333.65 385.15 333.47 380.72 333.33 C 379.65 336.15 378.54 338.96 377.45 341.78 C 375.46 341.67 373.47 341.53 371.49 341.41 C 376.10 330.44 380.83 319.51 385.37 308.51 M 388.21 313.57 C 386.46 318.77 384.28 323.81 382.38 328.95 C 385.83 328.96 389.28 329.16 392.73 329.37 C 391.25 324.10 389.42 318.92 388.21 313.57 Z"/>
    <path fill="#353535" opacity="1.00" d=" M 403.65 309.23 C 411.86 309.68 420.07 310.24 428.29 310.60 C 428.24 312.15 428.21 313.71 428.18 315.27 C 424.94 315.19 421.70 315.02 418.47 314.71 C 417.90 324.32 417.27 333.93 416.84 343.55 C 414.98 343.48 413.11 343.43 411.26 343.39 C 411.76 333.74 412.48 324.10 412.86 314.45 C 409.65 314.25 406.44 314.08 403.23 313.92 C 403.37 312.36 403.51 310.79 403.65 309.23 Z"/>
    <path fill="#353535" opacity="1.00" d=" M 441.27 312.10 C 446.45 311.08 452.44 311.73 456.40 315.54 C 463.08 321.69 462.76 332.75 458.05 339.98 C 451.85 349.26 435.59 348.04 430.95 337.86 C 426.59 328.61 430.37 314.55 441.27 312.10 M 441.31 317.41 C 434.78 320.92 433.49 330.20 436.55 336.44 C 439.61 342.70 449.57 343.19 453.30 337.36 C 456.09 332.66 456.59 326.48 454.30 321.49 C 452.09 316.82 445.80 315.16 441.31 317.41 Z"/>
    <path fill="#353535" opacity="1.00" d=" M 140.02 313.56 C 148.16 313.08 157.73 310.64 164.64 316.41 C 171.48 323.21 171.24 336.42 163.19 342.24 C 157.34 346.79 149.55 346.17 142.59 346.86 C 141.86 335.75 140.86 324.66 140.02 313.56 M 145.93 317.73 C 146.39 325.78 147.15 333.82 147.76 341.86 C 152.51 341.57 158.07 341.34 161.32 337.32 C 164.93 332.40 164.43 324.94 160.67 320.26 C 156.82 316.33 150.86 317.23 145.93 317.73 Z"/>
    <path fill="#353535" opacity="1.00" d=" M 470.37 314.29 C 476.06 315.25 482.28 314.52 487.49 317.36 C 492.22 320.11 492.62 327.21 488.91 330.96 C 487.45 332.67 485.21 333.26 483.18 333.98 C 487.70 338.54 489.57 344.86 492.63 350.37 C 490.47 350.14 488.33 349.91 486.19 349.65 C 484.16 345.41 482.60 340.91 480.00 336.98 C 478.66 334.90 475.94 335.02 473.82 334.51 C 473.32 339.10 472.88 343.71 472.35 348.30 C 470.53 348.06 468.72 347.84 466.91 347.61 C 468.07 336.50 469.30 325.40 470.37 314.29 M 475.37 319.35 C 475.05 322.99 474.63 326.63 474.24 330.27 C 476.69 330.42 479.20 331.07 481.63 330.49 C 485.45 329.42 487.05 323.72 483.82 321.12 C 481.40 319.37 478.19 319.70 475.37 319.35 Z"/>
    <path fill="#353535" opacity="1.00" d=" M 115.12 315.95 C 117.21 315.74 119.29 315.52 121.37 315.29 C 126.56 326.03 131.91 336.70 137.29 347.34 C 135.27 347.53 133.25 347.75 131.23 347.98 C 130.00 345.23 128.69 342.52 127.34 339.83 C 122.94 340.24 118.54 340.69 114.16 341.24 C 113.48 344.17 112.83 347.10 112.15 350.03 C 110.15 350.23 108.14 350.44 106.14 350.66 C 109.24 339.11 112.09 327.51 115.12 315.95 M 118.59 320.26 C 117.83 325.78 116.24 331.14 115.11 336.60 C 118.50 336.23 121.90 335.85 125.29 335.49 C 123.28 330.31 120.32 325.54 118.59 320.26 Z"/>
  </g>
  <g id="#0078c0ff">
    <path fill="#0078c0" opacity="1.00" d=" M 112.11 393.99 C 237.05 375.97 364.57 376.01 489.52 393.94 C 490.21 414.67 483.37 435.08 472.54 452.58 C 456.09 479.12 432.08 499.99 406.69 517.71 C 373.91 540.19 338.10 558.14 300.92 572.11 C 268.08 560.08 236.40 544.77 206.82 526.10 C 189.59 515.12 173.16 502.83 158.35 488.73 C 143.59 474.38 130.40 458.00 121.86 439.14 C 115.36 425.04 111.96 409.52 112.11 393.99 M 274.37 405.62 C 263.91 407.83 260.96 422.79 268.18 429.89 C 272.25 434.15 279.20 434.61 284.35 432.24 C 292.78 427.92 293.88 415.07 287.45 408.57 C 284.00 405.35 278.86 404.56 274.37 405.62 M 303.38 407.49 C 296.02 412.22 295.00 423.84 300.89 430.10 C 305.61 434.61 312.87 434.07 318.71 432.48 C 318.76 430.45 318.79 428.44 318.84 426.42 C 315.48 427.70 311.57 428.93 308.14 427.17 C 301.98 424.14 302.70 413.37 309.32 411.29 C 312.56 410.01 315.98 411.26 319.02 412.51 C 319.00 410.38 319.00 408.25 319.00 406.13 C 313.86 404.93 307.99 404.42 303.38 407.49 M 242.65 407.68 C 238.42 410.16 238.31 416.93 242.06 419.90 C 244.82 422.08 248.54 422.52 251.29 424.71 C 252.58 425.86 252.09 427.82 250.54 428.46 C 247.00 430.03 243.12 428.41 239.97 426.66 C 239.99 428.76 239.99 430.87 239.99 432.97 C 244.77 434.48 250.15 434.87 254.82 432.78 C 259.44 430.69 260.18 423.76 256.67 420.35 C 253.77 417.56 249.26 417.35 246.43 414.48 C 245.62 412.68 247.37 411.21 249.02 410.99 C 251.87 410.24 254.66 411.46 257.28 412.47 C 257.28 410.46 257.29 408.46 257.30 406.46 C 252.50 405.47 247.01 404.99 242.65 407.68 M 326.77 406.00 C 326.30 415.06 326.41 424.15 326.21 433.22 C 328.35 433.33 330.49 433.48 332.63 433.59 C 332.95 424.39 332.77 415.18 333.27 406.00 C 331.10 406.00 328.93 406.00 326.77 406.00 M 348.59 406.45 C 345.00 415.46 341.37 424.46 337.84 433.49 C 340.18 433.61 342.52 433.75 344.86 433.85 C 345.56 431.81 346.24 429.77 346.94 427.74 C 350.08 427.81 353.22 427.96 356.37 428.04 C 356.96 430.13 357.55 432.22 358.17 434.31 C 360.49 434.29 362.80 434.28 365.13 434.27 C 362.21 424.99 359.25 415.73 356.25 406.48 C 353.69 406.45 351.14 406.45 348.59 406.45 M 215.73 408.73 C 212.01 411.20 211.57 417.19 214.79 420.23 C 217.31 422.77 221.09 423.19 224.04 425.05 C 225.40 425.90 226.08 427.38 224.97 428.79 C 221.34 431.23 216.86 429.56 213.41 427.64 C 213.43 429.72 213.45 431.81 213.46 433.90 C 218.23 435.38 223.76 435.76 228.35 433.53 C 232.97 431.33 233.60 424.42 229.99 421.05 C 227.09 418.56 223.02 418.14 220.06 415.77 C 218.52 414.14 220.30 412.25 222.03 411.93 C 224.94 411.30 227.88 412.09 230.57 413.19 C 230.55 411.23 230.54 409.27 230.52 407.31 C 225.67 406.13 220.06 405.87 215.73 408.73 M 366.76 406.96 C 366.63 408.70 366.49 410.44 366.38 412.20 C 369.01 412.33 371.64 412.50 374.27 412.62 C 374.11 419.99 373.55 427.34 373.40 434.71 C 375.52 434.80 377.64 434.93 379.77 435.04 C 380.14 427.64 380.56 420.24 380.83 412.84 C 383.47 412.96 386.11 413.07 388.74 413.27 C 388.79 411.51 388.85 409.75 388.93 408.00 C 381.55 407.45 374.15 407.29 366.76 406.96 M 189.29 408.59 C 186.18 417.90 183.56 427.36 180.71 436.76 C 183.07 436.58 185.43 436.43 187.79 436.23 C 188.30 434.17 188.80 432.12 189.30 430.06 C 192.46 429.94 195.62 429.79 198.78 429.66 C 199.51 431.64 200.25 433.62 201.01 435.60 C 203.37 435.47 205.73 435.30 208.10 435.21 C 204.30 426.21 200.64 417.14 196.75 408.18 C 194.26 408.35 191.78 408.47 189.29 408.59 M 395.50 408.23 C 395.06 417.40 394.46 426.57 394.03 435.75 C 399.61 435.98 405.18 436.45 410.76 436.70 C 410.79 434.93 410.84 433.16 410.90 431.40 C 407.53 431.20 404.16 431.03 400.79 430.93 C 400.87 428.92 400.97 426.92 401.05 424.93 C 404.03 425.06 407.01 425.27 410.00 425.52 C 410.12 423.76 410.25 422.01 410.36 420.26 C 407.39 420.03 404.43 419.83 401.47 419.63 C 401.55 417.72 401.64 415.82 401.75 413.93 C 404.99 414.11 408.22 414.33 411.46 414.59 C 411.54 412.80 411.64 411.02 411.75 409.24 C 406.33 408.91 400.92 408.57 395.50 408.23 M 250.41 481.23 C 241.03 481.21 231.64 481.22 222.26 481.22 C 229.78 486.89 237.48 492.32 245.07 497.90 C 242.11 506.75 239.24 515.63 236.40 524.52 C 244.10 519.24 251.56 513.60 259.15 508.14 C 266.80 513.51 274.18 519.27 281.94 524.50 C 279.13 515.58 276.15 506.73 273.32 497.82 C 280.96 492.34 288.55 486.78 296.15 481.25 C 286.73 481.18 277.32 481.23 267.90 481.22 C 265.02 472.32 262.11 463.44 259.23 454.55 C 256.11 463.38 253.41 472.35 250.41 481.23 M 342.59 454.56 C 339.71 463.45 336.79 472.32 333.94 481.23 C 324.53 481.21 315.12 481.21 305.70 481.22 C 313.25 486.86 320.95 492.30 328.55 497.87 C 325.57 506.73 322.75 515.64 319.87 524.53 C 327.57 519.22 335.07 513.63 342.61 508.11 C 350.22 513.50 357.60 519.20 365.33 524.41 C 362.62 515.52 359.71 506.69 356.78 497.88 C 364.30 492.30 372.05 487.01 379.43 481.24 C 370.07 481.18 360.71 481.23 351.35 481.22 C 348.48 472.31 345.75 463.36 342.59 454.56 Z"/>
    <path fill="#0078c0" opacity="1.00" d=" M 275.30 411.40 C 279.10 409.35 283.78 412.28 284.32 416.37 C 285.72 420.95 283.81 428.05 278.07 428.04 C 269.96 427.98 268.62 414.64 275.30 411.40 Z"/>
    <path fill="#0078c0" opacity="1.00" d=" M 348.54 422.69 C 349.79 419.12 351.20 415.61 352.17 411.95 C 352.78 415.75 353.93 419.43 355.11 423.09 C 352.92 422.98 350.73 422.86 348.54 422.69 Z"/>
    <path fill="#0078c0" opacity="1.00" d=" M 190.44 425.08 C 191.36 421.38 192.46 417.73 193.17 413.99 C 194.13 417.64 195.54 421.15 196.97 424.64 C 194.79 424.78 192.62 424.94 190.44 425.08 Z"/>
  </g>
</svg>